<?xml version="1.0" encoding="UTF-8" standalone="no"?>
<svg
   xmlns:dc="http://purl.org/dc/elements/1.1/"
   xmlns:cc="http://creativecommons.org/ns#"
   xmlns:rdf="http://www.w3.org/1999/02/22-rdf-syntax-ns#"
   xmlns:svg="http://www.w3.org/2000/svg"
   xmlns="http://www.w3.org/2000/svg"
   xmlns:xlink="http://www.w3.org/1999/xlink"
   id="svg2"
   version="1.1"
   xml:space="preserve"
   width="946.22894"
   height="874.95911"
   viewBox="0 0 946.22894 874.95911"><metadata
     id="metadata8"><rdf:RDF><cc:Work
         rdf:about=""><dc:format>image/svg+xml</dc:format><dc:type
           rdf:resource="http://purl.org/dc/dcmitype/StillImage" /><dc:title></dc:title></cc:Work></rdf:RDF></metadata><defs
     id="defs6"><linearGradient
       id="linearGradient6749"><stop
         style="stop-color:#9676dd;stop-opacity:1;"
         offset="0"
         id="stop6751" /><stop
         style="stop-color:#9676dd;stop-opacity:0;"
         offset="1"
         id="stop6753" /></linearGradient><linearGradient
       id="linearGradient6741"><stop
         style="stop-color:#96ebdd;stop-opacity:1;"
         offset="0"
         id="stop6743" /><stop
         style="stop-color:#96ebdd;stop-opacity:0;"
         offset="1"
         id="stop6745" /></linearGradient><clipPath
       clipPathUnits="userSpaceOnUse"
       id="clipPath58"><path
         d="m 119,532.96728 45,0 0,40 -45,0 0,-40 z"
         id="path60" /></clipPath><mask
       maskUnits="userSpaceOnUse"
       x="0"
       y="0"
       width="1"
       height="1"
       id="mask62"><g
         id="g64"><g
           clip-path="url(#clipPath58)"
           id="g66"><path
             d="m 119,532.96728 45,0 0,40 -45,0 0,-40 z"
             style="fill:#000000;fill-opacity:0.222;fill-rule:nonzero;stroke:none"
             id="path68" /></g></g></mask><clipPath
       clipPathUnits="userSpaceOnUse"
       id="clipPath74"><path
         d="m 119,532.96728 45,0 0,40 -45,0 0,-40 z"
         id="path76" /></clipPath><clipPath
       clipPathUnits="userSpaceOnUse"
       id="clipPath78"><path
         d="m 119,533 45,0 0,40 -45,0 0,-40 z"
         id="path80" /></clipPath><clipPath
       clipPathUnits="userSpaceOnUse"
       id="clipPath220"><path
         d="m 180,553.96728 6,0 0,6 -6,0 0,-6 z"
         id="path222" /></clipPath><mask
       maskUnits="userSpaceOnUse"
       x="0"
       y="0"
       width="1"
       height="1"
       id="mask224"><g
         id="g226"><g
           clip-path="url(#clipPath220)"
           id="g228"><path
             d="m 180,553.96728 6,0 0,6 -6,0 0,-6 z"
             style="fill:#000000;fill-opacity:0.22000002;fill-rule:nonzero;stroke:none"
             id="path230" /></g></g></mask><clipPath
       clipPathUnits="userSpaceOnUse"
       id="clipPath236"><path
         d="m 180,553.96728 6,0 0,6 -6,0 0,-6 z"
         id="path238" /></clipPath><clipPath
       clipPathUnits="userSpaceOnUse"
       id="clipPath240"><path
         d="m 180,554 6,0 0,6 -6,0 0,-6 z"
         id="path242" /></clipPath><clipPath
       clipPathUnits="userSpaceOnUse"
       id="clipPath264"><path
         d="m 198,566.96728 6,0 0,6 -6,0 0,-6 z"
         id="path266" /></clipPath><mask
       maskUnits="userSpaceOnUse"
       x="0"
       y="0"
       width="1"
       height="1"
       id="mask268"><g
         id="g270"><g
           clip-path="url(#clipPath264)"
           id="g272"><path
             d="m 198,566.96728 6,0 0,6 -6,0 0,-6 z"
             style="fill:#000000;fill-opacity:0.22000002;fill-rule:nonzero;stroke:none"
             id="path274" /></g></g></mask><clipPath
       clipPathUnits="userSpaceOnUse"
       id="clipPath280"><path
         d="m 198,566.96728 6,0 0,6 -6,0 0,-6 z"
         id="path282" /></clipPath><clipPath
       clipPathUnits="userSpaceOnUse"
       id="clipPath284"><path
         d="m 198,567 6,0 0,6 -6,0 0,-6 z"
         id="path286" /></clipPath><clipPath
       clipPathUnits="userSpaceOnUse"
       id="clipPath308"><path
         d="m 219,553.96728 6,0 0,6 -6,0 0,-6 z"
         id="path310" /></clipPath><mask
       maskUnits="userSpaceOnUse"
       x="0"
       y="0"
       width="1"
       height="1"
       id="mask312"><g
         id="g314"><g
           clip-path="url(#clipPath308)"
           id="g316"><path
             d="m 219,553.96728 6,0 0,6 -6,0 0,-6 z"
             style="fill:#000000;fill-opacity:0.22000002;fill-rule:nonzero;stroke:none"
             id="path318" /></g></g></mask><clipPath
       clipPathUnits="userSpaceOnUse"
       id="clipPath324"><path
         d="m 219,553.96728 6,0 0,6 -6,0 0,-6 z"
         id="path326" /></clipPath><clipPath
       clipPathUnits="userSpaceOnUse"
       id="clipPath328"><path
         d="m 219,554 6,0 0,6 -6,0 0,-6 z"
         id="path330" /></clipPath><clipPath
       clipPathUnits="userSpaceOnUse"
       id="clipPath470"><path
         d="m 241,553.96728 5,0 0,6 -5,0 0,-6 z"
         id="path472" /></clipPath><mask
       maskUnits="userSpaceOnUse"
       x="0"
       y="0"
       width="1"
       height="1"
       id="mask474"><g
         id="g476"><g
           clip-path="url(#clipPath470)"
           id="g478"><path
             d="m 241,553.96728 5,0 0,6 -5,0 0,-6 z"
             style="fill:#000000;fill-opacity:0.28300003;fill-rule:nonzero;stroke:none"
             id="path480" /></g></g></mask><clipPath
       clipPathUnits="userSpaceOnUse"
       id="clipPath486"><path
         d="m 241,553.96728 5,0 0,6 -5,0 0,-6 z"
         id="path488" /></clipPath><clipPath
       clipPathUnits="userSpaceOnUse"
       id="clipPath490"><path
         d="m 241,554 5,0 0,6 -5,0 0,-6 z"
         id="path492" /></clipPath><clipPath
       clipPathUnits="userSpaceOnUse"
       id="clipPath514"><path
         d="m 259,566.96728 6,0 0,6 -6,0 0,-6 z"
         id="path516" /></clipPath><mask
       maskUnits="userSpaceOnUse"
       x="0"
       y="0"
       width="1"
       height="1"
       id="mask518"><g
         id="g520"><g
           clip-path="url(#clipPath514)"
           id="g522"><path
             d="m 259,566.96728 6,0 0,6 -6,0 0,-6 z"
             style="fill:#000000;fill-opacity:0.28300003;fill-rule:nonzero;stroke:none"
             id="path524" /></g></g></mask><clipPath
       clipPathUnits="userSpaceOnUse"
       id="clipPath530"><path
         d="m 259,566.96728 6,0 0,6 -6,0 0,-6 z"
         id="path532" /></clipPath><clipPath
       clipPathUnits="userSpaceOnUse"
       id="clipPath534"><path
         d="m 259,567 6,0 0,6 -6,0 0,-6 z"
         id="path536" /></clipPath><clipPath
       clipPathUnits="userSpaceOnUse"
       id="clipPath684"><path
         d="m 301,553.96728 6,0 0,6 -6,0 0,-6 z"
         id="path686" /></clipPath><mask
       maskUnits="userSpaceOnUse"
       x="0"
       y="0"
       width="1"
       height="1"
       id="mask688"><g
         id="g690"><g
           clip-path="url(#clipPath684)"
           id="g692"><path
             d="m 301,553.96728 6,0 0,6 -6,0 0,-6 z"
             style="fill:#000000;fill-opacity:0.23500001;fill-rule:nonzero;stroke:none"
             id="path694" /></g></g></mask><clipPath
       clipPathUnits="userSpaceOnUse"
       id="clipPath700"><path
         d="m 301,553.96728 6,0 0,6 -6,0 0,-6 z"
         id="path702" /></clipPath><clipPath
       clipPathUnits="userSpaceOnUse"
       id="clipPath704"><path
         d="m 301,554 6,0 0,6 -6,0 0,-6 z"
         id="path706" /></clipPath><clipPath
       clipPathUnits="userSpaceOnUse"
       id="clipPath728"><path
         d="m 320,566.96728 6,0 0,6 -6,0 0,-6 z"
         id="path730" /></clipPath><mask
       maskUnits="userSpaceOnUse"
       x="0"
       y="0"
       width="1"
       height="1"
       id="mask732"><g
         id="g734"><g
           clip-path="url(#clipPath728)"
           id="g736"><path
             d="m 320,566.96728 6,0 0,6 -6,0 0,-6 z"
             style="fill:#000000;fill-opacity:0.23500001;fill-rule:nonzero;stroke:none"
             id="path738" /></g></g></mask><clipPath
       clipPathUnits="userSpaceOnUse"
       id="clipPath744"><path
         d="m 320,566.96728 6,0 0,6 -6,0 0,-6 z"
         id="path746" /></clipPath><clipPath
       clipPathUnits="userSpaceOnUse"
       id="clipPath748"><path
         d="m 320,567 6,0 0,6 -6,0 0,-6 z"
         id="path750" /></clipPath><clipPath
       clipPathUnits="userSpaceOnUse"
       id="clipPath904"><path
         d="m 381,566.96728 6,0 0,6 -6,0 0,-6 z"
         id="path906" /></clipPath><mask
       maskUnits="userSpaceOnUse"
       x="0"
       y="0"
       width="1"
       height="1"
       id="mask908"><g
         id="g910"><g
           clip-path="url(#clipPath904)"
           id="g912"><path
             d="m 381,566.96728 6,0 0,6 -6,0 0,-6 z"
             style="fill:#000000;fill-opacity:0.222;fill-rule:nonzero;stroke:none"
             id="path914" /></g></g></mask><clipPath
       clipPathUnits="userSpaceOnUse"
       id="clipPath920"><path
         d="m 381,566.96728 6,0 0,6 -6,0 0,-6 z"
         id="path922" /></clipPath><clipPath
       clipPathUnits="userSpaceOnUse"
       id="clipPath924"><path
         d="m 381,567 6,0 0,6 -6,0 0,-6 z"
         id="path926" /></clipPath><clipPath
       clipPathUnits="userSpaceOnUse"
       id="clipPath1898"><path
         d="M 251.07,220.393 349.918,320.444 347.629,42.588 251.07,220.393 Z"
         id="path1900"
         style="clip-rule:evenodd" /></clipPath><clipPath
       clipPathUnits="userSpaceOnUse"
       id="clipPath1906"><path
         d="m 148.84325,783.46751 460.87941,0 0,164.70888 -460.87941,0 0,-164.70888 z"
         id="path1908" /></clipPath><linearGradient
       x1="268.80679"
       y1="816.74243"
       x2="269.02798"
       y2="792.29907"
       gradientUnits="userSpaceOnUse"
       spreadMethod="pad"
       id="linearGradient1910"><stop
         style="stop-opacity:1;stop-color:#ffffff"
         offset="0"
         id="stop1912" /><stop
         style="stop-opacity:0;stop-color:#ffffff"
         offset="1"
         id="stop1914" /></linearGradient><mask
       maskUnits="userSpaceOnUse"
       x="0"
       y="0"
       width="1"
       height="1"
       id="mask1916"><g
         id="g1918"><g
           clip-path="url(#clipPath1906)"
           id="g1920"><path
             d="m 148.84325,783.46751 460.87941,0 0,164.70888 -460.87941,0 0,-164.70888 z"
             style="fill:url(#linearGradient1910);stroke:none"
             id="path1922" /></g></g></mask><linearGradient
       x1="268.80679"
       y1="816.74243"
       x2="269.02798"
       y2="792.29907"
       gradientUnits="userSpaceOnUse"
       spreadMethod="pad"
       id="linearGradient1926"><stop
         style="stop-opacity:1;stop-color:#fbd63c"
         offset="0"
         id="stop1928" /><stop
         style="stop-opacity:1;stop-color:#fbd63c"
         offset="1"
         id="stop1930" /></linearGradient><clipPath
       clipPathUnits="userSpaceOnUse"
       id="clipPath1938"><path
         d="M 252.188,221.924 64.16,33.729 345.441,46.987 252.188,221.924 Z"
         id="path1940"
         style="clip-rule:evenodd" /></clipPath><clipPath
       clipPathUnits="userSpaceOnUse"
       id="clipPath1946"><path
         d="m 288.61479,633.69089 465.83511,0 0,314.44422 -465.83511,0 0,-314.44422 z"
         id="path1948" /></clipPath><linearGradient
       x1="517.04407"
       y1="698.65332"
       x2="517.04407"
       y2="656.08582"
       gradientUnits="userSpaceOnUse"
       spreadMethod="pad"
       id="linearGradient1950"><stop
         style="stop-opacity:1;stop-color:#ffffff"
         offset="0"
         id="stop1952" /><stop
         style="stop-opacity:0;stop-color:#ffffff"
         offset="1"
         id="stop1954" /></linearGradient><mask
       maskUnits="userSpaceOnUse"
       x="0"
       y="0"
       width="1"
       height="1"
       id="mask1956"><g
         id="g1958"><g
           clip-path="url(#clipPath1946)"
           id="g1960"><path
             d="m 288.61479,633.69089 465.83511,0 0,314.44422 -465.83511,0 0,-314.44422 z"
             style="fill:url(#linearGradient1950);stroke:none"
             id="path1962" /></g></g></mask><linearGradient
       x1="517.04407"
       y1="698.65332"
       x2="517.04407"
       y2="656.08582"
       gradientUnits="userSpaceOnUse"
       spreadMethod="pad"
       id="linearGradient1966"><stop
         style="stop-opacity:1;stop-color:#fbd63c"
         offset="0"
         id="stop1968" /><stop
         style="stop-opacity:1;stop-color:#fbd63c"
         offset="1"
         id="stop1970" /></linearGradient><clipPath
       clipPathUnits="userSpaceOnUse"
       id="clipPath1978"><path
         d="m 227.066,195.534 116.118,117.527 1.468,-117.457 -117.586,-0.07 z"
         id="path1980"
         style="clip-rule:evenodd" /></clipPath><clipPath
       clipPathUnits="userSpaceOnUse"
       id="clipPath1986"><path
         d="m 133.00102,818.0169 185.9375,0 0,184.375 -185.9375,0 0,-184.375 z"
         id="path1988" /></clipPath><linearGradient
       x1="257.59625"
       y1="956.98651"
       x2="258.48911"
       y2="999.84399"
       gradientUnits="userSpaceOnUse"
       spreadMethod="pad"
       id="linearGradient1990"><stop
         style="stop-opacity:1;stop-color:#ffffff"
         offset="0"
         id="stop1992" /><stop
         style="stop-opacity:0;stop-color:#ffffff"
         offset="1"
         id="stop1994" /></linearGradient><mask
       maskUnits="userSpaceOnUse"
       x="0"
       y="0"
       width="1"
       height="1"
       id="mask1996"><g
         id="g1998"><g
           clip-path="url(#clipPath1986)"
           id="g2000"><path
             d="m 133.00102,818.0169 185.9375,0 0,184.375 -185.9375,0 0,-184.375 z"
             style="fill:url(#linearGradient1990);stroke:none"
             id="path2002" /></g></g></mask><linearGradient
       x1="257.59625"
       y1="956.98651"
       x2="258.48911"
       y2="999.84399"
       gradientUnits="userSpaceOnUse"
       spreadMethod="pad"
       id="linearGradient2006"><stop
         style="stop-opacity:1;stop-color:#fba23c"
         offset="0"
         id="stop2008" /><stop
         style="stop-opacity:1;stop-color:#fba23c"
         offset="1"
         id="stop2010" /></linearGradient><clipPath
       clipPathUnits="userSpaceOnUse"
       id="clipPath2018"><path
         d="m 149.668,119.858 184.797,184.961 -184.797,0 0,-184.961 z"
         id="path2020"
         style="clip-rule:evenodd" /></clipPath><clipPath
       clipPathUnits="userSpaceOnUse"
       id="clipPath2026"><path
         d="m 442.46208,634.705 312.62753,0 0,314.86613 -312.62753,0 0,-314.86613 z"
         id="path2028" /></clipPath><linearGradient
       x1="517.04407"
       y1="698.65332"
       x2="517.04407"
       y2="656.08582"
       gradientUnits="userSpaceOnUse"
       spreadMethod="pad"
       id="linearGradient2030"><stop
         style="stop-opacity:1;stop-color:#ffffff"
         offset="0"
         id="stop2032" /><stop
         style="stop-opacity:0;stop-color:#ffffff"
         offset="1"
         id="stop2034" /></linearGradient><mask
       maskUnits="userSpaceOnUse"
       x="0"
       y="0"
       width="1"
       height="1"
       id="mask2036"><g
         id="g2038"><g
           clip-path="url(#clipPath2026)"
           id="g2040"><path
             d="m 442.46208,634.705 312.62753,0 0,314.86613 -312.62753,0 0,-314.86613 z"
             style="fill:url(#linearGradient2030);stroke:none"
             id="path2042" /></g></g></mask><linearGradient
       x1="517.04407"
       y1="698.65332"
       x2="517.04407"
       y2="656.08582"
       gradientUnits="userSpaceOnUse"
       spreadMethod="pad"
       id="linearGradient2046"><stop
         style="stop-opacity:1;stop-color:#85ff85"
         offset="0"
         id="stop2048" /><stop
         style="stop-opacity:1;stop-color:#97ff9a"
         offset="1"
         id="stop2050" /></linearGradient><clipPath
       clipPathUnits="userSpaceOnUse"
       id="clipPath2098"><path
         d="m 148,118.96729 2,0 0,184.99999 -2,0 0,-184.99999 z"
         id="path2100" /></clipPath><linearGradient
       x1="442.93658"
       y1="680.13422"
       x2="442.93658"
       y2="637.34454"
       gradientUnits="userSpaceOnUse"
       gradientTransform="matrix(0.594957,0,0,0.590727,-114.36163,20.281235)"
       spreadMethod="pad"
       id="linearGradient2102"><stop
         style="stop-opacity:1;stop-color:#ffffff"
         offset="0"
         id="stop2104" /><stop
         style="stop-opacity:0;stop-color:#ffffff"
         offset="1"
         id="stop2106" /></linearGradient><mask
       maskUnits="userSpaceOnUse"
       x="0"
       y="0"
       width="1"
       height="1"
       id="mask2108"><g
         id="g2110"><g
           clip-path="url(#clipPath2098)"
           id="g2112"><g
             id="g2114"><path
               d="m 0,0 756.98315,0 0,699.96728 L 0,699.96728 0,0 Z"
               style="fill:url(#linearGradient2102);fill-opacity:1;fill-rule:nonzero;stroke:none"
               id="path2116" /></g></g></g></mask><clipPath
       clipPathUnits="userSpaceOnUse"
       id="clipPath2122"><path
         d="m 148,118.96729 2,0 0,184.99999 -2,0 0,-184.99999 z"
         id="path2124" /></clipPath><linearGradient
       x1="442.93658"
       y1="680.13422"
       x2="442.93658"
       y2="637.34454"
       gradientUnits="userSpaceOnUse"
       gradientTransform="matrix(0.594957,0,0,-0.590727,-114.36163,679.68605)"
       spreadMethod="pad"
       id="linearGradient2126"><stop
         style="stop-opacity:1;stop-color:#000000"
         offset="0"
         id="stop2128" /><stop
         style="stop-opacity:1;stop-color:#000000"
         offset="1"
         id="stop2130" /></linearGradient><linearGradient
       x1="443.41681"
       y1="723.66406"
       x2="443.41681"
       y2="680.87439"
       gradientUnits="userSpaceOnUse"
       gradientTransform="matrix(0,0.594957,-0.590727,0,753.84602,-67.563684)"
       spreadMethod="pad"
       id="linearGradient2162"><stop
         style="stop-opacity:1;stop-color:#000000"
         offset="0"
         id="stop2164" /><stop
         style="stop-opacity:1;stop-color:#ffffff"
         offset="1"
         id="stop2166" /></linearGradient><clipPath
       clipPathUnits="userSpaceOnUse"
       id="clipPath2174"><path
         d="M 617.988,209.342 716.836,309.393 714.551,31.538 617.988,209.342 Z"
         id="path2176"
         style="clip-rule:evenodd" /></clipPath><clipPath
       clipPathUnits="userSpaceOnUse"
       id="clipPath2182"><path
         d="m 148.92965,783.33476 460.87942,0 0,166.37261 -460.87942,0 0,-166.37261 z"
         id="path2184" /></clipPath><linearGradient
       x1="268.80679"
       y1="816.74243"
       x2="269.02798"
       y2="792.29907"
       gradientUnits="userSpaceOnUse"
       spreadMethod="pad"
       id="linearGradient2186"><stop
         style="stop-opacity:1;stop-color:#ffffff"
         offset="0"
         id="stop2188" /><stop
         style="stop-opacity:0;stop-color:#ffffff"
         offset="1"
         id="stop2190" /></linearGradient><mask
       maskUnits="userSpaceOnUse"
       x="0"
       y="0"
       width="1"
       height="1"
       id="mask2192"><g
         id="g2194"><g
           clip-path="url(#clipPath2182)"
           id="g2196"><path
             d="m 148.92965,783.33476 460.87942,0 0,166.37261 -460.87942,0 0,-166.37261 z"
             style="fill:url(#linearGradient2186);stroke:none"
             id="path2198" /></g></g></mask><linearGradient
       x1="268.80679"
       y1="816.74243"
       x2="269.02798"
       y2="792.29907"
       gradientUnits="userSpaceOnUse"
       spreadMethod="pad"
       id="linearGradient2202"><stop
         style="stop-opacity:1;stop-color:#fbd63c"
         offset="0"
         id="stop2204" /><stop
         style="stop-opacity:1;stop-color:#fbd63c"
         offset="1"
         id="stop2206" /></linearGradient><clipPath
       clipPathUnits="userSpaceOnUse"
       id="clipPath2214"><path
         d="M 619.105,210.87 431.078,22.678 712.363,35.936 619.105,210.87 Z"
         id="path2216"
         style="clip-rule:evenodd" /></clipPath><clipPath
       clipPathUnits="userSpaceOnUse"
       id="clipPath2222"><path
         d="m 288.48309,633.77791 465.8351,0 0,314.44422 -465.8351,0 0,-314.44422 z"
         id="path2224" /></clipPath><linearGradient
       x1="517.04407"
       y1="698.65332"
       x2="517.04407"
       y2="656.08582"
       gradientUnits="userSpaceOnUse"
       spreadMethod="pad"
       id="linearGradient2226"><stop
         style="stop-opacity:1;stop-color:#ffffff"
         offset="0"
         id="stop2228" /><stop
         style="stop-opacity:0;stop-color:#ffffff"
         offset="1"
         id="stop2230" /></linearGradient><mask
       maskUnits="userSpaceOnUse"
       x="0"
       y="0"
       width="1"
       height="1"
       id="mask2232"><g
         id="g2234"><g
           clip-path="url(#clipPath2222)"
           id="g2236"><path
             d="m 288.48309,633.77791 465.8351,0 0,314.44422 -465.8351,0 0,-314.44422 z"
             style="fill:url(#linearGradient2226);stroke:none"
             id="path2238" /></g></g></mask><linearGradient
       x1="517.04407"
       y1="698.65332"
       x2="517.04407"
       y2="656.08582"
       gradientUnits="userSpaceOnUse"
       spreadMethod="pad"
       id="linearGradient2242"><stop
         style="stop-opacity:1;stop-color:#fbd63c"
         offset="0"
         id="stop2244" /><stop
         style="stop-opacity:1;stop-color:#fbd63c"
         offset="1"
         id="stop2246" /></linearGradient><clipPath
       clipPathUnits="userSpaceOnUse"
       id="clipPath2254"><path
         d="m 522.406,114.694 184.793,184.961 -184.793,0 0,-184.961 z"
         id="path2256"
         style="clip-rule:evenodd" /></clipPath><clipPath
       clipPathUnits="userSpaceOnUse"
       id="clipPath2262"><path
         d="m 442.90557,634.42882 312.62749,0 0,314.86605 -312.62749,0 0,-314.86605 z"
         id="path2264" /></clipPath><linearGradient
       x1="517.04407"
       y1="698.65332"
       x2="517.04407"
       y2="656.08582"
       gradientUnits="userSpaceOnUse"
       spreadMethod="pad"
       id="linearGradient2266"><stop
         style="stop-opacity:1;stop-color:#ffffff"
         offset="0"
         id="stop2268" /><stop
         style="stop-opacity:0;stop-color:#ffffff"
         offset="1"
         id="stop2270" /></linearGradient><mask
       maskUnits="userSpaceOnUse"
       x="0"
       y="0"
       width="1"
       height="1"
       id="mask2272"><g
         id="g2274"><g
           clip-path="url(#clipPath2262)"
           id="g2276"><path
             d="m 442.90557,634.42882 312.62749,0 0,314.86605 -312.62749,0 0,-314.86605 z"
             style="fill:url(#linearGradient2266);stroke:none"
             id="path2278" /></g></g></mask><linearGradient
       x1="517.04407"
       y1="698.65332"
       x2="517.04407"
       y2="656.08582"
       gradientUnits="userSpaceOnUse"
       spreadMethod="pad"
       id="linearGradient2282"><stop
         style="stop-opacity:1;stop-color:#85ff85"
         offset="0"
         id="stop2284" /><stop
         style="stop-opacity:1;stop-color:#97ff9a"
         offset="1"
         id="stop2286" /></linearGradient><linearGradient
       xlink:href="#linearGradient6741"
       id="linearGradient6747"
       x1="227.22818"
       y1="251.16986"
       x2="335.60698"
       y2="251.16986"
       gradientUnits="userSpaceOnUse"
       gradientTransform="matrix(1.3709249,0,0,-1.36,-27.477538,476.60237)" /><linearGradient
       xlink:href="#linearGradient6749"
       id="linearGradient6755"
       x1="234.33023"
       y1="217.6244"
       x2="148.17149"
       y2="304.68503"
       gradientUnits="userSpaceOnUse"
       gradientTransform="matrix(1.25,0,0,-1.25,0,454.95911)" /><linearGradient
       xlink:href="#linearGradient6749"
       id="linearGradient6759"
       gradientUnits="userSpaceOnUse"
       x1="234.33023"
       y1="217.6244"
       x2="148.17149"
       y2="304.68503"
       gradientTransform="matrix(1.25,0,0,-1.25,466,460.95911)" /></defs><g
     transform="matrix(1.25,0,0,-1.25,0,874.95911)"
     id="g1894"><g
       id="g1896"
       clip-path="url(#clipPath1898)"><g
         id="g1902"
         transform="matrix(0,0.605364,-0.60106,0,820.91136,-48.137124)"><g
           id="g1904" /><g
           id="g1924"
           mask="url(#mask1916)"><path
             d="M 251.07,220.393 349.918,320.444 347.629,42.588 251.07,220.393 Z"
             style="fill:url(#linearGradient1926);fill-rule:evenodd;stroke:none"
             id="path1932" /></g></g></g></g><g
     transform="matrix(1.25,0,0,-1.25,0,874.95911)"
     id="g1934"><g
       id="g1936"
       clip-path="url(#clipPath1938)"><g
         id="g1942"
         transform="matrix(-0.605364,0,0,0.60106,520.71713,-347.91927)"><g
           id="g1944" /><g
           id="g1964"
           mask="url(#mask1956)"><path
             d="M 252.188,221.924 64.16,33.729 345.441,46.987 252.188,221.924 Z"
             style="fill:url(#linearGradient1966);fill-rule:evenodd;stroke:none"
             id="path1972" /></g></g></g></g><g
     transform="matrix(1.25,0,0,-1.25,0,874.95911)"
     id="g1974"><g
       id="g1976"
       clip-path="url(#clipPath1978)"><g
         id="g1982"
         transform="matrix(0,-0.64,0.64,0,-296.53081,399.08794)"><g
           id="g1984" /><g
           id="g2004"
           mask="url(#mask1996)"><path
             d="m 227.066,195.534 116.118,117.527 1.468,-117.457 -117.586,-0.07 z"
             style="fill:url(#linearGradient2006);fill-rule:evenodd;stroke:none"
             id="path2012" /></g></g></g></g><g
     transform="matrix(1.25,0,0,-1.25,0,874.95911)"
     id="g2014"><g
       id="g2016"
       clip-path="url(#clipPath2018)"><g
         id="g2022"
         transform="matrix(0.594957,0,0,-0.590727,-114.246,679.90483)"><g
           id="g2024" /><g
           id="g2044"
           mask="url(#mask2036)"><path
             d="m 149.668,119.858 184.797,184.961 -184.797,0 0,-184.961 z"
             style="fill:url(#linearGradient2046);fill-rule:evenodd;stroke:none"
             id="path2052" /></g></g></g></g><g
     transform="matrix(1.25,0,0,-1.25,0,874.95911)"
     id="g2170"><g
       id="g2172"
       clip-path="url(#clipPath2174)"><g
         id="g2178"
         transform="matrix(0,0.605364,-0.60106,0,1187.8316,-59.189428)"><g
           id="g2180" /><g
           id="g2200"
           mask="url(#mask2192)"><path
             d="M 617.988,209.342 716.836,309.393 714.551,31.538 617.988,209.342 Z"
             style="fill:url(#linearGradient2202);fill-rule:evenodd;stroke:none"
             id="path2208" /></g></g></g></g><g
     transform="matrix(1.25,0,0,-1.25,0,874.95911)"
     id="g2210"><g
       id="g2212"
       clip-path="url(#clipPath2214)"><g
         id="g2218"
         transform="matrix(-0.605364,0,0,0.60106,887.6374,-358.97157)"><g
           id="g2220" /><g
           id="g2240"
           mask="url(#mask2232)"><path
             d="M 619.105,210.87 431.078,22.678 712.363,35.936 619.105,210.87 Z"
             style="fill:url(#linearGradient2242);fill-rule:evenodd;stroke:none"
             id="path2248" /></g></g></g></g><g
     transform="matrix(1.25,0,0,-1.25,0,874.95911)"
     id="g2250"><g
       id="g2252"
       clip-path="url(#clipPath2254)"><g
         id="g2258"
         transform="matrix(0.594957,0,0,-0.590727,258.49011,674.74176)"><g
           id="g2260" /><g
           id="g2280"
           mask="url(#mask2272)"><path
             d="m 522.406,114.694 184.793,184.961 -184.793,0 0,-184.961 z"
             style="fill:url(#linearGradient2282);fill-rule:evenodd;stroke:none"
             id="path2288" /></g></g></g></g><g
     id="g5792"
     transform="matrix(1.25,0,0,1.25,-760,1e-5)"
     style="fill:#1a1a1a;stroke-width:0.80000001;stroke-miterlimit:4;stroke-dasharray:none" /><g
     transform="translate(0,3)"
     id="g4770"><g
       transform="matrix(1.25,0,0,1.25,0,-420.00002)"
       id="g2054"><path
         id="path2056"
         style="fill:none;stroke:#ffffff;stroke-width:0.37724301;stroke-linecap:butt;stroke-linejoin:miter;stroke-miterlimit:4;stroke-dasharray:none;stroke-opacity:0.09428567"
         d="m 123.668,554.516 25.746,0" /></g><g
       transform="matrix(1.25,0,0,1.25,0,-420.00002)"
       id="g2058"><path
         id="path2060"
         style="fill:none;stroke:#ffffff;stroke-width:0.37724301;stroke-linecap:butt;stroke-linejoin:miter;stroke-miterlimit:4;stroke-dasharray:none;stroke-opacity:0.09428567"
         d="m 123.5,503.641 103.715,0" /></g><g
       transform="matrix(1.25,0,0,1.25,0,-420.00002)"
       id="g2062"><path
         id="path2064"
         style="fill:none;stroke:#ffffff;stroke-width:0.37724301;stroke-linecap:butt;stroke-linejoin:miter;stroke-miterlimit:4;stroke-dasharray:none;stroke-opacity:0.09428567"
         d="m 149.09,605.871 0,-25.785" /></g><g
       transform="matrix(1.25,0,0,1.25,0,-420.00002)"
       id="g2066"><path
         id="path2068"
         style="fill:none;stroke:#ffffff;stroke-width:0.88925803;stroke-linecap:butt;stroke-linejoin:miter;stroke-miterlimit:4;stroke-dasharray:none;stroke-opacity:1"
         d="m 107.773,605.906 239.239,0" /></g><g
       transform="matrix(-1.25,0,0,-1.25,0,-420.00002)"
       id="g2070"><path
         id="path2072"
         style="fill:#ffffff;fill-opacity:1;fill-rule:evenodd;stroke:#ffffff;stroke-width:0.88925803;stroke-linecap:butt;stroke-linejoin:miter;stroke-miterlimit:4;stroke-dasharray:none;stroke-opacity:1"
         d="m -338.117,-605.906 3.555,-3.559 -12.45,3.559 12.45,3.554 -3.555,-3.554 z" /></g><g
       transform="matrix(1.25,0,0,1.25,0,-420.00002)"
       id="g2074"><path
         id="path2076"
         style="fill:none;stroke:#ffffff;stroke-width:0.88925803;stroke-linecap:butt;stroke-linejoin:miter;stroke-miterlimit:4;stroke-dasharray:none;stroke-opacity:1"
         d="m 123.695,620.941 0,-230.531" /></g><g
       transform="matrix(0,1.25,-1.25,0,0,-420.00002)"
       id="g2078"><path
         id="path2080"
         style="fill:#ffffff;fill-opacity:1;fill-rule:evenodd;stroke:#ffffff;stroke-width:0.88925803;stroke-linecap:butt;stroke-linejoin:miter;stroke-miterlimit:4;stroke-dasharray:none;stroke-opacity:1"
         d="m 399.305,-123.695 3.554,-3.559 -12.449,3.559 12.449,3.558 -3.554,-3.558 z" /></g><g
       transform="matrix(1.25,0,0,1.25,0,-420.00002)"
       id="g2082"><path
         id="path2084"
         style="fill:none;stroke:#ffffff;stroke-width:0.88925803;stroke-linecap:butt;stroke-linejoin:miter;stroke-miterlimit:4;stroke-dasharray:none;stroke-opacity:1"
         d="m 60.062,669.449 278.7,-277.715" /></g><path
       id="path2086"
       style="fill:#ffffff;fill-opacity:1;fill-rule:nonzero;stroke:none"
       d="m 149.72625,326.22536 c -0.22375,0 -0.42875,0.0737 -0.625,0.215 -0.195,0.1325 -0.39,0.36625 -0.58625,0.70375 -0.195,0.34125 -0.35125,0.86875 -0.4675,1.58125 -0.1175,0.7175 -0.17625,1.5825 -0.17625,2.5975 0,3.00875 0.595,4.52125 1.79625,4.53125 0.1025,0 0.215,-0.0188 0.3325,-0.0587 0.1175,-0.0387 0.25375,-0.1025 0.41,-0.195 0.16625,-0.1025 0.3225,-0.26375 0.46875,-0.4875 0.14125,-0.235 0.25875,-0.51875 0.35125,-0.86 0.19625,-0.7275 0.29375,-1.92375 0.29375,-3.59375 0,-2.1875 -0.3425,-3.565 -1.01625,-4.14 -0.22375,-0.19625 -0.4825,-0.29375 -0.78125,-0.29375 z m -0.0775,10.235 c -0.69375,0 -1.285,-0.245 -1.7775,-0.7425 -0.46875,-0.46875 -0.84,-1.11375 -1.11375,-1.93375 -0.2725,-0.82 -0.41,-1.69875 -0.41,-2.63625 0,-1.665 0.3325,-2.99875 0.99625,-4.00375 0.67375,-1.01625 1.47,-1.52375 2.3825,-1.52375 0.845,0 1.5525,0.38 2.12875,1.1325 0.79125,1.045 1.1925,2.45125 1.1925,4.21875 0,0.97625 -0.1125,1.84625 -0.3325,2.5975 -0.225,0.7425 -0.5075,1.31875 -0.86,1.71875 -0.35125,0.39125 -0.7175,0.68375 -1.09375,0.87875 -0.38,0.19625 -0.75125,0.29375 -1.1125,0.29375 z" /><path
       id="path2088"
       style="fill:#ffffff;fill-opacity:1;fill-rule:nonzero;stroke:none"
       d="m 149.31625,204.75536 c -0.5075,0 -0.9075,0.1475 -1.19125,0.43 -0.2875,0.27375 -0.43,0.62 -0.43,1.035 0,0.3275 0.0788,0.635 0.235,0.91875 0.15625,0.2875 0.4875,0.595 0.99625,0.9175 l 0.54625,0.3325 c 0.9375,-0.68875 1.40625,-1.3775 1.40625,-2.07125 0,-0.43875 -0.13125,-0.81 -0.39,-1.1125 -0.25,-0.29875 -0.64,-0.45 -1.1725,-0.45 z m 2.77375,1.5825 c 0,0.4975 -0.23,0.9575 -0.68375,1.38625 -0.44375,0.42 -0.9325,0.7625 -1.465,1.03625 l 1.23125,0.74125 c 0.9075,0.5475 1.36625,1.3775 1.36625,2.48125 0,0.74125 -0.3075,1.435 -0.9175,2.07 -0.60125,0.625 -1.42625,0.9375 -2.48125,0.9375 -0.95125,0 -1.71375,-0.235 -2.285,-0.70375 -0.56125,-0.46875 -0.84,-1.1425 -0.84,-2.03125 0,-0.805 0.3375,-1.50375 1.01625,-2.08875 0.4,-0.3625 0.86875,-0.68375 1.40625,-0.9575 l -0.43,-0.2925 c -1.03,-0.635 -1.5525,-1.42625 -1.5625,-2.36375 0,-0.68875 0.27375,-1.26 0.82,-1.71875 0.5475,-0.45375 1.255,-0.68375 2.13,-0.68375 0.83,0 1.48875,0.205 1.9725,0.605 0.47875,0.40625 0.7225,0.9325 0.7225,1.5825 z m -2.91,8.0475 c 0.5325,0 1.015,-0.1475 1.445,-0.45 0.43,-0.2975 0.645,-0.83 0.645,-1.60125 0,-0.9375 -0.50875,-1.70875 -1.52375,-2.32375 l -0.82,-0.50875 c -0.655,0.445 -1.10875,0.91875 -1.3675,1.42625 -0.24875,0.4975 -0.37125,0.9375 -0.37125,1.3275 0,0.71875 0.205,1.25 0.625,1.6025 0.415,0.35125 0.86875,0.5275 1.3675,0.5275 z" /><path
       id="path2090"
       style="fill:#ffffff;fill-opacity:1;fill-rule:nonzero;stroke:none"
       d="m 183.52,342.85161 c 0,-0.58625 0.29375,-1.1425 0.88,-1.68 0.595,-0.5325 1.3525,-0.8 2.265,-0.8 0.79125,0 1.485,0.22375 2.07,0.66375 0.59625,0.44375 0.89875,1.10875 0.89875,1.9925 0,0.42 -0.0925,0.815 -0.27375,1.19125 -0.185,0.36625 -0.38,0.67375 -0.585,0.9175 -0.19625,0.235 -0.49875,0.5475 -0.89875,0.9375 l -1.7775,1.69875 c -0.86,0.875 -1.28875,1.5825 -1.28875,2.13 l 3.105,0 c 0.3225,0 0.57125,-0.1225 0.7425,-0.37125 0.18,-0.245 0.34125,-0.68375 0.4875,-1.30875 0.22,-0.0488 0.39125,-0.025 0.50875,0.0775 -0.015,0.82125 -0.15125,1.74875 -0.41,2.77375 -0.5375,-0.0288 -0.99125,-0.0387 -1.3675,-0.0387 l -3.06625,0 -1.465,0.0387 c 0,-0.55625 0.12625,-1.09875 0.39,-1.62125 0.27375,-0.5175 0.81125,-1.19125 1.62125,-2.01125 l 1.28875,-1.27 c 0.9625,-0.96125 1.43625,-1.9925 1.42625,-3.08625 0,-0.75125 -0.15625,-1.29375 -0.46875,-1.62 -0.3025,-0.3225 -0.65375,-0.48875 -1.055,-0.48875 -0.57625,0 -1.005,0.1125 -1.28875,0.3325 -0.2875,0.22375 -0.43,0.46375 -0.43,0.7225 0,0.0675 0.02,0.15125 0.0587,0.25375 0.0488,0.1075 0.0788,0.16625 0.0788,0.175 0.0487,0.15625 0.0775,0.28375 0.0775,0.37125 0,0.17125 -0.0975,0.3275 -0.2925,0.46875 -0.195,0.1475 -0.37125,0.215 -0.5275,0.215 -0.195,0 -0.36625,-0.0637 -0.5075,-0.195 -0.1325,-0.1275 -0.19625,-0.28375 -0.19625,-0.46875 z" /><path
       id="path2092"
       style="fill:#ffffff;fill-opacity:1;fill-rule:nonzero;stroke:none"
       d="m 232.32875,191.76286 4.21875,0 0,-14.59 -4.59,0.9175 0,-2.3625 4.57125,-0.91875 2.5975,0 0,16.95375 4.21875,0 0,2.1875 -11.01625,0 0,-2.1875 z" /><g
       transform="matrix(1.25,0,0,-1.25,0,454.95911)"
       id="g2094"><g
         id="g2096" /><g
         mask="url(#mask2108)"
         id="g2118"><g
           id="g2120" /><g
           id="g2132"><g
             id="g2134"
             clip-path="url(#clipPath2122)"><g
               id="g2136"><g
                 id="g2138"
                 transform="matrix(1,0,0,-1,0,699.96728)"><path
                   id="path2140"
                   style="fill:none;stroke:url(#linearGradient2126);stroke-width:1.139853;stroke-linecap:butt;stroke-linejoin:miter;stroke-miterlimit:4;stroke-dasharray:none;stroke-opacity:1"
                   d="m 149.195,580.812 0,-184.316" /></g></g></g></g></g></g><path
       id="path2142"
       style="fill:#ffffff;fill-opacity:1;fill-rule:nonzero;stroke:none"
       d="m 321.5575,276.94786 4.21875,0 0,-14.59 -4.59,0.91875 0,-2.36375 4.57,-0.9175 2.59875,0 0,16.9525 4.21875,0 0,2.1875 -11.01625,0 0,-2.1875 z" /><path
       id="path2144"
       style="fill:#ffffff;fill-opacity:1;fill-rule:nonzero;stroke:none"
       d="m 117.925,178.40786 c -1.32875,0 -2.33375,0.66 -3.0075,1.9725 -0.665,1.31875 -0.99625,3.29125 -0.99625,5.91875 0,2.63125 0.33125,4.60375 0.99625,5.9175 0.67375,1.30375 1.67875,1.95375 3.0075,1.95375 1.3375,0 2.34375,-0.65 3.0075,-1.95375 0.67375,-1.31375 1.01625,-3.28625 1.01625,-5.9175 0,-2.6275 -0.3425,-4.6 -1.01625,-5.91875 -0.66375,-1.3125 -1.67,-1.9725 -3.0075,-1.9725 z m 0,-2.05 c 2.14875,0 3.78875,0.85375 4.92125,2.55875 1.13375,1.69375 1.7,4.155 1.7,7.3825 0,3.2175 -0.56625,5.67875 -1.7,7.3825 -1.1325,1.69375 -2.7725,2.53875 -4.92125,2.53875 -2.13875,0 -3.77,-0.845 -4.9025,-2.53875 -1.1325,-1.70375 -1.69875,-4.165 -1.69875,-7.3825 0,-3.2275 0.56625,-5.68875 1.69875,-7.3825 1.1325,-1.705 2.76375,-2.55875 4.9025,-2.55875 z" /><g
       transform="matrix(1.25,0,0,1.25,0,-420.00002)"
       id="g2146"><path
         id="path2148"
         style="fill:none;stroke:#ffffff;stroke-width:0.63999999;stroke-linecap:butt;stroke-linejoin:miter;stroke-miterlimit:4;stroke-dasharray:none;stroke-opacity:1"
         d="m 148.93,603.363 0,4.684" /></g><g
       transform="matrix(1.25,0,0,1.25,0,-420.00002)"
       id="g2150"><path
         id="path2152"
         style="fill:none;stroke:#ffffff;stroke-width:0.63999999;stroke-linecap:butt;stroke-linejoin:miter;stroke-miterlimit:4;stroke-dasharray:none;stroke-opacity:1"
         d="m 122.164,503.398 3.719,0" /></g><path
       id="path2156"
       style="fill:#ffffff;fill-opacity:1;fill-rule:nonzero;stroke:none"
       d="m 363.71625,176.81661 9.0425,0 0,2.1875 -12.1675,0 0,-2.1875 c 0.98625,-1.01625 2.32875,-2.37375 4.0225,-4.0825 1.69,-1.71875 2.75875,-2.8225 3.20375,-3.32 0.83,-0.9225 1.41125,-1.70875 1.73875,-2.36375 0.32125,-0.64875 0.4875,-1.27875 0.4875,-1.89375 0,-1.02625 -0.36125,-1.86125 -1.07375,-2.5 -0.70375,-0.635 -1.63125,-0.9575 -2.77375,-0.9575 -0.82,0 -1.68,0.14625 -2.5775,0.43 -0.89875,0.27375 -1.86625,0.6975 -2.89125,1.26875 l 0,-2.61625 c 1.04,-0.415 2.01125,-0.7275 2.91,-0.9375 0.90875,-0.22 1.74375,-0.3325 2.5,-0.3325 1.9775,0 3.555,0.5025 4.72625,1.50375 1.1825,0.99125 1.7775,2.315 1.7775,3.965 0,0.78125 -0.15125,1.53375 -0.44875,2.24625 -0.28875,0.7025 -0.82,1.53375 -1.60125,2.48 -0.21,0.25 -0.88875,0.9675 -2.03125,2.14875 -1.1475,1.18625 -2.76375,2.8425 -4.84375,4.96125 z" /><g
       transform="matrix(1.25,0,0,-1.25,0,454.95911)"
       id="g2158"><g
         transform="matrix(1,0,0,-1,0,699.96728)"
         id="g2160"><path
           id="path2168"
           style="fill:none;stroke:url(#linearGradient2162);stroke-width:1.139853;stroke-linecap:butt;stroke-linejoin:miter;stroke-miterlimit:4;stroke-dasharray:none;stroke-opacity:1"
           d="m 225.312,503.973 126.719,0" /></g></g><path
       id="path2334"
       style="fill:#ffffff;fill-opacity:1;fill-rule:nonzero;stroke:none"
       d="m 410.825,342.85161 -1.875,7.695 c -0.24875,1.07 -0.37125,1.70875 -0.37125,1.91375 0,0.39125 0.1075,0.58625 0.3325,0.58625 0.18,0 0.48875,-0.16125 0.9175,-0.4875 0.43,-0.3375 0.85,-0.7425 1.27,-1.21125 0.39,0 0.64875,0.195 0.78125,0.58625 -1.64125,2.085 -3.20375,3.125 -4.6875,3.125 -0.835,0 -1.25,-0.37125 -1.25,-1.11375 0,-0.7125 0.185,-1.7475 0.56625,-3.105 l 0.37125,-1.30875 -0.0975,-0.0587 c -1.3675,1.9925 -2.53,3.4275 -3.47625,4.29625 -0.9375,0.86 -2.0225,1.29 -3.2425,1.29 -0.655,0 -1.19125,-0.225 -1.62125,-0.665 -0.42,-0.43875 -0.625,-1.1175 -0.625,-2.03125 0,-0.66375 0.1025,-1.415 0.3125,-2.265 l 1.48375,-5.66375 c 0.29875,-1.08 0.45,-1.71875 0.45,-1.915 0,-0.39 -0.1175,-0.585 -0.35125,-0.585 -0.17125,0 -0.49875,0.165 -0.9775,0.4875 -0.4825,0.3275 -0.9325,0.7225 -1.3475,1.19125 -0.38125,0 -0.635,-0.185 -0.76125,-0.56625 1.64,-2.095 3.34,-3.14375 5.0975,-3.14375 0.805,0 1.21125,0.38 1.21125,1.1325 0,0.17125 -0.235,1.20125 -0.70375,3.08625 l -1.465,5.5075 c -0.195,0.79625 -0.2925,1.51875 -0.2925,2.1675 0,0.835 0.33625,1.25 1.015,1.25 0.78125,0 1.6025,-0.5175 2.46125,-1.5625 0.86875,-1.04 1.9925,-2.73875 3.36,-5.0975 l 0.99625,-3.71125 c 0.0388,-0.165 0.1025,-0.47375 0.195,-0.9175 0.0875,-0.45375 0.16125,-0.78125 0.215,-0.97625 0.0487,-0.19625 0.18,-0.39125 0.39,-0.58625 0.205,-0.195 0.45375,-0.2925 0.7425,-0.2925 0.9475,0 1.42625,0.3075 1.42625,0.9175 0,0.1075 -0.035,0.2875 -0.0987,0.54625 -0.0537,0.25 -0.11625,0.5275 -0.195,0.84 -0.0775,0.30375 -0.13125,0.5175 -0.15625,0.645 z" /><path
       id="path2338"
       style="fill:#ffffff;fill-opacity:1;fill-rule:nonzero;stroke:none"
       d="m 143.19375,105.70786 0.13625,0.0975 c 0.39125,-0.3125 1.09375,-1.1575 2.11,-2.53875 0.43875,-0.57125 0.84875,-1.21625 1.23,-1.93375 0.39,-0.7125 0.7025,-1.42625 0.9375,-2.12875 0.24375,-0.70375 0.37125,-1.28875 0.37125,-1.7575 0,-0.635 -0.235,-1.31375 -0.70375,-2.03125 -0.13125,-0.18125 -0.195,-0.41 -0.195,-0.68375 0,-0.845 0.5275,-1.27 1.5825,-1.27 1.17125,0 1.7625,0.5375 1.7775,1.60125 0,0.9775 -0.30875,2.17875 -0.91875,3.59375 -0.15625,0.3525 -0.34125,0.72375 -0.54625,1.11375 -0.21,0.39125 -0.39125,0.7325 -0.5475,1.01625 -0.15625,0.2725 -0.36625,0.605 -0.625,0.995 -0.26375,0.39125 -0.44875,0.675 -0.56625,0.84 -0.1075,0.15625 -0.2875,0.42 -0.54625,0.78125 -0.25,0.3525 -0.38625,0.5475 -0.41125,0.58625 -0.75625,1.07 -1.69375,2.22625 -2.8125,3.47625 -0.74125,0.82125 -1.225,1.23125 -1.445,1.23125 -0.48375,0 -0.84875,-0.71375 -1.09375,-2.14875 l -1.425,-8.2425 c -0.225,-1.37625 -0.47875,-2.07 -0.7625,-2.07 -0.13125,0 -0.26875,0.03375 -0.41,0.0975 -0.14625,0.05375 -0.2875,0.1275 -0.43,0.215 -0.13125,0.0775 -0.2925,0.205 -0.4875,0.37125 -0.18625,0.15625 -0.3475,0.3025 -0.48875,0.43 -0.13125,0.13125 -0.3125,0.3075 -0.54625,0.52625 -0.1075,-0.0088 -0.19625,-0.02875 -0.27375,-0.0575 -0.0687,-0.04 -0.1325,-0.08375 -0.195,-0.1375 -0.0687,-0.06375 -0.1175,-0.12625 -0.15625,-0.195 -0.04,-0.06375 -0.0737,-0.13625 -0.0987,-0.215 0.635,-0.98625 1.3725,-1.865 2.2075,-2.63625 0.83,-0.78125 1.51375,-1.1725 2.05125,-1.1725 0.61,0 1.05375,0.3225 1.3275,0.9575 0.28375,0.625 0.5525,1.7725 0.80125,3.4375 l 1.1525,7.85125 z" /><path
       id="path6690"
       d="M 186.32569,298.25392 187.41423,75.201898 420.278,73.051823 186.26355,305.86447"
       style="opacity:0.48200001;fill:url(#linearGradient6755);fill-opacity:1;fill-rule:evenodd;stroke:none;stroke-width:0.4235954px;stroke-linecap:butt;stroke-linejoin:miter;stroke-miterlimit:4;stroke-dasharray:none;stroke-opacity:1" /><g
       id="g6686"
       transform="matrix(1.25,0,0,1.25,-466.15242,-426.61714)"><path
         d="m 521.934,585.977 0,-184.317"
         style="fill:none;stroke:#ffffff;stroke-width:1.139853;stroke-linecap:butt;stroke-linejoin:miter;stroke-miterlimit:4;stroke-dasharray:none;stroke-opacity:1"
         id="path6688" /></g><path
       id="path6739"
       d="M 432.03364,61.009847 284.03523,207.82886 432.61442,209.01288 Z"
       style="fill:url(#linearGradient6747);fill-opacity:1;fill-rule:evenodd;stroke:none;stroke-width:0.80000001px;stroke-linecap:butt;stroke-linejoin:miter;stroke-opacity:1" /><path
       style="opacity:0.7254902;fill:#19f524;fill-opacity:0.14743593;fill-rule:evenodd;stroke:none;stroke-width:0.4235954px;stroke-linecap:butt;stroke-linejoin:miter;stroke-miterlimit:4;stroke-dasharray:none;stroke-opacity:1"
       d="M 422.36232,84.343135 420.74733,415.27208 75.261275,418.46202 420.278,73.051822"
       id="path6763" /></g><g
     transform="translate(0,-5.7171763)"
     id="g4743"><g
       transform="matrix(1.25,0,0,1.25,0,-420.00002)"
       id="g2290"><path
         id="path2292"
         style="fill:none;stroke:#ffffff;stroke-width:0.88925803;stroke-linecap:butt;stroke-linejoin:miter;stroke-miterlimit:4;stroke-dasharray:none;stroke-opacity:1"
         d="m 480.512,611.07 239.234,0" /></g><g
       transform="matrix(-1.25,0,0,-1.25,0,-420.00002)"
       id="g2294"><path
         id="path2296"
         style="fill:#ffffff;fill-opacity:1;fill-rule:evenodd;stroke:#ffffff;stroke-width:0.88925803;stroke-linecap:butt;stroke-linejoin:miter;stroke-miterlimit:4;stroke-dasharray:none;stroke-opacity:1"
         d="m -710.855,-611.07 3.558,-3.559 -12.449,3.559 12.449,3.554 -3.558,-3.554 z" /></g><g
       transform="matrix(1.25,0,0,1.25,0,-420.00002)"
       id="g2298"><path
         id="path2300"
         style="fill:none;stroke:#ffffff;stroke-width:0.88925803;stroke-linecap:butt;stroke-linejoin:miter;stroke-miterlimit:4;stroke-dasharray:none;stroke-opacity:1"
         d="m 496.43,626.105 0,-230.531" /></g><g
       transform="matrix(0,1.25,-1.25,0,0,-420.00002)"
       id="g2302"><path
         id="path2304"
         style="fill:#ffffff;fill-opacity:1;fill-rule:evenodd;stroke:#ffffff;stroke-width:0.88925803;stroke-linecap:butt;stroke-linejoin:miter;stroke-miterlimit:4;stroke-dasharray:none;stroke-opacity:1"
         d="m 404.469,-496.43 3.554,-3.558 -12.449,3.558 12.449,3.555 -3.554,-3.555 z" /></g><g
       transform="matrix(1.25,0,0,1.25,0,-420.00002)"
       id="g2306"><path
         id="path2308"
         style="fill:none;stroke:#ffffff;stroke-width:0.88925803;stroke-linecap:butt;stroke-linejoin:miter;stroke-miterlimit:4;stroke-dasharray:none;stroke-opacity:1"
         d="M 432.801,674.613 711.496,396.895" /></g><path
       id="path2310"
       style="fill:#ffffff;fill-opacity:1;fill-rule:nonzero;stroke:none"
       d="m 615.645,332.68036 c -0.225,0 -0.43,0.0738 -0.625,0.215 -0.19625,0.1325 -0.39125,0.36625 -0.58625,0.70375 -0.195,0.34125 -0.35125,0.86875 -0.46875,1.58125 -0.1175,0.7175 -0.17625,1.5825 -0.17625,2.5975 0,3.00875 0.59625,4.5225 1.7975,4.53125 0.1025,0 0.215,-0.0187 0.33125,-0.0587 0.1175,-0.0387 0.255,-0.1025 0.41,-0.195 0.16625,-0.1025 0.3225,-0.26375 0.47,-0.4875 0.14125,-0.235 0.25875,-0.5175 0.35125,-0.86 0.195,-0.7275 0.2925,-1.92375 0.2925,-3.59375 0,-2.1875 -0.34125,-3.56375 -1.015,-4.14 -0.225,-0.19625 -0.48375,-0.29375 -0.78125,-0.29375 z m -0.0788,10.235 c -0.69375,0 -1.28375,-0.245 -1.7775,-0.7425 -0.46875,-0.46875 -0.84,-1.11375 -1.1125,-1.93375 -0.27375,-0.82 -0.41125,-1.69875 -0.41125,-2.63625 0,-1.665 0.3325,-2.99875 0.99625,-4.00375 0.67375,-1.01625 1.47,-1.52375 2.38375,-1.52375 0.84375,0 1.5525,0.38125 2.12875,1.1325 0.79125,1.045 1.19125,2.45125 1.19125,4.21875 0,0.97625 -0.1125,1.84625 -0.3325,2.5975 -0.22375,0.7425 -0.5075,1.31875 -0.85875,1.71875 -0.35125,0.39125 -0.7175,0.68375 -1.09375,0.87875 -0.38125,0.19625 -0.7525,0.29375 -1.11375,0.29375 z" /><path
       id="path2312"
       style="fill:#ffffff;fill-opacity:1;fill-rule:nonzero;stroke:none"
       d="m 698.2525,198.21286 4.21875,0 0,-14.59 -4.59,0.91875 0,-2.36375 4.57,-0.9175 2.5975,0 0,16.9525 4.21875,0 0,2.1875 -11.015,0 0,-2.1875 z" /><g
       transform="matrix(1.25,0,0,1.25,0,-420.00002)"
       id="g2314"><path
         id="path2316"
         style="fill:none;stroke:#ffffff;stroke-width:1.139853;stroke-linecap:butt;stroke-linejoin:miter;stroke-miterlimit:4;stroke-dasharray:none;stroke-opacity:1"
         d="m 521.934,585.977 0,-184.317" /></g><path
       id="path2318"
       style="fill:#ffffff;fill-opacity:1;fill-rule:nonzero;stroke:none"
       d="m 788.6375,274.47786 4.21875,0 0,-14.59 -4.59,0.9175 0,-2.3625 4.57125,-0.91875 2.5975,0 0,16.95375 4.21875,0 0,2.1875 -11.01625,0 0,-2.1875 z" /><path
       id="path2320"
       style="fill:#ffffff;fill-opacity:1;fill-rule:nonzero;stroke:none"
       d="m 583.8425,184.86286 c -1.3275,0 -2.33375,0.66 -3.0075,1.9725 -0.66375,1.31875 -0.99625,3.29125 -0.99625,5.91875 0,2.63125 0.3325,4.60375 0.99625,5.9175 0.67375,1.30375 1.68,1.95375 3.0075,1.95375 1.33875,0 2.34375,-0.65 3.0075,-1.95375 0.675,-1.31375 1.01625,-3.28625 1.01625,-5.9175 0,-2.6275 -0.34125,-4.6 -1.01625,-5.91875 -0.66375,-1.3125 -1.66875,-1.9725 -3.0075,-1.9725 z m 0,-2.05 c 2.14875,0 3.78875,0.85375 4.9225,2.55875 1.1325,1.69375 1.69875,4.155 1.69875,7.3825 0,3.2175 -0.56625,5.67875 -1.69875,7.3825 -1.13375,1.695 -2.77375,2.53875 -4.9225,2.53875 -2.13875,0 -3.76875,-0.84375 -4.9025,-2.53875 -1.1325,-1.70375 -1.69875,-4.165 -1.69875,-7.3825 0,-3.2275 0.56625,-5.68875 1.69875,-7.3825 1.13375,-1.705 2.76375,-2.55875 4.9025,-2.55875 z" /><g
       transform="matrix(1.25,0,0,1.25,0,-420.00002)"
       id="g2322"><path
         id="path2324"
         style="fill:none;stroke:#ffffff;stroke-width:0.37724301;stroke-linecap:butt;stroke-linejoin:miter;stroke-miterlimit:4;stroke-dasharray:none;stroke-opacity:0.09428567"
         d="m 521.98,611.152 0,-25.785" /></g><path
       id="path2326"
       style="fill:#ffffff;fill-opacity:1;fill-rule:nonzero;stroke:none"
       d="m 649.63375,349.45286 c 0,-0.58625 0.2925,-1.1425 0.87875,-1.68 0.59625,-0.53125 1.3525,-0.8 2.26625,-0.8 0.79,0 1.48375,0.225 2.07,0.66375 0.595,0.445 0.89875,1.10875 0.89875,1.9925 0,0.42 -0.0937,0.815 -0.27375,1.19125 -0.18625,0.36625 -0.38125,0.67375 -0.58625,0.9175 -0.195,0.235 -0.4975,0.5475 -0.89875,0.9375 l -1.77625,1.7 c -0.86,0.87375 -1.29,1.58125 -1.29,2.12875 l 3.10625,0 c 0.32125,0 0.57125,-0.1225 0.74125,-0.37125 0.18125,-0.24375 0.3425,-0.68375 0.48875,-1.30875 0.22,-0.0488 0.39125,-0.0238 0.5075,0.0787 -0.0137,0.82 -0.15125,1.7475 -0.41,2.7725 -0.5375,-0.0288 -0.99125,-0.0387 -1.3675,-0.0387 l -3.06625,0 -1.465,0.0387 c 0,-0.55625 0.1275,-1.09875 0.39125,-1.62125 0.27375,-0.5175 0.81,-1.19125 1.62125,-2.01125 l 1.28875,-1.27 c 0.9625,-0.96125 1.435,-1.99125 1.42625,-3.085 0,-0.7525 -0.15625,-1.29375 -0.46875,-1.62125 -0.30375,-0.3225 -0.655,-0.48875 -1.055,-0.48875 -0.57625,0 -1.00625,0.1125 -1.28875,0.3325 -0.28875,0.225 -0.43,0.46375 -0.43,0.7225 0,0.0688 0.02,0.15125 0.0588,0.25375 0.0487,0.1075 0.0775,0.16625 0.0775,0.17625 0.0488,0.15625 0.0788,0.2825 0.0788,0.37125 0,0.17 -0.0975,0.32625 -0.29375,0.46875 -0.195,0.14625 -0.37,0.21375 -0.52625,0.21375 -0.19625,0 -0.36625,-0.0625 -0.50875,-0.195 -0.13125,-0.12625 -0.195,-0.2825 -0.195,-0.46875 z" /><g
       transform="matrix(1.25,0,0,1.25,0,-420.00002)"
       id="g2328"><path
         id="path2330"
         style="fill:none;stroke:#ffffff;stroke-width:0.63999999;stroke-linecap:butt;stroke-linejoin:miter;stroke-miterlimit:4;stroke-dasharray:none;stroke-opacity:1"
         d="m 521.82,608.645 0,4.683" /></g><path
       id="path2336"
       style="fill:#ffffff;fill-opacity:1;fill-rule:nonzero;stroke:none"
       d="m 877.47125,350.59536 -1.875,7.69625 c -0.25,1.06875 -0.37125,1.70875 -0.37125,1.91375 0,0.39 0.1075,0.58625 0.33125,0.58625 0.18125,0 0.48875,-0.16125 0.91875,-0.48875 0.42875,-0.3375 0.84875,-0.7425 1.26875,-1.21125 0.39125,0 0.65,0.195 0.78125,0.58625 -1.64,2.085 -3.2025,3.125 -4.6875,3.125 -0.835,0 -1.25,-0.37125 -1.25,-1.11375 0,-0.7125 0.18625,-1.7475 0.56625,-3.105 l 0.37125,-1.30875 -0.0975,-0.0587 c -1.3675,1.9925 -2.52875,3.4275 -3.47625,4.2975 -0.9375,0.85875 -2.02125,1.28875 -3.2425,1.28875 -0.65375,0 -1.19125,-0.225 -1.62125,-0.66375 -0.42,-0.44 -0.625,-1.11875 -0.625,-2.03125 0,-0.665 0.1025,-1.41625 0.3125,-2.26625 l 1.485,-5.66375 c 0.2975,-1.07875 0.44875,-1.71875 0.44875,-1.91375 0,-0.39125 -0.1175,-0.58625 -0.35125,-0.58625 -0.17125,0 -0.4975,0.16625 -0.97625,0.48875 -0.48375,0.32625 -0.9325,0.7225 -1.3475,1.19125 -0.38125,0 -0.635,-0.18625 -0.7625,-0.56625 1.64125,-2.095 3.34,-3.145 5.0975,-3.145 0.80625,0 1.21125,0.38125 1.21125,1.1325 0,0.17125 -0.23375,1.20125 -0.7025,3.08625 l -1.465,5.5075 c -0.19625,0.79625 -0.29375,1.51875 -0.29375,2.16875 0,0.83375 0.3375,1.25 1.01625,1.25 0.78125,0 1.60125,-0.51875 2.46125,-1.5625 0.86875,-1.04125 1.99125,-2.74 3.35875,-5.09875 l 0.99625,-3.71 c 0.0388,-0.16625 0.1025,-0.47375 0.195,-0.91875 0.0888,-0.45375 0.16125,-0.78125 0.215,-0.97625 0.0487,-0.195 0.18125,-0.39 0.39125,-0.58625 0.205,-0.195 0.45375,-0.2925 0.74125,-0.2925 0.9475,0 1.42625,0.3075 1.42625,0.9175 0,0.1075 -0.0337,0.28875 -0.0975,0.5475 -0.0538,0.24875 -0.1175,0.5275 -0.195,0.84 -0.0788,0.3025 -0.1325,0.5175 -0.15625,0.64375 z" /><path
       id="path2340"
       style="fill:#ffffff;fill-opacity:1;fill-rule:nonzero;stroke:none"
       d="m 608.61375,107.70036 0.13625,0.0975 c 0.39,-0.3125 1.09375,-1.1575 2.11,-2.53875 0.43875,-0.57125 0.84875,-1.21625 1.23,-1.93375 0.39,-0.7125 0.7025,-1.42625 0.9375,-2.12875 0.24375,-0.70375 0.37125,-1.29 0.37125,-1.75875 0,-0.63375 -0.235,-1.3125 -0.70375,-2.03125 -0.13125,-0.18 -0.195,-0.41 -0.195,-0.6825 0,-0.845 0.5275,-1.27 1.5825,-1.27 1.17125,0 1.7625,0.5375 1.7775,1.60125 0,0.97625 -0.30875,2.1775 -0.91875,3.59375 -0.15625,0.35125 -0.34125,0.7225 -0.54625,1.11375 -0.21,0.39 -0.39125,0.7325 -0.5475,1.015 -0.15625,0.27375 -0.36625,0.60625 -0.625,0.99625 -0.26375,0.39125 -0.44875,0.67375 -0.56625,0.84 -0.1075,0.15625 -0.2875,0.42 -0.54625,0.78125 -0.25,0.35125 -0.38625,0.5475 -0.41125,0.58625 -0.75625,1.06875 -1.69375,2.22625 -2.8125,3.47625 -0.74125,0.82 -1.225,1.23 -1.445,1.23 -0.48375,0 -0.85,-0.7125 -1.09375,-2.1475 l -1.425,-8.2425 c -0.225,-1.3775 -0.47875,-2.07 -0.7625,-2.07 -0.13125,0 -0.26875,0.03375 -0.41,0.0975 -0.14625,0.05375 -0.2875,0.12625 -0.43,0.215 -0.13125,0.0775 -0.2925,0.205 -0.4875,0.37125 -0.18625,0.15625 -0.3475,0.3025 -0.48875,0.42875 -0.13125,0.1325 -0.3125,0.3075 -0.54625,0.5275 -0.1075,-0.01 -0.19625,-0.02875 -0.27375,-0.05875 -0.0687,-0.03875 -0.1325,-0.0825 -0.19625,-0.13625 -0.0675,-0.06375 -0.11625,-0.1275 -0.155,-0.195 -0.04,-0.06375 -0.0738,-0.1375 -0.0987,-0.215 0.635,-0.98625 1.3725,-1.865 2.2075,-2.6375 0.83,-0.78125 1.51375,-1.17125 2.05125,-1.17125 0.61,0 1.05375,0.3225 1.3275,0.9575 0.28375,0.625 0.5525,1.7725 0.80125,3.4375 l 1.1525,7.85125 z" /><path
       style="opacity:0.48200001;fill:url(#linearGradient6759);fill-opacity:1;fill-rule:evenodd;stroke:none;stroke-width:0.4235954px;stroke-linecap:butt;stroke-linejoin:miter;stroke-miterlimit:4;stroke-dasharray:none;stroke-opacity:1"
       d="M 652.32569,304.25392 653.41422,81.201898 886.278,79.051823 652.26355,311.86447"
       id="path6757" /><path
       id="path9681"
       d="m 888.36232,90.343135 -1.615,330.928955 -345.48605,3.18993 L 886.278,79.051822"
       style="opacity:0.7254902;fill:#19f524;fill-opacity:0.14743593;fill-rule:evenodd;stroke:none;stroke-width:0.4235954px;stroke-linecap:butt;stroke-linejoin:miter;stroke-miterlimit:4;stroke-dasharray:none;stroke-opacity:1" /></g></svg>