<?xml version="1.0" encoding="UTF-8" standalone="no"?>
<svg
   xmlns:dc="http://purl.org/dc/elements/1.1/"
   xmlns:cc="http://creativecommons.org/ns#"
   xmlns:rdf="http://www.w3.org/1999/02/22-rdf-syntax-ns#"
   xmlns:svg="http://www.w3.org/2000/svg"
   xmlns="http://www.w3.org/2000/svg"
   xmlns:sodipodi="http://sodipodi.sourceforge.net/DTD/sodipodi-0.dtd"
   xmlns:inkscape="http://www.inkscape.org/namespaces/inkscape"
   id="svg2"
   version="1.1"
   xml:space="preserve"
   width="370.39069"
   height="151.06648"
   viewBox="0 0 370.39069 151.06649"
   inkscape:version="0.91 r13725"
   sodipodi:docname="graph.svg"><sodipodi:namedview
     pagecolor="#ffffff"
     bordercolor="#666666"
     borderopacity="1"
     objecttolerance="10"
     gridtolerance="10"
     guidetolerance="10"
     inkscape:pageopacity="0"
     inkscape:pageshadow="2"
     inkscape:window-width="1639"
     inkscape:window-height="1005"
     id="namedview40"
     showgrid="false"
     inkscape:zoom="1.8304996"
     inkscape:cx="161.61442"
     inkscape:cy="98.410849"
     inkscape:window-x="41"
     inkscape:window-y="1"
     inkscape:window-maximized="1"
     inkscape:current-layer="svg2" /><metadata
     id="metadata8"><rdf:RDF><cc:Work
         rdf:about=""><dc:format>image/svg+xml</dc:format><dc:type
           rdf:resource="http://purl.org/dc/dcmitype/StillImage" /><dc:title /></cc:Work></rdf:RDF></metadata><defs
     id="defs6"><clipPath
       clipPathUnits="userSpaceOnUse"
       id="clipPath18"><path
         d="m 0,0 1024,0 0,768 L 0,768 0,0 Z"
         id="path20" /></clipPath></defs><g
     id="g12"
     transform="matrix(1.25,0,0,-1.25,-757.86254,318.66962)" /><path
     inkscape:connector-curvature="0"
     d="m 263.06796,77.362245 c -45.55007,0 -91.10016,0 -136.65025,0"
     style="fill:none;stroke:#000000;stroke-width:1.25;stroke-linecap:butt;stroke-linejoin:miter;stroke-miterlimit:4;stroke-dasharray:none;stroke-opacity:1"
     id="path42" /><path
     inkscape:connector-curvature="0"
     d="M 116.56966,75.148358 73.882785,15.799745"
     style="fill:none;stroke:#000000;stroke-width:1.25;stroke-linecap:butt;stroke-linejoin:miter;stroke-miterlimit:4;stroke-dasharray:none;stroke-opacity:1"
     id="path46" /><path
     inkscape:connector-curvature="0"
     d="M 116.64624,76.00462 73.80621,136.06456"
     style="fill:none;stroke:#000000;stroke-width:1.25;stroke-linecap:butt;stroke-linejoin:miter;stroke-miterlimit:4;stroke-dasharray:none;stroke-opacity:1"
     id="path50" /><path
     inkscape:connector-curvature="0"
     d="m 114.6296,77.362245 c -33.565165,0 -67.13034,0 -100.695515,0"
     style="fill:none;stroke:#000000;stroke-width:1.25;stroke-linecap:butt;stroke-linejoin:miter;stroke-miterlimit:4;stroke-dasharray:none;stroke-opacity:1"
     id="path54" /><path
     inkscape:connector-curvature="0"
     d="M 269.155,76.595957 307.55237,18.35212"
     style="fill:none;stroke:#000000;stroke-width:1.25;stroke-linecap:butt;stroke-linejoin:miter;stroke-miterlimit:4;stroke-dasharray:none;stroke-opacity:1"
     id="path58" /><path
     inkscape:connector-curvature="0"
     d="M 269.07867,78.552245 307.6287,137.51695"
     style="fill:none;stroke:#000000;stroke-width:1.25;stroke-linecap:butt;stroke-linejoin:miter;stroke-miterlimit:4;stroke-dasharray:none;stroke-opacity:1"
     id="path62" /><path
     inkscape:connector-curvature="0"
     d="m 268.85621,77.362245 c 28.53863,0 57.07724,0 85.61586,0"
     style="fill:none;stroke:#000000;stroke-width:1.25;stroke-linecap:butt;stroke-linejoin:miter;stroke-miterlimit:4;stroke-dasharray:none;stroke-opacity:1"
     id="path66" /><text
     style="font-variant:normal;font-weight:normal;font-size:35px;font-family:STIXGeneral;-inkscape-font-specification:STIXGeneral-Regular;writing-mode:lr-tb;fill:#000000;fill-opacity:1;fill-rule:nonzero;stroke:none;"
     id="text72"
     x="183.02431"
     y="73.268791"><tspan
       x="183.02431"
       y="73.268791"
       id="tspan74"
       style="fill:#000000;fill-opacity:1;">1</tspan></text>
<text
     style="font-variant:normal;font-weight:normal;font-size:35px;font-family:STIXGeneral;-inkscape-font-specification:STIXGeneral-Regular;writing-mode:lr-tb;fill:#000000;fill-opacity:1;fill-rule:nonzero;stroke:none;"
     id="text80"
     x="100.00665"
     y="126.41969"><tspan
       x="100.00665"
       y="126.41969"
       id="tspan82"
       style="fill:#000000;fill-opacity:1;">2</tspan></text>
<text
     style="font-variant:normal;font-weight:normal;font-size:35px;font-family:STIXGeneral;-inkscape-font-specification:STIXGeneral-Regular;writing-mode:lr-tb;fill:#000000;fill-opacity:1;fill-rule:nonzero;stroke:none;"
     id="text88"
     x="46.886986"
     y="73.233788"><tspan
       x="46.886986"
       y="73.233788"
       id="tspan90"
       style="fill:#000000;fill-opacity:1;">5</tspan></text>
<path
     inkscape:connector-curvature="0"
     id="path92"
     style="fill:none;fill-opacity:1;fill-rule:nonzero;stroke:none"
     d="m 52.315835,4.999245 25.093375,0 0,40.658125 -25.093375,0 0,-40.658125 z" /><text
     style="font-variant:normal;font-weight:normal;font-size:35px;font-family:STIXGeneral;-inkscape-font-specification:STIXGeneral-Regular;writing-mode:lr-tb;fill:#000000;fill-opacity:1;fill-rule:nonzero;stroke:none;"
     id="text96"
     x="100.04159"
     y="47.409855"><tspan
       x="100.04159"
       y="47.409855"
       id="tspan98"
       style="fill:#000000;fill-opacity:1;">8</tspan></text>
<text
     style="font-variant:normal;font-weight:normal;font-size:35px;font-family:STIXGeneral;-inkscape-font-specification:STIXGeneral-Regular;writing-mode:lr-tb;fill:#000000;fill-opacity:1;fill-rule:nonzero;stroke:none;"
     id="text104"
     x="265.88547"
     y="49.269825"><tspan
       x="265.88547"
       y="49.269825"
       id="tspan106"
       style="fill:#000000;fill-opacity:1;stroke:none;">7</tspan></text>
<text
     style="font-variant:normal;font-weight:normal;font-size:35px;font-family:STIXGeneral;-inkscape-font-specification:STIXGeneral-Regular;writing-mode:lr-tb;fill:#000000;fill-opacity:1;fill-rule:nonzero;stroke:none;"
     id="text112"
     x="302.27075"
     y="73.163788"><tspan
       x="302.27075"
       y="73.163788"
       id="tspan114"
       style="fill:#000000;fill-opacity:1;">6</tspan></text>
<text
     style="font-variant:normal;font-weight:normal;font-size:35px;font-family:STIXGeneral;-inkscape-font-specification:STIXGeneral-Regular;writing-mode:lr-tb;fill:#000000;fill-opacity:1;fill-rule:nonzero;stroke:none;"
     id="text120"
     x="265.53543"
     y="124.03467"><tspan
       x="265.53543"
       y="124.03467"
       id="tspan122"
       style="fill:#000000;fill-opacity:1;">9</tspan></text>
<path
     inkscape:connector-curvature="0"
     id="path30"
     style="fill:#dc3b26;fill-opacity:1;fill-rule:nonzero;stroke:#ffffff;stroke-width:3;stroke-miterlimit:4;stroke-dasharray:none;stroke-opacity:1"
     d="m 8.4176475,70.553133 c 3.7605995,-3.760588 9.8576875,-3.760588 13.6182755,0 3.760587,3.760537 3.760587,9.857637 0,13.618224 -3.760588,3.760588 -9.857675,3.760588 -13.6182755,0 -3.7605375,-3.760587 -3.7605375,-9.857687 0,-13.618224 z" /><path
     inkscape:connector-curvature="0"
     d="m 110.41765,70.553133 c 3.7606,-3.760588 9.85769,-3.760588 13.61827,0 3.76059,3.760537 3.76059,9.857637 0,13.618224 -3.76058,3.760588 -9.85767,3.760588 -13.61827,0 -3.76054,-3.760587 -3.76054,-9.857687 0,-13.618224 z"
     style="fill:#dc3b26;fill-opacity:1;fill-rule:nonzero;stroke:#ffffff;stroke-width:3;stroke-miterlimit:4;stroke-dasharray:none;stroke-opacity:1"
     id="path4206" /><path
     inkscape:connector-curvature="0"
     id="path4208"
     style="fill:#dc3b26;fill-opacity:1;fill-rule:nonzero;stroke:#ffffff;stroke-width:3;stroke-miterlimit:4;stroke-dasharray:none;stroke-opacity:1"
     d="m 260.41765,70.553133 c 3.7606,-3.760588 9.85769,-3.760588 13.61827,0 3.76059,3.760537 3.76059,9.857637 0,13.618224 -3.76058,3.760588 -9.85767,3.760588 -13.61827,0 -3.76054,-3.760587 -3.76054,-9.857687 0,-13.618224 z" /><path
     inkscape:connector-curvature="0"
     d="m 303.41765,130.62715 c 3.7606,-3.76059 9.85768,-3.76059 13.61827,0 3.76059,3.76053 3.76059,9.85763 0,13.61822 -3.76059,3.76059 -9.85767,3.76059 -13.61827,0 -3.76054,-3.76059 -3.76054,-9.85769 0,-13.61822 z"
     style="fill:#dc3b26;fill-opacity:1;fill-rule:nonzero;stroke:#ffffff;stroke-width:3;stroke-miterlimit:4;stroke-dasharray:none;stroke-opacity:1"
     id="path4210" /><path
     inkscape:connector-curvature="0"
     id="path4212"
     style="fill:#dc3b26;fill-opacity:1;fill-rule:nonzero;stroke:#ffffff;stroke-width:3;stroke-miterlimit:4;stroke-dasharray:none;stroke-opacity:1"
     d="m 348.41765,70.553133 c 3.7606,-3.760588 9.85768,-3.760588 13.61827,0 3.76059,3.760537 3.76059,9.857637 0,13.618224 -3.76059,3.760588 -9.85767,3.760588 -13.61827,0 -3.76054,-3.760587 -3.76054,-9.857687 0,-13.618224 z" /><path
     inkscape:connector-curvature="0"
     d="m 303.41765,7.5531325 c 3.7606,-3.7605875 9.85768,-3.7605875 13.61827,0 3.76059,3.7605375 3.76059,9.8576375 0,13.6182245 -3.76059,3.760588 -9.85767,3.760588 -13.61827,0 -3.76054,-3.760587 -3.76054,-9.857687 0,-13.6182245 z"
     style="fill:#dc3b26;fill-opacity:1;fill-rule:nonzero;stroke:#ffffff;stroke-width:3;stroke-miterlimit:4;stroke-dasharray:none;stroke-opacity:1"
     id="path4214" /><path
     inkscape:connector-curvature="0"
     id="path4216"
     style="fill:#dc3b26;fill-opacity:1;fill-rule:nonzero;stroke:#ffffff;stroke-width:3;stroke-miterlimit:4;stroke-dasharray:none;stroke-opacity:1"
     d="m 66.461285,7.5531325 c 3.7606,-3.7605875 9.857688,-3.7605875 13.618275,0 3.760588,3.7605375 3.760588,9.8576375 0,13.6182245 -3.760587,3.760588 -9.857662,3.760588 -13.618275,0 -3.760537,-3.760587 -3.760537,-9.857687 0,-13.6182245 z" /><path
     inkscape:connector-curvature="0"
     d="m 62.461297,130.62715 c 3.7606,-3.76059 9.857688,-3.76059 13.618276,0 3.760587,3.76053 3.760587,9.85763 0,13.61822 -3.760588,3.76059 -9.857675,3.76059 -13.618276,0 -3.760537,-3.76059 -3.760537,-9.85769 0,-13.61822 z"
     style="fill:#dc3b26;fill-opacity:1;fill-rule:nonzero;stroke:#ffffff;stroke-width:3;stroke-miterlimit:4;stroke-dasharray:none;stroke-opacity:1"
     id="path4218" /></svg>