<?xml version="1.0" encoding="UTF-8" standalone="no"?>
<svg
   xmlns:dc="http://purl.org/dc/elements/1.1/"
   xmlns:cc="http://creativecommons.org/ns#"
   xmlns:rdf="http://www.w3.org/1999/02/22-rdf-syntax-ns#"
   xmlns:svg="http://www.w3.org/2000/svg"
   xmlns="http://www.w3.org/2000/svg"
   viewBox="0 0 190 205.00001"
   height="205"
   width="190"
   xml:space="preserve"
   version="1.1"
   id="svg2"><metadata
     id="metadata8"><rdf:RDF><cc:Work
         rdf:about=""><dc:format>image/svg+xml</dc:format><dc:type
           rdf:resource="http://purl.org/dc/dcmitype/StillImage" /><dc:title></dc:title></cc:Work></rdf:RDF></metadata><defs
     id="defs6"><clipPath
       id="clipPath18"
       clipPathUnits="userSpaceOnUse"><path
         id="path20"
         d="m 0,0 595.276,0 0,841.89 L 0,841.89 0,0 Z" /></clipPath><clipPath
       id="clipPath34"
       clipPathUnits="userSpaceOnUse"><path
         id="path36"
         d="m 96.41016,577.019 355.0601,0 0,180.5577 -355.0601,0 0,-180.5577 z" /></clipPath><clipPath
       id="clipPath54"
       clipPathUnits="userSpaceOnUse"><path
         id="path56"
         d="m 244.9795,744.7178 6.14655,0 0,10.24425 -6.14655,0 0,-10.24425 z" /></clipPath><clipPath
       id="clipPath68"
       clipPathUnits="userSpaceOnUse"><path
         id="path70"
         d="m 96.41016,577.019 355.0601,0 0,180.5577 -355.0601,0 0,-180.5577 z" /></clipPath><clipPath
       id="clipPath108"
       clipPathUnits="userSpaceOnUse"><path
         id="path110"
         d="m 241.2916,590.2345 9.01494,0 0,7.37586 -9.01494,0 0,-7.37586 z" /></clipPath><clipPath
       id="clipPath128"
       clipPathUnits="userSpaceOnUse"><path
         id="path130"
         d="m 241.2916,606.6253 9.01494,0 0,7.37586 -9.01494,0 0,-7.37586 z" /></clipPath><clipPath
       id="clipPath148"
       clipPathUnits="userSpaceOnUse"><path
         id="path150"
         d="m 241.2916,629.5724 9.01494,0 0,7.37586 -9.01494,0 0,-7.37586 z" /></clipPath><clipPath
       id="clipPath168"
       clipPathUnits="userSpaceOnUse"><path
         id="path170"
         d="m 241.2916,654.5684 9.01494,0 0,6.96609 -9.01494,0 0,-6.96609 z" /></clipPath><clipPath
       id="clipPath188"
       clipPathUnits="userSpaceOnUse"><path
         id="path190"
         d="m 240.8818,682.4327 9.01494,0 0,7.78563 -9.01494,0 0,-7.78563 z" /></clipPath><clipPath
       id="clipPath208"
       clipPathUnits="userSpaceOnUse"><path
         id="path210"
         d="m 241.7013,715.6241 9.01494,0 0,7.37586 -9.01494,0 0,-7.37586 z" /></clipPath><clipPath
       id="clipPath228"
       clipPathUnits="userSpaceOnUse"><path
         id="path230"
         d="m 120.4381,617.1224 c -1.7321,23.4072 -6.349,47.5005 2.0382,69.3666 2.4705,6.4408 6.0019,12.3497 10.1676,17.7255 10.0578,12.979 24.4055,22.6426 39.7563,19.5894 34.4387,-6.8501 31.8457,-53.8118 34.7874,-93.0706 0.4942,-6.5961 -0.3282,-13.8601 -5.8183,-14.8468 -4.8394,-0.87 -8.5199,4.3251 -8.5101,10.193 0.0303,17.8316 5.6737,42.9525 -8.7056,37.0244 -7.2988,-3.0094 -4.0632,-14.0289 -8.7719,-19.6083 -3.388,-4.015 -9.262,-4.1633 -13.4478,-0.8257 -7.6234,6.0785 -2.6685,18.2942 1.1149,29.6149 2.7836,8.3277 3.1467,17.4533 -5.3454,19.5435 -8.2188,2.0227 -12.3177,-6.4825 -14.2965,-16.092 -1.6243,-7.8869 -6.0338,-17.2419 -3.9243,-27.5599 1.5555,-7.6074 3.5264,-14.8493 4.9414,-21.8682 3.5556,-17.6382 -7.3787,-30.8315 -17.9033,-25.0021 -5.0975,2.8229 -5.6314,9.7185 -6.0826,15.8163 z" /></clipPath><linearGradient
       id="linearGradient240"
       spreadMethod="pad"
       gradientTransform="matrix(-0.03788172,-1.360495,-1.361824,0.03784472,166.2455,735.5477)"
       gradientUnits="userSpaceOnUse"
       y2="0"
       x2="100"
       y1="0"
       x1="0"><stop
         id="stop242"
         offset="0"
         style="stop-opacity:1;stop-color:#185af9" /><stop
         id="stop244"
         offset="1"
         style="stop-opacity:1;stop-color:#00bebc" /></linearGradient><clipPath
       id="clipPath252"
       clipPathUnits="userSpaceOnUse"><path
         id="path254"
         d="m 96.41016,577.019 355.0601,0 0,180.5577 -355.0601,0 0,-180.5577 z" /></clipPath><clipPath
       id="clipPath368"
       clipPathUnits="userSpaceOnUse"><path
         id="path370"
         d="m 277.4091,579.0838 3.27816,0 0,169.0826 -3.27816,0 0,-169.0826 z" /></clipPath><clipPath
       id="clipPath382"
       clipPathUnits="userSpaceOnUse"><path
         id="path384"
         d="m 278.5491,578.0229 171.531,0 0,3.27816 -171.531,0 0,-3.27816 z" /></clipPath><clipPath
       id="clipPath396"
       clipPathUnits="userSpaceOnUse"><path
         id="path398"
         d="m 278.8117,579.4428 162.707,0 0,161.6916 -162.707,0 0,-161.6916 z" /></clipPath><clipPath
       id="clipPath406"
       clipPathUnits="userSpaceOnUse"><path
         id="path408"
         d="m 96.41016,577.019 355.0601,0 0,180.5577 -355.0601,0 0,-180.5577 z" /></clipPath><clipPath
       id="clipPath426"
       clipPathUnits="userSpaceOnUse"><path
         id="path428"
         d="m 0,0 595.276,0 0,841.89 L 0,841.89 0,0 Z" /></clipPath></defs><g
     transform="matrix(1.25,0,0,-1.25,-96.965212,925.75024)"
     id="g10"><g
       id="g12" /><path
       id="path42"
       style="fill:#a7aaa9;fill-opacity:1;fill-rule:nonzero;stroke:none"
       d="m 78.585699,578.63 139.346401,0.2872 -23.2872,40.5673 -92.6208,0 L 78.585699,578.63 Z" /><path
       d="m 222.872,576.0488 0,158.54821 0,0.44255"
       style="fill:#000000;stroke:#000000;stroke-width:0.81954002;stroke-linecap:butt;stroke-linejoin:miter;stroke-miterlimit:4;stroke-dasharray:none;stroke-opacity:1"
       id="path46" /><path
       id="path48"
       style="fill:#000000;fill-opacity:1;fill-rule:nonzero;stroke:none"
       d="m 224.8389,734.6298 -1.9669,3.9338 -1.9669,-3.9338 3.9338,0 z" /><g
       transform="translate(0,-1.6)"
       id="g204" /><g
       transform="translate(-17.600001,-6.4000004)"
       id="g224"><g
         clip-path="url(#clipPath228)"
         id="g226"><g
           id="g232"><g
             id="g238"><path
               id="path246"
               style="fill:url(#linearGradient240);stroke:none"
               d="m 96.41016,577.019 355.0601,0 0,180.5577 -355.0601,0 0,-180.5577 z" /></g></g></g></g><g
       transform="translate(0,1.6000001)"
       id="g248"><g
         id="g256"
         transform="matrix(0.40977,0,0,-0.40977,102.8382,609.1226)"><path
           d="m 0,0 c -4.227,-57.122 -15.494,-115.919 4.974,-169.281 6.028,-15.718 14.647,-30.139 24.812,-43.257 24.546,-31.675 59.56,-55.258 97.022,-47.806 84.044,16.717 77.716,131.321 84.895,227.128 1.206,16.098 -0.802,33.824 -14.199,36.232 -11.81,2.123 -20.792,-10.554 -20.768,-24.874 0.074,-43.517 13.846,-104.821 -21.245,-90.354 -17.812,7.343 -9.916,34.236 -21.407,47.852 -8.268,9.798 -22.603,10.159 -32.818,2.014 -18.604,-14.833 -6.512,-44.645 2.721,-72.271 6.793,-20.324 7.679,-42.594 -13.045,-47.694 -20.058,-4.936 -30.06,15.82 -34.889,39.271 -3.964,19.246 -14.726,42.076 -9.577,67.256 3.795,18.566 8.606,36.239 12.059,53.368 C 67.212,20.628 40.528,52.824 14.844,38.599 2.404,31.709 1.101,14.881 0,0 Z"
           style="fill:none;stroke:#000000;stroke-width:1;stroke-linecap:butt;stroke-linejoin:miter;stroke-miterlimit:4;stroke-dasharray:none;stroke-opacity:1"
           id="path258" /></g><g
         id="g260"
         transform="matrix(0.40977,0,0,-0.40977,105.1149,597.4684)"><path
           d="M 0,0 C 1.799,2.985 10.627,2.271 17.894,2.425 28.987,2.66 41.995,3.438 41.228,-0.718 40.671,-3.73 31.898,-3.789 24.474,-4.097 11.332,-4.642 -2.539,-4.214 0,0 Z"
           style="fill:none;stroke:#000000;stroke-width:1;stroke-linecap:butt;stroke-linejoin:miter;stroke-miterlimit:4;stroke-dasharray:6, 6;stroke-dashoffset:0;stroke-opacity:1"
           id="path262" /></g><g
         id="g264"
         transform="matrix(0.40977,0,0,-0.40977,102.4432,617.067)"><path
           d="M 0,0 C -0.599,11.897 15.15,13.533 29.609,12.686 45.385,11.762 61.82,7.405 58.867,-4.827 56.276,-15.557 41.442,-13.183 28.742,-12.227 15.897,-11.259 0.588,-11.673 0,0 Z"
           style="fill:none;stroke:#000000;stroke-width:1;stroke-linecap:butt;stroke-linejoin:miter;stroke-miterlimit:4;stroke-dasharray:6, 6;stroke-dashoffset:0;stroke-opacity:1"
           id="path266" /></g><g
         id="g268"
         transform="matrix(0.40977,0,0,-0.40977,175.6003,621.027)"><path
           d="M 0,0 C -0.73,1.777 1.084,3.233 2.914,4.189 11.43,8.639 21.475,6.161 29.601,3.89 31.863,3.258 33.981,1.042 33.42,-1.165 32.832,-3.482 29.926,-3.617 27.317,-3.59 19.261,-3.506 10.222,-4.201 3.036,-2.079 1.787,-1.71 0.489,-1.191 0,0 Z"
           style="fill:none;stroke:#000000;stroke-width:1;stroke-linecap:butt;stroke-linejoin:miter;stroke-miterlimit:4;stroke-dasharray:6, 6;stroke-dashoffset:0;stroke-opacity:1"
           id="path270" /></g><g
         id="g272"
         transform="matrix(0.40977,0,0,-0.40977,100.864,639.5388)"><path
           d="M 0,0 C 1.201,9.541 13.746,8.467 24.577,7.884 37.378,7.195 51.724,5.754 50.088,-4.79 48.669,-13.936 36.439,-12.798 25.9,-12.262 13.154,-11.613 -1.344,-10.678 0,0 Z"
           style="fill:none;stroke:#000000;stroke-width:1;stroke-linecap:butt;stroke-linejoin:miter;stroke-miterlimit:4;stroke-dasharray:6, 6;stroke-dashoffset:0;stroke-opacity:1"
           id="path274" /></g><g
         id="g276"
         transform="matrix(0.40977,0,0,-0.40977,140.6552,641.9438)"><path
           d="M 0,0 C -0.641,3.591 2.702,4.972 6.563,5.672 17.685,7.687 30.637,7.893 42.572,5.272 45.113,4.714 47.797,3.695 47.88,1.281 47.973,-1.383 44.946,-2.638 41.977,-2.969 30.786,-4.217 19.381,-3.186 8.249,-3.765 4.518,-3.96 0.585,-3.281 0,0 Z"
           style="fill:none;stroke:#000000;stroke-width:1;stroke-linecap:butt;stroke-linejoin:miter;stroke-miterlimit:4;stroke-dasharray:6, 6;stroke-dashoffset:0;stroke-opacity:1"
           id="path278" /></g><g
         id="g280"
         transform="matrix(0.40977,0,0,-0.40977,176.6535,641.8762)"><path
           d="M 0,0 C 0.313,1.065 1.464,1.538 2.625,1.823 9.71,3.564 17.51,2.175 24.51,0.417 26.36,-0.048 28.016,-0.872 27.899,-2.497 27.797,-3.924 26.318,-4.726 24.74,-5.166 17.419,-7.206 9.056,-6.87 2.371,-3.404 0.838,-2.609 -0.414,-1.406 0,0 Z"
           style="fill:none;stroke:#000000;stroke-width:1;stroke-linecap:butt;stroke-linejoin:miter;stroke-miterlimit:4;stroke-dasharray:6, 6;stroke-dashoffset:0;stroke-opacity:1"
           id="path282" /></g><g
         id="g284"
         transform="matrix(0.40977,0,0,-0.40977,101.0424,662.8081)"><path
           d="M 0,0 C 0.286,3.653 3.296,5.72 6.788,7.093 17.812,11.431 32.772,13.35 46.763,8.32 51.498,6.617 56.48,4.028 56.469,-0.767 56.46,-4.35 53.902,-6.125 50.902,-7.853 38.322,-15.101 23.105,-14.037 9.269,-9.427 4.368,-7.795 -0.375,-4.791 0,0 Z"
           style="fill:none;stroke:#000000;stroke-width:1;stroke-linecap:butt;stroke-linejoin:miter;stroke-miterlimit:4;stroke-dasharray:6, 6;stroke-dashoffset:0;stroke-opacity:1"
           id="path286" /></g><g
         id="g288"
         transform="matrix(0.40977,0,0,-0.40977,145.0315,662.1601)"><path
           d="M 0,0 C 1.945,5.508 14.158,5.112 24.818,4.587 43.403,3.671 67.447,4.505 86.427,4.762 95.142,4.879 101.798,4.444 101.839,-0.865 101.874,-5.484 92.517,-7.27 83.073,-7.251 63.581,-7.211 44.168,-5.278 24.758,-6.777 11.35,-7.812 -2.082,-5.897 0,0 Z"
           style="fill:none;stroke:#000000;stroke-width:1;stroke-linecap:butt;stroke-linejoin:miter;stroke-miterlimit:4;stroke-dasharray:6, 6;stroke-dashoffset:0;stroke-opacity:1"
           id="path290" /></g><g
         id="g292"
         transform="matrix(0.40977,0,0,-0.40977,115.3215,696.1027)"><path
           d="m 0,0 c 0.558,-4.064 5.163,-5.534 9.561,-6.116 45.518,-6.026 92.368,-9.369 137.479,0.008 3.93,0.817 7.979,2.622 7.914,6.308 -0.065,3.614 -4.049,5.286 -7.878,6.06 C 101.906,15.389 55.47,14.854 9.945,7.801 4.446,6.949 -0.7,5.093 0,0 Z"
           style="fill:none;stroke:#000000;stroke-width:1;stroke-linecap:butt;stroke-linejoin:miter;stroke-miterlimit:4;stroke-dasharray:6, 6;stroke-dashoffset:0;stroke-opacity:1"
           id="path294" /></g><path
         d="m 115.0719,592.6732 c 0.6175,-0.6176 0.6175,-1.6186 0,-2.2362 -0.6175,-0.6175 -1.6186,-0.6175 -2.2361,0 -0.6175,0.6176 -0.6175,1.6186 0,2.2362 0.6175,0.6175 1.6186,0.6175 2.2361,0 z"
         style="fill:#c82506;fill-opacity:1;fill-rule:nonzero;stroke:none"
         id="path296" /><path
         d="m 139.3916,684.9683 c 0.6176,-0.6175 0.6176,-1.6186 0,-2.2361 -0.6175,-0.6176 -1.6186,-0.6176 -2.2361,0 -0.6175,0.6175 -0.6175,1.6186 0,2.2361 0.6175,0.6175 1.6186,0.6175 2.2361,0 z"
         style="fill:#c82506;fill-opacity:1;fill-rule:nonzero;stroke:none"
         id="path298" /><path
         d="m 151.6608,633.2274 c 0.6175,-0.6175 0.6175,-1.6186 0,-2.2361 -0.6175,-0.6175 -1.6186,-0.6175 -2.2361,0 -0.6175,0.6175 -0.6175,1.6186 0,2.2361 0.6175,0.6175 1.6186,0.6175 2.2361,0 z"
         style="fill:#c82506;fill-opacity:1;fill-rule:nonzero;stroke:none"
         id="path300" /><path
         d="m 171.3508,656.7432 c 0.6175,-0.6176 0.6175,-1.6186 0,-2.2362 -0.6175,-0.6175 -1.6186,-0.6175 -2.2361,0 -0.6175,0.6176 -0.6175,1.6186 0,2.2362 0.6175,0.6175 1.6186,0.6175 2.2361,0 z"
         style="fill:#c82506;fill-opacity:1;fill-rule:nonzero;stroke:none"
         id="path302" /><path
         d="m 183.8012,608.8329 c 0.6175,-0.6176 0.6175,-1.6186 0,-2.2362 -0.6176,-0.6175 -1.6186,-0.6175 -2.2362,0 -0.6175,0.6176 -0.6175,1.6186 0,2.2362 0.6176,0.6175 1.6186,0.6175 2.2362,0 z"
         style="fill:#c82506;fill-opacity:1;fill-rule:nonzero;stroke:none"
         id="path304" /><path
         d="m 151.6608,717.872 c 0.6175,-0.6175 0.6175,-1.6186 0,-2.2361 -0.6175,-0.6175 -1.6186,-0.6175 -2.2361,0 -0.6175,0.6175 -0.6175,1.6186 0,2.2361 0.6175,0.6176 1.6186,0.6176 2.2361,0 z"
         style="fill:#c82506;fill-opacity:1;fill-rule:nonzero;stroke:none"
         id="path306" /><g
         style="fill:#000000;stroke:#000000;stroke-opacity:1"
         id="g308"
         transform="matrix(0.10851746,-0.0020468,-5.4205117e-4,-0.4097649,150.8852,716.256)"><path
           d="M 0,0 653.631,-3.265"
           style="fill:#000000;stroke:#000000;stroke-width:1;stroke-linecap:butt;stroke-linejoin:miter;stroke-miterlimit:4;stroke-dasharray:6, 6;stroke-dashoffset:0;stroke-opacity:1"
           id="path310" /></g><g
         style="fill:#000000;stroke:#000000;stroke-opacity:1"
         id="g312"
         transform="matrix(0.1336646,0,0,-0.41282817,137.75589,683.61774)"><path
           d="M 0,0 622.969,-3.112"
           style="fill:#000000;stroke:#000000;stroke-width:1;stroke-linecap:butt;stroke-linejoin:miter;stroke-miterlimit:4;stroke-dasharray:6, 6;stroke-dashoffset:0;stroke-opacity:1"
           id="path314" /></g><g
         style="fill:#000000;stroke:#000000;stroke-opacity:1"
         id="g316"
         transform="matrix(0.08570516,-0.0020468,-4.281024e-4,-0.4097649,173.61007,655.2478)"><path
           d="M 0,0 549.992,-2.747"
           style="fill:#000000;stroke:#000000;stroke-width:1;stroke-linecap:butt;stroke-linejoin:miter;stroke-miterlimit:4;stroke-dasharray:6, 6;stroke-dashoffset:0;stroke-opacity:1"
           id="path318" /></g><g
         style="fill:#000000;stroke:#000000;stroke-opacity:1"
         id="g320"
         transform="matrix(0.12916834,-0.0020468,-6.4520352e-4,-0.4097649,152.6917,631.2147)"><path
           d="M 0,0 549.992,-2.747"
           style="fill:#000000;stroke:#000000;stroke-width:1;stroke-linecap:butt;stroke-linejoin:miter;stroke-miterlimit:4;stroke-dasharray:6, 6;stroke-dashoffset:0;stroke-opacity:1"
           id="path322" /></g><g
         style="fill:#000000;stroke:#000000;stroke-opacity:1"
         id="g324"
         transform="matrix(0.06581589,-0.0020468,-3.287543e-4,-0.4097649,185.96679,607.1815)"><path
           d="M 0,0 549.992,-2.747"
           style="fill:#000000;stroke:#000000;stroke-width:1;stroke-linecap:butt;stroke-linejoin:miter;stroke-miterlimit:4;stroke-dasharray:6, 6;stroke-dashoffset:0;stroke-opacity:1"
           id="path326" /></g><g
         style="fill:#000000;stroke:#000000;stroke-opacity:1"
         id="g328"
         transform="matrix(0.19544289,-0.0020468,-9.7624887e-4,-0.4097649,114.096,591.4837)"><path
           d="M 0,0 549.992,-2.747"
           style="fill:#000000;stroke:#000000;stroke-width:1;stroke-linecap:butt;stroke-linejoin:miter;stroke-miterlimit:4;stroke-dasharray:6, 6;stroke-dashoffset:0;stroke-opacity:1"
           id="path330" /></g></g></g></svg>