<?xml version="1.0" encoding="UTF-8" standalone="no"?>
<!-- Created with Inkscape (http://www.inkscape.org/) -->

<svg
   xmlns:dc="http://purl.org/dc/elements/1.1/"
   xmlns:cc="http://creativecommons.org/ns#"
   xmlns:rdf="http://www.w3.org/1999/02/22-rdf-syntax-ns#"
   xmlns:svg="http://www.w3.org/2000/svg"
   xmlns="http://www.w3.org/2000/svg"
   xmlns:sodipodi="http://sodipodi.sourceforge.net/DTD/sodipodi-0.dtd"
   xmlns:inkscape="http://www.inkscape.org/namespaces/inkscape"
   width="200mm"
   height="100mm"
   viewBox="0 0 708.66138 354.3307"
   id="svg6787"
   version="1.1"
   inkscape:version="0.91 r13725"
   sodipodi:docname="hubs_graph.svg">
  <defs
     id="defs6789">
    <clipPath
       clipPathUnits="userSpaceOnUse"
       id="clipPath736">
      <path
         d="m 0,0 1024,0 0,768 L 0,768 0,0 Z"
         id="path738"
         inkscape:connector-curvature="0" />
    </clipPath>
    <clipPath
       clipPathUnits="userSpaceOnUse"
       id="clipPath692">
      <path
         d="m 624.8523,369.0698 250.7183,0 0,229.4282 -250.7183,0 0,-229.4282 z"
         id="path694"
         inkscape:connector-curvature="0" />
    </clipPath>
    <clipPath
       clipPathUnits="userSpaceOnUse"
       id="clipPath682">
      <path
         d="m 670.9758,552.5337 46.38549,0 0,27.94664 -46.38549,0 0,-27.94664 z"
         id="path684"
         inkscape:connector-curvature="0" />
    </clipPath>
    <clipPath
       clipPathUnits="userSpaceOnUse"
       id="clipPath658">
      <path
         d="m 624.8523,369.0698 250.7183,0 0,229.4282 -250.7183,0 0,-229.4282 z"
         id="path660"
         inkscape:connector-curvature="0" />
    </clipPath>
    <clipPath
       clipPathUnits="userSpaceOnUse"
       id="clipPath646">
      <path
         d="m 687.7998,419.9456 170.8947,0 0,151.6789 -170.8947,0 0,-151.6789 z"
         id="path648"
         inkscape:connector-curvature="0" />
    </clipPath>
    <clipPath
       clipPathUnits="userSpaceOnUse"
       id="clipPath634">
      <path
         d="m 687.7998,419.9456 170.8947,0 0,151.6789 -170.8947,0 0,-151.6789 z"
         id="path636"
         inkscape:connector-curvature="0" />
    </clipPath>
    <clipPath
       clipPathUnits="userSpaceOnUse"
       id="clipPath622">
      <path
         d="m 687.7998,419.9456 170.8947,0 0,151.6789 -170.8947,0 0,-151.6789 z"
         id="path624"
         inkscape:connector-curvature="0" />
    </clipPath>
    <clipPath
       clipPathUnits="userSpaceOnUse"
       id="clipPath610">
      <path
         d="m 687.7998,419.9456 170.8947,0 0,151.6789 -170.8947,0 0,-151.6789 z"
         id="path612"
         inkscape:connector-curvature="0" />
    </clipPath>
    <clipPath
       clipPathUnits="userSpaceOnUse"
       id="clipPath598">
      <path
         d="m 687.7998,419.9456 170.8947,0 0,151.6789 -170.8947,0 0,-151.6789 z"
         id="path600-8"
         inkscape:connector-curvature="0" />
    </clipPath>
    <clipPath
       clipPathUnits="userSpaceOnUse"
       id="clipPath586">
      <path
         d="m 687.7998,419.9456 170.8947,0 0,151.6789 -170.8947,0 0,-151.6789 z"
         id="path588-7"
         inkscape:connector-curvature="0" />
    </clipPath>
    <clipPath
       clipPathUnits="userSpaceOnUse"
       id="clipPath518">
      <path
         d="m 624.8523,369.0698 250.7183,0 0,229.4282 -250.7183,0 0,-229.4282 z"
         id="path520"
         inkscape:connector-curvature="0" />
    </clipPath>
    <clipPath
       clipPathUnits="userSpaceOnUse"
       id="clipPath506">
      <path
         d="m 687.7998,419.9456 170.8947,0 0,151.6789 -170.8947,0 0,-151.6789 z"
         id="path508"
         inkscape:connector-curvature="0" />
    </clipPath>
    <clipPath
       clipPathUnits="userSpaceOnUse"
       id="clipPath494">
      <path
         d="m 687.7998,419.9456 170.8947,0 0,151.6789 -170.8947,0 0,-151.6789 z"
         id="path496"
         inkscape:connector-curvature="0" />
    </clipPath>
    <clipPath
       clipPathUnits="userSpaceOnUse"
       id="clipPath440">
      <path
         d="m 624.8523,369.0698 250.7183,0 0,229.4282 -250.7183,0 0,-229.4282 z"
         id="path442"
         inkscape:connector-curvature="0" />
    </clipPath>
    <clipPath
       clipPathUnits="userSpaceOnUse"
       id="clipPath176">
      <path
         d="m 624.8523,369.0698 250.7183,0 0,229.4282 -250.7183,0 0,-229.4282 z"
         id="path178"
         inkscape:connector-curvature="0" />
    </clipPath>
    <mask
       maskUnits="userSpaceOnUse"
       x="0"
       y="0"
       width="1"
       height="1"
       id="mask1270">
      <g
         id="g1272">
        <g
           clip-path="url(#clipPath1266)"
           id="g1274">
          <path
             d="m 459,54.276184 2,0 0,167.999996 -2,0 0,-167.999996 z"
             style="fill:#000000;fill-opacity:0.98000004;fill-rule:nonzero;stroke:none"
             id="path1276"
             inkscape:connector-curvature="0" />
        </g>
      </g>
    </mask>
    <clipPath
       clipPathUnits="userSpaceOnUse"
       id="clipPath1266">
      <path
         d="m 459,54.276184 2,0 0,167.999996 -2,0 0,-167.999996 z"
         id="path1268"
         inkscape:connector-curvature="0" />
    </clipPath>
    <clipPath
       clipPathUnits="userSpaceOnUse"
       id="clipPath1282">
      <path
         d="m 459,54.276184 2,0 0,167.999996 -2,0 0,-167.999996 z"
         id="path1284"
         inkscape:connector-curvature="0" />
    </clipPath>
    <clipPath
       clipPathUnits="userSpaceOnUse"
       id="clipPath1286">
      <path
         d="m 459,55 2,0 0,168 -2,0 0,-168 z"
         id="path1288"
         inkscape:connector-curvature="0" />
    </clipPath>
    <mask
       maskUnits="userSpaceOnUse"
       x="0"
       y="0"
       width="1"
       height="1"
       id="mask1092">
      <g
         id="g1094">
        <g
           clip-path="url(#clipPath1082)"
           id="g1096">
          <g
             id="g1098">
            <path
               d="m 0,0 616.80005,0 0,669.27618 L 0,669.27618 0,0 Z"
               style="fill:url(#linearGradient1086);fill-opacity:1;fill-rule:nonzero;stroke:none"
               id="path1100"
               inkscape:connector-curvature="0" />
          </g>
        </g>
      </g>
    </mask>
    <clipPath
       clipPathUnits="userSpaceOnUse"
       id="clipPath1082">
      <path
         d="m 272,35.276184 309,0 0,309.999996 -309,0 0,-309.999996 z"
         id="path1084"
         inkscape:connector-curvature="0" />
    </clipPath>
    <linearGradient
       x1="683.13898"
       y1="1238.3615"
       x2="749.86249"
       y2="1171.7046"
       gradientUnits="userSpaceOnUse"
       gradientTransform="matrix(0.512721,0,0,0.512721,195.6132,-275.01301)"
       spreadMethod="pad"
       id="linearGradient1086">
      <stop
         style="stop-opacity:1;stop-color:#ffffff"
         offset="0"
         id="stop1088" />
      <stop
         style="stop-opacity:0;stop-color:#ffffff"
         offset="1"
         id="stop1090" />
    </linearGradient>
    <clipPath
       clipPathUnits="userSpaceOnUse"
       id="clipPath1106">
      <path
         d="m 272,35.276184 309,0 0,309.999996 -309,0 0,-309.999996 z"
         id="path1108"
         inkscape:connector-curvature="0" />
    </clipPath>
    <linearGradient
       x1="683.13898"
       y1="1238.3615"
       x2="749.86249"
       y2="1171.7046"
       gradientUnits="userSpaceOnUse"
       gradientTransform="matrix(0.512721,0,0,-0.512721,195.6132,944.28919)"
       spreadMethod="pad"
       id="linearGradient1110">
      <stop
         style="stop-opacity:1;stop-color:#000000"
         offset="0"
         id="stop1112" />
      <stop
         style="stop-opacity:1;stop-color:#000000"
         offset="1"
         id="stop1114" />
    </linearGradient>
  </defs>
  <sodipodi:namedview
     id="base"
     pagecolor="#ffffff"
     bordercolor="#666666"
     borderopacity="1.0"
     inkscape:pageopacity="0.0"
     inkscape:pageshadow="2"
     inkscape:zoom="1"
     inkscape:cx="439.02871"
     inkscape:cy="70.576256"
     inkscape:document-units="px"
     inkscape:current-layer="layer1"
     showgrid="false"
     inkscape:window-width="1639"
     inkscape:window-height="1005"
     inkscape:window-x="41"
     inkscape:window-y="1"
     inkscape:window-maximized="1" />
  <metadata
     id="metadata6792">
    <rdf:RDF>
      <cc:Work
         rdf:about="">
        <dc:format>image/svg+xml</dc:format>
        <dc:type
           rdf:resource="http://purl.org/dc/dcmitype/StillImage" />
        <dc:title></dc:title>
      </cc:Work>
    </rdf:RDF>
  </metadata>
  <g
     inkscape:label="Layer 1"
     inkscape:groupmode="layer"
     id="layer1"
     transform="translate(0,-698.03153)">
    <g
       id="g8953"
       transform="translate(0,-39.999996)">
      <path
         inkscape:connector-curvature="0"
         id="path562"
         style="fill:#b3b3b3;fill-opacity:1;fill-rule:nonzero;stroke:none"
         d="m 83.82171,827.51927 c 6.10025,6.10025 6.10025,15.99062 0,22.09087 -6.10012,6.10013 -15.99062,6.10013 -22.09075,0 -6.10025,-6.10025 -6.10025,-15.99062 0,-22.09087 6.10013,-6.10025 15.99063,-6.10025 22.09075,0 z" />
      <path
         inkscape:connector-curvature="0"
         id="path564"
         style="fill:#b3b3b3;fill-opacity:1;fill-rule:nonzero;stroke:none"
         d="m 83.82171,956.3856 c 6.10025,6.1003 6.10025,15.9907 0,22.0908 -6.10012,6.1002 -15.99062,6.1002 -22.09075,0 -6.10025,-6.1001 -6.10025,-15.9905 0,-22.0908 6.10013,-6.1002 15.99063,-6.1002 22.09075,0 z" />
      <path
         inkscape:connector-curvature="0"
         id="path566"
         style="fill:#b3b3b3;fill-opacity:1;fill-rule:nonzero;stroke:none"
         d="m 10.81184,891.68402 c 6.10012,-6.10025 15.9905,-6.10025 22.09075,0 6.10025,6.10025 6.10025,15.99062 0,22.09087 -6.10025,6.10012 -15.99063,6.10012 -22.09075,0 -6.10025,-6.10025 -6.10025,-15.99062 0,-22.09087 z" />
      <path
         inkscape:connector-curvature="0"
         id="path570"
         style="fill:#b3b3b3;fill-opacity:1;fill-rule:nonzero;stroke:none"
         d="m 292.84859,827.51927 c 6.10012,6.10025 6.10012,15.99062 0,22.09087 -6.10025,6.10013 -15.99063,6.10013 -22.09088,0 -6.10012,-6.10025 -6.10012,-15.99062 0,-22.09087 6.10025,-6.10025 15.99063,-6.10025 22.09088,0 z" />
      <path
         inkscape:connector-curvature="0"
         id="path572"
         style="fill:#b3b3b3;fill-opacity:1;fill-rule:nonzero;stroke:none"
         d="m 292.84859,956.3856 c 6.10012,6.1003 6.10012,15.9907 0,22.0908 -6.10025,6.1002 -15.99063,6.1002 -22.09088,0 -6.10012,-6.1001 -6.10012,-15.9905 0,-22.0908 6.10025,-6.1002 15.99063,-6.1002 22.09088,0 z" />
      <path
         inkscape:connector-curvature="0"
         id="path576"
         style="fill:#b3b3b3;fill-opacity:1;fill-rule:nonzero;stroke:none"
         d="m 315.66884,891.68402 c 6.10025,-6.10025 15.99062,-6.10025 22.09075,0 6.10025,6.10025 6.10025,15.99062 0,22.09087 -6.10013,6.10012 -15.9905,6.10012 -22.09075,0 -6.10025,-6.10025 -6.10025,-15.99062 0,-22.09087 z" />
      <path
         d="m 223.88191,902.72939 c -29.77802,0 -59.55605,0 -89.33407,0"
         style="fill:none;stroke:#ffffff;stroke-width:1.25;stroke-linecap:butt;stroke-linejoin:miter;stroke-miterlimit:4;stroke-dasharray:none;stroke-opacity:1"
         id="path580"
         inkscape:connector-curvature="0" />
      <path
         d="M 109.80493,890.04635 81.89871,851.24764"
         style="fill:none;stroke:#ffffff;stroke-width:1.25;stroke-linecap:butt;stroke-linejoin:miter;stroke-miterlimit:4;stroke-dasharray:none;stroke-opacity:1"
         id="path584"
         inkscape:connector-curvature="0" />
      <path
         d="M 109.85491,915.44839 81.84859,954.7121"
         style="fill:none;stroke:#ffffff;stroke-width:1.25;stroke-linecap:butt;stroke-linejoin:miter;stroke-miterlimit:4;stroke-dasharray:none;stroke-opacity:1"
         id="path588"
         inkscape:connector-curvature="0" />
      <path
         d="m 103.30661,902.72939 c -21.94296,0 -43.88594,0 -65.8289,0"
         style="fill:none;stroke:#ffffff;stroke-width:1.25;stroke-linecap:butt;stroke-linejoin:miter;stroke-miterlimit:4;stroke-dasharray:none;stroke-opacity:1"
         id="path592"
         inkscape:connector-curvature="0" />
      <path
         inkscape:connector-curvature="0"
         id="path30"
         style="fill:#001ff4;fill-opacity:1;fill-rule:nonzero;stroke:none"
         d="m 102.10074,885.12047 c 9.3726,-9.37259 24.56854,-9.37259 33.94113,0 9.37261,9.37258 9.37261,24.56852 0,33.94111 -9.37259,9.37259 -24.56853,9.37259 -33.94113,0 -9.37253,-9.37259 -9.37253,-24.56853 0,-33.94111 z" />
      <path
         d="m 248.10184,889.68524 25.10198,-38.07647"
         style="fill:none;stroke:#ffffff;stroke-width:1.25;stroke-linecap:butt;stroke-linejoin:miter;stroke-miterlimit:4;stroke-dasharray:none;stroke-opacity:1"
         id="path596"
         inkscape:connector-curvature="0" />
      <path
         d="m 248.05196,915.80639 25.20178,38.54771"
         style="fill:none;stroke:#ffffff;stroke-width:1.25;stroke-linecap:butt;stroke-linejoin:miter;stroke-miterlimit:4;stroke-dasharray:none;stroke-opacity:1"
         id="path600"
         inkscape:connector-curvature="0" />
      <path
         d="m 255.12296,902.72939 c 18.65689,0 37.31378,0 55.97068,0"
         style="fill:none;stroke:#ffffff;stroke-width:1.25;stroke-linecap:butt;stroke-linejoin:miter;stroke-miterlimit:4;stroke-dasharray:none;stroke-opacity:1"
         id="path604"
         inkscape:connector-curvature="0" />
      <text
         y="909.16443"
         x="14.447216"
         style="font-style:italic;font-variant:normal;font-size:30px;font-family:STIXGeneral;-inkscape-font-specification:STIXGeneral-Italic;writing-mode:lr-tb;fill:#ffffff;fill-opacity:1;fill-rule:nonzero;stroke:none"
         id="text608">
        <tspan
           x="14.447216"
           y="909.16443"
           id="tspan610">a</tspan>
      </text>
      <text
         y="973.86609"
         x="64.946335"
         style="font-style:italic;font-variant:normal;font-size:30px;font-family:STIXGeneral;-inkscape-font-specification:STIXGeneral-Italic;writing-mode:lr-tb;fill:#ffffff;fill-opacity:1;fill-rule:nonzero;stroke:none"
         id="text614">
        <tspan
           x="64.946335"
           y="973.86609"
           id="tspan616">e</tspan>
      </text>
      <text
         y="845.44519"
         x="68.606339"
         style="font-style:italic;font-variant:normal;font-size:30px;font-family:STIXGeneral;-inkscape-font-specification:STIXGeneral-Italic;writing-mode:lr-tb;fill:#ffffff;fill-opacity:1;fill-rule:nonzero;stroke:none"
         id="text620">
        <tspan
           x="68.606339"
           y="845.44519"
           id="tspan622">f</tspan>
      </text>
      <text
         y="907.61603"
         x="111.88634"
         style="font-style:italic;font-variant:normal;font-size:30px;font-family:STIXGeneral;-inkscape-font-specification:STIXGeneral-Italic;writing-mode:lr-tb;fill:#ffffff;fill-opacity:1;fill-rule:nonzero;stroke:none"
         id="text626">
        <tspan
           x="111.88634"
           y="907.61603"
           id="tspan628">g</tspan>
      </text>
      <path
         inkscape:connector-curvature="0"
         id="path36"
         style="fill:#001ff4;fill-opacity:1;fill-rule:nonzero;stroke:none"
         d="m 213.93309,881.81695 c 12.49677,-12.49681 32.75807,-12.49681 45.25484,0 12.49677,12.49672 12.49677,32.75801 0,45.2548 -12.49677,12.49678 -32.75807,12.49678 -45.25484,0 -12.49677,-12.49679 -12.49677,-32.75808 0,-45.2548 z" />
      <text
         y="912.55432"
         x="229.10551"
         style="font-style:italic;font-variant:normal;font-size:30px;font-family:STIXGeneral;-inkscape-font-specification:STIXGeneral-Italic;writing-mode:lr-tb;fill:#ffffff;fill-opacity:1;fill-rule:nonzero;stroke:none"
         id="text632">
        <tspan
           x="229.10551"
           y="912.55432"
           id="tspan634">h</tspan>
      </text>
      <text
         y="975.11609"
         x="274.97632"
         style="font-style:italic;font-variant:normal;font-size:30px;font-family:STIXGeneral;-inkscape-font-specification:STIXGeneral-Italic;writing-mode:lr-tb;fill:#ffffff;fill-opacity:1;fill-rule:nonzero;stroke:none"
         id="text638">
        <tspan
           x="274.97632"
           y="975.11609"
           id="tspan640">c</tspan>
      </text>
      <text
         y="848.62604"
         x="275.18634"
         style="font-style:italic;font-variant:normal;font-size:30px;font-family:STIXGeneral;-inkscape-font-specification:STIXGeneral-Italic;writing-mode:lr-tb;fill:#ffffff;fill-opacity:1;fill-rule:nonzero;stroke:none"
         id="text644">
        <tspan
           x="275.18634"
           y="848.62604"
           id="tspan646">b</tspan>
      </text>
      <text
         y="912.37604"
         x="317.9263"
         style="font-style:italic;font-variant:normal;font-size:30px;font-family:STIXGeneral;-inkscape-font-specification:STIXGeneral-Italic;writing-mode:lr-tb;fill:#ffffff;fill-opacity:1;fill-rule:nonzero;stroke:none"
         id="text650">
        <tspan
           x="317.9263"
           y="912.37604"
           id="tspan652">d</tspan>
      </text>
      <text
         y="898.58795"
         x="172.36409"
         style="font-variant:normal;font-weight:normal;font-size:22.5px;font-family:STIXGeneral;-inkscape-font-specification:STIXGeneral-Regular;writing-mode:lr-tb;fill:#b3b3b3;fill-opacity:1;fill-rule:nonzero;stroke:none"
         id="text658">
        <tspan
           style="fill:#b3b3b3"
           x="172.36409"
           y="898.58795"
           id="tspan660">1</tspan>
      </text>
      <text
         y="947.83801"
         x="102.20912"
         style="font-variant:normal;font-weight:normal;font-size:22.5px;font-family:STIXGeneral;-inkscape-font-specification:STIXGeneral-Regular;writing-mode:lr-tb;fill:#b3b3b3;fill-opacity:1;fill-rule:nonzero;stroke:none"
         id="text666">
        <tspan
           style="fill:#b3b3b3"
           x="102.20912"
           y="947.83801"
           id="tspan668">2</tspan>
      </text>
      <text
         y="926.85803"
         x="61.414074"
         style="font-variant:normal;font-weight:normal;font-size:22.5px;font-family:STIXGeneral;-inkscape-font-specification:STIXGeneral-Regular;writing-mode:lr-tb;fill:#b3b3b3;fill-opacity:1;fill-rule:nonzero;stroke:none"
         id="text674">
        <tspan
           style="fill:#b3b3b3"
           x="61.414074"
           y="926.85803"
           id="tspan676">5</tspan>
      </text>
      <text
         y="884.83801"
         x="75.851547"
         style="font-variant:normal;font-weight:normal;font-size:22.5px;font-family:STIXGeneral;-inkscape-font-specification:STIXGeneral-Regular;writing-mode:lr-tb;fill:#b3b3b3;fill-opacity:1;fill-rule:nonzero;stroke:none"
         id="text682">
        <tspan
           style="fill:#b3b3b3"
           x="75.851547"
           y="884.83801"
           id="tspan684">8</tspan>
      </text>
      <text
         y="872.52295"
         x="242.16151"
         style="font-variant:normal;font-weight:normal;font-size:22.5px;font-family:STIXGeneral;-inkscape-font-specification:STIXGeneral-Regular;writing-mode:lr-tb;fill:#b3b3b3;fill-opacity:1;fill-rule:nonzero;stroke:none"
         id="text690">
        <tspan
           style="fill:#b3b3b3"
           x="242.16151"
           y="872.52295"
           id="tspan692">7</tspan>
      </text>
      <text
         y="896.76794"
         x="272.59656"
         style="font-variant:normal;font-weight:normal;font-size:22.5px;font-family:STIXGeneral;-inkscape-font-specification:STIXGeneral-Regular;writing-mode:lr-tb;fill:#b3b3b3;fill-opacity:1;fill-rule:nonzero;stroke:none"
         id="text698">
        <tspan
           style="fill:#b3b3b3"
           x="272.59656"
           y="896.76794"
           id="tspan700">6</tspan>
      </text>
      <text
         y="935.08801"
         x="266.68661"
         style="font-variant:normal;font-weight:normal;font-size:22.5px;font-family:STIXGeneral;-inkscape-font-specification:STIXGeneral-Regular;writing-mode:lr-tb;fill:#b3b3b3;fill-opacity:1;fill-rule:nonzero;stroke:none"
         id="text706">
        <tspan
           style="fill:#b3b3b3"
           x="266.68661"
           y="935.08801"
           id="tspan708">9</tspan>
      </text>
    </g>
    <g
       id="g1080"
       transform="matrix(0.55176994,0,0,-0.55176994,235.44726,1069.815)" />
    <g
       id="g1264"
       transform="matrix(0.55176994,0,0,-0.55176994,235.44726,1069.815)" />
    <text
       sodipodi:linespacing="125%"
       id="text8401"
       y="1044.9376"
       x="434.51706"
       style="font-style:normal;font-weight:normal;font-size:39.99999619px;line-height:125%;font-family:sans-serif;letter-spacing:0px;word-spacing:0px;fill:#000000;fill-opacity:1;stroke:none;stroke-width:1px;stroke-linecap:butt;stroke-linejoin:miter;stroke-opacity:1"
       xml:space="preserve"><tspan
         y="1044.9376"
         x="434.51706"
         id="tspan8403"
         sodipodi:role="line" /></text>
    <g
       id="g8904"
       transform="matrix(1.6825967,0,0,1.7190523,-244.34754,-643.46386)">
      <path
         sodipodi:nodetypes="cccc"
         inkscape:connector-curvature="0"
         id="path8853"
         d="m 430.82355,924.8057 -0.69221,-105.68185 104.88846,1.35122 z"
         style="opacity:0.43000004;fill:#4d4397;fill-opacity:0.81960784;fill-rule:evenodd;stroke:none;stroke-width:0.80000001px;stroke-linecap:butt;stroke-linejoin:miter;stroke-opacity:1" />
      <path
         style="opacity:0.43700005;fill:#4d4397;fill-opacity:0.81960784;fill-rule:evenodd;stroke:none;stroke-width:0.80000001px;stroke-linecap:butt;stroke-linejoin:miter;stroke-opacity:1"
         d="m 453.41016,902.34374 -0.54225,-82.93605 82.91788,0.9205 z"
         id="path6146"
         inkscape:connector-curvature="0"
         sodipodi:nodetypes="cccc" />
      <path
         inkscape:connector-curvature="0"
         id="path1064"
         style="fill:none;stroke:#ffffff;stroke-width:0.66212398;stroke-linecap:butt;stroke-linejoin:miter;stroke-miterlimit:4;stroke-dasharray:none;stroke-opacity:1"
         d="m 384.31313,960.1103 177.49501,0" />
      <path
         inkscape:connector-curvature="0"
         id="path1068"
         style="fill:#ffffff;fill-opacity:1;fill-rule:evenodd;stroke:#ffffff;stroke-width:0.66212398;stroke-linecap:butt;stroke-linejoin:miter;stroke-miterlimit:4;stroke-dasharray:none;stroke-opacity:1"
         d="m 555.1869,960.1103 -2.64849,2.6491 9.26973,-2.6491 -9.26973,-2.6485 2.64849,2.6485 z" />
      <path
         inkscape:connector-curvature="0"
         id="path1076"
         style="fill:#ffffff;fill-opacity:1;fill-rule:evenodd;stroke:#ffffff;stroke-width:0.66212398;stroke-linecap:butt;stroke-linejoin:miter;stroke-miterlimit:4;stroke-dasharray:none;stroke-opacity:1"
         d="m 396.12432,805.7036 2.64905,2.64849 -2.64905,-9.26973 -2.64905,9.26973 2.64905,-2.64849 z" />
      <g
         transform="matrix(0.55176994,0,0,-0.55176994,235.44726,989.815)"
         mask="url(#mask1092)"
         id="g1102">
        <g
           id="g1104" />
        <g
           id="g1116">
          <g
             id="g1118"
             clip-path="url(#clipPath1106)">
            <g
               id="g1120">
              <g
                 id="g1122"
                 transform="matrix(1,0,0,-1,0,669.27618)">
                <path
                   inkscape:connector-curvature="0"
                   id="path1124"
                   style="fill:none;stroke:url(#linearGradient1110);stroke-width:1.20000005;stroke-linecap:butt;stroke-linejoin:miter;stroke-miterlimit:4;stroke-dasharray:none;stroke-opacity:1"
                   d="M 273.258,633.395 580.387,325.391" />
              </g>
            </g>
          </g>
        </g>
      </g>
      <path
         inkscape:connector-curvature="0"
         id="path1130"
         style="fill:none;stroke:none;stroke-width:0.919375;stroke-linecap:butt;stroke-linejoin:miter;stroke-miterlimit:4;stroke-dasharray:none;stroke-opacity:1"
         d="m 461.51568,894.45413 72.79501,-72.96495 -72.79501,0 0,72.96495 z" />
      <path
         d="m 440.86777,839.43538 1.50854,0 0,-5.21588 -1.63765,0.32775 0,-0.84531 1.62938,-0.3272 0.93083,0 0,6.06064 1.50909,0 0,0.77579 -3.94019,0 0,-0.77579 z"
         style="fill:#ffffff;fill-opacity:1;fill-rule:nonzero;stroke:none"
         id="path1188"
         inkscape:connector-curvature="0" />
      <path
         d="m 477.55053,839.02128 2.65567,0 0,0.6384 -3.5694,0 0,-0.6384 c 0.28692,-0.29741 0.68089,-0.7002 1.18134,-1.20673 0.4999,-0.50431 0.81221,-0.82986 0.93966,-0.97442 0.24113,-0.27588 0.40942,-0.50873 0.50874,-0.69799 0.0971,-0.18981 0.14621,-0.3752 0.14621,-0.5606 0,-0.2974 -0.10759,-0.54294 -0.31892,-0.73275 -0.20691,-0.18981 -0.48059,-0.28471 -0.81883,-0.28471 -0.23726,0 -0.48721,0.043 -0.7504,0.12966 -0.26485,0.0817 -0.54957,0.20692 -0.85304,0.37907 l 0,-0.77579 c 0.30347,-0.12083 0.58819,-0.21133 0.85304,-0.27588 0.26981,-0.0624 0.51756,-0.0949 0.74157,-0.0949 0.57992,0 1.0434,0.14677 1.38826,0.43976 0.34927,0.28858 0.52584,0.67703 0.52584,1.16369 0,0.23726 -0.043,0.45686 -0.12912,0.66378 -0.0866,0.20691 -0.24609,0.453 -0.47452,0.7333 -0.0646,0.069 -0.26485,0.27974 -0.60363,0.62902 -0.33383,0.35147 -0.8078,0.84089 -1.42247,1.4655 z"
         style="fill:#ffffff;fill-opacity:1;fill-rule:nonzero;stroke:none"
         id="path1240"
         inkscape:connector-curvature="0" />
      <path
         inkscape:connector-curvature="0"
         id="path1254"
         style="fill:none;stroke:#ffffff;stroke-width:0.33737889;stroke-linecap:butt;stroke-linejoin:miter;stroke-miterlimit:4;stroke-dasharray:none;stroke-opacity:0.09428567"
         d="m 452.66214,959.7401 0,-53.59412" />
      <path
         inkscape:connector-curvature="0"
         id="path1260"
         style="fill:none;stroke:#ffffff;stroke-width:0.19563599;stroke-linecap:butt;stroke-linejoin:miter;stroke-miterlimit:4;stroke-dasharray:none;stroke-opacity:0.09428567"
         d="m 431.77667,959.9249 0,-31.4305" />
      <g
         transform="matrix(0.55176994,0,0,-0.55176994,235.44726,989.815)"
         mask="url(#mask1270)"
         id="g1278">
        <g
           id="g1280" />
        <g
           id="g1290">
          <g
             id="g1292"
             clip-path="url(#clipPath1282)">
            <g
               id="g1294"
               transform="translate(0,-0.723816)">
              <g
                 id="g1296">
                <g
                   id="g1298"
                   clip-path="url(#clipPath1286)">
                  <g
                     id="g1300">
                    <g
                       id="g1302"
                       transform="matrix(1,0,0,-1,0,670)">
                      <path
                         inkscape:connector-curvature="0"
                         id="path1304"
                         style="fill:none;stroke:#ffffff;stroke-width:0.512721;stroke-linecap:butt;stroke-linejoin:miter;stroke-miterlimit:4;stroke-dasharray:none;stroke-opacity:0.09428567"
                         d="m 459.762,614.68 0,-167.121" />
                    </g>
                  </g>
                </g>
              </g>
            </g>
          </g>
        </g>
      </g>
      <path
         inkscape:connector-curvature="0"
         id="path1390"
         style="fill:none;stroke:#ffffff;stroke-width:0.28362775;stroke-linecap:butt;stroke-linejoin:miter;stroke-miterlimit:4;stroke-dasharray:none;stroke-opacity:0.09428567"
         d="m 396.68271,819.1355 138.73347,0" />
      <g
         transform="translate(0,-79.999992)"
         id="g8863">
        <path
           d="m 396.12432,1051.3444 0,-172.26204"
           style="fill:none;stroke:#ffffff;stroke-width:0.66212398;stroke-linecap:butt;stroke-linejoin:miter;stroke-miterlimit:4;stroke-dasharray:none;stroke-opacity:1"
           id="path1072"
           inkscape:connector-curvature="0" />
        <path
           inkscape:connector-curvature="0"
           id="path1132"
           style="fill:#ffffff;fill-opacity:1;fill-rule:nonzero;stroke:none"
           d="m 393.25566,1033.8622 c -0.11642,0 -0.22181,0.038 -0.31892,0.112 -0.0993,0.069 -0.19643,0.1898 -0.29299,0.3619 -0.0993,0.1683 -0.17933,0.4315 -0.24168,0.7935 -0.0579,0.362 -0.0861,0.7995 -0.0861,1.3104 0,1.5174 0.30402,2.2761 0.91373,2.2761 0.0519,0 0.10539,-0.01 0.16387,-0.026 0.0557,-0.017 0.1247,-0.047 0.20692,-0.095 0.0795,-0.052 0.15725,-0.1335 0.23285,-0.2499 0.0734,-0.1142 0.13352,-0.2588 0.18098,-0.431 0.0971,-0.3664 0.14677,-0.9744 0.14677,-1.8192 0,-1.0969 -0.1705,-1.7932 -0.50874,-2.0862 -0.11642,-0.097 -0.24829,-0.1468 -0.39672,-0.1468 z m -0.0348,5.164 c -0.35092,0 -0.65053,-0.1225 -0.89662,-0.3703 -0.24113,-0.2416 -0.43094,-0.5694 -0.56888,-0.9832 -0.13794,-0.4139 -0.20691,-0.8558 -0.20691,-1.3276 0,-0.8387 0.16829,-1.5129 0.50873,-2.0261 0.33823,-0.5109 0.73716,-0.7669 1.19844,-0.7669 0.43094,0 0.78903,0.1936 1.07761,0.5771 0.39672,0.5303 0.59481,1.2393 0.59481,2.1298 0,0.4889 -0.0579,0.9226 -0.17215,1.3017 -0.11036,0.3796 -0.25437,0.6704 -0.43149,0.8707 -0.17877,0.2025 -0.36196,0.3514 -0.55177,0.4486 -0.18925,0.097 -0.37465,0.1462 -0.55177,0.1462 z" />
        <g
           id="g8803">
          <text
             xml:space="preserve"
             style="font-style:normal;font-weight:normal;font-size:39.99999619px;line-height:125%;font-family:sans-serif;letter-spacing:0px;word-spacing:0px;fill:#000000;fill-opacity:1;stroke:none;stroke-width:1px;stroke-linecap:butt;stroke-linejoin:miter;stroke-opacity:1"
             x="427.3663"
             y="1048.525"
             id="text8405"
             sodipodi:linespacing="125%"><tspan
               sodipodi:role="line"
               id="tspan8407"
               x="427.3663"
               y="1048.525"
               style="font-style:normal;font-variant:normal;font-weight:normal;font-stretch:normal;font-size:7.49999905px;font-family:'Times New Roman';-inkscape-font-specification:'Times New Roman, ';fill:#ffffff">1/7</tspan></text>
          <text
             sodipodi:linespacing="125%"
             id="text8413"
             y="1048.525"
             x="447.3663"
             style="font-style:normal;font-weight:normal;font-size:39.99999619px;line-height:125%;font-family:sans-serif;letter-spacing:0px;word-spacing:0px;fill:#000000;fill-opacity:1;stroke:none;stroke-width:1px;stroke-linecap:butt;stroke-linejoin:miter;stroke-opacity:1"
             xml:space="preserve"><tspan
               style="font-style:normal;font-variant:normal;font-weight:normal;font-stretch:normal;font-size:7.49999905px;font-family:'Times New Roman';-inkscape-font-specification:'Times New Roman, ';fill:#ffffff"
               y="1048.525"
               x="447.3663"
               id="tspan8415"
               sodipodi:role="line">1/5</tspan></text>
          <text
             xml:space="preserve"
             style="font-style:normal;font-weight:normal;font-size:39.99999619px;line-height:125%;font-family:sans-serif;letter-spacing:0px;word-spacing:0px;fill:#000000;fill-opacity:1;stroke:none;stroke-width:1px;stroke-linecap:butt;stroke-linejoin:miter;stroke-opacity:1"
             x="531.36627"
             y="1048.525"
             id="text8417"
             sodipodi:linespacing="125%"><tspan
               sodipodi:role="line"
               id="tspan8419"
               x="531.36627"
               y="1048.525"
               style="font-style:normal;font-variant:normal;font-weight:normal;font-stretch:normal;font-size:7.49999905px;font-family:'Times New Roman';-inkscape-font-specification:'Times New Roman, ';fill:#ffffff">1/2</tspan></text>
        </g>
      </g>
      <g
         transform="matrix(0,-1,1,0,-655.12162,1355.3051)"
         id="g8874">
        <g
           id="g8880">
          <text
             sodipodi:linespacing="125%"
             id="text8882"
             y="1048.525"
             x="427.3663"
             style="font-style:normal;font-weight:normal;font-size:39.99999619px;line-height:125%;font-family:sans-serif;letter-spacing:0px;word-spacing:0px;fill:#000000;fill-opacity:1;stroke:none;stroke-width:1px;stroke-linecap:butt;stroke-linejoin:miter;stroke-opacity:1"
             xml:space="preserve"><tspan
               style="font-style:normal;font-variant:normal;font-weight:normal;font-stretch:normal;font-size:7.49999905px;font-family:'Times New Roman';-inkscape-font-specification:'Times New Roman, ';fill:#ffffff"
               y="1048.525"
               x="427.3663"
               id="tspan8884"
               sodipodi:role="line">1/7</tspan></text>
          <text
             xml:space="preserve"
             style="font-style:normal;font-weight:normal;font-size:39.99999619px;line-height:125%;font-family:sans-serif;letter-spacing:0px;word-spacing:0px;fill:#000000;fill-opacity:1;stroke:none;stroke-width:1px;stroke-linecap:butt;stroke-linejoin:miter;stroke-opacity:1"
             x="447.3663"
             y="1048.525"
             id="text8886"
             sodipodi:linespacing="125%"><tspan
               sodipodi:role="line"
               id="tspan8888"
               x="447.3663"
               y="1048.525"
               style="font-style:normal;font-variant:normal;font-weight:normal;font-stretch:normal;font-size:7.49999905px;font-family:'Times New Roman';-inkscape-font-specification:'Times New Roman, ';fill:#ffffff">1/5</tspan></text>
          <text
             sodipodi:linespacing="125%"
             id="text8890"
             y="1048.525"
             x="531.36627"
             style="font-style:normal;font-weight:normal;font-size:39.99999619px;line-height:125%;font-family:sans-serif;letter-spacing:0px;word-spacing:0px;fill:#000000;fill-opacity:1;stroke:none;stroke-width:1px;stroke-linecap:butt;stroke-linejoin:miter;stroke-opacity:1"
             xml:space="preserve"><tspan
               style="font-style:normal;font-variant:normal;font-weight:normal;font-stretch:normal;font-size:7.49999905px;font-family:'Times New Roman';-inkscape-font-specification:'Times New Roman, ';fill:#ffffff"
               y="1048.525"
               x="531.36627"
               id="tspan8892"
               sodipodi:role="line">1/2</tspan></text>
        </g>
      </g>
    </g>
  </g>
</svg>
