<?xml version="1.0" encoding="UTF-8" standalone="no"?>
<!-- Generator: Adobe Illustrator 18.0.0, SVG Export Plug-In . SVG Version: 6.00 Build 0)  -->

<svg
   xmlns:dc="http://purl.org/dc/elements/1.1/"
   xmlns:cc="http://creativecommons.org/ns#"
   xmlns:rdf="http://www.w3.org/1999/02/22-rdf-syntax-ns#"
   xmlns:svg="http://www.w3.org/2000/svg"
   xmlns="http://www.w3.org/2000/svg"
   xmlns:sodipodi="http://sodipodi.sourceforge.net/DTD/sodipodi-0.dtd"
   xmlns:inkscape="http://www.inkscape.org/namespaces/inkscape"
   version="1.1"
   id="Layer_1"
   x="0px"
   y="0px"
   viewBox="278.7 448.4 300.20002 339.99999"
   enable-background="new 278.7 448.4 236.2 327.1"
   xml:space="preserve"
   inkscape:version="0.91 r13725"
   sodipodi:docname="icon-location.svg"
   width="300.20001"
   height="340"><metadata
     id="metadata13"><rdf:RDF><cc:Work
         rdf:about=""><dc:format>image/svg+xml</dc:format><dc:type
           rdf:resource="http://purl.org/dc/dcmitype/StillImage" /><dc:title /></cc:Work></rdf:RDF></metadata><defs
     id="defs11" /><sodipodi:namedview
     pagecolor="#ffffff"
     bordercolor="#666666"
     borderopacity="1"
     objecttolerance="10"
     gridtolerance="10"
     guidetolerance="10"
     inkscape:pageopacity="0"
     inkscape:pageshadow="2"
     inkscape:window-width="1637"
     inkscape:window-height="1005"
     id="namedview9"
     showgrid="false"
     inkscape:zoom="2.8284271"
     inkscape:cx="72.58638"
     inkscape:cy="230.25077"
     inkscape:window-x="43"
     inkscape:window-y="1"
     inkscape:window-maximized="1"
     inkscape:current-layer="Layer_1" /><path
     style="opacity:0.456;fill:none;fill-rule:evenodd;stroke:#1245f8;stroke-width:1px;stroke-linecap:butt;stroke-linejoin:miter;stroke-opacity:1"
     d="M 509.63935,782.22321 543.70001,660.39999 509.45217,782.4156 570.70001,552.39999 509.87679,782.53172 542.70001,513.39999 509.71042,782.59238 471.70001,533.39999 509.41752,781.94593"
     id="path4195"
     inkscape:connector-curvature="0"
     sodipodi:nodetypes="ccccccccc" /><path
     style="opacity:0.46300001;fill:none;fill-rule:evenodd;stroke:#a1a37b;stroke-width:1px;stroke-linecap:butt;stroke-linejoin:miter;stroke-opacity:1"
     d="M 356.48176,775.67207 507.80261,779.91471 356.73912,775.476 543.15795,662.53498 356.43518,775.64757 571.44222,552.22633 356.69254,775.98336 544.57216,511.21413 356.77097,775.40493 473.86148,536.66998 356.91069,775.35836"
     id="path4191"
     inkscape:connector-curvature="0"
     sodipodi:nodetypes="ccccccccccc" /><path
     style="opacity:0.52100004;fill:none;fill-rule:evenodd;stroke:#5d35f8;stroke-width:1px;stroke-linecap:butt;stroke-linejoin:miter;stroke-opacity:1"
     d="M 509.92393,781.32892 313.34824,741.73094 543.86505,661.82788 313.70179,741.73094 573.56354,552.93343 313.34824,742.08449 543.15795,519.69941 313.87857,741.73095 472.44727,538.7913 313.70179,741.90772 l 43.3103,35.17856 -43.48707,-35.17856"
     id="path4189"
     inkscape:connector-curvature="0"
     sodipodi:nodetypes="cccccccccccc" /><path
     style="fill:none;fill-rule:evenodd;stroke:#5da9f8;stroke-width:1px;stroke-linecap:butt;stroke-linejoin:miter;stroke-opacity:1;opacity:0.492"
     d="m 428.6495,702.73374 81.34514,79.29585 -81.43432,-79.37483 -72.92544,73.49446 73.13352,-73.2074 L 313.98224,741.35701 427.95649,703.40722 542.82672,661.97199 428.47625,703.29342 572.22858,553.67514 429.4614,703.55586 542.82672,516.92282 428.85247,702.95202 472.75229,537.01409 428.88219,702.80849 311.53209,498.79167 429.37733,703.04629"
     id="path4181"
     inkscape:connector-curvature="0"
     sodipodi:nodetypes="ccccccccccccccccc" /><path
     style="opacity:0.51099997;fill:none;fill-rule:evenodd;stroke:#5da976;stroke-width:1px;stroke-linecap:butt;stroke-linejoin:miter;stroke-opacity:1"
     d="m 310.70001,499.39999 4,246 -3.625,-246.125 45.625,280.125 -45.875,-280.25 196.875,283.25 -197.375,-283.125 234.375,163.125 -234.25,-163.375 260.25,52.375 -260,-51.875 233,16.875 -233.125,-17 162.125,36 z"
     id="path4185"
     inkscape:connector-curvature="0"
     sodipodi:nodetypes="ccccccccccccccc" /><path
     style="fill:none;fill-rule:evenodd;stroke:#4affa0;stroke-width:1px;stroke-linecap:butt;stroke-linejoin:miter;stroke-opacity:0"
     d="m 313.98224,740.86698 -1.96012,-243.5454 3.92025,239.62516 L 471.77222,539.46424 317.41246,733.02649 541.84666,516.92282 311.53209,737.43677 569.77842,553.18511 313.00218,735.96667 543.80678,661.48196 311.04206,736.4567 508.52455,776.63925 307.61184,732.53646"
     id="path4177"
     inkscape:connector-curvature="0" /><g
     id="g3"
     style="fill:#ffffff"
     transform="matrix(0.79046092,0,0,0.73783117,115.03075,130.66786)"><circle
       cx="396"
       cy="566.5"
       r="40.299999"
       id="circle5"
       style="fill:#ffffff" /><path
       d="M 396,775.5 300.7,635.4 c -14.7,-19.8 -22,-44 -22,-68.9 0,-65.3 52.8,-118.1 118.1,-118.1 65.3,0 118.1,52.8 118.1,118.1 0,24.9 -7.3,48.4 -22,68.9 L 396,775.5 Z M 320.5,614.9 396,725.7 468.6,619.4 c 11,-15.4 16.9,-33.7 16.9,-52.8 0,-49.9 -40.3,-90.2 -90.2,-90.2 -49.9,0 -89.5,40.3 -89.5,90.2 0,16.8 5.1,33.7 14.7,48.3 z"
       id="path7"
       style="fill:#ffffff"
       inkscape:connector-curvature="0" /></g><g
     transform="matrix(0.52283179,0,0,0.49363963,149.61898,394.40792)"
     style="fill:#ffffff"
     id="g4139"><circle
       style="fill:#ffffff"
       id="circle4141"
       r="40.299999"
       cy="566.5"
       cx="396" /><path
       inkscape:connector-curvature="0"
       style="fill:#ffffff"
       id="path4143"
       d="M 396,775.5 300.7,635.4 c -14.7,-19.8 -22,-44 -22,-68.9 0,-65.3 52.8,-118.1 118.1,-118.1 65.3,0 118.1,52.8 118.1,118.1 0,24.9 -7.3,48.4 -22,68.9 L 396,775.5 Z M 320.5,614.9 396,725.7 468.6,619.4 c 11,-15.4 16.9,-33.7 16.9,-52.8 0,-49.9 -40.3,-90.2 -90.2,-90.2 -49.9,0 -89.5,40.3 -89.5,90.2 0,16.8 5.1,33.7 14.7,48.3 z" /></g><g
     id="g4145"
     style="fill:#ffffff"
     transform="matrix(0.18435072,0,0,0.18435072,436.61002,639.89195)"><circle
       cx="396"
       cy="566.5"
       r="40.299999"
       id="circle4147"
       style="fill:#ffffff" /><path
       d="M 396,775.5 300.7,635.4 c -14.7,-19.8 -22,-44 -22,-68.9 0,-65.3 52.8,-118.1 118.1,-118.1 65.3,0 118.1,52.8 118.1,118.1 0,24.9 -7.3,48.4 -22,68.9 L 396,775.5 Z M 320.5,614.9 396,725.7 468.6,619.4 c 11,-15.4 16.9,-33.7 16.9,-52.8 0,-49.9 -40.3,-90.2 -90.2,-90.2 -49.9,0 -89.5,40.3 -89.5,90.2 0,16.8 5.1,33.7 14.7,48.3 z"
       id="path4149"
       style="fill:#ffffff"
       inkscape:connector-curvature="0" /></g><g
     transform="matrix(0.12567092,0,0,0.12567092,492.96408,566.20397)"
     style="fill:#ffffff"
     id="g4151"><circle
       style="fill:#ffffff"
       id="circle4153"
       r="40.299999"
       cy="566.5"
       cx="396" /><path
       inkscape:connector-curvature="0"
       style="fill:#ffffff"
       id="path4155"
       d="M 396,775.5 300.7,635.4 c -14.7,-19.8 -22,-44 -22,-68.9 0,-65.3 52.8,-118.1 118.1,-118.1 65.3,0 118.1,52.8 118.1,118.1 0,24.9 -7.3,48.4 -22,68.9 L 396,775.5 Z M 320.5,614.9 396,725.7 468.6,619.4 c 11,-15.4 16.9,-33.7 16.9,-52.8 0,-49.9 -40.3,-90.2 -90.2,-90.2 -49.9,0 -89.5,40.3 -89.5,90.2 0,16.8 5.1,33.7 14.7,48.3 z" /></g><g
     id="g4157"
     style="fill:#ffffff"
     transform="matrix(0.13740688,0,0,0.13740688,257.03691,394.14269)"><circle
       cx="396"
       cy="566.5"
       r="40.299999"
       id="circle4159"
       style="fill:#ffffff" /><path
       d="M 396,775.5 300.7,635.4 c -14.7,-19.8 -22,-44 -22,-68.9 0,-65.3 52.8,-118.1 118.1,-118.1 65.3,0 118.1,52.8 118.1,118.1 0,24.9 -7.3,48.4 -22,68.9 L 396,775.5 Z M 320.5,614.9 396,725.7 468.6,619.4 c 11,-15.4 16.9,-33.7 16.9,-52.8 0,-49.9 -40.3,-90.2 -90.2,-90.2 -49.9,0 -89.5,40.3 -89.5,90.2 0,16.8 5.1,33.7 14.7,48.3 z"
       id="path4161"
       style="fill:#ffffff"
       inkscape:connector-curvature="0" /></g><g
     id="g4149"
     style="fill:#ffffff"
     transform="matrix(0.53230121,0,0,0.45225838,103.59014,392.9354)"><circle
       cx="396"
       cy="566.5"
       r="40.299999"
       id="circle4151"
       style="fill:#ffffff" /><path
       d="M 396,775.5 300.7,635.4 c -14.7,-19.8 -22,-44 -22,-68.9 0,-65.3 52.8,-118.1 118.1,-118.1 65.3,0 118.1,52.8 118.1,118.1 0,24.9 -7.3,48.4 -22,68.9 L 396,775.5 Z M 320.5,614.9 396,725.7 468.6,619.4 c 11,-15.4 16.9,-33.7 16.9,-52.8 0,-49.9 -40.3,-90.2 -90.2,-90.2 -49.9,0 -89.5,40.3 -89.5,90.2 0,16.8 5.1,33.7 14.7,48.3 z"
       id="path4153"
       style="fill:#ffffff"
       inkscape:connector-curvature="0" /></g><g
     transform="matrix(0.38500146,0,0,0.32192302,319.43478,291.37778)"
     style="fill:#ffffff"
     id="g4155"><circle
       style="fill:#ffffff"
       id="circle4157"
       r="40.299999"
       cy="566.5"
       cx="396" /><path
       inkscape:connector-curvature="0"
       style="fill:#ffffff"
       id="path4159"
       d="M 396,775.5 300.7,635.4 c -14.7,-19.8 -22,-44 -22,-68.9 0,-65.3 52.8,-118.1 118.1,-118.1 65.3,0 118.1,52.8 118.1,118.1 0,24.9 -7.3,48.4 -22,68.9 L 396,775.5 Z M 320.5,614.9 396,725.7 468.6,619.4 c 11,-15.4 16.9,-33.7 16.9,-52.8 0,-49.9 -40.3,-90.2 -90.2,-90.2 -49.9,0 -89.5,40.3 -89.5,90.2 0,16.8 5.1,33.7 14.7,48.3 z" /></g><g
     id="g4161"
     style="fill:#ffffff"
     transform="matrix(0.30201569,0,0,0.25600629,422.56292,320.93484)"><circle
       cx="396"
       cy="566.5"
       r="40.299999"
       id="circle4163"
       style="fill:#ffffff" /><path
       d="M 396,775.5 300.7,635.4 c -14.7,-19.8 -22,-44 -22,-68.9 0,-65.3 52.8,-118.1 118.1,-118.1 65.3,0 118.1,52.8 118.1,118.1 0,24.9 -7.3,48.4 -22,68.9 L 396,775.5 Z M 320.5,614.9 396,725.7 468.6,619.4 c 11,-15.4 16.9,-33.7 16.9,-52.8 0,-49.9 -40.3,-90.2 -90.2,-90.2 -49.9,0 -89.5,40.3 -89.5,90.2 0,16.8 5.1,33.7 14.7,48.3 z"
       id="path4165"
       style="fill:#ffffff"
       inkscape:connector-curvature="0" /></g><g
     transform="matrix(0.21280598,0,0,0.18409712,487.42567,413.17891)"
     style="fill:#ffffff"
     id="g4167"><circle
       style="fill:#ffffff"
       id="circle4169"
       r="40.299999"
       cy="566.5"
       cx="396" /><path
       inkscape:connector-curvature="0"
       style="fill:#ffffff"
       id="path4171"
       d="M 396,775.5 300.7,635.4 c -14.7,-19.8 -22,-44 -22,-68.9 0,-65.3 52.8,-118.1 118.1,-118.1 65.3,0 118.1,52.8 118.1,118.1 0,24.9 -7.3,48.4 -22,68.9 L 396,775.5 Z M 320.5,614.9 396,725.7 468.6,619.4 c 11,-15.4 16.9,-33.7 16.9,-52.8 0,-49.9 -40.3,-90.2 -90.2,-90.2 -49.9,0 -89.5,40.3 -89.5,90.2 0,16.8 5.1,33.7 14.7,48.3 z" /></g><path
     style="fill:none;fill-rule:evenodd;stroke:#4affa0;stroke-width:1px;stroke-linecap:butt;stroke-linejoin:miter;stroke-opacity:0;fill-opacity:1"
     d="m 313.98224,742.82711 42.6327,34.30217 153.3797,4.90031 32.34205,-118.09747 29.40186,-110.74701 -29.89189,-39.20248 -70.56447,24.01152 99.47629,15.68099 -142.10898,147.49933 43.61275,-163.18032 -160.73016,-38.71245 116.13734,199.93265 114.66726,-37.24236 -115.64732,37.73239 82.32521,81.34515 -81.34515,-81.83518 -69.5844,76.93487 70.56447,-76.44484 z"
     id="path4173"
     inkscape:connector-curvature="0" /></svg>