<?xml version="1.0" encoding="UTF-8" standalone="no"?>
<!-- Created with Inkscape (http://www.inkscape.org/) -->

<svg
   xmlns:dc="http://purl.org/dc/elements/1.1/"
   xmlns:cc="http://creativecommons.org/ns#"
   xmlns:rdf="http://www.w3.org/1999/02/22-rdf-syntax-ns#"
   xmlns:svg="http://www.w3.org/2000/svg"
   xmlns="http://www.w3.org/2000/svg"
   xmlns:xlink="http://www.w3.org/1999/xlink"
   xmlns:sodipodi="http://sodipodi.sourceforge.net/DTD/sodipodi-0.dtd"
   xmlns:inkscape="http://www.inkscape.org/namespaces/inkscape"
   id="svg2"
   version="1.1"
   inkscape:version="0.91 r13725"
   xml:space="preserve"
   width="400.00006"
   height="400.59521"
   viewBox="0 0 400.00006 400.59521"
   sodipodi:docname="pers_communities2.svg"><metadata
     id="metadata8"><rdf:RDF><cc:Work
         rdf:about=""><dc:format>image/svg+xml</dc:format><dc:type
           rdf:resource="http://purl.org/dc/dcmitype/StillImage" /><dc:title /></cc:Work></rdf:RDF></metadata><defs
     id="defs6"><linearGradient
       inkscape:collect="always"
       id="linearGradient6134"><stop
         style="stop-color:#4d4398;stop-opacity:1;"
         offset="0"
         id="stop6136" /><stop
         style="stop-color:#4d4398;stop-opacity:0;"
         offset="1"
         id="stop6138" /></linearGradient><clipPath
       clipPathUnits="userSpaceOnUse"
       id="clipPath986"><path
         d="m 361.336,123.925 225.863,227.687 -225.863,0 0,-227.687 z"
         id="path988"
         inkscape:connector-curvature="0"
         style="clip-rule:evenodd" /></clipPath><clipPath
       clipPathUnits="userSpaceOnUse"
       id="clipPath994"><path
         d="m 443.12574,634.04329 312.16066,0 0,314.91097 -312.16066,0 0,-314.91097 z"
         id="path996"
         inkscape:connector-curvature="0" /></clipPath><linearGradient
       x1="517.04407"
       y1="698.65332"
       x2="517.04407"
       y2="656.08582"
       gradientUnits="userSpaceOnUse"
       spreadMethod="pad"
       id="linearGradient998"><stop
         style="stop-opacity:0.23529412;stop-color:#ffffff"
         offset="0"
         id="stop1000" /><stop
         style="stop-opacity:0;stop-color:#ffffff"
         offset="1"
         id="stop1002" /></linearGradient><mask
       maskUnits="userSpaceOnUse"
       x="0"
       y="0"
       width="1"
       height="1"
       id="mask1004"><g
         id="g1006"><g
           clip-path="url(#clipPath994)"
           id="g1008"><path
             d="m 443.12574,634.04329 312.16066,0 0,314.91097 -312.16066,0 0,-314.91097 z"
             style="fill:url(#linearGradient998);stroke:none"
             id="path1010"
             inkscape:connector-curvature="0" /></g></g></mask><linearGradient
       x1="517.04407"
       y1="698.65332"
       x2="517.04407"
       y2="656.08582"
       gradientUnits="userSpaceOnUse"
       spreadMethod="pad"
       id="linearGradient1014"><stop
         style="stop-opacity:1;stop-color:#d200d2"
         offset="0"
         id="stop1016" /><stop
         style="stop-opacity:1;stop-color:#d200d2"
         offset="1"
         id="stop1018" /></linearGradient><clipPath
       clipPathUnits="userSpaceOnUse"
       id="clipPath1026"><path
         d="m 459.531,224.054 121,119.925 -121,0 0,-119.925 z"
         id="path1028"
         inkscape:connector-curvature="0"
         style="clip-rule:evenodd" /></clipPath><clipPath
       clipPathUnits="userSpaceOnUse"
       id="clipPath1034"><path
         d="m 565.85039,635.12887 189.05279,0 0,187.50318 -189.05279,0 0,-187.50318 z"
         id="path1036"
         inkscape:connector-curvature="0" /></clipPath><linearGradient
       x1="628.20081"
       y1="699.94934"
       x2="628.20081"
       y2="661.12665"
       gradientUnits="userSpaceOnUse"
       spreadMethod="pad"
       id="linearGradient1038"><stop
         style="stop-opacity:0.23529412;stop-color:#ffffff"
         offset="0"
         id="stop1040" /><stop
         style="stop-opacity:0;stop-color:#ffffff"
         offset="1"
         id="stop1042" /></linearGradient><mask
       maskUnits="userSpaceOnUse"
       x="0"
       y="0"
       width="1"
       height="1"
       id="mask1044"><g
         id="g1046"><g
           clip-path="url(#clipPath1034)"
           id="g1048"><path
             d="m 565.85039,635.12887 189.05279,0 0,187.50318 -189.05279,0 0,-187.50318 z"
             style="fill:url(#linearGradient1038);stroke:none"
             id="path1050"
             inkscape:connector-curvature="0" /></g></g></mask><linearGradient
       x1="628.20081"
       y1="699.94934"
       x2="628.20081"
       y2="661.12665"
       gradientUnits="userSpaceOnUse"
       spreadMethod="pad"
       id="linearGradient1054"><stop
         style="stop-opacity:1;stop-color:#d200d2"
         offset="0"
         id="stop1056" /><stop
         style="stop-opacity:1;stop-color:#d200d2"
         offset="1"
         id="stop1058" /></linearGradient><clipPath
       clipPathUnits="userSpaceOnUse"
       id="clipPath1082"><path
         d="m 272,35.276184 309,0 0,309.999996 -309,0 0,-309.999996 z"
         id="path1084"
         inkscape:connector-curvature="0" /></clipPath><linearGradient
       x1="683.13898"
       y1="1238.3615"
       x2="749.86249"
       y2="1171.7046"
       gradientUnits="userSpaceOnUse"
       gradientTransform="matrix(0.512721,0,0,0.512721,195.6132,-275.01301)"
       spreadMethod="pad"
       id="linearGradient1086"><stop
         style="stop-opacity:1;stop-color:#ffffff"
         offset="0"
         id="stop1088" /><stop
         style="stop-opacity:0;stop-color:#ffffff"
         offset="1"
         id="stop1090" /></linearGradient><mask
       maskUnits="userSpaceOnUse"
       x="0"
       y="0"
       width="1"
       height="1"
       id="mask1092"><g
         id="g1094"><g
           clip-path="url(#clipPath1082)"
           id="g1096"><g
             id="g1098"><path
               d="m 0,0 616.80005,0 0,669.27618 L 0,669.27618 0,0 Z"
               style="fill:url(#linearGradient1086);fill-opacity:1;fill-rule:nonzero;stroke:none"
               id="path1100"
               inkscape:connector-curvature="0" /></g></g></g></mask><clipPath
       clipPathUnits="userSpaceOnUse"
       id="clipPath1106"><path
         d="m 272,35.276184 309,0 0,309.999996 -309,0 0,-309.999996 z"
         id="path1108"
         inkscape:connector-curvature="0" /></clipPath><linearGradient
       x1="683.13898"
       y1="1238.3615"
       x2="749.86249"
       y2="1171.7046"
       gradientUnits="userSpaceOnUse"
       gradientTransform="matrix(0.512721,0,0,-0.512721,195.6132,944.28919)"
       spreadMethod="pad"
       id="linearGradient1110"><stop
         style="stop-opacity:1;stop-color:#000000"
         offset="0"
         id="stop1112" /><stop
         style="stop-opacity:1;stop-color:#000000"
         offset="1"
         id="stop1114" /></linearGradient><clipPath
       clipPathUnits="userSpaceOnUse"
       id="clipPath1140"><path
         d="m 360,123.27618 2,0 0,227 -2,0 0,-227 z"
         id="path1142"
         inkscape:connector-curvature="0" /></clipPath><linearGradient
       x1="442.93658"
       y1="680.13422"
       x2="442.93658"
       y2="637.34454"
       gradientUnits="userSpaceOnUse"
       gradientTransform="matrix(0.72719,0,0,0.72719,38.76356,-144.06971)"
       spreadMethod="pad"
       id="linearGradient1144"><stop
         style="stop-opacity:1;stop-color:#ffffff"
         offset="0"
         id="stop1146" /><stop
         style="stop-opacity:0;stop-color:#ffffff"
         offset="1"
         id="stop1148" /></linearGradient><mask
       maskUnits="userSpaceOnUse"
       x="0"
       y="0"
       width="1"
       height="1"
       id="mask1150"><g
         id="g1152"><g
           clip-path="url(#clipPath1140)"
           id="g1154"><g
             id="g1156"><path
               d="m 0,0 616.80005,0 0,669.27618 L 0,669.27618 0,0 Z"
               style="fill:url(#linearGradient1144);fill-opacity:1;fill-rule:nonzero;stroke:none"
               id="path1158"
               inkscape:connector-curvature="0" /></g></g></g></mask><clipPath
       clipPathUnits="userSpaceOnUse"
       id="clipPath1164"><path
         d="m 360,123.27618 2,0 0,227 -2,0 0,-227 z"
         id="path1166"
         inkscape:connector-curvature="0" /></clipPath><linearGradient
       x1="442.93658"
       y1="680.13422"
       x2="442.93658"
       y2="637.34454"
       gradientUnits="userSpaceOnUse"
       gradientTransform="matrix(0.72719,0,0,-0.72719,38.76356,813.34589)"
       spreadMethod="pad"
       id="linearGradient1168"><stop
         style="stop-opacity:1;stop-color:#000000"
         offset="0"
         id="stop1170" /><stop
         style="stop-opacity:1;stop-color:#000000"
         offset="1"
         id="stop1172" /></linearGradient><clipPath
       clipPathUnits="userSpaceOnUse"
       id="clipPath1196"><path
         d="m 458,222.27618 3,0 0,122 -3,0 0,-122 z"
         id="path1198"
         inkscape:connector-curvature="0" /></clipPath><linearGradient
       x1="567.15186"
       y1="673.49152"
       x2="567.15186"
       y2="636.40558"
       gradientUnits="userSpaceOnUse"
       gradientTransform="matrix(0.645322,0,0,0.645322,93.440044,-84.862877)"
       spreadMethod="pad"
       id="linearGradient1200"><stop
         style="stop-opacity:1;stop-color:#ffffff"
         offset="0"
         id="stop1202" /><stop
         style="stop-opacity:0;stop-color:#ffffff"
         offset="1"
         id="stop1204" /></linearGradient><mask
       maskUnits="userSpaceOnUse"
       x="0"
       y="0"
       width="1"
       height="1"
       id="mask1206"><g
         id="g1208"><g
           clip-path="url(#clipPath1196)"
           id="g1210"><g
             id="g1212"><path
               d="m 0,0 616.80005,0 0,669.27618 L 0,669.27618 0,0 Z"
               style="fill:url(#linearGradient1200);fill-opacity:1;fill-rule:nonzero;stroke:none"
               id="path1214"
               inkscape:connector-curvature="0" /></g></g></g></mask><clipPath
       clipPathUnits="userSpaceOnUse"
       id="clipPath1220"><path
         d="m 458,222.27618 3,0 0,122 -3,0 0,-122 z"
         id="path1222"
         inkscape:connector-curvature="0" /></clipPath><linearGradient
       x1="567.15186"
       y1="673.49152"
       x2="567.15186"
       y2="636.40558"
       gradientUnits="userSpaceOnUse"
       gradientTransform="matrix(0.645322,0,0,-0.645322,93.440044,754.13906)"
       spreadMethod="pad"
       id="linearGradient1224"><stop
         style="stop-opacity:1;stop-color:#000000"
         offset="0"
         id="stop1226" /><stop
         style="stop-opacity:1;stop-color:#000000"
         offset="1"
         id="stop1228" /></linearGradient><clipPath
       clipPathUnits="userSpaceOnUse"
       id="clipPath1266"><path
         d="m 459,54.276184 2,0 0,167.999996 -2,0 0,-167.999996 z"
         id="path1268"
         inkscape:connector-curvature="0" /></clipPath><mask
       maskUnits="userSpaceOnUse"
       x="0"
       y="0"
       width="1"
       height="1"
       id="mask1270"><g
         id="g1272"><g
           clip-path="url(#clipPath1266)"
           id="g1274"><path
             d="m 459,54.276184 2,0 0,167.999996 -2,0 0,-167.999996 z"
             style="fill:#000000;fill-opacity:0.98000004;fill-rule:nonzero;stroke:none"
             id="path1276"
             inkscape:connector-curvature="0" /></g></g></mask><clipPath
       clipPathUnits="userSpaceOnUse"
       id="clipPath1282"><path
         d="m 459,54.276184 2,0 0,167.999996 -2,0 0,-167.999996 z"
         id="path1284"
         inkscape:connector-curvature="0" /></clipPath><clipPath
       clipPathUnits="userSpaceOnUse"
       id="clipPath1286"><path
         d="m 459,55 2,0 0,168 -2,0 0,-168 z"
         id="path1288"
         inkscape:connector-curvature="0" /></clipPath><linearGradient
       inkscape:collect="always"
       xlink:href="#linearGradient6134"
       id="linearGradient6140"
       x1="458.81265"
       y1="121.53887"
       x2="463.18625"
       y2="341.11871"
       gradientUnits="userSpaceOnUse"
       gradientTransform="translate(0,64)" /><linearGradient
       inkscape:collect="always"
       xlink:href="#linearGradient6134"
       id="linearGradient6144"
       gradientUnits="userSpaceOnUse"
       x1="458.81265"
       y1="121.53887"
       x2="463.18625"
       y2="341.11871"
       gradientTransform="matrix(0.53881277,0,0,0.54337898,268.40459,222.7131)" /></defs><sodipodi:namedview
     pagecolor="#ffffff"
     bordercolor="#666666"
     borderopacity="1"
     objecttolerance="10"
     gridtolerance="10"
     guidetolerance="10"
     inkscape:pageopacity="0"
     inkscape:pageshadow="2"
     inkscape:window-width="1603"
     inkscape:window-height="994"
     id="namedview4"
     showgrid="false"
     inkscape:zoom="3.0909648"
     inkscape:cx="159.33529"
     inkscape:cy="273.02861"
     inkscape:window-x="44"
     inkscape:window-y="34"
     inkscape:window-maximized="0"
     inkscape:current-layer="g4286" /><g
     id="g10"
     inkscape:groupmode="layer"
     inkscape:label="pers_communities_maggio"
     transform="matrix(1.25,0,0,-1.25,0,400.59522)"><g
       id="g982"><g
         clip-path="url(#clipPath986)"
         id="g984"><g
           transform="matrix(0.72719,0,0,-0.72719,38.763541,813.34591)"
           id="g990"><g
             id="g992" /><g
             mask="url(#mask1004)"
             id="g1012"><path
               inkscape:connector-curvature="0"
               id="path1020"
               style="fill:url(#linearGradient1014);fill-rule:evenodd;stroke:none"
               d="m 361.336,123.925 225.863,227.687 -225.863,0 0,-227.687 z" /></g></g></g></g><g
       id="g1022"><g
         clip-path="url(#clipPath1026)"
         id="g1024"><g
           transform="matrix(0.645322,0,0,-0.645322,93.844079,754.13906)"
           id="g1030"><g
             id="g1032" /><g
             mask="url(#mask1044)"
             id="g1052"><path
               inkscape:connector-curvature="0"
               id="path1060"
               style="fill:url(#linearGradient1054);fill-rule:evenodd;stroke:none"
               d="m 459.531,224.054 121,119.925 -121,0 0,-119.925 z" /></g></g></g></g><g
       id="g6890"
       transform="matrix(0.87306957,0,0,0.87306957,-213.74236,284.06063)"><g
         id="g4286"
         transform="translate(-23.823992,-370.18819)"><path
           style="fill:url(#linearGradient6140);fill-opacity:1;fill-rule:evenodd;stroke:none;stroke-width:0.80000001px;stroke-linecap:butt;stroke-linejoin:miter;stroke-opacity:1"
           d="m 359.95053,187.32568 0,219.57984 219.57984,0 z"
           id="path6124"
           inkscape:connector-curvature="0"
           sodipodi:nodetypes="cccc" /><path
           sodipodi:nodetypes="cccc"
           inkscape:connector-curvature="0"
           id="path6142"
           d="m 462.35053,289.72568 0,119.31507 118.31242,0 z"
           style="fill:url(#linearGradient6144);fill-opacity:1;fill-rule:evenodd;stroke:none;stroke-width:0.80000001px;stroke-linecap:butt;stroke-linejoin:miter;stroke-opacity:1" /><path
           sodipodi:nodetypes="cccc"
           inkscape:connector-curvature="0"
           id="path6146"
           d="m 409.08887,236.9374 -0.86473,133.38907 132.79618,-1.48048 z"
           style="fill:#4d4397;fill-opacity:0.81960784;fill-rule:evenodd;stroke:none;stroke-width:0.80000001px;stroke-linecap:butt;stroke-linejoin:miter;stroke-opacity:1" /><g
           transform="matrix(1,0,0,-1,0,733.27618)"
           id="g1062"><path
             inkscape:connector-curvature="0"
             id="path1064"
             style="fill:none;stroke:#ffffff;stroke-width:1.20000005;stroke-linecap:butt;stroke-linejoin:miter;stroke-miterlimit:4;stroke-dasharray:none;stroke-opacity:1"
             d="m 269.797,615.441 321.683,0" /></g><g
           transform="matrix(-1,0,0,1,0,733.27618)"
           id="g1066"><path
             inkscape:connector-curvature="0"
             id="path1068"
             style="fill:#ffffff;fill-opacity:1;fill-rule:evenodd;stroke:#ffffff;stroke-width:1.20000005;stroke-linecap:butt;stroke-linejoin:miter;stroke-miterlimit:4;stroke-dasharray:none;stroke-opacity:1"
             d="m -579.48,-615.441 4.8,-4.801 -16.8,4.801 16.8,4.8 -4.8,-4.8 z" /></g><g
           transform="matrix(1,0,0,-1,0,733.27618)"
           id="g1070"><path
             inkscape:connector-curvature="0"
             id="path1072"
             style="fill:none;stroke:#ffffff;stroke-width:1.20000005;stroke-linecap:butt;stroke-linejoin:miter;stroke-miterlimit:4;stroke-dasharray:none;stroke-opacity:1"
             d="m 291.203,635.801 0,-312.199" /></g><g
           transform="matrix(0,-1,-1,0,0,733.27618)"
           id="g1074"><path
             inkscape:connector-curvature="0"
             id="path1076"
             style="fill:#ffffff;fill-opacity:1;fill-rule:evenodd;stroke:#ffffff;stroke-width:1.20000005;stroke-linecap:butt;stroke-linejoin:miter;stroke-miterlimit:4;stroke-dasharray:none;stroke-opacity:1"
             d="m 335.602,-291.203 4.8,-4.801 -16.8,4.801 16.8,4.801 -4.8,-4.801 z" /></g><g
           id="g1078"
           transform="translate(0,64)"><g
             id="g1080" /><g
             mask="url(#mask1092)"
             id="g1102"><g
               id="g1104" /><g
               id="g1116"><g
                 id="g1118"
                 clip-path="url(#clipPath1106)"><g
                   id="g1120"><g
                     id="g1122"
                     transform="matrix(1,0,0,-1,0,669.27618)"><path
                       inkscape:connector-curvature="0"
                       id="path1124"
                       style="fill:none;stroke:url(#linearGradient1110);stroke-width:1.20000005;stroke-linecap:butt;stroke-linejoin:miter;stroke-miterlimit:4;stroke-dasharray:none;stroke-opacity:1"
                       d="M 273.258,633.395 580.387,325.391" /></g></g></g></g></g></g><g
           style="stroke:none"
           transform="matrix(1,0,0,-1,0,733.27618)"
           id="g1128"><path
             inkscape:connector-curvature="0"
             id="path1130"
             style="fill:none;stroke:none;stroke-width:0.919375;stroke-linecap:butt;stroke-linejoin:miter;stroke-miterlimit:4;stroke-dasharray:none;stroke-opacity:1"
             d="m 409.715,496.449 131.93,-132.238 -131.93,0 0,132.238 z" /></g><path
           inkscape:connector-curvature="0"
           id="path1132"
           style="fill:#ffffff;fill-opacity:1;fill-rule:nonzero;stroke:none"
           d="m 286.004,129.159 c -0.211,0 -0.402,-0.07 -0.578,-0.203 -0.18,-0.125 -0.356,-0.344 -0.531,-0.656 -0.18,-0.305 -0.325,-0.782 -0.438,-1.438 -0.105,-0.656 -0.156,-1.449 -0.156,-2.375 0,-2.75 0.551,-4.125 1.656,-4.125 0.094,0 0.191,0.016 0.297,0.047 0.101,0.031 0.226,0.086 0.375,0.172 0.144,0.094 0.285,0.242 0.422,0.453 0.133,0.207 0.242,0.469 0.328,0.781 0.176,0.664 0.266,1.766 0.266,3.297 0,1.988 -0.309,3.25 -0.922,3.781 -0.211,0.176 -0.45,0.266 -0.719,0.266 z m -0.063,-9.359 c -0.636,0 -1.179,0.222 -1.625,0.671 -0.437,0.438 -0.781,1.032 -1.031,1.782 -0.25,0.75 -0.375,1.551 -0.375,2.406 0,1.52 0.305,2.742 0.922,3.672 0.613,0.926 1.336,1.39 2.172,1.39 0.781,0 1.43,-0.351 1.953,-1.046 0.719,-0.961 1.078,-2.246 1.078,-3.86 0,-0.886 -0.105,-1.672 -0.312,-2.359 -0.2,-0.688 -0.461,-1.215 -0.782,-1.578 -0.324,-0.367 -0.656,-0.637 -1,-0.813 -0.343,-0.176 -0.679,-0.265 -1,-0.265 z" /><path
           inkscape:connector-curvature="0"
           id="path1134"
           style="fill:#ffffff;fill-opacity:1;fill-rule:nonzero;stroke:none"
           d="m 408.746,115.647 c -0.199,0 -0.371,-0.027 -0.516,-0.078 -0.148,-0.043 -0.304,-0.172 -0.468,-0.39 -0.168,-0.211 -0.305,-0.516 -0.407,-0.922 -0.156,-0.024 -0.328,-0.008 -0.515,0.047 0.207,1.332 0.316,2.187 0.328,2.562 0,0.031 0.02,0.047 0.062,0.047 0.04,-0.012 0.129,-0.055 0.266,-0.125 0.145,-0.063 0.32,-0.094 0.531,-0.094 l 3.297,0 c 0.426,0 0.836,0.055 1.235,0.172 l 0.25,-0.187 c -1.149,-2.825 -2.34,-6.075 -3.579,-9.75 l -1.093,-0.063 -0.125,0.125 c 0.789,1.758 1.992,4.645 3.609,8.656 l -2.875,0 z" /><path
           inkscape:connector-curvature="0"
           id="path1184"
           style="fill:#ffffff;fill-opacity:1;fill-rule:nonzero;stroke:none"
           d="m 457.391,108.335 c 0,-0.637 0.082,-1.031 0.25,-1.188 0.164,-0.156 0.547,-0.246 1.14,-0.265 0.051,-0.055 0.078,-0.149 0.078,-0.282 0,-0.125 -0.027,-0.211 -0.078,-0.25 -1.062,0.024 -1.715,0.032 -1.953,0.032 -0.437,0 -1.18,-0.008 -2.219,-0.032 -0.043,0.039 -0.062,0.125 -0.062,0.25 0,0.133 0.019,0.227 0.062,0.282 0.614,0.019 1.024,0.113 1.235,0.281 0.207,0.164 0.312,0.555 0.312,1.172 l 0,5.219 c 0,0.625 -0.105,0.929 -0.312,0.921 -0.293,0 -0.758,-0.132 -1.391,-0.39 -0.137,0.082 -0.219,0.222 -0.25,0.422 1.5,0.695 2.547,1.234 3.141,1.609 0.062,0 0.094,-0.027 0.094,-0.078 -0.032,-0.25 -0.047,-0.965 -0.047,-2.141 l 0,-5.562 z" /><path
           inkscape:connector-curvature="0"
           id="path1186"
           style="fill:#ffffff;fill-opacity:1;fill-rule:nonzero;stroke:none"
           d="m 463.707,115.585 c -0.211,0 -0.402,-0.071 -0.578,-0.203 -0.18,-0.125 -0.356,-0.344 -0.531,-0.657 -0.18,-0.304 -0.325,-0.781 -0.438,-1.437 -0.105,-0.656 -0.156,-1.449 -0.156,-2.375 0,-2.75 0.551,-4.125 1.656,-4.125 0.094,0 0.192,0.016 0.297,0.047 0.102,0.031 0.227,0.086 0.375,0.172 0.145,0.093 0.285,0.242 0.422,0.453 0.133,0.207 0.242,0.469 0.328,0.781 0.176,0.664 0.266,1.766 0.266,3.297 0,1.988 -0.309,3.25 -0.922,3.781 -0.211,0.176 -0.449,0.266 -0.719,0.266 z m -0.062,-9.36 c -0.637,0 -1.18,0.223 -1.625,0.672 -0.438,0.438 -0.782,1.032 -1.032,1.782 -0.25,0.75 -0.375,1.55 -0.375,2.406 0,1.519 0.305,2.742 0.922,3.672 0.613,0.925 1.336,1.39 2.172,1.39 0.781,0 1.43,-0.351 1.953,-1.047 0.719,-0.961 1.078,-2.246 1.078,-3.859 0,-0.887 -0.105,-1.672 -0.312,-2.359 -0.199,-0.688 -0.461,-1.215 -0.781,-1.578 -0.325,-0.368 -0.657,-0.637 -1,-0.813 -0.344,-0.176 -0.68,-0.266 -1,-0.266 z" /><path
           inkscape:connector-curvature="0"
           id="path1188"
           style="fill:#ffffff;fill-opacity:1;fill-rule:nonzero;stroke:none"
           d="m 373.211,318.538 2.734,0 0,9.453 -2.968,-0.594 0,1.532 2.953,0.593 1.687,0 0,-10.984 2.735,0 0,-1.406 -7.141,0 0,1.406 z" /><path
           inkscape:connector-curvature="0"
           id="path1190"
           style="fill:#ffffff;fill-opacity:1;fill-rule:nonzero;stroke:none"
           d="m 469.535,381.679 4.813,0 0,-1.157 -6.469,0 0,1.157 c 0.519,0.539 1.234,1.269 2.141,2.187 0.906,0.914 1.472,1.504 1.703,1.766 0.437,0.5 0.742,0.922 0.922,1.265 0.175,0.344 0.265,0.68 0.265,1.016 0,0.539 -0.195,0.984 -0.578,1.328 -0.375,0.344 -0.871,0.516 -1.484,0.516 -0.43,0 -0.883,-0.078 -1.36,-0.235 -0.48,-0.148 -0.996,-0.375 -1.547,-0.687 l 0,1.406 c 0.551,0.219 1.067,0.383 1.547,0.5 0.489,0.113 0.938,0.172 1.344,0.172 1.051,0 1.891,-0.266 2.516,-0.797 0.632,-0.523 0.953,-1.227 0.953,-2.109 0,-0.43 -0.078,-0.828 -0.235,-1.203 -0.156,-0.375 -0.445,-0.821 -0.859,-1.329 -0.117,-0.125 -0.48,-0.507 -1.094,-1.14 -0.605,-0.637 -1.465,-1.524 -2.578,-2.656 z" /><path
           inkscape:connector-curvature="0"
           id="path1240"
           style="fill:#ffffff;fill-opacity:1;fill-rule:nonzero;stroke:none"
           d="m 416.902,338.761 4.813,0 0,-1.157 -6.469,0 0,1.157 c 0.52,0.539 1.234,1.269 2.141,2.187 0.906,0.914 1.472,1.504 1.703,1.766 0.437,0.5 0.742,0.922 0.922,1.265 0.176,0.344 0.265,0.68 0.265,1.016 0,0.539 -0.195,0.984 -0.578,1.328 -0.375,0.344 -0.871,0.516 -1.484,0.516 -0.43,0 -0.883,-0.078 -1.36,-0.235 -0.48,-0.148 -0.996,-0.375 -1.546,-0.687 l 0,1.406 c 0.55,0.219 1.066,0.383 1.546,0.5 0.489,0.113 0.938,0.172 1.344,0.172 1.051,0 1.891,-0.266 2.516,-0.797 0.633,-0.523 0.953,-1.227 0.953,-2.109 0,-0.43 -0.078,-0.828 -0.234,-1.203 -0.157,-0.375 -0.446,-0.821 -0.86,-1.329 -0.117,-0.125 -0.48,-0.507 -1.094,-1.14 -0.605,-0.637 -1.464,-1.524 -2.578,-2.656 z" /><path
           inkscape:connector-curvature="0"
           id="path1242"
           style="fill:#ffffff;fill-opacity:1;fill-rule:nonzero;stroke:none"
           d="m 467.941,359.382 c 0.657,-0.137 1.164,-0.43 1.532,-0.875 0.375,-0.45 0.562,-1 0.562,-1.657 0,-1.011 -0.351,-1.793 -1.047,-2.343 -0.687,-0.555 -1.668,-0.828 -2.937,-0.828 -0.43,0 -0.871,0.046 -1.328,0.14 -0.45,0.082 -0.918,0.207 -1.407,0.375 l 0,1.328 c 0.383,-0.218 0.805,-0.386 1.266,-0.5 0.457,-0.117 0.93,-0.172 1.422,-0.172 0.863,0 1.519,0.164 1.969,0.5 0.457,0.344 0.687,0.844 0.687,1.5 0,0.602 -0.215,1.071 -0.64,1.407 -0.418,0.343 -1,0.515 -1.75,0.515 l -1.188,0 0,1.125 1.25,0 c 0.676,0 1.191,0.133 1.547,0.407 0.363,0.281 0.547,0.675 0.547,1.187 0,0.52 -0.188,0.922 -0.563,1.203 -0.367,0.281 -0.898,0.422 -1.593,0.422 -0.375,0 -0.782,-0.043 -1.219,-0.125 -0.43,-0.086 -0.903,-0.215 -1.422,-0.391 l 0,1.235 c 0.519,0.144 1.008,0.254 1.469,0.328 0.457,0.07 0.89,0.109 1.297,0.109 1.05,0 1.878,-0.242 2.484,-0.718 0.613,-0.469 0.922,-1.11 0.922,-1.922 0,-0.575 -0.164,-1.055 -0.485,-1.438 -0.324,-0.387 -0.781,-0.656 -1.375,-0.812 z" /><path
           inkscape:connector-curvature="0"
           id="path1244"
           style="fill:#ffffff;fill-opacity:1;fill-rule:nonzero;stroke:none"
           d="m 279.09,366.889 c 0,-0.636 0.082,-1.031 0.25,-1.187 0.164,-0.156 0.547,-0.246 1.14,-0.266 0.051,-0.054 0.079,-0.148 0.079,-0.281 0,-0.125 -0.028,-0.211 -0.079,-0.25 -1.062,0.024 -1.714,0.031 -1.953,0.031 -0.437,0 -1.179,-0.007 -2.218,-0.031 -0.043,0.039 -0.063,0.125 -0.063,0.25 0,0.133 0.02,0.227 0.063,0.281 0.613,0.02 1.023,0.114 1.234,0.282 0.207,0.164 0.312,0.554 0.312,1.171 l 0,5.219 c 0,0.625 -0.105,0.93 -0.312,0.922 -0.293,0 -0.758,-0.133 -1.391,-0.391 -0.136,0.082 -0.218,0.223 -0.25,0.422 1.5,0.696 2.547,1.235 3.141,1.61 0.062,0 0.094,-0.028 0.094,-0.078 -0.032,-0.25 -0.047,-0.965 -0.047,-2.141 l 0,-5.563 z" /><path
           inkscape:connector-curvature="0"
           id="path1246"
           style="fill:#ffffff;fill-opacity:1;fill-rule:nonzero;stroke:none"
           d="m 286.793,367.968 c 0,0.832 -0.172,1.441 -0.516,1.828 -0.343,0.394 -0.793,0.593 -1.343,0.593 -0.668,0 -1.344,-0.125 -2.032,-0.375 l 0.547,4.61 c 0.613,-0.055 1.188,-0.078 1.719,-0.078 0.644,0 1.52,0.054 2.625,0.172 l 0.125,-0.063 -0.266,-1.094 c -0.656,-0.062 -1.214,-0.093 -1.672,-0.093 -0.367,0 -0.992,0.046 -1.875,0.14 l -0.328,-2.672 c 0.438,0.176 0.961,0.266 1.578,0.266 0.864,0 1.555,-0.293 2.079,-0.875 0.519,-0.574 0.781,-1.266 0.781,-2.078 0,-1.012 -0.32,-1.852 -0.953,-2.516 -0.637,-0.656 -1.45,-0.984 -2.438,-0.984 -0.492,0 -0.992,0.125 -1.5,0.375 -0.512,0.25 -0.765,0.531 -0.765,0.844 0,0.156 0.054,0.289 0.171,0.406 0.125,0.125 0.266,0.187 0.422,0.187 0.289,0 0.567,-0.172 0.828,-0.515 0.008,-0.024 0.04,-0.071 0.094,-0.141 0.051,-0.062 0.086,-0.117 0.11,-0.156 0.019,-0.031 0.054,-0.074 0.109,-0.125 0.051,-0.055 0.098,-0.094 0.141,-0.125 0.039,-0.024 0.093,-0.055 0.156,-0.094 0.07,-0.031 0.14,-0.055 0.203,-0.062 0.07,-0.012 0.148,-0.016 0.234,-0.016 0.489,0 0.907,0.25 1.25,0.75 0.344,0.508 0.516,1.141 0.516,1.891 z" /><g
           transform="matrix(1,0,0,-1,0,733.27618)"
           id="g1252"><path
             inkscape:connector-curvature="0"
             id="path1254"
             style="fill:none;stroke:#ffffff;stroke-width:0.512721;stroke-linecap:butt;stroke-linejoin:miter;stroke-miterlimit:4;stroke-dasharray:none;stroke-opacity:0.09428567"
             d="m 361.047,614.77 0,-68.297" /></g><path
           inkscape:connector-curvature="0"
           id="path1256"
           style="fill:#ffffff;fill-opacity:1;fill-rule:nonzero;stroke:none"
           d="m 361.875,114.675 c -0.813,-1.106 -1.836,-2.637 -3.063,-4.594 l 3.063,0 0,4.594 z m 2.547,-4.594 c 0.156,0 0.234,-0.09 0.234,-0.266 0,-0.094 -0.054,-0.203 -0.156,-0.328 -0.105,-0.117 -0.211,-0.172 -0.312,-0.172 l -1.094,0 0,-1.469 c 0,-0.167 0.008,-0.304 0.031,-0.406 0.031,-0.105 0.098,-0.183 0.203,-0.234 0.113,-0.043 0.203,-0.07 0.266,-0.078 0.062,-0.012 0.211,-0.028 0.453,-0.047 0.07,-0.012 0.125,-0.016 0.156,-0.016 0.051,-0.054 0.078,-0.148 0.078,-0.281 0,-0.125 -0.027,-0.211 -0.078,-0.25 -0.68,0.023 -1.258,0.031 -1.734,0.031 -0.586,0 -1.215,-0.008 -1.891,-0.031 -0.043,0.039 -0.062,0.125 -0.062,0.25 0,0.133 0.019,0.227 0.062,0.281 0.57,0.039 0.926,0.117 1.063,0.235 0.156,0.113 0.234,0.296 0.234,0.546 l 0,1.469 -3.266,0 c -0.336,0 -0.543,0.223 -0.625,0.672 1.645,2.594 3.086,4.649 4.328,6.172 0.094,0.113 0.18,0.172 0.266,0.172 l 0.516,0 0.031,-0.031 c -0.023,-0.094 -0.031,-0.61 -0.031,-1.547 l 0,-4.672 1.328,0 z" /><g
           transform="matrix(1,0,0,-1,0,733.27618)"
           id="g1258"><path
             inkscape:connector-curvature="0"
             id="path1260"
             style="fill:none;stroke:#ffffff;stroke-width:0.512721;stroke-linecap:butt;stroke-linejoin:miter;stroke-miterlimit:4;stroke-dasharray:none;stroke-opacity:0.09428567"
             d="m 410.188,615.105 0,-119.117" /></g><g
           id="g1262"
           transform="translate(0,64)"><g
             id="g1264" /><g
             mask="url(#mask1270)"
             id="g1278"><g
               id="g1280" /><g
               id="g1290"><g
                 id="g1292"
                 clip-path="url(#clipPath1282)"><g
                   id="g1294"
                   transform="translate(0,-0.723816)"><g
                     id="g1296"><g
                       id="g1298"
                       clip-path="url(#clipPath1286)"><g
                         id="g1300"><g
                           id="g1302"
                           transform="matrix(1,0,0,-1,0,670)"><path
                             inkscape:connector-curvature="0"
                             id="path1304"
                             style="fill:none;stroke:#ffffff;stroke-width:0.512721;stroke-linecap:butt;stroke-linejoin:miter;stroke-miterlimit:4;stroke-dasharray:none;stroke-opacity:0.09428567"
                             d="m 459.762,614.68 0,-167.121" /></g></g></g></g></g></g></g></g></g><g
           transform="matrix(1,0,0,-1,0,733.27618)"
           id="g1388"><path
             inkscape:connector-curvature="0"
             id="path1390"
             style="fill:none;stroke:#ffffff;stroke-width:0.512721;stroke-linecap:butt;stroke-linejoin:miter;stroke-miterlimit:4;stroke-dasharray:none;stroke-opacity:0.09428567"
             d="m 292.215,363.57 250.152,0" /></g></g></g></g></svg>