<?xml version="1.0" encoding="UTF-8" standalone="no"?>
<!-- Created with Inkscape (http://www.inkscape.org/) -->

<svg
   xmlns:dc="http://purl.org/dc/elements/1.1/"
   xmlns:cc="http://creativecommons.org/ns#"
   xmlns:rdf="http://www.w3.org/1999/02/22-rdf-syntax-ns#"
   xmlns:svg="http://www.w3.org/2000/svg"
   xmlns="http://www.w3.org/2000/svg"
   xmlns:sodipodi="http://sodipodi.sourceforge.net/DTD/sodipodi-0.dtd"
   xmlns:inkscape="http://www.inkscape.org/namespaces/inkscape"
   id="svg2"
   version="1.1"
   inkscape:version="0.91 r13725"
   xml:space="preserve"
   width="468.5499"
   height="241.22539"
   viewBox="0 0 468.5499 241.22539"
   sodipodi:docname="pers_ex.svg"><metadata
     id="metadata8"><rdf:RDF><cc:Work
         rdf:about=""><dc:format>image/svg+xml</dc:format><dc:type
           rdf:resource="http://purl.org/dc/dcmitype/StillImage" /><dc:title></dc:title></cc:Work></rdf:RDF></metadata><defs
     id="defs6"><clipPath
       clipPathUnits="userSpaceOnUse"
       id="clipPath18"><path
         d="m 0,0 595.276,0 0,841.89 L 0,841.89 0,0 Z"
         id="path20"
         inkscape:connector-curvature="0" /></clipPath><clipPath
       clipPathUnits="userSpaceOnUse"
       id="clipPath34"><path
         d="m 96.41016,577.019 355.0601,0 0,180.5577 -355.0601,0 0,-180.5577 z"
         id="path36"
         inkscape:connector-curvature="0" /></clipPath><clipPath
       clipPathUnits="userSpaceOnUse"
       id="clipPath54"><path
         d="m 244.9795,744.7178 6.14655,0 0,10.24425 -6.14655,0 0,-10.24425 z"
         id="path56"
         inkscape:connector-curvature="0" /></clipPath><clipPath
       clipPathUnits="userSpaceOnUse"
       id="clipPath68"><path
         d="m 96.41016,577.019 355.0601,0 0,180.5577 -355.0601,0 0,-180.5577 z"
         id="path70"
         inkscape:connector-curvature="0" /></clipPath><clipPath
       clipPathUnits="userSpaceOnUse"
       id="clipPath108"><path
         d="m 241.2916,590.2345 9.01494,0 0,7.37586 -9.01494,0 0,-7.37586 z"
         id="path110"
         inkscape:connector-curvature="0" /></clipPath><clipPath
       clipPathUnits="userSpaceOnUse"
       id="clipPath128"><path
         d="m 241.2916,606.6253 9.01494,0 0,7.37586 -9.01494,0 0,-7.37586 z"
         id="path130"
         inkscape:connector-curvature="0" /></clipPath><clipPath
       clipPathUnits="userSpaceOnUse"
       id="clipPath148"><path
         d="m 241.2916,629.5724 9.01494,0 0,7.37586 -9.01494,0 0,-7.37586 z"
         id="path150"
         inkscape:connector-curvature="0" /></clipPath><clipPath
       clipPathUnits="userSpaceOnUse"
       id="clipPath168"><path
         d="m 241.2916,654.5684 9.01494,0 0,6.96609 -9.01494,0 0,-6.96609 z"
         id="path170"
         inkscape:connector-curvature="0" /></clipPath><clipPath
       clipPathUnits="userSpaceOnUse"
       id="clipPath188"><path
         d="m 240.8818,682.4327 9.01494,0 0,7.78563 -9.01494,0 0,-7.78563 z"
         id="path190"
         inkscape:connector-curvature="0" /></clipPath><clipPath
       clipPathUnits="userSpaceOnUse"
       id="clipPath208"><path
         d="m 241.7013,715.6241 9.01494,0 0,7.37586 -9.01494,0 0,-7.37586 z"
         id="path210"
         inkscape:connector-curvature="0" /></clipPath><clipPath
       clipPathUnits="userSpaceOnUse"
       id="clipPath228"><path
         d="m 120.4381,617.1224 c -1.7321,23.4072 -6.349,47.5005 2.0382,69.3666 2.4705,6.4408 6.0019,12.3497 10.1676,17.7255 10.0578,12.979 24.4055,22.6426 39.7563,19.5894 34.4387,-6.8501 31.8457,-53.8118 34.7874,-93.0706 0.4942,-6.5961 -0.3282,-13.8601 -5.8183,-14.8468 -4.8394,-0.87 -8.5199,4.3251 -8.5101,10.193 0.0303,17.8316 5.6737,42.9525 -8.7056,37.0244 -7.2988,-3.0094 -4.0632,-14.0289 -8.7719,-19.6083 -3.388,-4.015 -9.262,-4.1633 -13.4478,-0.8257 -7.6234,6.0785 -2.6685,18.2942 1.1149,29.6149 2.7836,8.3277 3.1467,17.4533 -5.3454,19.5435 -8.2188,2.0227 -12.3177,-6.4825 -14.2965,-16.092 -1.6243,-7.8869 -6.0338,-17.2419 -3.9243,-27.5599 1.5555,-7.6074 3.5264,-14.8493 4.9414,-21.8682 3.5556,-17.6382 -7.3787,-30.8315 -17.9033,-25.0021 -5.0975,2.8229 -5.6314,9.7185 -6.0826,15.8163 z"
         id="path230"
         inkscape:connector-curvature="0" /></clipPath><linearGradient
       x1="0"
       y1="0"
       x2="100"
       y2="0"
       gradientUnits="userSpaceOnUse"
       gradientTransform="matrix(-0.03788172,-1.360495,-1.361824,0.03784472,166.2455,735.5477)"
       spreadMethod="pad"
       id="linearGradient240"><stop
         style="stop-opacity:1;stop-color:#185af9"
         offset="0"
         id="stop242" /><stop
         style="stop-opacity:1;stop-color:#00bebc"
         offset="1"
         id="stop244" /></linearGradient><clipPath
       clipPathUnits="userSpaceOnUse"
       id="clipPath252"><path
         d="m 96.41016,577.019 355.0601,0 0,180.5577 -355.0601,0 0,-180.5577 z"
         id="path254"
         inkscape:connector-curvature="0" /></clipPath><clipPath
       clipPathUnits="userSpaceOnUse"
       id="clipPath368"><path
         d="m 277.4091,579.0838 3.27816,0 0,169.0826 -3.27816,0 0,-169.0826 z"
         id="path370"
         inkscape:connector-curvature="0" /></clipPath><clipPath
       clipPathUnits="userSpaceOnUse"
       id="clipPath382"><path
         d="m 278.5491,578.0229 171.531,0 0,3.27816 -171.531,0 0,-3.27816 z"
         id="path384"
         inkscape:connector-curvature="0" /></clipPath><clipPath
       clipPathUnits="userSpaceOnUse"
       id="clipPath396"><path
         d="m 278.8117,579.4428 162.707,0 0,161.6916 -162.707,0 0,-161.6916 z"
         id="path398"
         inkscape:connector-curvature="0" /></clipPath><clipPath
       clipPathUnits="userSpaceOnUse"
       id="clipPath406"><path
         d="m 96.41016,577.019 355.0601,0 0,180.5577 -355.0601,0 0,-180.5577 z"
         id="path408"
         inkscape:connector-curvature="0" /></clipPath><clipPath
       clipPathUnits="userSpaceOnUse"
       id="clipPath426"><path
         d="m 0,0 595.276,0 0,841.89 L 0,841.89 0,0 Z"
         id="path428"
         inkscape:connector-curvature="0" /></clipPath></defs><sodipodi:namedview
     pagecolor="#ffffff"
     bordercolor="#666666"
     borderopacity="1"
     objecttolerance="10"
     gridtolerance="10"
     guidetolerance="10"
     inkscape:pageopacity="0"
     inkscape:pageshadow="2"
     inkscape:window-width="1670"
     inkscape:window-height="937"
     id="namedview4"
     showgrid="false"
     inkscape:zoom="1.3488425"
     inkscape:cx="198.82293"
     inkscape:cy="154.58241"
     inkscape:window-x="129"
     inkscape:window-y="0"
     inkscape:window-maximized="0"
     inkscape:current-layer="g248" /><g
     id="g10"
     inkscape:groupmode="layer"
     inkscape:label="pers_ex"
     transform="matrix(1.25,0,0,-1.25,-96.965212,961.97563)"><g
       id="g12" /><path
       d="m 96.1857,585.03 139.3464,0.2872 -23.2872,40.5673 -92.6208,0 L 96.1857,585.03 Z"
       style="fill:#a7aaa9;fill-opacity:1;fill-rule:nonzero;stroke:none"
       id="path42"
       inkscape:connector-curvature="0" /><g
       id="g44"
       transform="matrix(0,0.40977,0.40977,0,240.472,582.4488)"><path
         d="M 0,0 386.92,0 388,0"
         style="fill:none;stroke:#ffffff;stroke-width:2;stroke-linecap:butt;stroke-linejoin:miter;stroke-miterlimit:4;stroke-dasharray:none;stroke-opacity:1"
         id="path46"
         inkscape:connector-curvature="0" /></g><path
       d="m 242.4389,741.0298 -1.9669,3.9338 -1.9669,-3.9338 3.9338,0 z"
       style="fill:#ffffff;fill-opacity:1;fill-rule:nonzero;stroke:none"
       id="path48"
       inkscape:connector-curvature="0" /><g
       id="g64"><g
         id="g66"
         clip-path="url(#clipPath68)"><g
           id="g72"
           transform="matrix(0,0.40977,0.40977,0,267.9266,615.6402)"><path
             d="M 0,0 0.548,0 114.514,0 116,0"
             style="fill:none;stroke:#70bf41;stroke-width:2;stroke-linecap:butt;stroke-linejoin:miter;stroke-miterlimit:4;stroke-dasharray:none;stroke-opacity:1"
             id="path74"
             inkscape:connector-curvature="0" /></g><g
           id="g76"
           transform="matrix(-0.655632,0,0,0.655632,269.8935,663.2883)"><path
             d="M 0,0 6,0"
             style="fill:none;stroke:#70bf41;stroke-width:1.25;stroke-linecap:butt;stroke-linejoin:miter;stroke-miterlimit:10;stroke-dasharray:none;stroke-opacity:1"
             id="path78"
             inkscape:connector-curvature="0" /></g><g
           id="g80"
           transform="matrix(0.655632,0,0,-0.655632,265.9597,615.5255)"><path
             d="M 0,0 6,0"
             style="fill:none;stroke:#70bf41;stroke-width:1.25;stroke-linecap:butt;stroke-linejoin:miter;stroke-miterlimit:10;stroke-dasharray:none;stroke-opacity:1"
             id="path82"
             inkscape:connector-curvature="0" /></g><g
           id="g84"
           transform="matrix(0,0.40977,0.40977,0,255.2237,599.6592)"><path
             d="M 0,0 0.514,0 343.104,0 344,0"
             style="fill:none;stroke:#70bf41;stroke-width:2;stroke-linecap:butt;stroke-linejoin:miter;stroke-miterlimit:4;stroke-dasharray:none;stroke-opacity:1"
             id="path86"
             inkscape:connector-curvature="0" /></g><path
           d="m 257.1906,740.2103 -1.9669,3.9338 -1.9669,-3.9338 3.9338,0 z"
           style="fill:#70bf41;fill-opacity:1;fill-rule:nonzero;stroke:none"
           id="path88"
           inkscape:connector-curvature="0" /><g
           id="g90"
           transform="matrix(0.655632,0,0,-0.655632,253.2569,599.5444)"><path
             d="M 0,0 6,0"
             style="fill:none;stroke:#70bf41;stroke-width:1.25;stroke-linecap:butt;stroke-linejoin:miter;stroke-miterlimit:10;stroke-dasharray:none;stroke-opacity:1"
             id="path92"
             inkscape:connector-curvature="0" /></g><g
           id="g94"
           transform="matrix(0,0.40977,0.40977,0,275.3025,724.639)"><path
             d="M 0,0 0.845,0 36.333,0 37,0"
             style="fill:none;stroke:#0365c0;stroke-width:2;stroke-linecap:butt;stroke-linejoin:miter;stroke-miterlimit:4;stroke-dasharray:none;stroke-opacity:1"
             id="path96"
             inkscape:connector-curvature="0" /></g><path
           d="m 277.2694,739.3908 -1.9669,3.9337 -1.9669,-3.9337 3.9338,0 z"
           style="fill:#0365c0;fill-opacity:1;fill-rule:nonzero;stroke:none"
           id="path98"
           inkscape:connector-curvature="0" /><g
           id="g100"
           transform="matrix(0.655632,0,0,-0.655632,273.3356,724.5243)"><path
             d="M 0,0 6,0"
             style="fill:none;stroke:#0365c0;stroke-width:1.25;stroke-linecap:butt;stroke-linejoin:miter;stroke-miterlimit:10;stroke-dasharray:none;stroke-opacity:1"
             id="path102"
             inkscape:connector-curvature="0" /></g></g></g><g
       id="g224"><g
         id="g226"
         clip-path="url(#clipPath228)"><g
           id="g232"><g
             id="g238"><path
               d="m 96.41016,577.019 355.0601,0 0,180.5577 -355.0601,0 0,-180.5577 z"
               style="fill:url(#linearGradient240);stroke:none"
               id="path246"
               inkscape:connector-curvature="0" /></g></g></g></g><g
       id="g248"><g
         transform="matrix(0.40977,0,0,-0.40977,120.4382,617.1226)"
         id="g256"><path
           inkscape:connector-curvature="0"
           id="path258"
           style="fill:none;stroke:#ffffff;stroke-width:1;stroke-linecap:butt;stroke-linejoin:miter;stroke-miterlimit:4;stroke-dasharray:none;stroke-opacity:1"
           d="m 0,0 c -4.227,-57.122 -15.494,-115.919 4.974,-169.281 6.028,-15.718 14.647,-30.139 24.812,-43.257 24.546,-31.675 59.56,-55.258 97.022,-47.806 84.044,16.717 77.716,131.321 84.895,227.128 1.206,16.098 -0.802,33.824 -14.199,36.232 -11.81,2.123 -20.792,-10.554 -20.768,-24.874 0.074,-43.517 13.846,-104.821 -21.245,-90.354 -17.812,7.343 -9.916,34.236 -21.407,47.852 -8.268,9.798 -22.603,10.159 -32.818,2.014 -18.604,-14.833 -6.512,-44.645 2.721,-72.271 6.793,-20.324 7.679,-42.594 -13.045,-47.694 -20.058,-4.936 -30.06,15.82 -34.889,39.271 -3.964,19.246 -14.726,42.076 -9.577,67.256 3.795,18.566 8.606,36.239 12.059,53.368 C 67.212,20.628 40.528,52.824 14.844,38.599 2.404,31.709 1.101,14.881 0,0 Z" /></g><g
         transform="matrix(0.40977,0,0,-0.40977,122.7149,605.4684)"
         id="g260"><path
           inkscape:connector-curvature="0"
           id="path262"
           style="fill:none;stroke:#ffffff;stroke-width:1;stroke-linecap:butt;stroke-linejoin:miter;stroke-miterlimit:4;stroke-dasharray:6, 6;stroke-dashoffset:0;stroke-opacity:1"
           d="M 0,0 C 1.799,2.985 10.627,2.271 17.894,2.425 28.987,2.66 41.995,3.438 41.228,-0.718 40.671,-3.73 31.898,-3.789 24.474,-4.097 11.332,-4.642 -2.539,-4.214 0,0 Z" /></g><g
         transform="matrix(0.40977,0,0,-0.40977,120.0432,625.067)"
         id="g264"><path
           inkscape:connector-curvature="0"
           id="path266"
           style="fill:none;stroke:#ffffff;stroke-width:1;stroke-linecap:butt;stroke-linejoin:miter;stroke-miterlimit:4;stroke-dasharray:6, 6;stroke-dashoffset:0;stroke-opacity:1"
           d="M 0,0 C -0.599,11.897 15.15,13.533 29.609,12.686 45.385,11.762 61.82,7.405 58.867,-4.827 56.276,-15.557 41.442,-13.183 28.742,-12.227 15.897,-11.259 0.588,-11.673 0,0 Z" /></g><g
         transform="matrix(0.40977,0,0,-0.40977,193.2003,629.027)"
         id="g268"><path
           inkscape:connector-curvature="0"
           id="path270"
           style="fill:none;stroke:#ffffff;stroke-width:1;stroke-linecap:butt;stroke-linejoin:miter;stroke-miterlimit:4;stroke-dasharray:6, 6;stroke-dashoffset:0;stroke-opacity:1"
           d="M 0,0 C -0.73,1.777 1.084,3.233 2.914,4.189 11.43,8.639 21.475,6.161 29.601,3.89 31.863,3.258 33.981,1.042 33.42,-1.165 32.832,-3.482 29.926,-3.617 27.317,-3.59 19.261,-3.506 10.222,-4.201 3.036,-2.079 1.787,-1.71 0.489,-1.191 0,0 Z" /></g><g
         transform="matrix(0.40977,0,0,-0.40977,118.464,647.5388)"
         id="g272"><path
           inkscape:connector-curvature="0"
           id="path274"
           style="fill:none;stroke:#ffffff;stroke-width:1;stroke-linecap:butt;stroke-linejoin:miter;stroke-miterlimit:4;stroke-dasharray:6, 6;stroke-dashoffset:0;stroke-opacity:1"
           d="M 0,0 C 1.201,9.541 13.746,8.467 24.577,7.884 37.378,7.195 51.724,5.754 50.088,-4.79 48.669,-13.936 36.439,-12.798 25.9,-12.262 13.154,-11.613 -1.344,-10.678 0,0 Z" /></g><g
         transform="matrix(0.40977,0,0,-0.40977,158.2552,649.9438)"
         id="g276"><path
           inkscape:connector-curvature="0"
           id="path278"
           style="fill:none;stroke:#ffffff;stroke-width:1;stroke-linecap:butt;stroke-linejoin:miter;stroke-miterlimit:4;stroke-dasharray:6, 6;stroke-dashoffset:0;stroke-opacity:1"
           d="M 0,0 C -0.641,3.591 2.702,4.972 6.563,5.672 17.685,7.687 30.637,7.893 42.572,5.272 45.113,4.714 47.797,3.695 47.88,1.281 47.973,-1.383 44.946,-2.638 41.977,-2.969 30.786,-4.217 19.381,-3.186 8.249,-3.765 4.518,-3.96 0.585,-3.281 0,0 Z" /></g><g
         transform="matrix(0.40977,0,0,-0.40977,194.2535,649.8762)"
         id="g280"><path
           inkscape:connector-curvature="0"
           id="path282"
           style="fill:none;stroke:#ffffff;stroke-width:1;stroke-linecap:butt;stroke-linejoin:miter;stroke-miterlimit:4;stroke-dasharray:6, 6;stroke-dashoffset:0;stroke-opacity:1"
           d="M 0,0 C 0.313,1.065 1.464,1.538 2.625,1.823 9.71,3.564 17.51,2.175 24.51,0.417 26.36,-0.048 28.016,-0.872 27.899,-2.497 27.797,-3.924 26.318,-4.726 24.74,-5.166 17.419,-7.206 9.056,-6.87 2.371,-3.404 0.838,-2.609 -0.414,-1.406 0,0 Z" /></g><g
         transform="matrix(0.40977,0,0,-0.40977,118.6424,670.8081)"
         id="g284"><path
           inkscape:connector-curvature="0"
           id="path286"
           style="fill:none;stroke:#ffffff;stroke-width:1;stroke-linecap:butt;stroke-linejoin:miter;stroke-miterlimit:4;stroke-dasharray:6, 6;stroke-dashoffset:0;stroke-opacity:1"
           d="M 0,0 C 0.286,3.653 3.296,5.72 6.788,7.093 17.812,11.431 32.772,13.35 46.763,8.32 51.498,6.617 56.48,4.028 56.469,-0.767 56.46,-4.35 53.902,-6.125 50.902,-7.853 38.322,-15.101 23.105,-14.037 9.269,-9.427 4.368,-7.795 -0.375,-4.791 0,0 Z" /></g><g
         transform="matrix(0.40977,0,0,-0.40977,162.6315,670.1601)"
         id="g288"><path
           inkscape:connector-curvature="0"
           id="path290"
           style="fill:none;stroke:#ffffff;stroke-width:1;stroke-linecap:butt;stroke-linejoin:miter;stroke-miterlimit:4;stroke-dasharray:6, 6;stroke-dashoffset:0;stroke-opacity:1"
           d="M 0,0 C 1.945,5.508 14.158,5.112 24.818,4.587 43.403,3.671 67.447,4.505 86.427,4.762 95.142,4.879 101.798,4.444 101.839,-0.865 101.874,-5.484 92.517,-7.27 83.073,-7.251 63.581,-7.211 44.168,-5.278 24.758,-6.777 11.35,-7.812 -2.082,-5.897 0,0 Z" /></g><g
         transform="matrix(0.40977,0,0,-0.40977,132.9215,704.1027)"
         id="g292"><path
           inkscape:connector-curvature="0"
           id="path294"
           style="fill:none;stroke:#ffffff;stroke-width:1;stroke-linecap:butt;stroke-linejoin:miter;stroke-miterlimit:4;stroke-dasharray:6, 6;stroke-dashoffset:0;stroke-opacity:1"
           d="m 0,0 c 0.558,-4.064 5.163,-5.534 9.561,-6.116 45.518,-6.026 92.368,-9.369 137.479,0.008 3.93,0.817 7.979,2.622 7.914,6.308 -0.065,3.614 -4.049,5.286 -7.878,6.06 C 101.906,15.389 55.47,14.854 9.945,7.801 4.446,6.949 -0.7,5.093 0,0 Z" /></g><path
         inkscape:connector-curvature="0"
         id="path296"
         style="fill:#c82506;fill-opacity:1;fill-rule:nonzero;stroke:none"
         d="m 132.6719,600.6732 c 0.6175,-0.6176 0.6175,-1.6186 0,-2.2362 -0.6175,-0.6175 -1.6186,-0.6175 -2.2361,0 -0.6175,0.6176 -0.6175,1.6186 0,2.2362 0.6175,0.6175 1.6186,0.6175 2.2361,0 z" /><path
         inkscape:connector-curvature="0"
         id="path298"
         style="fill:#c82506;fill-opacity:1;fill-rule:nonzero;stroke:none"
         d="m 156.9916,692.9683 c 0.6176,-0.6175 0.6176,-1.6186 0,-2.2361 -0.6175,-0.6176 -1.6186,-0.6176 -2.2361,0 -0.6175,0.6175 -0.6175,1.6186 0,2.2361 0.6175,0.6175 1.6186,0.6175 2.2361,0 z" /><path
         inkscape:connector-curvature="0"
         id="path300"
         style="fill:#c82506;fill-opacity:1;fill-rule:nonzero;stroke:none"
         d="m 169.2608,641.2274 c 0.6175,-0.6175 0.6175,-1.6186 0,-2.2361 -0.6175,-0.6175 -1.6186,-0.6175 -2.2361,0 -0.6175,0.6175 -0.6175,1.6186 0,2.2361 0.6175,0.6175 1.6186,0.6175 2.2361,0 z" /><path
         inkscape:connector-curvature="0"
         id="path302"
         style="fill:#c82506;fill-opacity:1;fill-rule:nonzero;stroke:none"
         d="m 188.9508,664.7432 c 0.6175,-0.6176 0.6175,-1.6186 0,-2.2362 -0.6175,-0.6175 -1.6186,-0.6175 -2.2361,0 -0.6175,0.6176 -0.6175,1.6186 0,2.2362 0.6175,0.6175 1.6186,0.6175 2.2361,0 z" /><path
         inkscape:connector-curvature="0"
         id="path304"
         style="fill:#c82506;fill-opacity:1;fill-rule:nonzero;stroke:none"
         d="m 201.4012,616.8329 c 0.6175,-0.6176 0.6175,-1.6186 0,-2.2362 -0.6176,-0.6175 -1.6186,-0.6175 -2.2362,0 -0.6175,0.6176 -0.6175,1.6186 0,2.2362 0.6176,0.6175 1.6186,0.6175 2.2362,0 z" /><path
         inkscape:connector-curvature="0"
         id="path306"
         style="fill:#c82506;fill-opacity:1;fill-rule:nonzero;stroke:none"
         d="m 169.2608,725.872 c 0.6175,-0.6175 0.6175,-1.6186 0,-2.2361 -0.6175,-0.6175 -1.6186,-0.6175 -2.2361,0 -0.6175,0.6175 -0.6175,1.6186 0,2.2361 0.6175,0.6176 1.6186,0.6176 2.2361,0 z" /><g
         transform="matrix(0.4097649,-0.0020468,-0.0020468,-0.4097649,168.4852,724.256)"
         id="g308"
         style="stroke:#ffffff;stroke-opacity:1"><path
           inkscape:connector-curvature="0"
           id="path310"
           style="fill:none;stroke:#ffffff;stroke-width:1;stroke-linecap:butt;stroke-linejoin:miter;stroke-miterlimit:4;stroke-dasharray:6, 6;stroke-dashoffset:0;stroke-opacity:1"
           d="M 0,0 653.631,-3.265" /></g><g
         transform="matrix(0.40977,0,0,-0.40977,155.353,691.6225)"
         id="g312"
         style="fill:#ffffff;fill-opacity:1;stroke:#ffffff;stroke-opacity:1"><path
           inkscape:connector-curvature="0"
           id="path314"
           style="fill:#ffffff;stroke:#ffffff;stroke-width:1;stroke-linecap:butt;stroke-linejoin:miter;stroke-miterlimit:4;stroke-dasharray:6, 6;stroke-dashoffset:0;stroke-opacity:1;fill-opacity:1"
           d="M 0,0 622.969,-3.112" /></g><g
         transform="matrix(0.4097649,-0.0020468,-0.0020468,-0.4097649,189.7195,663.2478)"
         id="g316"
         style="fill:#ffffff;fill-opacity:1;stroke:#ffffff;stroke-opacity:1"><path
           inkscape:connector-curvature="0"
           id="path318"
           style="fill:#ffffff;stroke:#ffffff;stroke-width:1;stroke-linecap:butt;stroke-linejoin:miter;stroke-miterlimit:4;stroke-dasharray:6, 6;stroke-dashoffset:0;stroke-opacity:1;fill-opacity:1"
           d="M 0,0 549.992,-2.747" /></g><g
         transform="matrix(0.4097649,-0.0020468,-0.0020468,-0.4097649,170.2917,639.2147)"
         id="g320"
         style="fill:#ffffff;fill-opacity:1;stroke:#ffffff;stroke-opacity:1"><path
           inkscape:connector-curvature="0"
           id="path322"
           style="fill:#ffffff;stroke:#ffffff;stroke-width:1;stroke-linecap:butt;stroke-linejoin:miter;stroke-miterlimit:4;stroke-dasharray:6, 6;stroke-dashoffset:0;stroke-opacity:1;fill-opacity:1"
           d="M 0,0 549.992,-2.747" /></g><g
         transform="matrix(0.4097649,-0.0020468,-0.0020468,-0.4097649,203.1306,615.1815)"
         id="g324"
         style="fill:#ffffff;fill-opacity:1;stroke:#ffffff;stroke-opacity:1"><path
           inkscape:connector-curvature="0"
           id="path326"
           style="fill:#ffffff;stroke:#ffffff;stroke-width:1;stroke-linecap:butt;stroke-linejoin:miter;stroke-miterlimit:4;stroke-dasharray:6, 6;stroke-dashoffset:0;stroke-opacity:1;fill-opacity:1"
           d="M 0,0 549.992,-2.747" /></g><g
         transform="matrix(0.4097649,-0.0020468,-0.0020468,-0.4097649,131.696,599.4837)"
         id="g328"
         style="fill:#ffffff;fill-opacity:1;stroke:#ffffff;stroke-opacity:1"><path
           inkscape:connector-curvature="0"
           id="path330"
           style="fill:#ffffff;stroke:#ffffff;stroke-width:1;stroke-linecap:butt;stroke-linejoin:miter;stroke-miterlimit:4;stroke-dasharray:6, 6;stroke-dashoffset:0;stroke-opacity:1;fill-opacity:1"
           d="M 0,0 549.992,-2.747" /></g><g
         transform="matrix(0,0.40977,0.40977,0,260.9605,640.2264)"
         id="g332"><path
           inkscape:connector-curvature="0"
           id="path334"
           style="fill:none;stroke:#70bf41;stroke-width:2;stroke-linecap:butt;stroke-linejoin:miter;stroke-miterlimit:4;stroke-dasharray:none;stroke-opacity:1"
           d="M 0,0 0.544,0 126.758,0 128,0" /></g><g
         transform="matrix(-0.655632,0,0,0.655632,262.9274,692.7917)"
         id="g336"><path
           inkscape:connector-curvature="0"
           id="path338"
           style="fill:none;stroke:#70bf41;stroke-width:1.25;stroke-linecap:butt;stroke-linejoin:miter;stroke-miterlimit:10;stroke-dasharray:none;stroke-opacity:1"
           d="M 0,0 6,0" /></g><g
         transform="matrix(0.655632,0,0,-0.655632,258.9936,640.1117)"
         id="g340"><path
           inkscape:connector-curvature="0"
           id="path342"
           style="fill:none;stroke:#70bf41;stroke-width:1.25;stroke-linecap:butt;stroke-linejoin:miter;stroke-miterlimit:10;stroke-dasharray:none;stroke-opacity:1"
           d="M 0,0 6,0" /></g><g
         transform="matrix(0,0.40977,0.40977,0,299.4173,598.6021)"
         id="g344"><path
           inkscape:connector-curvature="0"
           id="path346"
           style="fill:none;stroke:#53585f;stroke-width:1;stroke-linecap:butt;stroke-linejoin:miter;stroke-miterlimit:4;stroke-dasharray:6, 6;stroke-dashoffset:0;stroke-opacity:1"
           d="M 0,0 363.081,-1.814" /></g><g
         transform="matrix(0,0.40977,0.40977,0,315.3574,598.6021)"
         id="g348"
         style="fill:#ffffff;fill-opacity:1;stroke:#ffffff;stroke-opacity:1"><path
           inkscape:connector-curvature="0"
           id="path350"
           style="fill:#ffffff;stroke:#ffffff;stroke-width:1;stroke-linecap:butt;stroke-linejoin:miter;stroke-miterlimit:4;stroke-dasharray:6, 6;stroke-dashoffset:0;stroke-opacity:1;fill-opacity:1"
           d="M 0,0 363.081,-1.814" /></g><g
         transform="matrix(0,0.40977,0.40977,0,339.6214,596.2837)"
         id="g352"
         style="fill:#ffffff;fill-opacity:1;stroke:#ffffff;stroke-opacity:1"><path
           inkscape:connector-curvature="0"
           id="path354"
           style="fill:#ffffff;stroke:#ffffff;stroke-width:1;stroke-linecap:butt;stroke-linejoin:miter;stroke-miterlimit:4;stroke-dasharray:6, 6;stroke-dashoffset:0;stroke-opacity:1;fill-opacity:1"
           d="M 0,0 363.081,-1.814" /></g><g
         transform="matrix(0,0.40977,0.40977,0,364.6861,596.2837)"
         id="g356"
         style="fill:#ffffff;fill-opacity:1;stroke:#ffffff;stroke-opacity:1"><path
           inkscape:connector-curvature="0"
           id="path358"
           style="fill:#ffffff;stroke:#ffffff;stroke-width:1;stroke-linecap:butt;stroke-linejoin:miter;stroke-miterlimit:4;stroke-dasharray:6, 6;stroke-dashoffset:0;stroke-opacity:1;fill-opacity:1"
           d="M 0,0 363.081,-1.814" /></g><g
         transform="matrix(0,0.40977,0.40977,0,394.4728,596.2837)"
         id="g360"
         style="fill:#ffffff;fill-opacity:1;stroke:#ffffff;stroke-opacity:1"><path
           inkscape:connector-curvature="0"
           id="path362"
           style="fill:#ffffff;stroke:#ffffff;stroke-width:1;stroke-linecap:butt;stroke-linejoin:miter;stroke-miterlimit:4;stroke-dasharray:6, 6;stroke-dashoffset:0;stroke-opacity:1;fill-opacity:1"
           d="M 0,0 363.081,-1.814" /></g></g><g
       id="g364"><g
         id="g366"
         clip-path="url(#clipPath368)"><g
           id="g372"
           transform="matrix(0,0.40977,0.40977,0,279.1953,579.5805)"><path
             d="M 0,0 404.416,0 405,0"
             style="fill:none;stroke:#ffffff;stroke-width:1;stroke-linecap:butt;stroke-linejoin:miter;stroke-miterlimit:4;stroke-dasharray:none;stroke-opacity:1"
             id="path374"
             inkscape:connector-curvature="0" /></g><path
           d="m 280.4246,745.3324 -1.2293,2.4586 -1.2293,-2.4586 2.4586,0 z"
           style="fill:#ffffff;fill-opacity:1;fill-rule:nonzero;stroke:none"
           id="path376"
           inkscape:connector-curvature="0" /></g></g><g
       id="g378"><g
         id="g380"
         clip-path="url(#clipPath382)"><g
           id="g386"
           transform="matrix(0.40977,0,0,-0.40977,278.9904,579.7853)"><path
             d="M 0,0 410.526,0 411,0"
             style="fill:none;stroke:#ffffff;stroke-width:1;stroke-linecap:butt;stroke-linejoin:miter;stroke-miterlimit:4;stroke-dasharray:none;stroke-opacity:1"
             id="path388"
             inkscape:connector-curvature="0" /></g><path
           d="m 447.201,578.556 2.4586,1.2293 -2.4586,1.2293 0,-2.4586 z"
           style="fill:#ffffff;fill-opacity:1;fill-rule:nonzero;stroke:none"
           id="path390"
           inkscape:connector-curvature="0" /></g></g><g
       id="g392"><g
         id="g394"
         clip-path="url(#clipPath396)"><path
           d="m 441.2593,740.6201 0,-160.6299 -162.0378,0 162.0378,160.6299 z"
           style="fill:#a7aaa9;fill-opacity:1;fill-rule:nonzero;stroke:none"
           id="path400"
           inkscape:connector-curvature="0" /></g></g><g
       id="g402"><g
         id="g404"
         clip-path="url(#clipPath406)"><path
           d="m 341.8233,694.4332 c 1.2002,-1.2002 1.2002,-3.1462 0,-4.3465 -1.2002,-1.2002 -3.1462,-1.2002 -4.3464,0 -1.1998,1.2003 -1.1998,3.1463 0,4.3465 1.2002,1.2002 3.1462,1.2002 4.3464,0 z"
           style="fill:#70bf41;fill-opacity:1;fill-rule:nonzero;stroke:none"
           id="path410"
           inkscape:connector-curvature="0" /><path
           d="m 317.159,665.6368 c 1.2002,-1.2002 1.2002,-3.1462 0,-4.3464 -1.2003,-1.1999 -3.1463,-1.1999 -4.3465,0 -1.2002,1.2002 -1.2002,3.1462 0,4.3464 1.2002,1.2002 3.1462,1.2002 4.3465,0 z"
           style="fill:#70bf41;fill-opacity:1;fill-rule:nonzero;stroke:none"
           id="path412"
           inkscape:connector-curvature="0" /><g
           id="g414"
           transform="matrix(0,0.40977,0.40977,0,298.8642,598.8396)"><path
             d="M 0,0 363,0"
             style="fill:none;stroke:#70bf41;stroke-width:3;stroke-linecap:butt;stroke-linejoin:miter;stroke-miterlimit:4;stroke-dasharray:none;stroke-opacity:1"
             id="path416"
             inkscape:connector-curvature="0" /></g><g
           id="g418"
           transform="matrix(0,0.40977,0.40977,0,393.9309,724.2293)"><path
             d="M 0,0 57,0"
             style="fill:none;stroke:#2d64c0;stroke-width:3;stroke-linecap:butt;stroke-linejoin:miter;stroke-miterlimit:4;stroke-dasharray:none;stroke-opacity:1"
             id="path420"
             inkscape:connector-curvature="0" /></g></g></g></g></svg>