<?xml version="1.0" encoding="UTF-8" standalone="no"?>
<svg
   xmlns:dc="http://purl.org/dc/elements/1.1/"
   xmlns:cc="http://creativecommons.org/ns#"
   xmlns:rdf="http://www.w3.org/1999/02/22-rdf-syntax-ns#"
   xmlns:svg="http://www.w3.org/2000/svg"
   xmlns="http://www.w3.org/2000/svg"
   xmlns:sodipodi="http://sodipodi.sourceforge.net/DTD/sodipodi-0.dtd"
   xmlns:inkscape="http://www.inkscape.org/namespaces/inkscape"
   viewBox="0 0 366.29929 31.139478"
   height="31.139477"
   width="366.29929"
   xml:space="preserve"
   version="1.1"
   id="svg2"
   inkscape:version="0.91 r13725"
   sodipodi:docname="quiver.svg"><sodipodi:namedview
     pagecolor="#ffffff"
     bordercolor="#666666"
     borderopacity="1"
     objecttolerance="10"
     gridtolerance="10"
     guidetolerance="10"
     inkscape:pageopacity="0"
     inkscape:pageshadow="2"
     inkscape:window-width="1639"
     inkscape:window-height="1005"
     id="namedview28"
     showgrid="false"
     fit-margin-top="0"
     fit-margin-left="0"
     fit-margin-right="0"
     fit-margin-bottom="0"
     inkscape:zoom="2.5887176"
     inkscape:cx="161.88117"
     inkscape:cy="-18.424086"
     inkscape:window-x="41"
     inkscape:window-y="1"
     inkscape:window-maximized="1"
     inkscape:current-layer="svg2" /><metadata
     id="metadata8"><rdf:RDF><cc:Work
         rdf:about=""><dc:format>image/svg+xml</dc:format><dc:type
           rdf:resource="http://purl.org/dc/dcmitype/StillImage" /><dc:title></dc:title></cc:Work></rdf:RDF></metadata><defs
     id="defs6"><clipPath
       id="clipPath18"
       clipPathUnits="userSpaceOnUse"><path
         id="path20"
         d="m 0,0 1024,0 0,768 L 0,768 0,0 Z"
         inkscape:connector-curvature="0" /></clipPath></defs><g
     transform="matrix(1.25,0,0,-1.25,-761.96922,256.37695)"
     id="g12" /><path
     id="path42"
     style="fill:none;stroke:#000600;stroke-width:1.25;stroke-linecap:butt;stroke-linejoin:miter;stroke-miterlimit:4;stroke-dasharray:none;stroke-opacity:1"
     d="m 258.96128,16.069914 c -45.55007,0 -91.10016,0 -136.65025,0"
     inkscape:connector-curvature="0" /><path
     id="path54"
     style="fill:none;stroke:#000000;stroke-width:1.15789366;stroke-linecap:butt;stroke-linejoin:miter;stroke-miterlimit:4;stroke-dasharray:none;stroke-opacity:1"
     d="m 96.230129,9.06957 c -28.800904,0 -57.601815,0 -86.4027255,0"
     inkscape:connector-curvature="0" /><path
     d="m 96.230129,21.06957 c -28.800904,0 -57.601815,0 -86.4027255,0"
     style="fill:#000000;fill-opacity:1;stroke:#000600;stroke-width:1.00000012;stroke-linecap:butt;stroke-linejoin:miter;stroke-miterlimit:4;stroke-dasharray:none;stroke-opacity:1"
     id="path4226"
     inkscape:connector-curvature="0" /><path
     d="m 4.310966,8.260458 c 3.7605995,-3.760588 9.857688,-3.760588 13.618276,0 3.760587,3.760537 3.760587,9.857637 0,13.618224 -3.760588,3.760588 -9.8576755,3.760588 -13.618276,0 -3.76053745,-3.760587 -3.76053745,-9.857687 0,-13.618224 z"
     style="fill:#dc3b26;fill-opacity:1;fill-rule:nonzero;stroke:#ffffff;stroke-width:3;stroke-miterlimit:4;stroke-dasharray:none;stroke-opacity:1"
     id="path30"
     inkscape:connector-curvature="0" /><path
     id="path4206"
     style="fill:#dc3b26;fill-opacity:1;fill-rule:nonzero;stroke:#ffffff;stroke-width:3;stroke-miterlimit:4;stroke-dasharray:none;stroke-opacity:1"
     d="m 106.31097,8.260458 c 3.7606,-3.760588 9.85769,-3.760588 13.61827,0 3.76059,3.760537 3.76059,9.857637 0,13.618224 -3.76058,3.760588 -9.85767,3.760588 -13.61827,0 -3.76054,-3.760587 -3.76054,-9.857687 0,-13.618224 z"
     inkscape:connector-curvature="0" /><path
     d="m 256.31097,8.260458 c 3.7606,-3.760588 9.85769,-3.760588 13.61827,0 3.76059,3.760537 3.76059,9.857637 0,13.618224 -3.76058,3.760588 -9.85767,3.760588 -13.61827,0 -3.76054,-3.760587 -3.76054,-9.857687 0,-13.618224 z"
     style="fill:#dc3b26;fill-opacity:1;fill-rule:nonzero;stroke:#ffffff;stroke-width:3;stroke-miterlimit:4;stroke-dasharray:none;stroke-opacity:1"
     id="path4208"
     inkscape:connector-curvature="0" /><path
     id="path4210"
     style="fill:#dc3b26;fill-opacity:1;fill-rule:nonzero;stroke:#ffffff;stroke-width:3;stroke-miterlimit:4;stroke-dasharray:none;stroke-opacity:1"
     d="m 348.37001,9.61814 c 3.7606,-3.76059 9.85768,-3.76059 13.61827,0 3.76059,3.76053 3.76059,9.85763 0,13.61822 -3.76059,3.76059 -9.85767,3.76059 -13.61827,0 -3.76054,-3.76059 -3.76054,-9.85769 0,-13.61822 z"
     inkscape:connector-curvature="0" /><path
     style="opacity:1;fill:#000000;fill-opacity:1;fill-rule:evenodd;stroke:none;stroke-width:1.5;stroke-miterlimit:4;stroke-dasharray:none;stroke-dashoffset:0;stroke-opacity:1"
     id="path4170"
     d="m 240.76778,8 1e-5,15.139479 13.11118,-7.569744 z"
     inkscape:connector-curvature="0" /><path
     d="m 241.47971,8.069914 c -39.72288,0 -79.44578,0 -119.16868,0"
     style="fill:none;stroke:#000600;stroke-width:1.16730905;stroke-linecap:butt;stroke-linejoin:miter;stroke-miterlimit:4;stroke-dasharray:none;stroke-opacity:1"
     id="path4190"
     inkscape:connector-curvature="0" /><path
     d="m 240.76778,0 1e-5,15.139479 13.11118,-7.569744 z"
     id="path4192"
     style="opacity:1;fill:#000000;fill-opacity:1;fill-rule:evenodd;stroke:none;stroke-width:1.5;stroke-miterlimit:4;stroke-dasharray:none;stroke-dashoffset:0;stroke-opacity:1"
     inkscape:connector-curvature="0" /><path
     id="path4194"
     style="fill:none;stroke:#000600;stroke-width:1.18589056;stroke-linecap:butt;stroke-linejoin:miter;stroke-miterlimit:4;stroke-dasharray:none;stroke-opacity:1"
     d="m 245.30381,24.069914 c -40.99758,0 -81.99518,0 -122.99278,0"
     inkscape:connector-curvature="0" /><path
     style="opacity:1;fill:#000000;fill-opacity:1;fill-rule:evenodd;stroke:none;stroke-width:1.5;stroke-miterlimit:4;stroke-dasharray:none;stroke-dashoffset:0;stroke-opacity:1"
     id="path4196"
     d="m 240.76778,16 1e-5,15.139479 13.11118,-7.569744 z"
     inkscape:connector-curvature="0" /><path
     d="m 90.767782,2 3e-6,15.139479 13.111185,-7.569744 z"
     id="path4198"
     style="opacity:1;fill:#000000;fill-opacity:1;fill-rule:evenodd;stroke:none;stroke-width:1.5;stroke-miterlimit:4;stroke-dasharray:none;stroke-dashoffset:0;stroke-opacity:1"
     inkscape:connector-curvature="0" /><path
     style="opacity:1;fill:#000000;fill-opacity:1;fill-rule:evenodd;stroke:none;stroke-width:1.5;stroke-miterlimit:4;stroke-dasharray:none;stroke-dashoffset:0;stroke-opacity:1"
     id="path4228"
     d="m 90.767782,14 3e-6,15.139479 13.111185,-7.569744 z"
     inkscape:connector-curvature="0" /><path
     inkscape:connector-curvature="0"
     d="m 343.30184,15.069571 c -22.49147,0 -44.98295,0 -67.47443,0"
     style="fill:none;stroke:#000000;stroke-width:1.02323306;stroke-linecap:butt;stroke-linejoin:miter;stroke-miterlimit:4;stroke-dasharray:none;stroke-opacity:1"
     id="path4154" /><path
     inkscape:connector-curvature="0"
     style="opacity:1;fill:#000000;fill-opacity:1;fill-rule:evenodd;stroke:none;stroke-width:1.5;stroke-miterlimit:4;stroke-dasharray:none;stroke-dashoffset:0;stroke-opacity:1"
     id="path4156"
     d="m 332.76778,8.000001 10e-6,15.139479 13.11118,-7.569744 z" /></svg>