<?xml version="1.0" encoding="UTF-8" standalone="no"?>
<!-- Created with Inkscape (http://www.inkscape.org/) -->

<svg
   xmlns:dc="http://purl.org/dc/elements/1.1/"
   xmlns:cc="http://creativecommons.org/ns#"
   xmlns:rdf="http://www.w3.org/1999/02/22-rdf-syntax-ns#"
   xmlns:svg="http://www.w3.org/2000/svg"
   xmlns="http://www.w3.org/2000/svg"
   xmlns:sodipodi="http://sodipodi.sourceforge.net/DTD/sodipodi-0.dtd"
   xmlns:inkscape="http://www.inkscape.org/namespaces/inkscape"
   width="212"
   height="151"
   viewBox="0 0 212 151"
   id="svg7200"
   version="1.1"
   inkscape:version="0.91 r13725"
   sodipodi:docname="ranging_air_pd.svg">
  <defs
     id="defs7202">
    <clipPath
       clipPathUnits="userSpaceOnUse"
       id="clipPath1344">
      <path
         d="m 319,409 185,0 0,139 -185,0 0,-139 z"
         id="path1346"
         inkscape:connector-curvature="0" />
    </clipPath>
    <clipPath
       clipPathUnits="userSpaceOnUse"
       id="clipPath1348">
      <path
         d="m 319.571,409.214 184.2555,0 0,138.1916 -184.2555,0 0,-138.1916 z"
         id="path1350"
         inkscape:connector-curvature="0" />
    </clipPath>
    <clipPath
       clipPathUnits="userSpaceOnUse"
       id="clipPath1352">
      <path
         d="m 342.6029,424.4151 142.798,0 0,106.4075 -142.798,0 0,-106.4075 z"
         id="path1354"
         inkscape:connector-curvature="0" />
    </clipPath>
    <clipPath
       clipPathUnits="userSpaceOnUse"
       id="clipPath1356">
      <path
         d="m 319.571,409.214 184.2555,0 0,138.1916 -184.2555,0 0,-138.1916 z"
         id="path1358"
         inkscape:connector-curvature="0" />
    </clipPath>
    <clipPath
       clipPathUnits="userSpaceOnUse"
       id="clipPath1360">
      <path
         d="m 342.6029,424.4151 142.798,0 0,106.4075 -142.798,0 0,-106.4075 z"
         id="path1362"
         inkscape:connector-curvature="0" />
    </clipPath>
    <clipPath
       clipPathUnits="userSpaceOnUse"
       id="clipPath1364">
      <path
         d="m 319.571,409.214 184.2555,0 0,138.1916 -184.2555,0 0,-138.1916 z"
         id="path1366"
         inkscape:connector-curvature="0" />
    </clipPath>
    <clipPath
       clipPathUnits="userSpaceOnUse"
       id="clipPath1368">
      <path
         d="m 338.5204,520.8361 11.25606,0 0,6.78163 -11.25606,0 0,-6.78163 z"
         id="path1370"
         inkscape:connector-curvature="0" />
    </clipPath>
    <clipPath
       clipPathUnits="userSpaceOnUse"
       id="clipPath1372">
      <path
         d="m 319.571,409.214 184.2555,0 0,138.1916 -184.2555,0 0,-138.1916 z"
         id="path1374"
         inkscape:connector-curvature="0" />
    </clipPath>
  </defs>
  <sodipodi:namedview
     id="base"
     pagecolor="#ffffff"
     bordercolor="#666666"
     borderopacity="1.0"
     inkscape:pageopacity="0.0"
     inkscape:pageshadow="2"
     inkscape:zoom="2.8"
     inkscape:cx="118.36093"
     inkscape:cy="109.97176"
     inkscape:document-units="px"
     inkscape:current-layer="layer1"
     showgrid="false"
     inkscape:window-width="1637"
     inkscape:window-height="1005"
     inkscape:window-x="43"
     inkscape:window-y="1"
     inkscape:window-maximized="1"
     units="px" />
  <metadata
     id="metadata7205">
    <rdf:RDF>
      <cc:Work
         rdf:about="">
        <dc:format>image/svg+xml</dc:format>
        <dc:type
           rdf:resource="http://purl.org/dc/dcmitype/StillImage" />
        <dc:title />
      </cc:Work>
    </rdf:RDF>
  </metadata>
  <g
     inkscape:label="Layer 1"
     inkscape:groupmode="layer"
     id="layer1"
     transform="translate(0,-901.36216)">
    <g
       id="g1380"
       transform="matrix(1.25,0,0,-1.25,-408.90916,1573.1066)" />
    <g
       id="g1390"
       transform="matrix(1.25,0,0,-1.25,-402.90916,1567.1066)">
      <g
         clip-path="url(#clipPath1352)"
         id="g1392">
        <g
           transform="matrix(0.39986,0,0,0.39986,319.571,409.214)"
           id="g1394">
          <path
             d="m 101.1691,73.81148 c 0.7956,0 1.5587,0.3161 2.1213,0.87868 0.5626,0.56258 0.8787,1.32571 0.8787,2.12132 0,0.79561 -0.3161,1.55874 -0.8787,2.12132 -0.5626,0.56258 -1.3257,0.87868 -2.1213,0.87868 -0.7956,0 -1.55874,-0.3161 -2.12132,-0.87868 -0.56258,-0.56258 -0.87868,-1.32571 -0.87868,-2.12132 0,-0.79561 0.3161,-1.55874 0.87868,-2.12132 0.56258,-0.56258 1.32572,-0.87868 2.12132,-0.87868 z"
             style="fill:#ff0000;fill-opacity:0.6;fill-rule:nonzero;stroke:#ff0000;stroke-width:1;stroke-linecap:butt;stroke-linejoin:round;stroke-miterlimit:10;stroke-dasharray:none;stroke-opacity:0.6"
             id="path1396"
             inkscape:connector-curvature="0" />
        </g>
        <g
           transform="matrix(0.39986,0,0,0.39986,319.571,409.214)"
           id="g1398">
          <path
             d="m 90.56817,65.7042 c 0.79561,0 1.55874,0.3161 2.12132,0.87868 0.56258,0.56258 0.87868,1.32571 0.87868,2.12132 0,0.79561 -0.3161,1.55874 -0.87868,2.12132 -0.56258,0.56258 -1.32571,0.87868 -2.12132,0.87868 -0.79561,0 -1.55874,-0.3161 -2.12132,-0.87868 -0.56258,-0.56258 -0.87868,-1.32571 -0.87868,-2.12132 0,-0.79561 0.3161,-1.55874 0.87868,-2.12132 0.56258,-0.56258 1.32571,-0.87868 2.12132,-0.87868 z"
             style="fill:#ff0000;fill-opacity:0.6;fill-rule:nonzero;stroke:#ff0000;stroke-width:1;stroke-linecap:butt;stroke-linejoin:round;stroke-miterlimit:10;stroke-dasharray:none;stroke-opacity:0.6"
             id="path1400"
             inkscape:connector-curvature="0" />
        </g>
        <g
           transform="matrix(0.39986,0,0,0.39986,319.571,409.214)"
           id="g1402">
          <path
             d="m 92.17226,70.02168 c 0.79561,0 1.55874,0.3161 2.12132,0.87869 0.56258,0.56258 0.87868,1.32571 0.87868,2.12131 0,0.79562 -0.3161,1.55875 -0.87868,2.12133 -0.56258,0.56258 -1.32571,0.87867 -2.12132,0.87867 -0.79561,0 -1.55874,-0.31609 -2.12132,-0.87867 -0.56258,-0.56258 -0.87868,-1.32571 -0.87868,-2.12133 0,-0.7956 0.3161,-1.55873 0.87868,-2.12131 0.56258,-0.56259 1.32571,-0.87869 2.12132,-0.87869 z"
             style="fill:#ff0000;fill-opacity:0.6;fill-rule:nonzero;stroke:#ff0000;stroke-width:1;stroke-linecap:butt;stroke-linejoin:round;stroke-miterlimit:10;stroke-dasharray:none;stroke-opacity:0.6"
             id="path1404"
             inkscape:connector-curvature="0" />
        </g>
        <g
           transform="matrix(0.39986,0,0,0.39986,319.571,409.214)"
           id="g1406">
          <path
             d="m 92.17226,103.3623 c 0.79561,0 1.55874,0.3161 2.12132,0.8786 0.56258,0.5626 0.87868,1.3258 0.87868,2.1214 0,0.7956 -0.3161,1.5587 -0.87868,2.1213 -0.56258,0.5626 -1.32571,0.8787 -2.12132,0.8787 -0.79561,0 -1.55874,-0.3161 -2.12132,-0.8787 -0.56258,-0.5626 -0.87868,-1.3257 -0.87868,-2.1213 0,-0.7956 0.3161,-1.5588 0.87868,-2.1214 0.56258,-0.5625 1.32571,-0.8786 2.12132,-0.8786 z"
             style="fill:#ff0000;fill-opacity:0.6;fill-rule:nonzero;stroke:#ff0000;stroke-width:1;stroke-linecap:butt;stroke-linejoin:round;stroke-miterlimit:10;stroke-dasharray:none;stroke-opacity:0.6"
             id="path1408"
             inkscape:connector-curvature="0" />
        </g>
        <g
           transform="matrix(0.39986,0,0,0.39986,319.571,409.214)"
           id="g1410">
          <path
             d="m 89.52203,76.40197 c 0.79561,0 1.55874,0.3161 2.12132,0.87868 0.56258,0.56258 0.87868,1.32571 0.87868,2.12132 0,0.79561 -0.3161,1.55874 -0.87868,2.12132 -0.56258,0.56258 -1.32571,0.87868 -2.12132,0.87868 -0.79561,0 -1.55874,-0.3161 -2.12132,-0.87868 -0.56258,-0.56258 -0.87868,-1.32571 -0.87868,-2.12132 0,-0.79561 0.3161,-1.55874 0.87868,-2.12132 0.56258,-0.56258 1.32571,-0.87868 2.12132,-0.87868 z"
             style="fill:#ff0000;fill-opacity:0.6;fill-rule:nonzero;stroke:#ff0000;stroke-width:1;stroke-linecap:butt;stroke-linejoin:round;stroke-miterlimit:10;stroke-dasharray:none;stroke-opacity:0.6"
             id="path1412"
             inkscape:connector-curvature="0" />
        </g>
        <g
           transform="matrix(0.39986,0,0,0.39986,319.571,409.214)"
           id="g1414">
          <path
             d="m 94.12506,60.28336 c 0.79561,0 1.55874,0.3161 2.12132,0.87868 0.56258,0.56258 0.87868,1.32571 0.87868,2.12132 0,0.79561 -0.3161,1.55874 -0.87868,2.12132 -0.56258,0.56258 -1.32571,0.87868 -2.12132,0.87868 -0.79561,0 -1.55874,-0.3161 -2.12132,-0.87868 -0.56258,-0.56258 -0.87868,-1.32571 -0.87868,-2.12132 0,-0.79561 0.3161,-1.55874 0.87868,-2.12132 0.56258,-0.56258 1.32571,-0.87868 2.12132,-0.87868 z"
             style="fill:#ff0000;fill-opacity:0.6;fill-rule:nonzero;stroke:#ff0000;stroke-width:1;stroke-linecap:butt;stroke-linejoin:round;stroke-miterlimit:10;stroke-dasharray:none;stroke-opacity:0.6"
             id="path1416"
             inkscape:connector-curvature="0" />
        </g>
        <g
           transform="matrix(0.39986,0,0,0.39986,319.571,409.214)"
           id="g1418">
          <path
             d="m 100.4019,77.74518 c 0.7956,0 1.5588,0.3161 2.1213,0.87869 0.5626,0.56258 0.8787,1.32571 0.8787,2.12131 0,0.79561 -0.3161,1.55875 -0.8787,2.12133 -0.5625,0.56258 -1.3257,0.87867 -2.1213,0.87867 -0.79558,0 -1.55871,-0.31609 -2.1213,-0.87867 -0.56258,-0.56258 -0.87867,-1.32572 -0.87867,-2.12133 0,-0.7956 0.31609,-1.55873 0.87867,-2.12131 0.56259,-0.56259 1.32572,-0.87869 2.1213,-0.87869 z"
             style="fill:#ff0000;fill-opacity:0.6;fill-rule:nonzero;stroke:#ff0000;stroke-width:1;stroke-linecap:butt;stroke-linejoin:round;stroke-miterlimit:10;stroke-dasharray:none;stroke-opacity:0.6"
             id="path1420"
             inkscape:connector-curvature="0" />
        </g>
        <g
           transform="matrix(0.39986,0,0,0.39986,319.571,409.214)"
           id="g1422">
          <path
             d="m 97.19375,75.8263 c 0.79561,0 1.55874,0.3161 2.12132,0.87868 0.56258,0.56258 0.87873,1.32571 0.87873,2.12132 0,0.79561 -0.31615,1.55874 -0.87873,2.12132 -0.56258,0.56259 -1.32571,0.87868 -2.12132,0.87868 -0.79561,0 -1.55874,-0.31609 -2.12132,-0.87868 -0.56258,-0.56258 -0.87868,-1.32571 -0.87868,-2.12132 0,-0.79561 0.3161,-1.55874 0.87868,-2.12132 0.56258,-0.56258 1.32571,-0.87868 2.12132,-0.87868 z"
             style="fill:#ff0000;fill-opacity:0.6;fill-rule:nonzero;stroke:#ff0000;stroke-width:1;stroke-linecap:butt;stroke-linejoin:round;stroke-miterlimit:10;stroke-dasharray:none;stroke-opacity:0.6"
             id="path1424"
             inkscape:connector-curvature="0" />
        </g>
        <g
           transform="matrix(0.39986,0,0,0.39986,319.571,409.214)"
           id="g1426">
          <path
             d="m 87.36,142.9392 c 0.79561,0 1.55874,0.3161 2.12132,0.8787 0.56258,0.5626 0.87868,1.3257 0.87868,2.1213 0,0.7956 -0.3161,1.5587 -0.87868,2.1213 -0.56258,0.5626 -1.32571,0.8787 -2.12132,0.8787 -0.79561,0 -1.55874,-0.3161 -2.12132,-0.8787 -0.56258,-0.5626 -0.87868,-1.3257 -0.87868,-2.1213 0,-0.7956 0.3161,-1.5587 0.87868,-2.1213 0.56258,-0.5626 1.32571,-0.8787 2.12132,-0.8787 z"
             style="fill:#ff0000;fill-opacity:0.6;fill-rule:nonzero;stroke:#ff0000;stroke-width:1;stroke-linecap:butt;stroke-linejoin:round;stroke-miterlimit:10;stroke-dasharray:none;stroke-opacity:0.6"
             id="path1428"
             inkscape:connector-curvature="0" />
        </g>
        <g
           transform="matrix(0.39986,0,0,0.39986,319.571,409.214)"
           id="g1430">
          <path
             d="m 94.12506,92.37666 c 0.79561,0 1.55874,0.3161 2.12132,0.87868 0.56258,0.56258 0.87868,1.32571 0.87868,2.12132 0,0.79561 -0.3161,1.55874 -0.87868,2.12132 -0.56258,0.56258 -1.32571,0.87868 -2.12132,0.87868 -0.79561,0 -1.55874,-0.3161 -2.12132,-0.87868 -0.56258,-0.56258 -0.87868,-1.32571 -0.87868,-2.12132 0,-0.79561 0.3161,-1.55874 0.87868,-2.12132 0.56258,-0.56258 1.32571,-0.87868 2.12132,-0.87868 z"
             style="fill:#ff0000;fill-opacity:0.6;fill-rule:nonzero;stroke:#ff0000;stroke-width:1;stroke-linecap:butt;stroke-linejoin:round;stroke-miterlimit:10;stroke-dasharray:none;stroke-opacity:0.6"
             id="path1432"
             inkscape:connector-curvature="0" />
        </g>
        <g
           transform="matrix(0.39986,0,0,0.39986,319.571,409.214)"
           id="g1434">
          <path
             d="m 97.19375,260.1877 c 0.79561,0 1.55874,0.3161 2.12132,0.8787 0.56258,0.5626 0.87873,1.3257 0.87873,2.1213 0,0.7956 -0.31615,1.5587 -0.87873,2.1213 -0.56258,0.5626 -1.32571,0.8787 -2.12132,0.8787 -0.79561,0 -1.55874,-0.3161 -2.12132,-0.8787 -0.56258,-0.5626 -0.87868,-1.3257 -0.87868,-2.1213 0,-0.7956 0.3161,-1.5587 0.87868,-2.1213 0.56258,-0.5626 1.32571,-0.8787 2.12132,-0.8787 z"
             style="fill:#ff0000;fill-opacity:0.6;fill-rule:nonzero;stroke:#ff0000;stroke-width:1;stroke-linecap:butt;stroke-linejoin:round;stroke-miterlimit:10;stroke-dasharray:none;stroke-opacity:0.6"
             id="path1436"
             inkscape:connector-curvature="0" />
        </g>
        <g
           transform="matrix(0.39986,0,0,0.39986,319.571,409.214)"
           id="g1438">
          <path
             d="m 87.36,63.97721 c 0.79561,0 1.55874,0.3161 2.12132,0.87868 0.56258,0.56258 0.87868,1.32571 0.87868,2.12132 0,0.79561 -0.3161,1.55874 -0.87868,2.12132 -0.56258,0.56258 -1.32571,0.87868 -2.12132,0.87868 -0.79561,0 -1.55874,-0.3161 -2.12132,-0.87868 C 84.6761,68.53595 84.36,67.77282 84.36,66.97721 c 0,-0.79561 0.3161,-1.55874 0.87868,-2.12132 0.56258,-0.56258 1.32571,-0.87868 2.12132,-0.87868 z"
             style="fill:#ff0000;fill-opacity:0.6;fill-rule:nonzero;stroke:#ff0000;stroke-width:1;stroke-linecap:butt;stroke-linejoin:round;stroke-miterlimit:10;stroke-dasharray:none;stroke-opacity:0.6"
             id="path1440"
             inkscape:connector-curvature="0" />
        </g>
        <g
           transform="matrix(0.39986,0,0,0.39986,319.571,409.214)"
           id="g1442">
          <path
             d="m 92.10252,96.74212 c 0.79561,0 1.55874,0.3161 2.12132,0.87868 0.56258,0.56258 0.87868,1.32571 0.87868,2.12132 0,0.79558 -0.3161,1.55878 -0.87868,2.12128 -0.56258,0.5626 -1.32571,0.8787 -2.12132,0.8787 -0.79561,0 -1.55874,-0.3161 -2.12132,-0.8787 -0.56258,-0.5625 -0.87868,-1.3257 -0.87868,-2.12128 0,-0.79561 0.3161,-1.55874 0.87868,-2.12132 0.56258,-0.56258 1.32571,-0.87868 2.12132,-0.87868 z"
             style="fill:#ff0000;fill-opacity:0.6;fill-rule:nonzero;stroke:#ff0000;stroke-width:1;stroke-linecap:butt;stroke-linejoin:round;stroke-miterlimit:10;stroke-dasharray:none;stroke-opacity:0.6"
             id="path1444"
             inkscape:connector-curvature="0" />
        </g>
        <g
           transform="matrix(0.39986,0,0,0.39986,319.571,409.214)"
           id="g1446">
          <path
             d="m 108.4921,75.58644 c 0.7956,0 1.5587,0.3161 2.1213,0.87868 0.5626,0.56258 0.8787,1.32571 0.8787,2.12132 0,0.79561 -0.3161,1.55874 -0.8787,2.12132 -0.5626,0.56258 -1.3257,0.87868 -2.1213,0.87868 -0.7956,0 -1.5587,-0.3161 -2.1213,-0.87868 -0.5626,-0.56258 -0.8787,-1.32571 -0.8787,-2.12132 0,-0.79561 0.3161,-1.55874 0.8787,-2.12132 0.5626,-0.56258 1.3257,-0.87868 2.1213,-0.87868 z"
             style="fill:#ff0000;fill-opacity:0.6;fill-rule:nonzero;stroke:#ff0000;stroke-width:1;stroke-linecap:butt;stroke-linejoin:round;stroke-miterlimit:10;stroke-dasharray:none;stroke-opacity:0.6"
             id="path1448"
             inkscape:connector-curvature="0" />
        </g>
        <g
           transform="matrix(0.39986,0,0,0.39986,319.571,409.214)"
           id="g1450">
          <path
             d="m 123.6263,142.9392 c 0.7956,0 1.5588,0.3161 2.1213,0.8787 0.5626,0.5626 0.8787,1.3257 0.8787,2.1213 0,0.7956 -0.3161,1.5587 -0.8787,2.1213 -0.5625,0.5626 -1.3257,0.8787 -2.1213,0.8787 -0.7956,0 -1.5587,-0.3161 -2.1213,-0.8787 -0.5626,-0.5626 -0.8787,-1.3257 -0.8787,-2.1213 0,-0.7956 0.3161,-1.5587 0.8787,-2.1213 0.5626,-0.5626 1.3257,-0.8787 2.1213,-0.8787 z"
             style="fill:#ff0000;fill-opacity:0.6;fill-rule:nonzero;stroke:#ff0000;stroke-width:1;stroke-linecap:butt;stroke-linejoin:round;stroke-miterlimit:10;stroke-dasharray:none;stroke-opacity:0.6"
             id="path1452"
             inkscape:connector-curvature="0" />
        </g>
        <g
           transform="matrix(0.39986,0,0,0.39986,319.571,409.214)"
           id="g1454">
          <path
             d="m 89.87074,82.06267 c 0.79561,0 1.55874,0.3161 2.12132,0.87868 0.56259,0.56258 0.87869,1.32571 0.87869,2.12132 0,0.79561 -0.3161,1.55874 -0.87869,2.12132 -0.56258,0.56258 -1.32571,0.87868 -2.12132,0.87868 -0.7956,0 -1.55874,-0.3161 -2.12132,-0.87868 -0.56258,-0.56258 -0.87868,-1.32571 -0.87868,-2.12132 0,-0.79561 0.3161,-1.55874 0.87868,-2.12132 0.56258,-0.56258 1.32572,-0.87868 2.12132,-0.87868 z"
             style="fill:#ff0000;fill-opacity:0.6;fill-rule:nonzero;stroke:#ff0000;stroke-width:1;stroke-linecap:butt;stroke-linejoin:round;stroke-miterlimit:10;stroke-dasharray:none;stroke-opacity:0.6"
             id="path1456"
             inkscape:connector-curvature="0" />
        </g>
        <g
           transform="matrix(0.39986,0,0,0.39986,319.571,409.214)"
           id="g1458">
          <path
             d="m 92.10252,75.58644 c 0.79561,0 1.55874,0.3161 2.12132,0.87868 0.56258,0.56258 0.87868,1.32571 0.87868,2.12132 0,0.79561 -0.3161,1.55874 -0.87868,2.12132 -0.56258,0.56258 -1.32571,0.87868 -2.12132,0.87868 -0.79561,0 -1.55874,-0.3161 -2.12132,-0.87868 -0.56258,-0.56258 -0.87868,-1.32571 -0.87868,-2.12132 0,-0.79561 0.3161,-1.55874 0.87868,-2.12132 0.56258,-0.56258 1.32571,-0.87868 2.12132,-0.87868 z"
             style="fill:#ff0000;fill-opacity:0.6;fill-rule:nonzero;stroke:#ff0000;stroke-width:1;stroke-linecap:butt;stroke-linejoin:round;stroke-miterlimit:10;stroke-dasharray:none;stroke-opacity:0.6"
             id="path1460"
             inkscape:connector-curvature="0" />
        </g>
        <g
           transform="matrix(0.39986,0,0,0.39986,319.571,409.214)"
           id="g1462">
          <path
             d="m 107.5854,223.5322 c 0.7957,0 1.5588,0.3161 2.1214,0.8787 0.5625,0.5626 0.8786,1.3257 0.8786,2.1213 0,0.7957 -0.3161,1.5588 -0.8786,2.1214 -0.5626,0.5625 -1.3257,0.8786 -2.1214,0.8786 -0.7956,0 -1.5587,-0.3161 -2.1213,-0.8786 -0.5626,-0.5626 -0.8787,-1.3257 -0.8787,-2.1214 0,-0.7956 0.3161,-1.5587 0.8787,-2.1213 0.5626,-0.5626 1.3257,-0.8787 2.1213,-0.8787 z"
             style="fill:#ff0000;fill-opacity:0.6;fill-rule:nonzero;stroke:#ff0000;stroke-width:1;stroke-linecap:butt;stroke-linejoin:round;stroke-miterlimit:10;stroke-dasharray:none;stroke-opacity:0.6"
             id="path1464"
             inkscape:connector-curvature="0" />
        </g>
        <g
           transform="matrix(0.39986,0,0,0.39986,319.571,409.214)"
           id="g1466">
          <path
             d="m 101.1691,160.5929 c 0.7956,0 1.5587,0.3161 2.1213,0.8787 0.5626,0.5626 0.8787,1.3257 0.8787,2.1213 0,0.7956 -0.3161,1.5588 -0.8787,2.1213 -0.5626,0.5626 -1.3257,0.8787 -2.1213,0.8787 -0.7956,0 -1.55874,-0.3161 -2.12132,-0.8787 -0.56258,-0.5625 -0.87868,-1.3257 -0.87868,-2.1213 0,-0.7956 0.3161,-1.5587 0.87868,-2.1213 0.56258,-0.5626 1.32572,-0.8787 2.12132,-0.8787 z"
             style="fill:#ff0000;fill-opacity:0.6;fill-rule:nonzero;stroke:#ff0000;stroke-width:1;stroke-linecap:butt;stroke-linejoin:round;stroke-miterlimit:10;stroke-dasharray:none;stroke-opacity:0.6"
             id="path1468"
             inkscape:connector-curvature="0" />
        </g>
        <g
           transform="matrix(0.39986,0,0,0.39986,319.571,409.214)"
           id="g1470">
          <path
             d="m 146.9902,116.8424 c 0.7956,0 1.5587,0.3161 2.1213,0.8787 0.5626,0.5626 0.8787,1.3257 0.8787,2.1213 0,0.7956 -0.3161,1.5587 -0.8787,2.1213 -0.5626,0.5626 -1.3257,0.8787 -2.1213,0.8787 -0.7956,0 -1.5587,-0.3161 -2.1213,-0.8787 -0.5626,-0.5626 -0.8787,-1.3257 -0.8787,-2.1213 0,-0.7956 0.3161,-1.5587 0.8787,-2.1213 0.5626,-0.5626 1.3257,-0.8787 2.1213,-0.8787 z"
             style="fill:#ff0000;fill-opacity:0.6;fill-rule:nonzero;stroke:#ff0000;stroke-width:1;stroke-linecap:butt;stroke-linejoin:round;stroke-miterlimit:10;stroke-dasharray:none;stroke-opacity:0.6"
             id="path1472"
             inkscape:connector-curvature="0" />
        </g>
        <g
           transform="matrix(0.39986,0,0,0.39986,319.571,409.214)"
           id="g1474">
          <path
             d="m 89.87074,80.19176 c 0.79561,0 1.55874,0.3161 2.12132,0.87868 0.56259,0.56258 0.87869,1.32571 0.87869,2.12132 0,0.79561 -0.3161,1.55874 -0.87869,2.12132 -0.56258,0.56258 -1.32571,0.87868 -2.12132,0.87868 -0.7956,0 -1.55874,-0.3161 -2.12132,-0.87868 -0.56258,-0.56258 -0.87868,-1.32571 -0.87868,-2.12132 0,-0.79561 0.3161,-1.55874 0.87868,-2.12132 0.56258,-0.56258 1.32572,-0.87868 2.12132,-0.87868 z"
             style="fill:#ff0000;fill-opacity:0.6;fill-rule:nonzero;stroke:#ff0000;stroke-width:1;stroke-linecap:butt;stroke-linejoin:round;stroke-miterlimit:10;stroke-dasharray:none;stroke-opacity:0.6"
             id="path1476"
             inkscape:connector-curvature="0" />
        </g>
        <g
           transform="matrix(0.39986,0,0,0.39986,319.571,409.214)"
           id="g1478">
          <path
             d="m 251.9533,174.8886 c 0.7956,0 1.5587,0.3161 2.1213,0.8787 0.5626,0.5625 0.8787,1.3257 0.8787,2.1213 0,0.7956 -0.3161,1.5587 -0.8787,2.1213 -0.5626,0.5626 -1.3257,0.8787 -2.1213,0.8787 -0.7956,0 -1.5588,-0.3161 -2.1213,-0.8787 -0.5626,-0.5626 -0.8787,-1.3257 -0.8787,-2.1213 0,-0.7956 0.3161,-1.5588 0.8787,-2.1213 0.5625,-0.5626 1.3257,-0.8787 2.1213,-0.8787 z"
             style="fill:#ff0000;fill-opacity:0.6;fill-rule:nonzero;stroke:#ff0000;stroke-width:1;stroke-linecap:butt;stroke-linejoin:round;stroke-miterlimit:10;stroke-dasharray:none;stroke-opacity:0.6"
             id="path1480"
             inkscape:connector-curvature="0" />
        </g>
        <g
           transform="matrix(0.39986,0,0,0.39986,319.571,409.214)"
           id="g1482">
          <path
             d="m 90.56817,105.569 c 0.79561,0 1.55874,0.3161 2.12132,0.8787 0.56258,0.5625 0.87868,1.3257 0.87868,2.1213 0,0.7956 -0.3161,1.5587 -0.87868,2.1213 -0.56258,0.5626 -1.32571,0.8787 -2.12132,0.8787 -0.79561,0 -1.55874,-0.3161 -2.12132,-0.8787 -0.56258,-0.5626 -0.87868,-1.3257 -0.87868,-2.1213 0,-0.7956 0.3161,-1.5588 0.87868,-2.1213 0.56258,-0.5626 1.32571,-0.8787 2.12132,-0.8787 z"
             style="fill:#ff0000;fill-opacity:0.6;fill-rule:nonzero;stroke:#ff0000;stroke-width:1;stroke-linecap:butt;stroke-linejoin:round;stroke-miterlimit:10;stroke-dasharray:none;stroke-opacity:0.6"
             id="path1484"
             inkscape:connector-curvature="0" />
        </g>
        <g
           transform="matrix(0.39986,0,0,0.39986,319.571,409.214)"
           id="g1486">
          <path
             d="m 89.52203,76.40197 c 0.79561,0 1.55874,0.3161 2.12132,0.87868 0.56258,0.56258 0.87868,1.32571 0.87868,2.12132 0,0.79561 -0.3161,1.55874 -0.87868,2.12132 -0.56258,0.56258 -1.32571,0.87868 -2.12132,0.87868 -0.79561,0 -1.55874,-0.3161 -2.12132,-0.87868 -0.56258,-0.56258 -0.87868,-1.32571 -0.87868,-2.12132 0,-0.79561 0.3161,-1.55874 0.87868,-2.12132 0.56258,-0.56258 1.32571,-0.87868 2.12132,-0.87868 z"
             style="fill:#ff0000;fill-opacity:0.6;fill-rule:nonzero;stroke:#ff0000;stroke-width:1;stroke-linecap:butt;stroke-linejoin:round;stroke-miterlimit:10;stroke-dasharray:none;stroke-opacity:0.6"
             id="path1488"
             inkscape:connector-curvature="0" />
        </g>
        <g
           transform="matrix(0.39986,0,0,0.39986,319.571,409.214)"
           id="g1490">
          <path
             d="m 102.2152,66.9035 c 0.7957,0 1.5588,0.3161 2.1214,0.87868 0.5625,0.56258 0.8786,1.32571 0.8786,2.12132 0,0.79561 -0.3161,1.55874 -0.8786,2.12132 -0.5626,0.56258 -1.3257,0.87868 -2.1214,0.87868 -0.7956,0 -1.5587,-0.3161 -2.1213,-0.87868 -0.56256,-0.56258 -0.87866,-1.32571 -0.87866,-2.12132 0,-0.79561 0.3161,-1.55874 0.87866,-2.12132 0.5626,-0.56258 1.3257,-0.87868 2.1213,-0.87868 z"
             style="fill:#ff0000;fill-opacity:0.6;fill-rule:nonzero;stroke:#ff0000;stroke-width:1;stroke-linecap:butt;stroke-linejoin:round;stroke-miterlimit:10;stroke-dasharray:none;stroke-opacity:0.6"
             id="path1492"
             inkscape:connector-curvature="0" />
        </g>
        <path
           d="m 342.6029,459.3841 0,-9.9747 142.798,98.2223 0,9.9747 0,0 -142.798,-98.2223 z"
           style="fill:#ffff00;fill-opacity:0.7;fill-rule:nonzero;stroke:none"
           id="path1494"
           inkscape:connector-curvature="0" />
      </g>
    </g>
    <g
       transform="matrix(0.499825,0,0,-0.499825,-3.44541,1055.5891)"
       id="g1500">
      <path
         d="m 79.82777,38.016 0,-3.5"
         style="fill:#ffffff;fill-opacity:1;fill-rule:nonzero;stroke:#ffffff;stroke-width:0.80000001;stroke-linecap:butt;stroke-linejoin:round;stroke-miterlimit:10;stroke-dasharray:none;stroke-opacity:1"
         id="path1502"
         inkscape:connector-curvature="0" />
    </g>
    <path
       d="m 36.454715,1040.5632 c -0.255,0 -0.444875,0.125 -0.574875,0.3749 -0.129875,0.2499 -0.189875,0.6248 -0.189875,1.1246 0,0.4998 0.06,0.8747 0.189875,1.1247 0.13,0.2498 0.319875,0.3748 0.574875,0.3748 0.254875,0 0.44475,-0.125 0.57475,-0.3748 0.125,-0.25 0.189875,-0.6249 0.189875,-1.1247 0,-0.4998 -0.06488,-0.8747 -0.189875,-1.1246 -0.13,-0.2499 -0.319875,-0.3749 -0.57475,-0.3749 m 0,-0.3898 c 0.40475,0 0.71475,0.165 0.934625,0.4848 0.214875,0.3249 0.324875,0.7948 0.324875,1.4045 0,0.6148 -0.11,1.0847 -0.324875,1.4045 -0.219875,0.3199 -0.529875,0.4799 -0.934625,0.4799 -0.409875,0 -0.72475,-0.16 -0.93975,-0.4799 -0.214875,-0.3198 -0.319875,-0.7897 -0.319875,-1.4045 0,-0.6097 0.105,-1.0796 0.319875,-1.4045 0.215,-0.3198 0.529875,-0.4848 0.93975,-0.4848"
       style="fill:#ffffff;fill-opacity:1;fill-rule:nonzero;stroke:none"
       id="path1504"
       inkscape:connector-curvature="0" />
    <g
       transform="matrix(0.499825,0,0,-0.499825,-3.44541,1055.5891)"
       id="g1506">
      <path
         d="m 149.5707,38.016 0,-3.5"
         style="fill:#ffffff;fill-opacity:1;fill-rule:nonzero;stroke:#ffffff;stroke-width:0.80000001;stroke-linecap:butt;stroke-linejoin:round;stroke-miterlimit:10;stroke-dasharray:none;stroke-opacity:1"
         id="path1508"
         inkscape:connector-curvature="0" />
    </g>
    <path
       d="m 65.57634,1043.4672 0.80475,0 0,-2.779 -0.874625,0.1749 0,-0.4497 0.869625,-0.175 0.494875,0 0,3.2288 0.80475,0 0,0.4149 -2.099375,0 0,-0.4149"
       style="fill:#ffffff;fill-opacity:1;fill-rule:nonzero;stroke:none"
       id="path1510"
       inkscape:connector-curvature="0" />
    <path
       d="m 69.724965,1040.5632 c -0.255,0 -0.444875,0.125 -0.574875,0.3749 -0.129875,0.2499 -0.189875,0.6248 -0.189875,1.1246 0,0.4998 0.06,0.8747 0.189875,1.1247 0.13,0.2498 0.319875,0.3748 0.574875,0.3748 0.254875,0 0.444875,-0.125 0.57475,-0.3748 0.125,-0.25 0.19,-0.6249 0.19,-1.1247 0,-0.4998 -0.065,-0.8747 -0.19,-1.1246 -0.129875,-0.2499 -0.319875,-0.3749 -0.57475,-0.3749 m 0,-0.3898 c 0.404875,0 0.71475,0.165 0.934625,0.4848 0.215,0.3249 0.324875,0.7948 0.324875,1.4045 0,0.6148 -0.109875,1.0847 -0.324875,1.4045 -0.219875,0.3199 -0.52975,0.4799 -0.934625,0.4799 -0.409875,0 -0.72475,-0.16 -0.93975,-0.4799 -0.214875,-0.3198 -0.319875,-0.7897 -0.319875,-1.4045 0,-0.6097 0.105,-1.0796 0.319875,-1.4045 0.215,-0.3198 0.529875,-0.4848 0.93975,-0.4848"
       style="fill:#ffffff;fill-opacity:1;fill-rule:nonzero;stroke:none"
       id="path1512"
       inkscape:connector-curvature="0" />
    <path
       d="m 72.90384,1040.5632 c -0.254875,0 -0.444875,0.125 -0.574875,0.3749 -0.129875,0.2499 -0.189875,0.6248 -0.189875,1.1246 0,0.4998 0.06,0.8747 0.189875,1.1247 0.13,0.2498 0.32,0.3748 0.574875,0.3748 0.254875,0 0.444875,-0.125 0.57475,-0.3748 0.125,-0.25 0.19,-0.6249 0.19,-1.1247 0,-0.4998 -0.065,-0.8747 -0.19,-1.1246 -0.129875,-0.2499 -0.319875,-0.3749 -0.57475,-0.3749 m 0,-0.3898 c 0.404875,0 0.71475,0.165 0.934625,0.4848 0.215,0.3249 0.324875,0.7948 0.324875,1.4045 0,0.6148 -0.109875,1.0847 -0.324875,1.4045 -0.219875,0.3199 -0.52975,0.4799 -0.934625,0.4799 -0.409875,0 -0.72475,-0.16 -0.939625,-0.4799 -0.215,-0.3198 -0.32,-0.7897 -0.32,-1.4045 0,-0.6097 0.105,-1.0796 0.32,-1.4045 0.214875,-0.3198 0.52975,-0.4848 0.939625,-0.4848"
       style="fill:#ffffff;fill-opacity:1;fill-rule:nonzero;stroke:none"
       id="path1514"
       inkscape:connector-curvature="0" />
    <path
       d="m 76.082715,1040.5632 c -0.254875,0 -0.444875,0.125 -0.57475,0.3749 -0.13,0.2499 -0.19,0.6248 -0.19,1.1246 0,0.4998 0.06,0.8747 0.19,1.1247 0.129875,0.2498 0.319875,0.3748 0.57475,0.3748 0.254875,0 0.444875,-0.125 0.57475,-0.3748 0.125,-0.25 0.19,-0.6249 0.19,-1.1247 0,-0.4998 -0.065,-0.8747 -0.19,-1.1246 -0.129875,-0.2499 -0.319875,-0.3749 -0.57475,-0.3749 m 0,-0.3898 c 0.404875,0 0.71475,0.165 0.934625,0.4848 0.215,0.3249 0.324875,0.7948 0.324875,1.4045 0,0.6148 -0.109875,1.0847 -0.324875,1.4045 -0.219875,0.3199 -0.52975,0.4799 -0.934625,0.4799 -0.409875,0 -0.72475,-0.16 -0.939625,-0.4799 -0.215,-0.3198 -0.32,-0.7897 -0.32,-1.4045 0,-0.6097 0.105,-1.0796 0.32,-1.4045 0.214875,-0.3198 0.52975,-0.4848 0.939625,-0.4848"
       style="fill:#ffffff;fill-opacity:1;fill-rule:nonzero;stroke:none"
       id="path1516"
       inkscape:connector-curvature="0" />
    <g
       transform="matrix(0.499825,0,0,-0.499825,-3.44541,1055.5891)"
       id="g1518">
      <path
         d="m 219.3136,38.016 0,-3.5"
         style="fill:#ffffff;fill-opacity:1;fill-rule:nonzero;stroke:#ffffff;stroke-width:0.80000001;stroke-linecap:butt;stroke-linejoin:round;stroke-miterlimit:10;stroke-dasharray:none;stroke-opacity:1"
         id="path1520"
         inkscape:connector-curvature="0" />
    </g>
    <path
       d="m 100.77546,1043.4672 1.71951,0 0,0.4149 -2.31425,0 0,-0.4149 c 0.185,-0.19 0.43987,-0.4498 0.76475,-0.7797 0.31987,-0.3249 0.52487,-0.5348 0.60975,-0.6298 0.16,-0.175 0.27,-0.3249 0.32987,-0.4498 0.06,-0.12 0.095,-0.2449 0.095,-0.3649 0,-0.1899 -0.07,-0.3499 -0.20487,-0.4699 -0.135,-0.1199 -0.30988,-0.1849 -0.52988,-0.1849 -0.15487,0 -0.31987,0.03 -0.48975,0.08 -0.17,0.055 -0.35488,0.1349 -0.54988,0.2449 l 0,-0.4997 c 0.20001,-0.08 0.38488,-0.14 0.55488,-0.18 0.16987,-0.04 0.32987,-0.06 0.47475,-0.06 0.37487,0 0.67475,0.095 0.89975,0.2848 0.22487,0.19 0.33987,0.4399 0.33987,0.7548 0,0.15 -0.03,0.2949 -0.085,0.4249 -0.055,0.135 -0.15501,0.2948 -0.30488,0.4748 -0.04,0.05 -0.17,0.1849 -0.38987,0.4099 -0.21988,0.2249 -0.52488,0.5398 -0.91975,0.9446"
       style="fill:#ffffff;fill-opacity:1;fill-rule:nonzero;stroke:none"
       id="path1522"
       inkscape:connector-curvature="0" />
    <path
       d="m 104.58422,1040.5632 c -0.25488,0 -0.44488,0.125 -0.57488,0.3749 -0.12987,0.2499 -0.18987,0.6248 -0.18987,1.1246 0,0.4998 0.06,0.8747 0.18987,1.1247 0.13,0.2498 0.32,0.3748 0.57488,0.3748 0.25487,0 0.44487,-0.125 0.57475,-0.3748 0.125,-0.25 0.18999,-0.6249 0.18999,-1.1247 0,-0.4998 -0.065,-0.8747 -0.18999,-1.1246 -0.12988,-0.2499 -0.31988,-0.3749 -0.57475,-0.3749 m 0,-0.3898 c 0.40487,0 0.71475,0.165 0.93462,0.4848 0.215,0.3249 0.32488,0.7948 0.32488,1.4045 0,0.6148 -0.10988,1.0847 -0.32488,1.4045 -0.21987,0.3199 -0.52975,0.4799 -0.93462,0.4799 -0.40988,0 -0.72475,-0.16 -0.93975,-0.4799 -0.21488,-0.3198 -0.31988,-0.7897 -0.31988,-1.4045 0,-0.6097 0.105,-1.0796 0.31988,-1.4045 0.215,-0.3198 0.52987,-0.4848 0.93975,-0.4848"
       style="fill:#ffffff;fill-opacity:1;fill-rule:nonzero;stroke:none"
       id="path1524"
       inkscape:connector-curvature="0" />
    <path
       d="m 107.76309,1040.5632 c -0.25487,0 -0.44487,0.125 -0.57475,0.3749 -0.13,0.2499 -0.19,0.6248 -0.19,1.1246 0,0.4998 0.06,0.8747 0.19,1.1247 0.12988,0.2498 0.31988,0.3748 0.57475,0.3748 0.25488,0 0.44488,-0.125 0.57475,-0.3748 0.125,-0.25 0.19,-0.6249 0.19,-1.1247 0,-0.4998 -0.065,-0.8747 -0.19,-1.1246 -0.12987,-0.2499 -0.31987,-0.3749 -0.57475,-0.3749 m 0,-0.3898 c 0.40487,0 0.71475,0.165 0.93463,0.4848 0.215,0.3249 0.32487,0.7948 0.32487,1.4045 0,0.6148 -0.10987,1.0847 -0.32487,1.4045 -0.21988,0.3199 -0.52976,0.4799 -0.93463,0.4799 -0.40987,0 -0.72475,-0.16 -0.93962,-0.4799 -0.21501,-0.3198 -0.32,-0.7897 -0.32,-1.4045 0,-0.6097 0.105,-1.0796 0.32,-1.4045 0.21487,-0.3198 0.52975,-0.4848 0.93962,-0.4848"
       style="fill:#ffffff;fill-opacity:1;fill-rule:nonzero;stroke:none"
       id="path1526"
       inkscape:connector-curvature="0" />
    <path
       d="m 110.94197,1040.5632 c -0.25488,0 -0.44488,0.125 -0.57475,0.3749 -0.13,0.2499 -0.19,0.6248 -0.19,1.1246 0,0.4998 0.06,0.8747 0.19,1.1247 0.12987,0.2498 0.31987,0.3748 0.57475,0.3748 0.25487,0 0.44487,-0.125 0.57474,-0.3748 0.12501,-0.25 0.19,-0.6249 0.19,-1.1247 0,-0.4998 -0.065,-0.8747 -0.19,-1.1246 -0.12987,-0.2499 -0.31987,-0.3749 -0.57474,-0.3749 m 0,-0.3898 c 0.40487,0 0.71475,0.165 0.93462,0.4848 0.215,0.3249 0.32488,0.7948 0.32488,1.4045 0,0.6148 -0.10988,1.0847 -0.32488,1.4045 -0.21987,0.3199 -0.52975,0.4799 -0.93462,0.4799 -0.40988,0 -0.72475,-0.16 -0.93963,-0.4799 -0.215,-0.3198 -0.31988,-0.7897 -0.31988,-1.4045 0,-0.6097 0.10488,-1.0796 0.31988,-1.4045 0.21487,-0.3198 0.52975,-0.4848 0.93963,-0.4848"
       style="fill:#ffffff;fill-opacity:1;fill-rule:nonzero;stroke:none"
       id="path1528"
       inkscape:connector-curvature="0" />
    <g
       transform="matrix(0.499825,0,0,-0.499825,-3.44541,1055.5891)"
       id="g1530">
      <path
         d="m 289.0565,38.016 0,-3.5"
         style="fill:#ffffff;fill-opacity:1;fill-rule:nonzero;stroke:#ffffff;stroke-width:0.80000001;stroke-linecap:butt;stroke-linejoin:round;stroke-miterlimit:10;stroke-dasharray:none;stroke-opacity:1"
         id="path1532"
         inkscape:connector-curvature="0" />
    </g>
    <path
       d="m 136.70446,1041.9177 c 0.23488,0.05 0.41975,0.155 0.54975,0.3149 0.13,0.16 0.19988,0.3599 0.19988,0.5899 0,0.3599 -0.12487,0.6397 -0.36987,0.8346 -0.24988,0.195 -0.59976,0.29 -1.05463,0.29 -0.15488,0 -0.31488,-0.015 -0.47475,-0.045 -0.16,-0.025 -0.32987,-0.07 -0.49988,-0.13 l 0,-0.4749 c 0.135,0.08 0.28488,0.14 0.44988,0.18 0.15987,0.04 0.32987,0.06 0.50975,0.06 0.31,0 0.54487,-0.06 0.70475,-0.18 0.16,-0.1198 0.245,-0.2998 0.245,-0.5347 0,-0.21 -0.075,-0.3799 -0.225,-0.4999 -0.14987,-0.12 -0.35987,-0.1849 -0.62975,-0.1849 l -0.42487,0 0,-0.4048 0.44487,0 c 0.23987,0 0.42487,-0.045 0.55487,-0.145 0.12988,-0.095 0.19488,-0.2349 0.19488,-0.4199 0,-0.1849 -0.07,-0.3299 -0.19988,-0.4298 -0.135,-0.1 -0.325,-0.15 -0.56987,-0.15 -0.13488,0 -0.27987,0.015 -0.43487,0.045 -0.15488,0.03 -0.32488,0.075 -0.50976,0.135 l 0,-0.4398 c 0.18488,-0.05 0.35988,-0.09 0.52476,-0.115 0.15999,-0.025 0.31487,-0.04 0.46487,-0.04 0.36988,0 0.66475,0.085 0.88475,0.2548 0.21987,0.17 0.32987,0.3999 0.32987,0.6899 0,0.1999 -0.06,0.3698 -0.17499,0.5098 -0.115,0.14 -0.27988,0.2398 -0.48976,0.2898"
       style="fill:#ffffff;fill-opacity:1;fill-rule:nonzero;stroke:none"
       id="path1534"
       inkscape:connector-curvature="0" />
    <path
       d="m 139.44346,1040.5632 c -0.25487,0 -0.44487,0.125 -0.57487,0.3749 -0.12987,0.2499 -0.18988,0.6248 -0.18988,1.1246 0,0.4998 0.06,0.8747 0.18988,1.1247 0.13,0.2498 0.32,0.3748 0.57487,0.3748 0.25488,0 0.44488,-0.125 0.57475,-0.3748 0.125,-0.25 0.19,-0.6249 0.19,-1.1247 0,-0.4998 -0.065,-0.8747 -0.19,-1.1246 -0.12987,-0.2499 -0.31987,-0.3749 -0.57475,-0.3749 m 0,-0.3898 c 0.40488,0 0.71475,0.165 0.93463,0.4848 0.215,0.3249 0.32487,0.7948 0.32487,1.4045 0,0.6148 -0.10987,1.0847 -0.32487,1.4045 -0.21988,0.3199 -0.52975,0.4799 -0.93463,0.4799 -0.40987,0 -0.72474,-0.16 -0.93975,-0.4799 -0.21487,-0.3198 -0.31987,-0.7897 -0.31987,-1.4045 0,-0.6097 0.105,-1.0796 0.31987,-1.4045 0.21501,-0.3198 0.52988,-0.4848 0.93975,-0.4848"
       style="fill:#ffffff;fill-opacity:1;fill-rule:nonzero;stroke:none"
       id="path1536"
       inkscape:connector-curvature="0" />
    <path
       d="m 142.62234,1040.5632 c -0.25487,0 -0.44487,0.125 -0.57475,0.3749 -0.13,0.2499 -0.19,0.6248 -0.19,1.1246 0,0.4998 0.06,0.8747 0.19,1.1247 0.12988,0.2498 0.31988,0.3748 0.57475,0.3748 0.25488,0 0.44488,-0.125 0.57475,-0.3748 0.125,-0.25 0.19,-0.6249 0.19,-1.1247 0,-0.4998 -0.065,-0.8747 -0.19,-1.1246 -0.12988,-0.2499 -0.31987,-0.3749 -0.57475,-0.3749 m 0,-0.3898 c 0.40487,0 0.71475,0.165 0.93463,0.4848 0.215,0.3249 0.32487,0.7948 0.32487,1.4045 0,0.6148 -0.10987,1.0847 -0.32487,1.4045 -0.21988,0.3199 -0.52976,0.4799 -0.93463,0.4799 -0.40988,0 -0.72475,-0.16 -0.93963,-0.4799 -0.215,-0.3198 -0.31999,-0.7897 -0.31999,-1.4045 0,-0.6097 0.105,-1.0796 0.31999,-1.4045 0.21488,-0.3198 0.52975,-0.4848 0.93963,-0.4848"
       style="fill:#ffffff;fill-opacity:1;fill-rule:nonzero;stroke:none"
       id="path1538"
       inkscape:connector-curvature="0" />
    <path
       d="m 145.80122,1040.5632 c -0.25488,0 -0.44488,0.125 -0.57475,0.3749 -0.13,0.2499 -0.19,0.6248 -0.19,1.1246 0,0.4998 0.06,0.8747 0.19,1.1247 0.12987,0.2498 0.31987,0.3748 0.57475,0.3748 0.25487,0 0.44487,-0.125 0.57474,-0.3748 0.125,-0.25 0.19,-0.6249 0.19,-1.1247 0,-0.4998 -0.065,-0.8747 -0.19,-1.1246 -0.12987,-0.2499 -0.31987,-0.3749 -0.57474,-0.3749 m 0,-0.3898 c 0.40487,0 0.71474,0.165 0.93462,0.4848 0.215,0.3249 0.32488,0.7948 0.32488,1.4045 0,0.6148 -0.10988,1.0847 -0.32488,1.4045 -0.21988,0.3199 -0.52975,0.4799 -0.93462,0.4799 -0.40988,0 -0.72475,-0.16 -0.93963,-0.4799 -0.215,-0.3198 -0.31988,-0.7897 -0.31988,-1.4045 0,-0.6097 0.10488,-1.0796 0.31988,-1.4045 0.21487,-0.3198 0.52975,-0.4848 0.93963,-0.4848"
       style="fill:#ffffff;fill-opacity:1;fill-rule:nonzero;stroke:none"
       id="path1540"
       inkscape:connector-curvature="0" />
    <g
       transform="matrix(0.499825,0,0,-0.499825,-3.44541,1055.5891)"
       id="g1542">
      <path
         d="m 358.7994,38.016 0,-3.5"
         style="fill:#ffffff;fill-opacity:1;fill-rule:nonzero;stroke:#ffffff;stroke-width:0.80000001;stroke-linecap:butt;stroke-linejoin:round;stroke-miterlimit:10;stroke-dasharray:none;stroke-opacity:1"
         id="path1544"
         inkscape:connector-curvature="0" />
    </g>
    <path
       d="m 171.42371,1040.6682 -1.24462,1.9443 1.24462,0 0,-1.9443 m -0.13,-0.4298 0.61988,0 0,2.3741 0.51975,0 0,0.4099 -0.51975,0 0,0.8597 -0.48988,0 0,-0.8597 -1.64437,0 0,-0.4748 1.51437,-2.3092"
       style="fill:#ffffff;fill-opacity:1;fill-rule:nonzero;stroke:none"
       id="path1546"
       inkscape:connector-curvature="0" />
    <path
       d="m 174.30271,1040.5632 c -0.25487,0 -0.44487,0.125 -0.57487,0.3749 -0.12988,0.2499 -0.18988,0.6248 -0.18988,1.1246 0,0.4998 0.06,0.8747 0.18988,1.1247 0.13,0.2498 0.32,0.3748 0.57487,0.3748 0.25488,0 0.44488,-0.125 0.57475,-0.3748 0.125,-0.25 0.19,-0.6249 0.19,-1.1247 0,-0.4998 -0.065,-0.8747 -0.19,-1.1246 -0.12987,-0.2499 -0.31987,-0.3749 -0.57475,-0.3749 m 0,-0.3898 c 0.40488,0 0.71475,0.165 0.93463,0.4848 0.215,0.3249 0.32488,0.7948 0.32488,1.4045 0,0.6148 -0.10988,1.0847 -0.32488,1.4045 -0.21988,0.3199 -0.52975,0.4799 -0.93463,0.4799 -0.40987,0 -0.72475,-0.16 -0.93975,-0.4799 -0.21487,-0.3198 -0.31987,-0.7897 -0.31987,-1.4045 0,-0.6097 0.105,-1.0796 0.31987,-1.4045 0.215,-0.3198 0.52988,-0.4848 0.93975,-0.4848"
       style="fill:#ffffff;fill-opacity:1;fill-rule:nonzero;stroke:none"
       id="path1548"
       inkscape:connector-curvature="0" />
    <path
       d="m 177.48159,1040.5632 c -0.25488,0 -0.44488,0.125 -0.57475,0.3749 -0.13,0.2499 -0.19,0.6248 -0.19,1.1246 0,0.4998 0.06,0.8747 0.19,1.1247 0.12988,0.2498 0.31987,0.3748 0.57475,0.3748 0.25487,0 0.44487,-0.125 0.57475,-0.3748 0.125,-0.25 0.19,-0.6249 0.19,-1.1247 0,-0.4998 -0.065,-0.8747 -0.19,-1.1246 -0.12988,-0.2499 -0.31988,-0.3749 -0.57475,-0.3749 m 0,-0.3898 c 0.40487,0 0.71475,0.165 0.93463,0.4848 0.215,0.3249 0.32487,0.7948 0.32487,1.4045 0,0.6148 -0.10987,1.0847 -0.32487,1.4045 -0.21988,0.3199 -0.52976,0.4799 -0.93463,0.4799 -0.40988,0 -0.72475,-0.16 -0.93963,-0.4799 -0.215,-0.3198 -0.32,-0.7897 -0.32,-1.4045 0,-0.6097 0.10501,-1.0796 0.32,-1.4045 0.21488,-0.3198 0.52975,-0.4848 0.93963,-0.4848"
       style="fill:#ffffff;fill-opacity:1;fill-rule:nonzero;stroke:none"
       id="path1550"
       inkscape:connector-curvature="0" />
    <path
       d="m 180.66046,1040.5632 c -0.25487,0 -0.44487,0.125 -0.57474,0.3749 -0.13,0.2499 -0.19,0.6248 -0.19,1.1246 0,0.4998 0.06,0.8747 0.19,1.1247 0.12987,0.2498 0.31987,0.3748 0.57474,0.3748 0.25488,0 0.44488,-0.125 0.57475,-0.3748 0.125,-0.25 0.19,-0.6249 0.19,-1.1247 0,-0.4998 -0.065,-0.8747 -0.19,-1.1246 -0.12987,-0.2499 -0.31987,-0.3749 -0.57475,-0.3749 m 0,-0.3898 c 0.40488,0 0.71475,0.165 0.93463,0.4848 0.215,0.3249 0.325,0.7948 0.325,1.4045 0,0.6148 -0.11,1.0847 -0.325,1.4045 -0.21988,0.3199 -0.52975,0.4799 -0.93463,0.4799 -0.40987,0 -0.72474,-0.16 -0.93962,-0.4799 -0.215,-0.3198 -0.31988,-0.7897 -0.31988,-1.4045 0,-0.6097 0.10488,-1.0796 0.31988,-1.4045 0.21488,-0.3198 0.52975,-0.4848 0.93962,-0.4848"
       style="fill:#ffffff;fill-opacity:1;fill-rule:nonzero;stroke:none"
       id="path1552"
       inkscape:connector-curvature="0" />
    <path
       d="m 109.57609,1048.9762 0,1.3345 0.78975,0 c 0.26488,0 0.45988,-0.055 0.58975,-0.1648 0.125,-0.11 0.19,-0.2749 0.19,-0.5049 0,-0.2249 -0.065,-0.3899 -0.19,-0.4998 -0.12987,-0.11 -0.32488,-0.165 -0.58975,-0.165 l -0.78975,0 m 0,-1.4995 0,1.0997 0.72975,0 c 0.23988,0 0.41488,-0.045 0.53487,-0.1349 0.11988,-0.09 0.17988,-0.225 0.17988,-0.4149 0,-0.18 -0.06,-0.3199 -0.17988,-0.4099 -0.11999,-0.09 -0.29499,-0.14 -0.53487,-0.14 l -0.72975,0 m -0.49475,-0.4048 1.2595,0 c 0.37487,0 0.66475,0.08 0.86975,0.235 0.19988,0.1598 0.30488,0.3798 0.30488,0.6647 0,0.2249 -0.055,0.4049 -0.16,0.5348 -0.105,0.13 -0.25488,0.215 -0.45488,0.245 0.24,0.055 0.42988,0.1648 0.56488,0.3298 0.13,0.1649 0.19987,0.3699 0.19987,0.6148 0,0.3299 -0.11487,0.5797 -0.33487,0.7547 -0.21988,0.1799 -0.53475,0.2649 -0.93963,0.2649 l -1.3095,0 0,-3.6437"
       style="fill:#ffffff;fill-opacity:1;fill-rule:nonzero;stroke:none"
       id="path1554"
       inkscape:connector-curvature="0" />
    <path
       d="m 112.49009,1047.9816 0.44987,0 0,2.734 -0.44987,0 0,-2.734 m 0,-1.0646 0.44987,0 0,0.5697 -0.44987,0 0,-0.5697"
       style="fill:#ffffff;fill-opacity:1;fill-rule:nonzero;stroke:none"
       id="path1556"
       inkscape:connector-curvature="0" />
    <path
       d="m 115.46409,1048.4015 c -0.05,-0.03 -0.105,-0.05 -0.165,-0.065 -0.06,-0.01 -0.125,-0.02 -0.19487,-0.02 -0.255,0 -0.44988,0.085 -0.58488,0.2499 -0.13987,0.165 -0.20487,0.3998 -0.20487,0.7097 l 0,1.4395 -0.44988,0 0,-2.734 0.44988,0 0,0.4249 c 0.09,-0.165 0.21487,-0.29 0.36487,-0.3699 0.14988,-0.08 0.33488,-0.12 0.55475,-0.12 0.03,0 0.065,0 0.105,0 0.035,0.01 0.075,0.01 0.125,0.02 l 0,0.4599"
       style="fill:#ffffff;fill-opacity:1;fill-rule:nonzero;stroke:none"
       id="path1558"
       inkscape:connector-curvature="0" />
    <path
       d="m 116.37872,1047.2069 0,0.7747 0.92475,0 0,0.3499 -0.92475,0 0,1.4845 c 0,0.2248 0.03,0.3699 0.09,0.4297 0.06,0.065 0.18487,0.095 0.37487,0.095 l 0.45988,0 0,0.3749 -0.45988,0 c -0.34987,0 -0.58987,-0.065 -0.71975,-0.1949 -0.13,-0.13 -0.195,-0.3648 -0.195,-0.7047 l 0,-1.4845 -0.32988,0 0,-0.3499 0.32988,0 0,-0.7747 0.44987,0"
       style="fill:#ffffff;fill-opacity:1;fill-rule:nonzero;stroke:none"
       id="path1560"
       inkscape:connector-curvature="0" />
    <path
       d="m 120.16747,1049.0662 0,1.6494 -0.44988,0 0,-1.6344 c 0,-0.26 -0.055,-0.4498 -0.155,-0.5798 -0.1,-0.1299 -0.24988,-0.1949 -0.44987,-0.1949 -0.24488,0 -0.43475,0.08 -0.57475,0.2349 -0.14,0.155 -0.20988,0.3648 -0.20988,0.6297 l 0,1.5445 -0.44987,0 0,-3.7986 0.44987,0 0,1.4895 c 0.10488,-0.16 0.22988,-0.285 0.37988,-0.3649 0.14487,-0.08 0.31487,-0.125 0.50475,-0.125 0.30987,0 0.54987,0.1 0.70975,0.2949 0.16,0.195 0.245,0.4799 0.245,0.8547"
       style="fill:#ffffff;fill-opacity:1;fill-rule:nonzero;stroke:none"
       id="path1562"
       inkscape:connector-curvature="0" />
    <g
       id="g1640"
       transform="matrix(1.25,0,0,-1.25,-402.90916,1567.1066)">
      <g
         clip-path="url(#clipPath1360)"
         id="g1642">
        <g
           transform="matrix(0.39986,0,0,0.39986,319.571,409.214)"
           id="g1644">
          <path
             d="M 57.6,38.016 414.72,283.6578"
             style="fill:none;stroke:#ffffff;stroke-width:1.5;stroke-linecap:square;stroke-linejoin:round;stroke-miterlimit:10;stroke-dasharray:none;stroke-opacity:0.6"
             id="path1646"
             inkscape:connector-curvature="0" />
        </g>
        <g
           transform="matrix(0.39986,0,0,0.39986,319.571,409.214)"
           id="g1648">
          <path
             d="m 57.6,283.6578 357.12,0"
             style="fill:none;stroke:#ffffff;stroke-width:1;stroke-linecap:square;stroke-linejoin:round;stroke-miterlimit:10;stroke-dasharray:none;stroke-opacity:0.6"
             id="path1650"
             inkscape:connector-curvature="0" />
        </g>
        <g
           transform="matrix(0.39986,0,0,0.39986,319.571,409.214)"
           id="g1652">
          <path
             d="m 101.1691,76.81148 0,-8.82686"
             style="fill:none;stroke:#ff0000;stroke-width:1.5;stroke-linecap:butt;stroke-linejoin:round;stroke-miterlimit:10;stroke-dasharray:5.55, 2.4;stroke-dashoffset:0;stroke-opacity:0.3"
             id="path1654"
             inkscape:connector-curvature="0" />
        </g>
        <g
           transform="matrix(0.39986,0,0,0.39986,319.571,409.214)"
           id="g1656">
          <path
             d="m 101.1691,76.81148 12.8327,0"
             style="fill:none;stroke:#ff0000;stroke-width:1.5;stroke-linecap:butt;stroke-linejoin:round;stroke-miterlimit:10;stroke-dasharray:5.55, 2.4;stroke-dashoffset:0;stroke-opacity:0.3"
             id="path1658"
             inkscape:connector-curvature="0" />
        </g>
        <g
           transform="matrix(0.39986,0,0,0.39986,319.571,409.214)"
           id="g1660">
          <path
             d="m 90.56817,68.7042 0,-8.01133"
             style="fill:none;stroke:#ff0000;stroke-width:1.5;stroke-linecap:butt;stroke-linejoin:round;stroke-miterlimit:10;stroke-dasharray:5.55, 2.4;stroke-dashoffset:0;stroke-opacity:0.3"
             id="path1662"
             inkscape:connector-curvature="0" />
        </g>
        <g
           transform="matrix(0.39986,0,0,0.39986,319.571,409.214)"
           id="g1664">
          <path
             d="m 90.56817,68.7042 11.64703,0"
             style="fill:none;stroke:#ff0000;stroke-width:1.5;stroke-linecap:butt;stroke-linejoin:round;stroke-miterlimit:10;stroke-dasharray:5.55, 2.4;stroke-dashoffset:0;stroke-opacity:0.3"
             id="path1666"
             inkscape:connector-curvature="0" />
        </g>
        <g
           transform="matrix(0.39986,0,0,0.39986,319.571,409.214)"
           id="g1668">
          <path
             d="m 92.17226,73.02168 0,-11.22545"
             style="fill:none;stroke:#ff0000;stroke-width:1.5;stroke-linecap:butt;stroke-linejoin:round;stroke-miterlimit:10;stroke-dasharray:5.55, 2.4;stroke-dashoffset:0;stroke-opacity:0.3"
             id="path1670"
             inkscape:connector-curvature="0" />
        </g>
        <g
           transform="matrix(0.39986,0,0,0.39986,319.571,409.214)"
           id="g1672">
          <path
             d="m 92.17226,73.02168 16.31984,0"
             style="fill:none;stroke:#ff0000;stroke-width:1.5;stroke-linecap:butt;stroke-linejoin:round;stroke-miterlimit:10;stroke-dasharray:5.55, 2.4;stroke-dashoffset:0;stroke-opacity:0.3"
             id="path1674"
             inkscape:connector-curvature="0" />
        </g>
        <g
           transform="matrix(0.39986,0,0,0.39986,319.571,409.214)"
           id="g1676">
          <path
             d="m 92.17226,106.3623 0,-44.56607"
             style="fill:none;stroke:#ff0000;stroke-width:1.5;stroke-linecap:butt;stroke-linejoin:round;stroke-miterlimit:10;stroke-dasharray:5.55, 2.4;stroke-dashoffset:0;stroke-opacity:0.3"
             id="path1678"
             inkscape:connector-curvature="0" />
        </g>
        <g
           transform="matrix(0.39986,0,0,0.39986,319.571,409.214)"
           id="g1680">
          <path
             d="m 92.17226,106.3623 64.79114,0"
             style="fill:none;stroke:#ff0000;stroke-width:1.5;stroke-linecap:butt;stroke-linejoin:round;stroke-miterlimit:10;stroke-dasharray:5.55, 2.4;stroke-dashoffset:0;stroke-opacity:0.3"
             id="path1682"
             inkscape:connector-curvature="0" />
        </g>
        <g
           transform="matrix(0.39986,0,0,0.39986,319.571,409.214)"
           id="g1684">
          <path
             d="m 89.52203,79.40197 0,-19.42868"
             style="fill:none;stroke:#ff0000;stroke-width:1.5;stroke-linecap:butt;stroke-linejoin:round;stroke-miterlimit:10;stroke-dasharray:5.55, 2.4;stroke-dashoffset:0;stroke-opacity:0.3"
             id="path1686"
             inkscape:connector-curvature="0" />
        </g>
        <g
           transform="matrix(0.39986,0,0,0.39986,319.571,409.214)"
           id="g1688">
          <path
             d="m 89.52203,79.40197 28.24587,0"
             style="fill:none;stroke:#ff0000;stroke-width:1.5;stroke-linecap:butt;stroke-linejoin:round;stroke-miterlimit:10;stroke-dasharray:5.55, 2.4;stroke-dashoffset:0;stroke-opacity:0.3"
             id="path1690"
             inkscape:connector-curvature="0" />
        </g>
        <g
           transform="matrix(0.39986,0,0,0.39986,319.571,409.214)"
           id="g1692">
          <path
             d="m 94.12506,63.28336 0,-0.14392"
             style="fill:none;stroke:#ff0000;stroke-width:1.5;stroke-linecap:butt;stroke-linejoin:round;stroke-miterlimit:10;stroke-dasharray:5.55, 2.4;stroke-dashoffset:0;stroke-opacity:0.3"
             id="path1694"
             inkscape:connector-curvature="0" />
        </g>
        <g
           transform="matrix(0.39986,0,0,0.39986,319.571,409.214)"
           id="g1696">
          <path
             d="m 94.12506,63.28336 0.20923,0"
             style="fill:none;stroke:#ff0000;stroke-width:1.5;stroke-linecap:butt;stroke-linejoin:round;stroke-miterlimit:10;stroke-dasharray:5.55, 2.4;stroke-dashoffset:0;stroke-opacity:0.3"
             id="path1698"
             inkscape:connector-curvature="0" />
        </g>
        <g
           transform="matrix(0.39986,0,0,0.39986,319.571,409.214)"
           id="g1700">
          <path
             d="m 100.4019,80.74518 0,-13.28825"
             style="fill:none;stroke:#ff0000;stroke-width:1.5;stroke-linecap:butt;stroke-linejoin:round;stroke-miterlimit:10;stroke-dasharray:5.55, 2.4;stroke-dashoffset:0;stroke-opacity:0.3"
             id="path1702"
             inkscape:connector-curvature="0" />
        </g>
        <g
           transform="matrix(0.39986,0,0,0.39986,319.571,409.214)"
           id="g1704">
          <path
             d="m 100.4019,80.74518 19.3188,0"
             style="fill:none;stroke:#ff0000;stroke-width:1.5;stroke-linecap:butt;stroke-linejoin:round;stroke-miterlimit:10;stroke-dasharray:5.55, 2.4;stroke-dashoffset:0;stroke-opacity:0.3"
             id="path1706"
             inkscape:connector-curvature="0" />
        </g>
        <g
           transform="matrix(0.39986,0,0,0.39986,319.571,409.214)"
           id="g1708">
          <path
             d="m 97.19375,78.8263 0,-13.57609"
             style="fill:none;stroke:#ff0000;stroke-width:1.5;stroke-linecap:butt;stroke-linejoin:round;stroke-miterlimit:10;stroke-dasharray:5.55, 2.4;stroke-dashoffset:0;stroke-opacity:0.3"
             id="path1710"
             inkscape:connector-curvature="0" />
        </g>
        <g
           transform="matrix(0.39986,0,0,0.39986,319.571,409.214)"
           id="g1712">
          <path
             d="m 97.19375,78.8263 19.73725,0"
             style="fill:none;stroke:#ff0000;stroke-width:1.5;stroke-linecap:butt;stroke-linejoin:round;stroke-miterlimit:10;stroke-dasharray:5.55, 2.4;stroke-dashoffset:0;stroke-opacity:0.3"
             id="path1714"
             inkscape:connector-curvature="0" />
        </g>
        <g
           transform="matrix(0.39986,0,0,0.39986,319.571,409.214)"
           id="g1716">
          <path
             d="m 87.36,145.9392 0,-87.45305"
             style="fill:none;stroke:#ff0000;stroke-width:1.5;stroke-linecap:butt;stroke-linejoin:round;stroke-miterlimit:10;stroke-dasharray:5.55, 2.4;stroke-dashoffset:0;stroke-opacity:0.3"
             id="path1718"
             inkscape:connector-curvature="0" />
        </g>
        <g
           transform="matrix(0.39986,0,0,0.39986,319.571,409.214)"
           id="g1720">
          <path
             d="m 87.36,145.9392 127.1413,0"
             style="fill:none;stroke:#ff0000;stroke-width:1.5;stroke-linecap:butt;stroke-linejoin:round;stroke-miterlimit:10;stroke-dasharray:5.55, 2.4;stroke-dashoffset:0;stroke-opacity:0.3"
             id="path1722"
             inkscape:connector-curvature="0" />
        </g>
        <g
           transform="matrix(0.39986,0,0,0.39986,319.571,409.214)"
           id="g1724">
          <path
             d="m 94.12506,95.37666 0,-32.23722"
             style="fill:none;stroke:#ff0000;stroke-width:1.5;stroke-linecap:butt;stroke-linejoin:round;stroke-miterlimit:10;stroke-dasharray:5.55, 2.4;stroke-dashoffset:0;stroke-opacity:0.3"
             id="path1726"
             inkscape:connector-curvature="0" />
        </g>
        <g
           transform="matrix(0.39986,0,0,0.39986,319.571,409.214)"
           id="g1728">
          <path
             d="m 94.12506,95.37666 46.86724,0"
             style="fill:none;stroke:#ff0000;stroke-width:1.5;stroke-linecap:butt;stroke-linejoin:round;stroke-miterlimit:10;stroke-dasharray:5.55, 2.4;stroke-dashoffset:0;stroke-opacity:0.3"
             id="path1730"
             inkscape:connector-curvature="0" />
        </g>
        <g
           transform="matrix(0.39986,0,0,0.39986,319.571,409.214)"
           id="g1732">
          <path
             d="m 97.19375,263.1877 0,-197.93749"
             style="fill:none;stroke:#ff0000;stroke-width:1.5;stroke-linecap:butt;stroke-linejoin:round;stroke-miterlimit:10;stroke-dasharray:5.55, 2.4;stroke-dashoffset:0;stroke-opacity:0.3"
             id="path1734"
             inkscape:connector-curvature="0" />
        </g>
        <g
           transform="matrix(0.39986,0,0,0.39986,319.571,409.214)"
           id="g1736">
          <path
             d="m 97.19375,263.1877 287.76625,0"
             style="fill:none;stroke:#ff0000;stroke-width:1.5;stroke-linecap:butt;stroke-linejoin:round;stroke-miterlimit:10;stroke-dasharray:5.55, 2.4;stroke-dashoffset:0;stroke-opacity:0.3"
             id="path1738"
             inkscape:connector-curvature="0" />
        </g>
        <g
           transform="matrix(0.39986,0,0,0.39986,319.571,409.214)"
           id="g1740">
          <path
             d="m 87.36,66.97721 0,-8.49106"
             style="fill:none;stroke:#ff0000;stroke-width:1.5;stroke-linecap:butt;stroke-linejoin:round;stroke-miterlimit:10;stroke-dasharray:5.55, 2.4;stroke-dashoffset:0;stroke-opacity:0.3"
             id="path1742"
             inkscape:connector-curvature="0" />
        </g>
        <g
           transform="matrix(0.39986,0,0,0.39986,319.571,409.214)"
           id="g1744">
          <path
             d="m 87.36,66.97721 12.3445,0"
             style="fill:none;stroke:#ff0000;stroke-width:1.5;stroke-linecap:butt;stroke-linejoin:round;stroke-miterlimit:10;stroke-dasharray:5.55, 2.4;stroke-dashoffset:0;stroke-opacity:0.3"
             id="path1746"
             inkscape:connector-curvature="0" />
        </g>
        <g
           transform="matrix(0.39986,0,0,0.39986,319.571,409.214)"
           id="g1748">
          <path
             d="m 92.10252,99.74212 0,-37.99387"
             style="fill:none;stroke:#ff0000;stroke-width:1.5;stroke-linecap:butt;stroke-linejoin:round;stroke-miterlimit:10;stroke-dasharray:5.55, 2.4;stroke-dashoffset:0;stroke-opacity:0.3"
             id="path1750"
             inkscape:connector-curvature="0" />
        </g>
        <g
           transform="matrix(0.39986,0,0,0.39986,319.571,409.214)"
           id="g1752">
          <path
             d="m 92.10252,99.74212 55.23638,0"
             style="fill:none;stroke:#ff0000;stroke-width:1.5;stroke-linecap:butt;stroke-linejoin:round;stroke-miterlimit:10;stroke-dasharray:5.55, 2.4;stroke-dashoffset:0;stroke-opacity:0.3"
             id="path1754"
             inkscape:connector-curvature="0" />
        </g>
        <g
           transform="matrix(0.39986,0,0,0.39986,319.571,409.214)"
           id="g1756">
          <path
             d="m 108.4921,78.58644 0,-5.56476"
             style="fill:none;stroke:#ff0000;stroke-width:1.5;stroke-linecap:butt;stroke-linejoin:round;stroke-miterlimit:10;stroke-dasharray:5.55, 2.4;stroke-dashoffset:0;stroke-opacity:0.3"
             id="path1758"
             inkscape:connector-curvature="0" />
        </g>
        <g
           transform="matrix(0.39986,0,0,0.39986,319.571,409.214)"
           id="g1760">
          <path
             d="m 108.4921,78.58644 8.0902,0"
             style="fill:none;stroke:#ff0000;stroke-width:1.5;stroke-linecap:butt;stroke-linejoin:round;stroke-miterlimit:10;stroke-dasharray:5.55, 2.4;stroke-dashoffset:0;stroke-opacity:0.3"
             id="path1762"
             inkscape:connector-curvature="0" />
        </g>
        <g
           transform="matrix(0.39986,0,0,0.39986,319.571,409.214)"
           id="g1764">
          <path
             d="m 123.6263,145.9392 0,-62.50758"
             style="fill:none;stroke:#ff0000;stroke-width:1.5;stroke-linecap:butt;stroke-linejoin:round;stroke-miterlimit:10;stroke-dasharray:5.55, 2.4;stroke-dashoffset:0;stroke-opacity:0.3"
             id="path1766"
             inkscape:connector-curvature="0" />
        </g>
        <g
           transform="matrix(0.39986,0,0,0.39986,319.571,409.214)"
           id="g1768">
          <path
             d="m 123.6263,145.9392 90.875,0"
             style="fill:none;stroke:#ff0000;stroke-width:1.5;stroke-linecap:butt;stroke-linejoin:round;stroke-miterlimit:10;stroke-dasharray:5.55, 2.4;stroke-dashoffset:0;stroke-opacity:0.3"
             id="path1770"
             inkscape:connector-curvature="0" />
        </g>
        <g
           transform="matrix(0.39986,0,0,0.39986,319.571,409.214)"
           id="g1772">
          <path
             d="m 89.87074,85.06267 0,-24.84952"
             style="fill:none;stroke:#ff0000;stroke-width:1.5;stroke-linecap:butt;stroke-linejoin:round;stroke-miterlimit:10;stroke-dasharray:5.55, 2.4;stroke-dashoffset:0;stroke-opacity:0.3"
             id="path1774"
             inkscape:connector-curvature="0" />
        </g>
        <g
           transform="matrix(0.39986,0,0,0.39986,319.571,409.214)"
           id="g1776">
          <path
             d="m 89.87074,85.06267 36.12686,0"
             style="fill:none;stroke:#ff0000;stroke-width:1.5;stroke-linecap:butt;stroke-linejoin:round;stroke-miterlimit:10;stroke-dasharray:5.55, 2.4;stroke-dashoffset:0;stroke-opacity:0.3"
             id="path1778"
             inkscape:connector-curvature="0" />
        </g>
        <g
           transform="matrix(0.39986,0,0,0.39986,319.571,409.214)"
           id="g1780">
          <path
             d="m 92.10252,78.58644 0,-16.83819"
             style="fill:none;stroke:#ff0000;stroke-width:1.5;stroke-linecap:butt;stroke-linejoin:round;stroke-miterlimit:10;stroke-dasharray:5.55, 2.4;stroke-dashoffset:0;stroke-opacity:0.3"
             id="path1782"
             inkscape:connector-curvature="0" />
        </g>
        <g
           transform="matrix(0.39986,0,0,0.39986,319.571,409.214)"
           id="g1784">
          <path
             d="m 92.10252,78.58644 24.47978,0"
             style="fill:none;stroke:#ff0000;stroke-width:1.5;stroke-linecap:butt;stroke-linejoin:round;stroke-miterlimit:10;stroke-dasharray:5.55, 2.4;stroke-dashoffset:0;stroke-opacity:0.3"
             id="path1786"
             inkscape:connector-curvature="0" />
        </g>
        <g
           transform="matrix(0.39986,0,0,0.39986,319.571,409.214)"
           id="g1788">
          <path
             d="m 107.5854,226.5322 0,-154.13415"
             style="fill:none;stroke:#ff0000;stroke-width:1.5;stroke-linecap:butt;stroke-linejoin:round;stroke-miterlimit:10;stroke-dasharray:5.55, 2.4;stroke-dashoffset:0;stroke-opacity:0.3"
             id="path1790"
             inkscape:connector-curvature="0" />
        </g>
        <g
           transform="matrix(0.39986,0,0,0.39986,319.571,409.214)"
           id="g1792">
          <path
             d="m 107.5854,226.5322 224.084,0"
             style="fill:none;stroke:#ff0000;stroke-width:1.5;stroke-linecap:butt;stroke-linejoin:round;stroke-miterlimit:10;stroke-dasharray:5.55, 2.4;stroke-dashoffset:0;stroke-opacity:0.3"
             id="path1794"
             inkscape:connector-curvature="0" />
        </g>
        <g
           transform="matrix(0.39986,0,0,0.39986,319.571,409.214)"
           id="g1796">
          <path
             d="m 101.1691,163.5929 0,-95.60828"
             style="fill:none;stroke:#ff0000;stroke-width:1.5;stroke-linecap:butt;stroke-linejoin:round;stroke-miterlimit:10;stroke-dasharray:5.55, 2.4;stroke-dashoffset:0;stroke-opacity:0.3"
             id="path1798"
             inkscape:connector-curvature="0" />
        </g>
        <g
           transform="matrix(0.39986,0,0,0.39986,319.571,409.214)"
           id="g1800">
          <path
             d="m 101.1691,163.5929 138.9976,0"
             style="fill:none;stroke:#ff0000;stroke-width:1.5;stroke-linecap:butt;stroke-linejoin:round;stroke-miterlimit:10;stroke-dasharray:5.55, 2.4;stroke-dashoffset:0;stroke-opacity:0.3"
             id="path1802"
             inkscape:connector-curvature="0" />
        </g>
        <g
           transform="matrix(0.39986,0,0,0.39986,319.571,409.214)"
           id="g1804">
          <path
             d="m 146.9902,119.8424 0,-20.34014"
             style="fill:none;stroke:#ff0000;stroke-width:1.5;stroke-linecap:butt;stroke-linejoin:round;stroke-miterlimit:10;stroke-dasharray:5.55, 2.4;stroke-dashoffset:0;stroke-opacity:0.3"
             id="path1806"
             inkscape:connector-curvature="0" />
        </g>
        <g
           transform="matrix(0.39986,0,0,0.39986,319.571,409.214)"
           id="g1808">
          <path
             d="m 146.9902,119.8424 29.571,0"
             style="fill:none;stroke:#ff0000;stroke-width:1.5;stroke-linecap:butt;stroke-linejoin:round;stroke-miterlimit:10;stroke-dasharray:5.55, 2.4;stroke-dashoffset:0;stroke-opacity:0.3"
             id="path1810"
             inkscape:connector-curvature="0" />
        </g>
        <g
           transform="matrix(0.39986,0,0,0.39986,319.571,409.214)"
           id="g1812">
          <path
             d="m 89.87074,83.19176 0,-22.97861"
             style="fill:none;stroke:#ff0000;stroke-width:1.5;stroke-linecap:butt;stroke-linejoin:round;stroke-miterlimit:10;stroke-dasharray:5.55, 2.4;stroke-dashoffset:0;stroke-opacity:0.3"
             id="path1814"
             inkscape:connector-curvature="0" />
        </g>
        <g
           transform="matrix(0.39986,0,0,0.39986,319.571,409.214)"
           id="g1816">
          <path
             d="m 89.87074,83.19176 33.40686,0"
             style="fill:none;stroke:#ff0000;stroke-width:1.5;stroke-linecap:butt;stroke-linejoin:round;stroke-miterlimit:10;stroke-dasharray:5.55, 2.4;stroke-dashoffset:0;stroke-opacity:0.3"
             id="path1818"
             inkscape:connector-curvature="0" />
        </g>
        <g
           transform="matrix(0.39986,0,0,0.39986,319.571,409.214)"
           id="g1820">
          <path
             d="m 251.9533,177.8886 0,-6.1884"
             style="fill:none;stroke:#ff0000;stroke-width:1.5;stroke-linecap:butt;stroke-linejoin:round;stroke-miterlimit:10;stroke-dasharray:5.55, 2.4;stroke-dashoffset:0;stroke-opacity:0.3"
             id="path1822"
             inkscape:connector-curvature="0" />
        </g>
        <g
           transform="matrix(0.39986,0,0,0.39986,319.571,409.214)"
           id="g1824">
          <path
             d="m 251.9533,177.8886 8.9968,0"
             style="fill:none;stroke:#ff0000;stroke-width:1.5;stroke-linecap:butt;stroke-linejoin:round;stroke-miterlimit:10;stroke-dasharray:5.55, 2.4;stroke-dashoffset:0;stroke-opacity:0.3"
             id="path1826"
             inkscape:connector-curvature="0" />
        </g>
        <g
           transform="matrix(0.39986,0,0,0.39986,319.571,409.214)"
           id="g1828">
          <path
             d="m 90.56817,108.569 0,-47.87613"
             style="fill:none;stroke:#ff0000;stroke-width:1.5;stroke-linecap:butt;stroke-linejoin:round;stroke-miterlimit:10;stroke-dasharray:5.55, 2.4;stroke-dashoffset:0;stroke-opacity:0.3"
             id="path1830"
             inkscape:connector-curvature="0" />
        </g>
        <g
           transform="matrix(0.39986,0,0,0.39986,319.571,409.214)"
           id="g1832">
          <path
             d="m 90.56817,108.569 69.60343,0"
             style="fill:none;stroke:#ff0000;stroke-width:1.5;stroke-linecap:butt;stroke-linejoin:round;stroke-miterlimit:10;stroke-dasharray:5.55, 2.4;stroke-dashoffset:0;stroke-opacity:0.3"
             id="path1834"
             inkscape:connector-curvature="0" />
        </g>
        <g
           transform="matrix(0.39986,0,0,0.39986,319.571,409.214)"
           id="g1836">
          <path
             d="m 89.52203,79.40197 0,-19.42868"
             style="fill:none;stroke:#ff0000;stroke-width:1.5;stroke-linecap:butt;stroke-linejoin:round;stroke-miterlimit:10;stroke-dasharray:5.55, 2.4;stroke-dashoffset:0;stroke-opacity:0.3"
             id="path1838"
             inkscape:connector-curvature="0" />
        </g>
        <g
           transform="matrix(0.39986,0,0,0.39986,319.571,409.214)"
           id="g1840">
          <path
             d="m 89.52203,79.40197 28.24587,0"
             style="fill:none;stroke:#ff0000;stroke-width:1.5;stroke-linecap:butt;stroke-linejoin:round;stroke-miterlimit:10;stroke-dasharray:5.55, 2.4;stroke-dashoffset:0;stroke-opacity:0.3"
             id="path1842"
             inkscape:connector-curvature="0" />
        </g>
        <g
           transform="matrix(0.39986,0,0,0.39986,319.571,409.214)"
           id="g1844">
          <path
             d="m 102.2152,69.9035 0,-1.1993"
             style="fill:none;stroke:#ff0000;stroke-width:1.5;stroke-linecap:butt;stroke-linejoin:round;stroke-miterlimit:10;stroke-dasharray:5.55, 2.4;stroke-dashoffset:0;stroke-opacity:0.3"
             id="path1846"
             inkscape:connector-curvature="0" />
        </g>
        <g
           transform="matrix(0.39986,0,0,0.39986,319.571,409.214)"
           id="g1848">
          <path
             d="m 102.2152,69.9035 1.7436,0"
             style="fill:none;stroke:#ff0000;stroke-width:1.5;stroke-linecap:butt;stroke-linejoin:round;stroke-miterlimit:10;stroke-dasharray:5.55, 2.4;stroke-dashoffset:0;stroke-opacity:0.3"
             id="path1850"
             inkscape:connector-curvature="0" />
        </g>
        <g
           transform="matrix(0.39986,0,0,0.39986,319.571,409.214)"
           id="g1852">
          <path
             d="M 57.6,100.5236 414.72,346.1654"
             style="fill:none;stroke:#4c4c4c;stroke-width:1.5;stroke-linecap:butt;stroke-linejoin:round;stroke-miterlimit:10;stroke-dasharray:5.55, 2.4;stroke-dashoffset:0;stroke-opacity:1"
             id="path1854"
             inkscape:connector-curvature="0" />
        </g>
        <g
           transform="matrix(0.39986,0,0,0.39986,319.571,409.214)"
           id="g1856">
          <path
             d="M 57.6,125.469 379.0855,346.6"
             style="fill:none;stroke:#4c4c4c;stroke-width:1.5;stroke-linecap:butt;stroke-linejoin:round;stroke-miterlimit:10;stroke-dasharray:5.55, 2.4;stroke-dashoffset:0;stroke-opacity:1"
             id="path1858"
             inkscape:connector-curvature="0" />
        </g>
        <g
           transform="matrix(0.39986,0,0,0.39986,319.571,409.214)"
           id="g1860">
          <path
             d="m 87.36,138.9392 c 1.85642,0 3.63706,0.7376 4.94975,2.0503 1.31269,1.3126 2.05025,3.0933 2.05025,4.9497 0,1.8564 -0.73756,3.6371 -2.05025,4.9498 -1.31269,1.3126 -3.09333,2.0502 -4.94975,2.0502 -1.85642,0 -3.63706,-0.7376 -4.94975,-2.0502 -1.31269,-1.3127 -2.05025,-3.0934 -2.05025,-4.9498 0,-1.8564 0.73756,-3.6371 2.05025,-4.9497 1.31269,-1.3127 3.09333,-2.0503 4.94975,-2.0503 z"
             style="fill:none;stroke:#ff0000;stroke-width:5;stroke-linecap:butt;stroke-linejoin:round;stroke-miterlimit:10;stroke-dasharray:none;stroke-opacity:1"
             id="path1862"
             inkscape:connector-curvature="0" />
        </g>
        <g
           transform="matrix(0.39986,0,0,0.39986,319.571,409.214)"
           id="g1864">
          <path
             d="m 101.1691,156.5929 c 1.8564,0 3.6371,0.7376 4.9497,2.0503 1.3127,1.3127 2.0503,3.0933 2.0503,4.9497 0,1.8564 -0.7376,3.6371 -2.0503,4.9498 -1.3126,1.3127 -3.0933,2.0502 -4.9497,2.0502 -1.85642,0 -3.63706,-0.7375 -4.94975,-2.0502 -1.31269,-1.3127 -2.05025,-3.0934 -2.05025,-4.9498 0,-1.8564 0.73756,-3.637 2.05025,-4.9497 1.31269,-1.3127 3.09333,-2.0503 4.94975,-2.0503 z"
             style="fill:none;stroke:#ff0000;stroke-width:5;stroke-linecap:butt;stroke-linejoin:round;stroke-miterlimit:10;stroke-dasharray:none;stroke-opacity:1"
             id="path1866"
             inkscape:connector-curvature="0" />
        </g>
        <g
           transform="matrix(0.39986,0,0,0.39986,319.571,409.214)"
           id="g1868">
          <path
             d="m 107.5854,219.5322 c 1.8565,0 3.6371,0.7376 4.9498,2.0503 1.3127,1.3127 2.0502,3.0933 2.0502,4.9497 0,1.8565 -0.7375,3.6371 -2.0502,4.9498 -1.3127,1.3127 -3.0933,2.0502 -4.9498,2.0502 -1.8564,0 -3.637,-0.7375 -4.9497,-2.0502 -1.3127,-1.3127 -2.0503,-3.0933 -2.0503,-4.9498 0,-1.8564 0.7376,-3.637 2.0503,-4.9497 1.3127,-1.3127 3.0933,-2.0503 4.9497,-2.0503 z"
             style="fill:none;stroke:#ff0000;stroke-width:5;stroke-linecap:butt;stroke-linejoin:round;stroke-miterlimit:10;stroke-dasharray:none;stroke-opacity:1"
             id="path1870"
             inkscape:connector-curvature="0" />
        </g>
        <g
           transform="matrix(0.39986,0,0,0.39986,319.571,409.214)"
           id="g1872">
          <path
             d="m 97.19375,256.1877 c 1.85642,0 3.63705,0.7376 4.94975,2.0502 1.3127,1.3127 2.0503,3.0934 2.0503,4.9498 0,1.8564 -0.7376,3.6371 -2.0503,4.9497 -1.3127,1.3127 -3.09333,2.0503 -4.94975,2.0503 -1.85642,0 -3.63706,-0.7376 -4.94975,-2.0503 -1.31269,-1.3126 -2.05025,-3.0933 -2.05025,-4.9497 0,-1.8564 0.73756,-3.6371 2.05025,-4.9498 1.31269,-1.3126 3.09333,-2.0502 4.94975,-2.0502 z"
             style="fill:none;stroke:#ff0000;stroke-width:5;stroke-linecap:butt;stroke-linejoin:round;stroke-miterlimit:10;stroke-dasharray:none;stroke-opacity:1"
             id="path1874"
             inkscape:connector-curvature="0" />
        </g>
      </g>
    </g>
    <g
       id="g1876"
       transform="matrix(1.25,0,0,-1.25,-402.90916,1567.1066)">
      <g
         clip-path="url(#clipPath1364)"
         id="g1878">
        <g
           transform="matrix(0.39986,0,0,0.39986,319.571,409.214)"
           id="g1880">
          <path
             d="m 57.6,38.016 0,266.112"
             style="fill:none;stroke:#ffffff;stroke-width:0.80000001;stroke-linecap:square;stroke-linejoin:miter;stroke-miterlimit:10;stroke-dasharray:none;stroke-opacity:1"
             id="path1882"
             inkscape:connector-curvature="0" />
        </g>
        <g
           transform="matrix(0.39986,0,0,0.39986,319.571,409.214)"
           id="g1888">
          <path
             d="m 57.6,38.016 357.12,0"
             style="fill:none;stroke:#ffffff;stroke-width:0.80000001;stroke-linecap:square;stroke-linejoin:miter;stroke-miterlimit:10;stroke-dasharray:none;stroke-opacity:1"
             id="path1890"
             inkscape:connector-curvature="0" />
        </g>
      </g>
    </g>
    <g
       id="g1896"
       transform="matrix(1.25,0,0,-1.25,-402.90916,1567.1066)">
      <g
         clip-path="url(#clipPath1368)"
         id="g1898">
        <path
           d="m 344.4263,523.3672 c -0.044,0.048 -0.096,0.1239 -0.1559,0.2359 -0.088,-0.16 -0.172,-0.2719 -0.248,-0.3359 -0.0959,-0.088 -0.2199,-0.1279 -0.3678,-0.1279 -0.176,0 -0.3239,0.0639 -0.4399,0.1999 -0.1239,0.1359 -0.1839,0.3159 -0.1839,0.5478 0,0.2159 0.06,0.3998 0.1839,0.5518 0.108,0.128 0.2559,0.1959 0.4439,0.1959 0.0919,0 0.1759,-0.02 0.2479,-0.06 0.08,-0.0439 0.1479,-0.1039 0.2039,-0.1759 0.052,-0.068 0.104,-0.1439 0.16,-0.2319 0.0839,0.1519 0.1639,0.2639 0.2439,0.3359 0.0959,0.0799 0.2159,0.1239 0.3678,0.1239 0.176,0 0.3199,-0.0679 0.4399,-0.1959 0.1199,-0.14 0.1839,-0.3239 0.1839,-0.5478 0,-0.2199 -0.064,-0.4039 -0.1839,-0.5518 -0.112,-0.132 -0.2599,-0.1959 -0.4439,-0.1959 -0.0959,0 -0.1759,0.0159 -0.2479,0.0559 -0.0719,0.036 -0.1399,0.096 -0.2039,0.176 m -0.7957,0.028 c 0.2159,0 0.3878,0.1559 0.5158,0.4678 -0.1679,0.3399 -0.3399,0.5118 -0.5158,0.5118 -0.132,0 -0.2279,-0.048 -0.2919,-0.1399 -0.072,-0.1 -0.108,-0.216 -0.108,-0.3479 0,-0.148 0.036,-0.2679 0.108,-0.3559 0.072,-0.092 0.1679,-0.1359 0.2919,-0.1359 m 1.2755,0.9756 c -0.1959,0 -0.3678,-0.1559 -0.5158,-0.4678 0.16,-0.3439 0.3319,-0.5118 0.5158,-0.5118 0.128,0 0.2279,0.0439 0.2919,0.1399 0.072,0.1 0.108,0.2159 0.108,0.3519 0,0.1439 -0.036,0.2639 -0.108,0.3519 -0.0719,0.0879 -0.1719,0.1359 -0.2919,0.1359"
           style="fill:#ffffff;fill-opacity:0.6;fill-rule:nonzero;stroke:none"
           id="path1900"
           inkscape:connector-curvature="0" />
      </g>
    </g>
  </g>
</svg>
