<?xml version="1.0" encoding="UTF-8" standalone="no"?>
<!-- Created with Inkscape (http://www.inkscape.org/) -->

<svg
   xmlns:dc="http://purl.org/dc/elements/1.1/"
   xmlns:cc="http://creativecommons.org/ns#"
   xmlns:rdf="http://www.w3.org/1999/02/22-rdf-syntax-ns#"
   xmlns:svg="http://www.w3.org/2000/svg"
   xmlns="http://www.w3.org/2000/svg"
   xmlns:sodipodi="http://sodipodi.sourceforge.net/DTD/sodipodi-0.dtd"
   xmlns:inkscape="http://www.inkscape.org/namespaces/inkscape"
   width="200"
   height="150"
   viewBox="0 0 200 150"
   id="svg5972"
   version="1.1"
   inkscape:version="0.91 r13725"
   sodipodi:docname="ranging_mis_gap.svg">
  <defs
     id="defs5974">
    <clipPath
       clipPathUnits="userSpaceOnUse"
       id="clipPath584">
      <path
         d="m 319,452 185,0 0,139 -185,0 0,-139 z"
         id="path586"
         inkscape:connector-curvature="0" />
    </clipPath>
    <clipPath
       clipPathUnits="userSpaceOnUse"
       id="clipPath588">
      <path
         d="m 319.571,452.479 184.2555,0 0,138.1916 -184.2555,0 0,-138.1916 z"
         id="path590"
         inkscape:connector-curvature="0" />
    </clipPath>
    <clipPath
       clipPathUnits="userSpaceOnUse"
       id="clipPath592">
      <path
         d="m 342.6029,467.6801 142.798,0 0,106.4075 -142.798,0 0,-106.4075 z"
         id="path594"
         inkscape:connector-curvature="0" />
    </clipPath>
    <clipPath
       clipPathUnits="userSpaceOnUse"
       id="clipPath596">
      <path
         d="m 319.571,452.479 184.2555,0 0,138.1916 -184.2555,0 0,-138.1916 z"
         id="path598"
         inkscape:connector-curvature="0" />
    </clipPath>
    <clipPath
       clipPathUnits="userSpaceOnUse"
       id="clipPath600">
      <path
         d="m 342.6029,467.6801 142.798,0 0,106.4075 -142.798,0 0,-106.4075 z"
         id="path602"
         inkscape:connector-curvature="0" />
    </clipPath>
    <clipPath
       clipPathUnits="userSpaceOnUse"
       id="clipPath604">
      <path
         d="m 319.571,452.479 184.2555,0 0,138.1916 -184.2555,0 0,-138.1916 z"
         id="path606"
         inkscape:connector-curvature="0" />
    </clipPath>
    <clipPath
       clipPathUnits="userSpaceOnUse"
       id="clipPath608">
      <path
         d="m 338.5204,564.1011 11.25606,0 0,6.78163 -11.25606,0 0,-6.78163 z"
         id="path610"
         inkscape:connector-curvature="0" />
    </clipPath>
    <clipPath
       clipPathUnits="userSpaceOnUse"
       id="clipPath612">
      <path
         d="m 319.571,452.479 184.2555,0 0,138.1916 -184.2555,0 0,-138.1916 z"
         id="path614"
         inkscape:connector-curvature="0" />
    </clipPath>
  </defs>
  <sodipodi:namedview
     id="base"
     pagecolor="#ffffff"
     bordercolor="#666666"
     borderopacity="1.0"
     inkscape:pageopacity="0.0"
     inkscape:pageshadow="2"
     inkscape:zoom="2.8"
     inkscape:cx="116.17857"
     inkscape:cy="61.916666"
     inkscape:document-units="px"
     inkscape:current-layer="g662"
     showgrid="false"
     units="px"
     inkscape:window-width="1637"
     inkscape:window-height="1005"
     inkscape:window-x="43"
     inkscape:window-y="1"
     inkscape:window-maximized="1" />
  <metadata
     id="metadata5977">
    <rdf:RDF>
      <cc:Work
         rdf:about="">
        <dc:format>image/svg+xml</dc:format>
        <dc:type
           rdf:resource="http://purl.org/dc/dcmitype/StillImage" />
        <dc:title></dc:title>
      </cc:Work>
    </rdf:RDF>
  </metadata>
  <g
     inkscape:label="Layer 1"
     inkscape:groupmode="layer"
     id="layer1"
     transform="translate(0,-902.36216)">
    <g
       id="g620"
       transform="matrix(1.25,0,0,-1.25,-387.48058,1610.7592)" />
    <g
       id="g630"
       transform="matrix(1.25,0,0,-1.25,-407.48058,1620.7592)">
      <g
         clip-path="url(#clipPath592)"
         id="g632">
        <g
           transform="matrix(0.39986,0,0,0.39986,319.571,452.479)"
           id="g634">
          <path
             d="m 130.4514,94.85183 c 0.7956,0 1.5587,0.3161 2.1213,0.87868 0.5626,0.56258 0.8787,1.32572 0.8787,2.12132 0,0.79561 -0.3161,1.55874 -0.8787,2.12133 -0.5626,0.56254 -1.3257,0.87864 -2.1213,0.87864 -0.7956,0 -1.5587,-0.3161 -2.1213,-0.87864 -0.5626,-0.56259 -0.8787,-1.32572 -0.8787,-2.12133 0,-0.7956 0.3161,-1.55874 0.8787,-2.12132 0.5626,-0.56258 1.3257,-0.87868 2.1213,-0.87868 z"
             style="fill:#ff0000;fill-opacity:0.6;fill-rule:nonzero;stroke:#ff0000;stroke-width:1;stroke-linecap:butt;stroke-linejoin:round;stroke-miterlimit:10;stroke-dasharray:none;stroke-opacity:0.6"
             id="path636"
             inkscape:connector-curvature="0" />
        </g>
        <g
           transform="matrix(0.39986,0,0,0.39986,319.571,452.479)"
           id="g638">
          <path
             d="m 90.52849,260.1877 c 0.79561,0 1.55873,0.3161 2.12132,0.8787 0.56258,0.5626 0.87867,1.3257 0.87867,2.1213 0,0.7956 -0.31609,1.5587 -0.87867,2.1213 -0.56259,0.5626 -1.32571,0.8787 -2.12132,0.8787 -0.79561,0 -1.55874,-0.3161 -2.12132,-0.8787 -0.56259,-0.5626 -0.87869,-1.3257 -0.87869,-2.1213 0,-0.7956 0.3161,-1.5587 0.87869,-2.1213 0.56258,-0.5626 1.32571,-0.8787 2.12132,-0.8787 z"
             style="fill:#ff0000;fill-opacity:0.6;fill-rule:nonzero;stroke:#ff0000;stroke-width:1;stroke-linecap:butt;stroke-linejoin:round;stroke-miterlimit:10;stroke-dasharray:none;stroke-opacity:0.6"
             id="path640"
             inkscape:connector-curvature="0" />
        </g>
        <g
           transform="matrix(0.39986,0,0,0.39986,319.571,452.479)"
           id="g642">
          <path
             d="m 97.45955,65.67492 c 0.79561,0 1.55874,0.3161 2.12132,0.87868 0.56253,0.56258 0.87863,1.32571 0.87863,2.12132 0,0.79561 -0.3161,1.55874 -0.87863,2.12132 -0.56258,0.56258 -1.32571,0.87868 -2.12132,0.87868 -0.79561,0 -1.55874,-0.3161 -2.12132,-0.87868 -0.56258,-0.56258 -0.87868,-1.32571 -0.87868,-2.12132 0,-0.79561 0.3161,-1.55874 0.87868,-2.12132 0.56258,-0.56258 1.32571,-0.87868 2.12132,-0.87868 z"
             style="fill:#ff0000;fill-opacity:0.6;fill-rule:nonzero;stroke:#ff0000;stroke-width:1;stroke-linecap:butt;stroke-linejoin:round;stroke-miterlimit:10;stroke-dasharray:none;stroke-opacity:0.6"
             id="path644"
             inkscape:connector-curvature="0" />
        </g>
        <g
           transform="matrix(0.39986,0,0,0.39986,319.571,452.479)"
           id="g646">
          <path
             d="m 87.36,56.46116 c 0.79561,0 1.55874,0.31609 2.12132,0.87867 0.56258,0.56259 0.87868,1.32572 0.87868,2.12132 0,0.79562 -0.3161,1.55875 -0.87868,2.12133 -0.56258,0.56258 -1.32571,0.87868 -2.12132,0.87868 -0.79561,0 -1.55874,-0.3161 -2.12132,-0.87868 C 84.6761,61.0199 84.36,60.25677 84.36,59.46115 c 0,-0.7956 0.3161,-1.55873 0.87868,-2.12132 0.56258,-0.56258 1.32571,-0.87867 2.12132,-0.87867 z"
             style="fill:#ff0000;fill-opacity:0.6;fill-rule:nonzero;stroke:#ff0000;stroke-width:1;stroke-linecap:butt;stroke-linejoin:round;stroke-miterlimit:10;stroke-dasharray:none;stroke-opacity:0.6"
             id="path648"
             inkscape:connector-curvature="0" />
        </g>
        <g
           transform="matrix(0.39986,0,0,0.39986,319.571,452.479)"
           id="g650">
          <path
             d="m 92.74642,111.0612 c 0.79561,0 1.55874,0.3161 2.12133,0.8787 0.56258,0.5626 0.87867,1.3257 0.87867,2.1213 0,0.7956 -0.31609,1.5588 -0.87867,2.1214 -0.56259,0.5625 -1.32572,0.8786 -2.12133,0.8786 -0.7956,0 -1.55873,-0.3161 -2.12132,-0.8786 -0.56258,-0.5626 -0.87867,-1.3258 -0.87867,-2.1214 0,-0.7956 0.31609,-1.5587 0.87867,-2.1213 0.56259,-0.5626 1.32572,-0.8787 2.12132,-0.8787 z"
             style="fill:#ff0000;fill-opacity:0.6;fill-rule:nonzero;stroke:#ff0000;stroke-width:1;stroke-linecap:butt;stroke-linejoin:round;stroke-miterlimit:10;stroke-dasharray:none;stroke-opacity:0.6"
             id="path652"
             inkscape:connector-curvature="0" />
        </g>
        <g
           transform="matrix(0.39986,0,0,0.39986,319.571,452.479)"
           id="g654">
          <path
             d="m 109.2424,78.64244 c 0.7956,0 1.5587,0.31609 2.1213,0.87868 0.5626,0.56258 0.8787,1.32571 0.8787,2.12132 0,0.79561 -0.3161,1.55874 -0.8787,2.12132 -0.5626,0.56258 -1.3257,0.87868 -2.1213,0.87868 -0.7957,0 -1.5588,-0.3161 -2.1214,-0.87868 -0.5625,-0.56258 -0.8786,-1.32571 -0.8786,-2.12132 0,-0.79561 0.3161,-1.55874 0.8786,-2.12132 0.5626,-0.56259 1.3257,-0.87868 2.1214,-0.87868 z"
             style="fill:#ff0000;fill-opacity:0.6;fill-rule:nonzero;stroke:#ff0000;stroke-width:1;stroke-linecap:butt;stroke-linejoin:round;stroke-miterlimit:10;stroke-dasharray:none;stroke-opacity:0.6"
             id="path656"
             inkscape:connector-curvature="0" />
        </g>
        <path
           d="m 342.6029,488.4208 0,-16.8518 142.798,98.2223 0,16.8519 0,0 -142.798,-98.2224 z"
           style="fill:#ffff00;fill-opacity:0.7;fill-rule:nonzero;stroke:none"
           id="path658"
           inkscape:connector-curvature="0" />
      </g>
    </g>
    <g
       id="g660"
       transform="matrix(1.25,0,0,-1.25,-407.48058,1620.7592)">
      <g
         clip-path="url(#clipPath596)"
         id="g662">
        <g
           transform="matrix(0.39986,0,0,0.39986,319.571,452.479)"
           id="g664">
          <path
             d="m 73.89394,38.016 0,-3.5"
             style="fill:#ffffff;fill-opacity:1;fill-rule:nonzero;stroke:#ffffff;stroke-width:0.80000001;stroke-linecap:butt;stroke-linejoin:round;stroke-miterlimit:10;stroke-dasharray:none;stroke-opacity:1"
             id="path666"
             inkscape:connector-curvature="0" />
        </g>
        <path
           d="m 347.2096,464.4997 c -0.2039,0 -0.3558,-0.1 -0.4598,-0.2999 -0.104,-0.1999 -0.1519,-0.4998 -0.1519,-0.8997 0,-0.3998 0.0479,-0.6997 0.1519,-0.8997 0.104,-0.1999 0.2559,-0.2999 0.4598,-0.2999 0.204,0 0.3559,0.1 0.4599,0.2999 0.1,0.2 0.1519,0.4999 0.1519,0.8997 0,0.3999 -0.0519,0.6998 -0.1519,0.8997 -0.104,0.1999 -0.2559,0.2999 -0.4599,0.2999 m 0,0.3119 c 0.3239,0 0.5718,-0.132 0.7478,-0.3879 0.1719,-0.2599 0.2599,-0.6358 0.2599,-1.1236 0,-0.4918 -0.088,-0.8677 -0.2599,-1.1236 -0.176,-0.2559 -0.4239,-0.3839 -0.7478,-0.3839 -0.3278,0 -0.5797,0.128 -0.7517,0.3839 -0.1719,0.2559 -0.2559,0.6318 -0.2559,1.1236 0,0.4878 0.084,0.8637 0.2559,1.1236 0.172,0.2559 0.4239,0.3879 0.7517,0.3879"
           style="fill:#ffffff;fill-opacity:1;fill-rule:nonzero;stroke:none"
           id="path668"
           inkscape:connector-curvature="0" />
        <path
           d="m 348.9091,462.3404 0.4118,0 0,-0.4958 -0.4118,0 0,0.4958"
           style="fill:#ffffff;fill-opacity:1;fill-rule:nonzero;stroke:none"
           id="path670"
           inkscape:connector-curvature="0" />
        <path
           d="m 351.0243,464.4997 c -0.2039,0 -0.3559,-0.1 -0.4598,-0.2999 -0.104,-0.1999 -0.152,-0.4998 -0.152,-0.8997 0,-0.3998 0.048,-0.6997 0.152,-0.8997 0.1039,-0.1999 0.2559,-0.2999 0.4598,-0.2999 0.2039,0 0.3559,0.1 0.4599,0.2999 0.0999,0.2 0.1519,0.4999 0.1519,0.8997 0,0.3999 -0.052,0.6998 -0.1519,0.8997 -0.104,0.1999 -0.256,0.2999 -0.4599,0.2999 m 0,0.3119 c 0.3239,0 0.5718,-0.132 0.7478,-0.3879 0.1719,-0.2599 0.2599,-0.6358 0.2599,-1.1236 0,-0.4918 -0.088,-0.8677 -0.2599,-1.1236 -0.176,-0.2559 -0.4239,-0.3839 -0.7478,-0.3839 -0.3279,0 -0.5798,0.128 -0.7517,0.3839 -0.172,0.2559 -0.2559,0.6318 -0.2559,1.1236 0,0.4878 0.0839,0.8637 0.2559,1.1236 0.1719,0.2559 0.4238,0.3879 0.7517,0.3879"
           style="fill:#ffffff;fill-opacity:1;fill-rule:nonzero;stroke:none"
           id="path672"
           inkscape:connector-curvature="0" />
        <g
           transform="matrix(0.39986,0,0,0.39986,319.571,452.479)"
           id="g674">
          <path
             d="m 130.4514,38.016 0,-3.5"
             style="fill:#ffffff;fill-opacity:1;fill-rule:nonzero;stroke:#ffffff;stroke-width:0.80000001;stroke-linecap:butt;stroke-linejoin:round;stroke-miterlimit:10;stroke-dasharray:none;stroke-opacity:1"
             id="path676"
             inkscape:connector-curvature="0" />
        </g>
        <path
           d="m 369.8247,464.4997 c -0.2039,0 -0.3559,-0.1 -0.4598,-0.2999 -0.104,-0.1999 -0.152,-0.4998 -0.152,-0.8997 0,-0.3998 0.048,-0.6997 0.152,-0.8997 0.1039,-0.1999 0.2559,-0.2999 0.4598,-0.2999 0.2039,0 0.3559,0.1 0.4599,0.2999 0.0999,0.2 0.1519,0.4999 0.1519,0.8997 0,0.3999 -0.052,0.6998 -0.1519,0.8997 -0.104,0.1999 -0.256,0.2999 -0.4599,0.2999 m 0,0.3119 c 0.3239,0 0.5718,-0.132 0.7478,-0.3879 0.1719,-0.2599 0.2599,-0.6358 0.2599,-1.1236 0,-0.4918 -0.088,-0.8677 -0.2599,-1.1236 -0.176,-0.2559 -0.4239,-0.3839 -0.7478,-0.3839 -0.3279,0 -0.5798,0.128 -0.7517,0.3839 -0.172,0.2559 -0.2559,0.6318 -0.2559,1.1236 0,0.4878 0.0839,0.8637 0.2559,1.1236 0.1719,0.2559 0.4238,0.3879 0.7517,0.3879"
           style="fill:#ffffff;fill-opacity:1;fill-rule:nonzero;stroke:none"
           id="path678"
           inkscape:connector-curvature="0" />
        <path
           d="m 371.5241,462.3404 0.4119,0 0,-0.4958 -0.4119,0 0,0.4958"
           style="fill:#ffffff;fill-opacity:1;fill-rule:nonzero;stroke:none"
           id="path680"
           inkscape:connector-curvature="0" />
        <path
           d="m 373.1356,462.1765 1.3755,0 0,-0.3319 -1.8514,0 0,0.3319 c 0.148,0.152 0.3519,0.3599 0.6118,0.6238 0.2559,0.2599 0.4199,0.4278 0.4878,0.5038 0.128,0.14 0.216,0.2599 0.2639,0.3599 0.048,0.096 0.076,0.1959 0.076,0.2919 0,0.1519 -0.056,0.2799 -0.1639,0.3759 -0.108,0.0959 -0.2479,0.1479 -0.4239,0.1479 -0.1239,0 -0.2559,-0.024 -0.3918,-0.064 -0.136,-0.044 -0.2839,-0.1079 -0.4399,-0.1959 l 0,0.3998 c 0.16,0.064 0.3079,0.112 0.4439,0.144 0.1359,0.032 0.2639,0.048 0.3798,0.048 0.2999,0 0.5398,-0.076 0.7198,-0.2279 0.1799,-0.152 0.2719,-0.3519 0.2719,-0.6038 0,-0.12 -0.024,-0.2359 -0.068,-0.3399 -0.044,-0.108 -0.124,-0.2359 -0.2439,-0.3799 -0.032,-0.04 -0.136,-0.1479 -0.3119,-0.3279 -0.1759,-0.1799 -0.4199,-0.4318 -0.7357,-0.7557"
           style="fill:#ffffff;fill-opacity:1;fill-rule:nonzero;stroke:none"
           id="path682"
           inkscape:connector-curvature="0" />
        <g
           transform="matrix(0.39986,0,0,0.39986,319.571,452.479)"
           id="g684">
          <path
             d="m 187.0089,38.016 0,-3.5"
             style="fill:#ffffff;fill-opacity:1;fill-rule:nonzero;stroke:#ffffff;stroke-width:0.80000001;stroke-linecap:butt;stroke-linejoin:round;stroke-miterlimit:10;stroke-dasharray:none;stroke-opacity:1"
             id="path686"
             inkscape:connector-curvature="0" />
        </g>
        <path
           d="m 392.4398,464.4997 c -0.2039,0 -0.3559,-0.1 -0.4599,-0.2999 -0.1039,-0.1999 -0.1519,-0.4998 -0.1519,-0.8997 0,-0.3998 0.048,-0.6997 0.1519,-0.8997 0.104,-0.1999 0.256,-0.2999 0.4599,-0.2999 0.2039,0 0.3559,0.1 0.4598,0.2999 0.1,0.2 0.152,0.4999 0.152,0.8997 0,0.3999 -0.052,0.6998 -0.152,0.8997 -0.1039,0.1999 -0.2559,0.2999 -0.4598,0.2999 m 0,0.3119 c 0.3239,0 0.5718,-0.132 0.7477,-0.3879 0.172,-0.2599 0.2599,-0.6358 0.2599,-1.1236 0,-0.4918 -0.0879,-0.8677 -0.2599,-1.1236 -0.1759,-0.2559 -0.4238,-0.3839 -0.7477,-0.3839 -0.3279,0 -0.5798,0.128 -0.7518,0.3839 -0.1719,0.2559 -0.2559,0.6318 -0.2559,1.1236 0,0.4878 0.084,0.8637 0.2559,1.1236 0.172,0.2559 0.4239,0.3879 0.7518,0.3879"
           style="fill:#ffffff;fill-opacity:1;fill-rule:nonzero;stroke:none"
           id="path688"
           inkscape:connector-curvature="0" />
        <path
           d="m 394.1392,462.3404 0.4118,0 0,-0.4958 -0.4118,0 0,0.4958"
           style="fill:#ffffff;fill-opacity:1;fill-rule:nonzero;stroke:none"
           id="path690"
           inkscape:connector-curvature="0" />
        <path
           d="m 396.4944,464.4157 -0.9957,-1.5554 0.9957,0 0,1.5554 m -0.104,0.3439 0.4958,0 0,-1.8993 0.4159,0 0,-0.3279 -0.4159,0 0,-0.6878 -0.3918,0 0,0.6878 -1.3156,0 0,0.3798 1.2116,1.8474"
           style="fill:#ffffff;fill-opacity:1;fill-rule:nonzero;stroke:none"
           id="path692"
           inkscape:connector-curvature="0" />
        <g
           transform="matrix(0.39986,0,0,0.39986,319.571,452.479)"
           id="g694">
          <path
             d="m 243.5663,38.016 0,-3.5"
             style="fill:#ffffff;fill-opacity:1;fill-rule:nonzero;stroke:#ffffff;stroke-width:0.80000001;stroke-linecap:butt;stroke-linejoin:round;stroke-miterlimit:10;stroke-dasharray:none;stroke-opacity:1"
             id="path696"
             inkscape:connector-curvature="0" />
        </g>
        <path
           d="m 415.0549,464.4997 c -0.204,0 -0.3559,-0.1 -0.4599,-0.2999 -0.1039,-0.1999 -0.1519,-0.4998 -0.1519,-0.8997 0,-0.3998 0.048,-0.6997 0.1519,-0.8997 0.104,-0.1999 0.2559,-0.2999 0.4599,-0.2999 0.2039,0 0.3558,0.1 0.4598,0.2999 0.1,0.2 0.1519,0.4999 0.1519,0.8997 0,0.3999 -0.0519,0.6998 -0.1519,0.8997 -0.104,0.1999 -0.2559,0.2999 -0.4598,0.2999 m 0,0.3119 c 0.3238,0 0.5718,-0.132 0.7477,-0.3879 0.1719,-0.2599 0.2599,-0.6358 0.2599,-1.1236 0,-0.4918 -0.088,-0.8677 -0.2599,-1.1236 -0.1759,-0.2559 -0.4239,-0.3839 -0.7477,-0.3839 -0.3279,0 -0.5798,0.128 -0.7518,0.3839 -0.1719,0.2559 -0.2559,0.6318 -0.2559,1.1236 0,0.4878 0.084,0.8637 0.2559,1.1236 0.172,0.2559 0.4239,0.3879 0.7518,0.3879"
           style="fill:#ffffff;fill-opacity:1;fill-rule:nonzero;stroke:none"
           id="path698"
           inkscape:connector-curvature="0" />
        <path
           d="m 416.7543,462.3404 0.4118,0 0,-0.4958 -0.4118,0 0,0.4958"
           style="fill:#ffffff;fill-opacity:1;fill-rule:nonzero;stroke:none"
           id="path700"
           inkscape:connector-curvature="0" />
        <path
           d="m 418.9175,463.4601 c -0.1759,0 -0.3159,-0.064 -0.4199,-0.184 -0.1039,-0.1199 -0.1559,-0.2879 -0.1559,-0.4958 0,-0.2119 0.052,-0.3799 0.1559,-0.4998 0.104,-0.12 0.244,-0.18 0.4199,-0.18 0.1759,0 0.3159,0.06 0.4199,0.18 0.1039,0.1199 0.1559,0.2879 0.1559,0.4998 0,0.2079 -0.052,0.3759 -0.1559,0.4958 -0.104,0.12 -0.244,0.184 -0.4199,0.184 m 0.7837,1.2355 0,-0.3599 c -0.0999,0.048 -0.1999,0.084 -0.2999,0.108 -0.1039,0.024 -0.2039,0.036 -0.2999,0.036 -0.2639,0 -0.4638,-0.088 -0.5998,-0.2639 -0.1359,-0.1759 -0.2159,-0.4439 -0.2319,-0.7957 0.076,0.1119 0.172,0.1999 0.2879,0.2599 0.116,0.06 0.2439,0.0919 0.3839,0.0919 0.2919,0 0.5238,-0.0919 0.6917,-0.2679 0.168,-0.1759 0.256,-0.4198 0.256,-0.7237 0,-0.2999 -0.092,-0.5398 -0.2679,-0.7198 -0.176,-0.1799 -0.4119,-0.2679 -0.7038,-0.2679 -0.3359,0 -0.5958,0.128 -0.7717,0.3839 -0.18,0.2559 -0.2679,0.6318 -0.2679,1.1236 0,0.4599 0.1079,0.8277 0.3278,1.0996 0.216,0.2719 0.5119,0.4119 0.8797,0.4119 0.096,0 0.196,-0.012 0.2999,-0.028 0.1,-0.02 0.204,-0.048 0.3159,-0.088"
           style="fill:#ffffff;fill-opacity:1;fill-rule:nonzero;stroke:none"
           id="path702"
           inkscape:connector-curvature="0" />
        <g
           transform="matrix(0.39986,0,0,0.39986,319.571,452.479)"
           id="g704">
          <path
             d="m 300.1238,38.016 0,-3.5"
             style="fill:#ffffff;fill-opacity:1;fill-rule:nonzero;stroke:#ffffff;stroke-width:0.80000001;stroke-linecap:butt;stroke-linejoin:round;stroke-miterlimit:10;stroke-dasharray:none;stroke-opacity:1"
             id="path706"
             inkscape:connector-curvature="0" />
        </g>
        <path
           d="m 437.6699,464.4997 c -0.2039,0 -0.3559,-0.1 -0.4598,-0.2999 -0.104,-0.1999 -0.152,-0.4998 -0.152,-0.8997 0,-0.3998 0.048,-0.6997 0.152,-0.8997 0.1039,-0.1999 0.2559,-0.2999 0.4598,-0.2999 0.2039,0 0.3559,0.1 0.4599,0.2999 0.0999,0.2 0.1519,0.4999 0.1519,0.8997 0,0.3999 -0.052,0.6998 -0.1519,0.8997 -0.104,0.1999 -0.256,0.2999 -0.4599,0.2999 m 0,0.3119 c 0.3239,0 0.5718,-0.132 0.7478,-0.3879 0.1719,-0.2599 0.2599,-0.6358 0.2599,-1.1236 0,-0.4918 -0.088,-0.8677 -0.2599,-1.1236 -0.176,-0.2559 -0.4239,-0.3839 -0.7478,-0.3839 -0.3279,0 -0.5798,0.128 -0.7517,0.3839 -0.172,0.2559 -0.2559,0.6318 -0.2559,1.1236 0,0.4878 0.0839,0.8637 0.2559,1.1236 0.1719,0.2559 0.4238,0.3879 0.7517,0.3879"
           style="fill:#ffffff;fill-opacity:1;fill-rule:nonzero;stroke:none"
           id="path708"
           inkscape:connector-curvature="0" />
        <path
           d="m 439.3693,462.3404 0.4119,0 0,-0.4958 -0.4119,0 0,0.4958"
           style="fill:#ffffff;fill-opacity:1;fill-rule:nonzero;stroke:none"
           id="path710"
           inkscape:connector-curvature="0" />
        <path
           d="m 441.4846,463.2281 c -0.1879,0 -0.3359,-0.0519 -0.4439,-0.1519 -0.1079,-0.1 -0.1599,-0.2359 -0.1599,-0.4119 0,-0.1759 0.052,-0.3159 0.1599,-0.4158 0.108,-0.1 0.256,-0.148 0.4439,-0.148 0.1839,0 0.3319,0.048 0.4398,0.152 0.108,0.0999 0.164,0.2359 0.164,0.4118 0,0.176 -0.056,0.3119 -0.16,0.4119 -0.1079,0.1 -0.2559,0.1519 -0.4438,0.1519 m -0.3959,0.168 c -0.1679,0.04 -0.2999,0.1199 -0.3958,0.2359 -0.096,0.116 -0.14,0.2559 -0.14,0.4238 0,0.232 0.08,0.4159 0.2479,0.5519 0.164,0.1359 0.3919,0.2039 0.6838,0.2039 0.2879,0 0.5158,-0.068 0.6837,-0.2039 0.164,-0.136 0.248,-0.3199 0.248,-0.5519 0,-0.1679 -0.048,-0.3078 -0.144,-0.4238 -0.096,-0.116 -0.2239,-0.1959 -0.3919,-0.2359 0.188,-0.044 0.3359,-0.132 0.4439,-0.2599 0.104,-0.128 0.1599,-0.2879 0.1599,-0.4719 0,-0.2839 -0.0879,-0.4998 -0.2599,-0.6477 -0.1759,-0.152 -0.4198,-0.224 -0.7397,-0.224 -0.3239,0 -0.5718,0.072 -0.7438,0.224 -0.1719,0.1479 -0.2559,0.3638 -0.2559,0.6477 0,0.184 0.052,0.3439 0.16,0.4719 0.1039,0.1279 0.2519,0.2159 0.4438,0.2599 m -0.1439,0.6238 c 0,-0.152 0.044,-0.2719 0.1399,-0.3559 0.096,-0.084 0.2279,-0.124 0.3999,-0.124 0.1679,0 0.2999,0.04 0.3958,0.124 0.096,0.084 0.144,0.2039 0.144,0.3559 0,0.1519 -0.048,0.2679 -0.144,0.3518 -0.0959,0.084 -0.2279,0.128 -0.3958,0.128 -0.172,0 -0.3039,-0.044 -0.3999,-0.128 -0.0959,-0.0839 -0.1399,-0.1999 -0.1399,-0.3518"
           style="fill:#ffffff;fill-opacity:1;fill-rule:nonzero;stroke:none"
           id="path712"
           inkscape:connector-curvature="0" />
        <g
           transform="matrix(0.39986,0,0,0.39986,319.571,452.479)"
           id="g714">
          <path
             d="m 356.6813,38.016 0,-3.5"
             style="fill:#ffffff;fill-opacity:1;fill-rule:nonzero;stroke:#ffffff;stroke-width:0.80000001;stroke-linecap:butt;stroke-linejoin:round;stroke-miterlimit:10;stroke-dasharray:none;stroke-opacity:1"
             id="path716"
             inkscape:connector-curvature="0" />
        </g>
        <path
           d="m 459.5093,462.1765 0.6437,0 0,2.2232 -0.6997,-0.1399 0,0.3598 0.6957,0.14 0.3959,0 0,-2.5831 0.6438,0 0,-0.3319 -1.6794,0 0,0.3319"
           style="fill:#ffffff;fill-opacity:1;fill-rule:nonzero;stroke:none"
           id="path718"
           inkscape:connector-curvature="0" />
        <path
           d="m 461.9844,462.3404 0.4119,0 0,-0.4958 -0.4119,0 0,0.4958"
           style="fill:#ffffff;fill-opacity:1;fill-rule:nonzero;stroke:none"
           id="path720"
           inkscape:connector-curvature="0" />
        <path
           d="m 464.0997,464.4997 c -0.204,0 -0.3559,-0.1 -0.4599,-0.2999 -0.1039,-0.1999 -0.1519,-0.4998 -0.1519,-0.8997 0,-0.3998 0.048,-0.6997 0.1519,-0.8997 0.104,-0.1999 0.2559,-0.2999 0.4599,-0.2999 0.2039,0 0.3558,0.1 0.4598,0.2999 0.1,0.2 0.1519,0.4999 0.1519,0.8997 0,0.3999 -0.0519,0.6998 -0.1519,0.8997 -0.104,0.1999 -0.2559,0.2999 -0.4598,0.2999 m 0,0.3119 c 0.3238,0 0.5718,-0.132 0.7477,-0.3879 0.1719,-0.2599 0.2599,-0.6358 0.2599,-1.1236 0,-0.4918 -0.088,-0.8677 -0.2599,-1.1236 -0.1759,-0.2559 -0.4239,-0.3839 -0.7477,-0.3839 -0.3279,0 -0.5798,0.128 -0.7518,0.3839 -0.1719,0.2559 -0.2559,0.6318 -0.2559,1.1236 0,0.4878 0.084,0.8637 0.2559,1.1236 0.172,0.2559 0.4239,0.3879 0.7518,0.3879"
           style="fill:#ffffff;fill-opacity:1;fill-rule:nonzero;stroke:none"
           id="path722"
           inkscape:connector-curvature="0" />
        <g
           transform="matrix(0.39986,0,0,0.39986,319.571,452.479)"
           id="g724">
          <path
             d="m 413.2387,38.016 0,-3.5"
             style="fill:#ffffff;fill-opacity:1;fill-rule:nonzero;stroke:#ffffff;stroke-width:0.80000001;stroke-linecap:butt;stroke-linejoin:round;stroke-miterlimit:10;stroke-dasharray:none;stroke-opacity:1"
             id="path726"
             inkscape:connector-curvature="0" />
        </g>
        <path
           d="m 482.1243,462.1765 0.6438,0 0,2.2232 -0.6998,-0.1399 0,0.3598 0.6958,0.14 0.3959,0 0,-2.5831 0.6437,0 0,-0.3319 -1.6794,0 0,0.3319"
           style="fill:#ffffff;fill-opacity:1;fill-rule:nonzero;stroke:none"
           id="path728"
           inkscape:connector-curvature="0" />
        <path
           d="m 484.5995,462.3404 0.4118,0 0,-0.4958 -0.4118,0 0,0.4958"
           style="fill:#ffffff;fill-opacity:1;fill-rule:nonzero;stroke:none"
           id="path730"
           inkscape:connector-curvature="0" />
        <path
           d="m 486.2109,462.1765 1.3755,0 0,-0.3319 -1.8513,0 0,0.3319 c 0.1479,0.152 0.3518,0.3599 0.6118,0.6238 0.2559,0.2599 0.4198,0.4278 0.4878,0.5038 0.1279,0.14 0.2159,0.2599 0.2639,0.3599 0.048,0.096 0.076,0.1959 0.076,0.2919 0,0.1519 -0.056,0.2799 -0.164,0.3759 -0.1079,0.0959 -0.2479,0.1479 -0.4238,0.1479 -0.124,0 -0.2559,-0.024 -0.3919,-0.064 -0.1359,-0.044 -0.2839,-0.1079 -0.4398,-0.1959 l 0,0.3998 c 0.1599,0.064 0.3079,0.112 0.4438,0.144 0.136,0.032 0.2639,0.048 0.3799,0.048 0.2999,0 0.5398,-0.076 0.7197,-0.2279 0.18,-0.152 0.2719,-0.3519 0.2719,-0.6038 0,-0.12 -0.024,-0.2359 -0.068,-0.3399 -0.0439,-0.108 -0.1239,-0.2359 -0.2439,-0.3799 -0.032,-0.04 -0.1359,-0.1479 -0.3119,-0.3279 -0.1759,-0.1799 -0.4198,-0.4318 -0.7357,-0.7557"
           style="fill:#ffffff;fill-opacity:1;fill-rule:nonzero;stroke:none"
           id="path732"
           inkscape:connector-curvature="0" />
        <path
           d="m 409.9882,457.7693 0,-1.0676 0.6318,0 c 0.2119,0 0.3679,0.044 0.4718,0.1319 0.1,0.088 0.152,0.2199 0.152,0.4039 0,0.1799 -0.052,0.3119 -0.152,0.3998 -0.1039,0.088 -0.2599,0.132 -0.4718,0.132 l -0.6318,0 m 0,1.1996 0,-0.8797 0.5838,0 c 0.1919,0 0.3319,0.036 0.4279,0.1079 0.0959,0.072 0.1439,0.18 0.1439,0.3319 0,0.144 -0.048,0.2559 -0.1439,0.3279 -0.096,0.072 -0.236,0.112 -0.4279,0.112 l -0.5838,0 m -0.3958,0.3239 1.0076,0 c 0.2999,0 0.5318,-0.064 0.6958,-0.188 0.1599,-0.1279 0.2439,-0.3039 0.2439,-0.5318 0,-0.1799 -0.044,-0.3239 -0.128,-0.4278 -0.084,-0.104 -0.2039,-0.172 -0.3639,-0.196 0.192,-0.0439 0.3439,-0.1319 0.4519,-0.2639 0.104,-0.1319 0.1599,-0.2959 0.1599,-0.4918 0,-0.2639 -0.0919,-0.4638 -0.2679,-0.6038 -0.1759,-0.1439 -0.4278,-0.2119 -0.7517,-0.2119 l -1.0476,0 0,2.915"
           style="fill:#ffffff;fill-opacity:1;fill-rule:nonzero;stroke:none"
           id="path734"
           inkscape:connector-curvature="0" />
        <path
           d="m 412.3194,458.565 0.3599,0 0,-2.1872 -0.3599,0 0,2.1872 m 0,0.8517 0.3599,0 0,-0.4558 -0.3599,0 0,0.4558"
           style="fill:#ffffff;fill-opacity:1;fill-rule:nonzero;stroke:none"
           id="path736"
           inkscape:connector-curvature="0" />
        <path
           d="m 414.6986,458.2291 c -0.04,0.024 -0.084,0.04 -0.132,0.052 -0.048,0.008 -0.1,0.016 -0.1559,0.016 -0.204,0 -0.3599,-0.068 -0.4679,-0.1999 -0.1119,-0.132 -0.1639,-0.3199 -0.1639,-0.5678 l 0,-1.1516 -0.3599,0 0,2.1872 0.3599,0 0,-0.3399 c 0.072,0.132 0.1719,0.232 0.2919,0.2959 0.1199,0.064 0.2679,0.096 0.4438,0.096 0.024,0 0.052,-0.004 0.084,-0.004 0.028,-0.004 0.06,-0.008 0.1,-0.016 l 0,-0.3679"
           style="fill:#ffffff;fill-opacity:1;fill-rule:nonzero;stroke:none"
           id="path738"
           inkscape:connector-curvature="0" />
        <path
           d="m 415.4303,459.1848 0,-0.6198 0.7398,0 0,-0.2799 -0.7398,0 0,-1.1876 c 0,-0.1799 0.024,-0.2959 0.072,-0.3438 0.048,-0.052 0.1479,-0.076 0.2999,-0.076 l 0.3679,0 0,-0.2999 -0.3679,0 c -0.2799,0 -0.4719,0.052 -0.5758,0.1559 -0.104,0.104 -0.156,0.2919 -0.156,0.5638 l 0,1.1876 -0.2639,0 0,0.2799 0.2639,0 0,0.6198 0.3599,0"
           style="fill:#ffffff;fill-opacity:1;fill-rule:nonzero;stroke:none"
           id="path740"
           inkscape:connector-curvature="0" />
        <path
           d="m 418.4613,457.6973 0,-1.3195 -0.3599,0 0,1.3075 c 0,0.208 -0.044,0.3599 -0.124,0.4639 -0.08,0.1039 -0.1999,0.1559 -0.3599,0.1559 -0.1959,0 -0.3478,-0.064 -0.4598,-0.1879 -0.112,-0.124 -0.1679,-0.2919 -0.1679,-0.5038 l 0,-1.2356 -0.3599,0 0,3.0389 0.3599,0 0,-1.1916 c 0.0839,0.128 0.1839,0.228 0.3039,0.2919 0.1159,0.064 0.2519,0.1 0.4038,0.1 0.2479,0 0.4399,-0.08 0.5678,-0.2359 0.128,-0.156 0.196,-0.3839 0.196,-0.6838"
           style="fill:#ffffff;fill-opacity:1;fill-rule:nonzero;stroke:none"
           id="path742"
           inkscape:connector-curvature="0" />
        <g
           transform="matrix(0.39986,0,0,0.39986,319.571,452.479)"
           id="g744">
          <path
             d="m 57.6,49.22364 -3.5,0"
             style="fill:#ffffff;fill-opacity:1;fill-rule:nonzero;stroke:#ffffff;stroke-width:0.80000001;stroke-linecap:butt;stroke-linejoin:round;stroke-miterlimit:10;stroke-dasharray:none;stroke-opacity:1"
             id="path746"
             inkscape:connector-curvature="0" />
        </g>
        <g
           transform="matrix(0.39986,0,0,0.39986,319.571,452.479)"
           id="g754">
          <path
             d="m 57.6,88.1262 -3.5,0"
             style="fill:#ffffff;fill-opacity:1;fill-rule:nonzero;stroke:#ffffff;stroke-width:0.80000001;stroke-linecap:butt;stroke-linejoin:round;stroke-miterlimit:10;stroke-dasharray:none;stroke-opacity:1"
             id="path756"
             inkscape:connector-curvature="0" />
        </g>
        <g
           transform="matrix(0.39986,0,0,0.39986,319.571,452.479)"
           id="g764">
          <path
             d="m 57.6,127.0287 -3.5,0"
             style="fill:#ffffff;fill-opacity:1;fill-rule:nonzero;stroke:#ffffff;stroke-width:0.80000001;stroke-linecap:butt;stroke-linejoin:round;stroke-miterlimit:10;stroke-dasharray:none;stroke-opacity:1"
             id="path766"
             inkscape:connector-curvature="0" />
        </g>
        <g
           transform="matrix(0.39986,0,0,0.39986,319.571,452.479)"
           id="g774">
          <path
             d="m 57.6,165.9313 -3.5,0"
             style="fill:#ffffff;fill-opacity:1;fill-rule:nonzero;stroke:#ffffff;stroke-width:0.80000001;stroke-linecap:butt;stroke-linejoin:round;stroke-miterlimit:10;stroke-dasharray:none;stroke-opacity:1"
             id="path776"
             inkscape:connector-curvature="0" />
        </g>
        <g
           transform="matrix(0.39986,0,0,0.39986,319.571,452.479)"
           id="g784">
          <path
             d="m 57.6,204.8339 -3.5,0"
             style="fill:#ffffff;fill-opacity:1;fill-rule:nonzero;stroke:#ffffff;stroke-width:0.80000001;stroke-linecap:butt;stroke-linejoin:round;stroke-miterlimit:10;stroke-dasharray:none;stroke-opacity:1"
             id="path786"
             inkscape:connector-curvature="0" />
        </g>
        <g
           transform="matrix(0.39986,0,0,0.39986,319.571,452.479)"
           id="g794">
          <path
             d="m 57.6,243.7364 -3.5,0"
             style="fill:#ffffff;fill-opacity:1;fill-rule:nonzero;stroke:#ffffff;stroke-width:0.80000001;stroke-linecap:butt;stroke-linejoin:round;stroke-miterlimit:10;stroke-dasharray:none;stroke-opacity:1"
             id="path796"
             inkscape:connector-curvature="0" />
        </g>
        <g
           transform="matrix(0.39986,0,0,0.39986,319.571,452.479)"
           id="g804">
          <path
             d="m 57.6,282.639 -3.5,0"
             style="fill:#ffffff;fill-opacity:1;fill-rule:nonzero;stroke:#ffffff;stroke-width:0.80000001;stroke-linecap:butt;stroke-linejoin:round;stroke-miterlimit:10;stroke-dasharray:none;stroke-opacity:1"
             id="path806"
             inkscape:connector-curvature="0" />
        </g>
      </g>
    </g>
    <g
       id="g824"
       transform="matrix(1.25,0,0,-1.25,-407.48058,1620.7592)">
      <g
         clip-path="url(#clipPath600)"
         id="g826">
        <g
           transform="matrix(0.39986,0,0,0.39986,319.571,452.479)"
           id="g828">
          <path
             d="M 57.6,38.016 414.72,283.6578"
             style="fill:none;stroke:#ffffff;stroke-width:1.5;stroke-linecap:square;stroke-linejoin:round;stroke-miterlimit:10;stroke-dasharray:none;stroke-opacity:0.6"
             id="path830"
             inkscape:connector-curvature="0" />
        </g>
        <g
           transform="matrix(0.39986,0,0,0.39986,319.571,452.479)"
           id="g832">
          <path
             d="m 57.6,283.6578 357.12,0"
             style="fill:none;stroke:#ffffff;stroke-width:1;stroke-linecap:square;stroke-linejoin:round;stroke-miterlimit:10;stroke-dasharray:none;stroke-opacity:0.6"
             id="path834"
             inkscape:connector-curvature="0" />
        </g>
        <g
           transform="matrix(0.39986,0,0,0.39986,319.571,452.479)"
           id="g836">
          <path
             d="m 130.4514,97.85183 0,-9.72563"
             style="fill:none;stroke:#ff0000;stroke-width:1.5;stroke-linecap:butt;stroke-linejoin:round;stroke-miterlimit:10;stroke-dasharray:5.55, 2.4;stroke-dashoffset:0;stroke-opacity:0.3"
             id="path838"
             inkscape:connector-curvature="0" />
        </g>
        <g
           transform="matrix(0.39986,0,0,0.39986,319.571,452.479)"
           id="g840">
          <path
             d="m 130.4514,97.85183 14.1394,0"
             style="fill:none;stroke:#ff0000;stroke-width:1.5;stroke-linecap:butt;stroke-linejoin:round;stroke-miterlimit:10;stroke-dasharray:5.55, 2.4;stroke-dashoffset:0;stroke-opacity:0.3"
             id="path842"
             inkscape:connector-curvature="0" />
        </g>
        <g
           transform="matrix(0.39986,0,0,0.39986,319.571,452.479)"
           id="g844">
          <path
             d="m 90.52849,263.1877 0,-202.52213"
             style="fill:none;stroke:#ff0000;stroke-width:1.5;stroke-linecap:butt;stroke-linejoin:round;stroke-miterlimit:10;stroke-dasharray:5.55, 2.4;stroke-dashoffset:0;stroke-opacity:0.3"
             id="path846"
             inkscape:connector-curvature="0" />
        </g>
        <g
           transform="matrix(0.39986,0,0,0.39986,319.571,452.479)"
           id="g848">
          <path
             d="m 90.52849,263.1877 294.43151,0"
             style="fill:none;stroke:#ff0000;stroke-width:1.5;stroke-linecap:butt;stroke-linejoin:round;stroke-miterlimit:10;stroke-dasharray:5.55, 2.4;stroke-dashoffset:0;stroke-opacity:0.3"
             id="path850"
             inkscape:connector-curvature="0" />
        </g>
        <g
           transform="matrix(0.39986,0,0,0.39986,319.571,452.479)"
           id="g852">
          <path
             d="m 97.45955,68.67492 0,-3.24188"
             style="fill:none;stroke:#ff0000;stroke-width:1.5;stroke-linecap:butt;stroke-linejoin:round;stroke-miterlimit:10;stroke-dasharray:5.55, 2.4;stroke-dashoffset:0;stroke-opacity:0.3"
             id="path854"
             inkscape:connector-curvature="0" />
        </g>
        <g
           transform="matrix(0.39986,0,0,0.39986,319.571,452.479)"
           id="g856">
          <path
             d="m 97.45955,68.67492 4.71315,0"
             style="fill:none;stroke:#ff0000;stroke-width:1.5;stroke-linecap:butt;stroke-linejoin:round;stroke-miterlimit:10;stroke-dasharray:5.55, 2.4;stroke-dashoffset:0;stroke-opacity:0.3"
             id="path858"
             inkscape:connector-curvature="0" />
        </g>
        <g
           transform="matrix(0.39986,0,0,0.39986,319.571,452.479)"
           id="g860">
          <path
             d="m 87.36,59.46115 0,-0.975"
             style="fill:none;stroke:#ff0000;stroke-width:1.5;stroke-linecap:butt;stroke-linejoin:round;stroke-miterlimit:10;stroke-dasharray:5.55, 2.4;stroke-dashoffset:0;stroke-opacity:0.3"
             id="path862"
             inkscape:connector-curvature="0" />
        </g>
        <g
           transform="matrix(0.39986,0,0,0.39986,319.571,452.479)"
           id="g864">
          <path
             d="m 87.36,59.46115 1.41748,0"
             style="fill:none;stroke:#ff0000;stroke-width:1.5;stroke-linecap:butt;stroke-linejoin:round;stroke-miterlimit:10;stroke-dasharray:5.55, 2.4;stroke-dashoffset:0;stroke-opacity:0.3"
             id="path866"
             inkscape:connector-curvature="0" />
        </g>
        <g
           transform="matrix(0.39986,0,0,0.39986,319.571,452.479)"
           id="g868">
          <path
             d="m 92.74642,114.0612 0,-51.87004"
             style="fill:none;stroke:#ff0000;stroke-width:1.5;stroke-linecap:butt;stroke-linejoin:round;stroke-miterlimit:10;stroke-dasharray:5.55, 2.4;stroke-dashoffset:0;stroke-opacity:0.3"
             id="path870"
             inkscape:connector-curvature="0" />
        </g>
        <g
           transform="matrix(0.39986,0,0,0.39986,319.571,452.479)"
           id="g872">
          <path
             d="m 92.74642,114.0612 75.40998,0"
             style="fill:none;stroke:#ff0000;stroke-width:1.5;stroke-linecap:butt;stroke-linejoin:round;stroke-miterlimit:10;stroke-dasharray:5.55, 2.4;stroke-dashoffset:0;stroke-opacity:0.3"
             id="path874"
             inkscape:connector-curvature="0" />
        </g>
        <g
           transform="matrix(0.39986,0,0,0.39986,319.571,452.479)"
           id="g876">
          <path
             d="m 109.2424,81.64244 0,-8.1047"
             style="fill:none;stroke:#ff0000;stroke-width:1.5;stroke-linecap:butt;stroke-linejoin:round;stroke-miterlimit:10;stroke-dasharray:5.55, 2.4;stroke-dashoffset:0;stroke-opacity:0.3"
             id="path878"
             inkscape:connector-curvature="0" />
        </g>
        <g
           transform="matrix(0.39986,0,0,0.39986,319.571,452.479)"
           id="g880">
          <path
             d="m 109.2424,81.64244 11.7828,0"
             style="fill:none;stroke:#ff0000;stroke-width:1.5;stroke-linecap:butt;stroke-linejoin:round;stroke-miterlimit:10;stroke-dasharray:5.55, 2.4;stroke-dashoffset:0;stroke-opacity:0.3"
             id="path882"
             inkscape:connector-curvature="0" />
        </g>
        <g
           transform="matrix(0.39986,0,0,0.39986,319.571,452.479)"
           id="g884">
          <path
             d="M 57.6,47.74164 414.72,293.3835"
             style="fill:none;stroke:#4c4c4c;stroke-width:1.5;stroke-linecap:butt;stroke-linejoin:round;stroke-miterlimit:10;stroke-dasharray:5.55, 2.4;stroke-dashoffset:0;stroke-opacity:1"
             id="path886"
             inkscape:connector-curvature="0" />
        </g>
        <g
           transform="matrix(0.39986,0,0,0.39986,319.571,452.479)"
           id="g888">
          <path
             d="M 57.6,89.88607 414.72,335.5279"
             style="fill:none;stroke:#4c4c4c;stroke-width:1.5;stroke-linecap:butt;stroke-linejoin:round;stroke-miterlimit:10;stroke-dasharray:5.55, 2.4;stroke-dashoffset:0;stroke-opacity:1"
             id="path890"
             inkscape:connector-curvature="0" />
        </g>
        <g
           transform="matrix(0.39986,0,0,0.39986,319.571,452.479)"
           id="g892"
           style="opacity:0.26499999">
          <path
             d="m 92.74642,107.0612 c 1.85643,0 3.63706,0.7376 4.94975,2.0503 1.31269,1.3127 2.05026,3.0933 2.05026,4.9497 0,1.8565 -0.73757,3.6371 -2.05026,4.9498 -1.31269,1.3127 -3.09332,2.0502 -4.94975,2.0502 -1.85642,0 -3.63705,-0.7375 -4.94974,-2.0502 -1.31269,-1.3127 -2.05026,-3.0933 -2.05026,-4.9498 0,-1.8564 0.73757,-3.637 2.05026,-4.9497 1.31269,-1.3127 3.09332,-2.0503 4.94974,-2.0503 z"
             style="fill:none;stroke:#ff0000;stroke-width:5;stroke-linecap:butt;stroke-linejoin:round;stroke-miterlimit:10;stroke-dasharray:none;stroke-opacity:1"
             id="path894"
             inkscape:connector-curvature="0" />
        </g>
        <g
           transform="matrix(0.39986,0,0,0.39986,319.571,452.479)"
           id="g896"
           style="opacity:0.26499999">
          <path
             d="m 90.52849,256.1877 c 1.85642,0 3.63706,0.7376 4.94974,2.0502 1.31269,1.3127 2.05025,3.0934 2.05025,4.9498 0,1.8564 -0.73756,3.6371 -2.05025,4.9497 -1.31268,1.3127 -3.09332,2.0503 -4.94974,2.0503 -1.85643,0 -3.63706,-0.7376 -4.94975,-2.0503 -1.31269,-1.3126 -2.05026,-3.0933 -2.05026,-4.9497 0,-1.8564 0.73757,-3.6371 2.05026,-4.9498 1.31269,-1.3126 3.09332,-2.0502 4.94975,-2.0502 z"
             style="fill:none;stroke:#ff0000;stroke-width:5;stroke-linecap:butt;stroke-linejoin:round;stroke-miterlimit:10;stroke-dasharray:none;stroke-opacity:1"
             id="path898"
             inkscape:connector-curvature="0" />
        </g>
      </g>
    </g>
    <g
       id="g900"
       transform="matrix(1.25,0,0,-1.25,-407.48058,1620.7592)">
      <g
         clip-path="url(#clipPath604)"
         id="g902">
        <g
           transform="matrix(0.39986,0,0,0.39986,319.571,452.479)"
           id="g904">
          <path
             d="m 57.6,38.016 0,266.112"
             style="fill:none;stroke:#ffffff;stroke-width:0.80000001;stroke-linecap:square;stroke-linejoin:miter;stroke-miterlimit:10;stroke-dasharray:none;stroke-opacity:1"
             id="path906"
             inkscape:connector-curvature="0" />
        </g>
        <g
           transform="matrix(0.39986,0,0,0.39986,319.571,452.479)"
           id="g912">
          <path
             d="m 57.6,38.016 357.12,0"
             style="fill:none;stroke:#ffffff;stroke-width:0.80000001;stroke-linecap:square;stroke-linejoin:miter;stroke-miterlimit:10;stroke-dasharray:none;stroke-opacity:1"
             id="path914"
             inkscape:connector-curvature="0" />
        </g>
        <g
           transform="matrix(0.39986,0,0,0.39986,319.571,452.479)"
           id="g916" />
      </g>
    </g>
    <g
       id="g920"
       transform="matrix(1.25,0,0,-1.25,-407.48058,1620.7592)">
      <g
         clip-path="url(#clipPath608)"
         id="g922">
        <path
           d="m 344.4263,566.6322 c -0.044,0.048 -0.096,0.1239 -0.1559,0.2359 -0.088,-0.16 -0.172,-0.2719 -0.248,-0.3359 -0.0959,-0.088 -0.2199,-0.1279 -0.3678,-0.1279 -0.176,0 -0.3239,0.0639 -0.4399,0.1999 -0.1239,0.1359 -0.1839,0.3159 -0.1839,0.5478 0,0.2159 0.06,0.3998 0.1839,0.5518 0.108,0.128 0.2559,0.1959 0.4439,0.1959 0.0919,0 0.1759,-0.02 0.2479,-0.06 0.08,-0.0439 0.1479,-0.1039 0.2039,-0.1759 0.052,-0.068 0.104,-0.1439 0.16,-0.2319 0.0839,0.1519 0.1639,0.2639 0.2439,0.3359 0.0959,0.0799 0.2159,0.1239 0.3678,0.1239 0.176,0 0.3199,-0.0679 0.4399,-0.1959 0.1199,-0.14 0.1839,-0.3239 0.1839,-0.5478 0,-0.2199 -0.064,-0.4039 -0.1839,-0.5518 -0.112,-0.132 -0.2599,-0.1959 -0.4439,-0.1959 -0.0959,0 -0.1759,0.0159 -0.2479,0.0559 -0.0719,0.036 -0.1399,0.096 -0.2039,0.176 m -0.7957,0.028 c 0.2159,0 0.3878,0.1559 0.5158,0.4678 -0.1679,0.3399 -0.3399,0.5118 -0.5158,0.5118 -0.132,0 -0.2279,-0.048 -0.2919,-0.1399 -0.072,-0.1 -0.108,-0.216 -0.108,-0.3479 0,-0.148 0.036,-0.2679 0.108,-0.3559 0.072,-0.092 0.1679,-0.1359 0.2919,-0.1359 m 1.2755,0.9756 c -0.1959,0 -0.3678,-0.1559 -0.5158,-0.4678 0.16,-0.3439 0.3319,-0.5118 0.5158,-0.5118 0.128,0 0.2279,0.0439 0.2919,0.1399 0.072,0.1 0.108,0.2159 0.108,0.3519 0,0.1439 -0.036,0.2639 -0.108,0.3519 -0.0719,0.0879 -0.1719,0.1359 -0.2919,0.1359"
           style="fill:#ffffff;fill-opacity:0.6;fill-rule:nonzero;stroke:none"
           id="path924"
           inkscape:connector-curvature="0" />
      </g>
    </g>
  </g>
</svg>
