<?xml version="1.0" encoding="UTF-8" standalone="no"?>
<!-- Created with Inkscape (http://www.inkscape.org/) -->

<svg
   xmlns:dc="http://purl.org/dc/elements/1.1/"
   xmlns:cc="http://creativecommons.org/ns#"
   xmlns:rdf="http://www.w3.org/1999/02/22-rdf-syntax-ns#"
   xmlns:svg="http://www.w3.org/2000/svg"
   xmlns="http://www.w3.org/2000/svg"
   xmlns:sodipodi="http://sodipodi.sourceforge.net/DTD/sodipodi-0.dtd"
   xmlns:inkscape="http://www.inkscape.org/namespaces/inkscape"
   width="200"
   height="151"
   viewBox="0 0 199.99999 151"
   id="svg6107"
   version="1.1"
   inkscape:version="0.91 r13725"
   sodipodi:docname="ranging_langs_pd.svg">
  <defs
     id="defs6109">
    <clipPath
       clipPathUnits="userSpaceOnUse"
       id="clipPath438">
      <path
         d="m 319,574 185,0 0,139 -185,0 0,-139 z"
         id="path440"
         inkscape:connector-curvature="0" />
    </clipPath>
    <clipPath
       clipPathUnits="userSpaceOnUse"
       id="clipPath442">
      <path
         d="m 319.571,574.54 184.2555,0 0,138.1916 -184.2555,0 0,-138.1916 z"
         id="path444"
         inkscape:connector-curvature="0" />
    </clipPath>
    <clipPath
       clipPathUnits="userSpaceOnUse"
       id="clipPath446">
      <path
         d="m 342.6029,589.7411 142.798,0 0,106.4075 -142.798,0 0,-106.4075 z"
         id="path448"
         inkscape:connector-curvature="0" />
    </clipPath>
    <clipPath
       clipPathUnits="userSpaceOnUse"
       id="clipPath450">
      <path
         d="m 319.571,574.54 184.2555,0 0,138.1916 -184.2555,0 0,-138.1916 z"
         id="path452"
         inkscape:connector-curvature="0" />
    </clipPath>
    <clipPath
       clipPathUnits="userSpaceOnUse"
       id="clipPath454">
      <path
         d="m 342.6029,589.7411 142.798,0 0,106.4075 -142.798,0 0,-106.4075 z"
         id="path456"
         inkscape:connector-curvature="0" />
    </clipPath>
    <clipPath
       clipPathUnits="userSpaceOnUse"
       id="clipPath458">
      <path
         d="m 319.571,574.54 184.2555,0 0,138.1916 -184.2555,0 0,-138.1916 z"
         id="path460"
         inkscape:connector-curvature="0" />
    </clipPath>
    <clipPath
       clipPathUnits="userSpaceOnUse"
       id="clipPath462">
      <path
         d="m 338.5204,686.1621 11.25606,0 0,6.78163 -11.25606,0 0,-6.78163 z"
         id="path464"
         inkscape:connector-curvature="0" />
    </clipPath>
    <clipPath
       clipPathUnits="userSpaceOnUse"
       id="clipPath466">
      <path
         d="m 319.571,574.54 184.2555,0 0,138.1916 -184.2555,0 0,-138.1916 z"
         id="path468"
         inkscape:connector-curvature="0" />
    </clipPath>
  </defs>
  <sodipodi:namedview
     id="base"
     pagecolor="#ffffff"
     bordercolor="#666666"
     borderopacity="1.0"
     inkscape:pageopacity="0.0"
     inkscape:pageshadow="2"
     inkscape:zoom="3.8658367"
     inkscape:cx="93.596616"
     inkscape:cy="84.152171"
     inkscape:document-units="px"
     inkscape:current-layer="layer1"
     showgrid="false"
     inkscape:window-width="1637"
     inkscape:window-height="1005"
     inkscape:window-x="43"
     inkscape:window-y="1"
     inkscape:window-maximized="1"
     units="px" />
  <metadata
     id="metadata6112">
    <rdf:RDF>
      <cc:Work
         rdf:about="">
        <dc:format>image/svg+xml</dc:format>
        <dc:type
           rdf:resource="http://purl.org/dc/dcmitype/StillImage" />
        <dc:title></dc:title>
      </cc:Work>
    </rdf:RDF>
  </metadata>
  <g
     inkscape:label="Layer 1"
     inkscape:groupmode="layer"
     id="layer1"
     transform="translate(0,-901.36216)">
    <g
       id="g474"
       transform="matrix(1.25,0,0,-1.25,-85.337721,1239.7641)" />
    <g
       id="g484"
       transform="matrix(1.25,0,0,-1.25,-420.70837,1777.1653)">
      <g
         clip-path="url(#clipPath446)"
         id="g486">
        <g
           transform="matrix(0.39986,0,0,0.39986,319.571,574.54)"
           id="g488">
          <path
             d="m 203.0933,138.8831 c 0.7956,0 1.5588,0.3161 2.1214,0.8787 0.5625,0.5625 0.8786,1.3257 0.8786,2.1213 0,0.7956 -0.3161,1.5587 -0.8786,2.1213 -0.5626,0.5626 -1.3258,0.8787 -2.1214,0.8787 -0.7956,0 -1.5587,-0.3161 -2.1213,-0.8787 -0.5626,-0.5626 -0.8787,-1.3257 -0.8787,-2.1213 0,-0.7956 0.3161,-1.5588 0.8787,-2.1213 0.5626,-0.5626 1.3257,-0.8787 2.1213,-0.8787 z"
             style="fill:#ff0000;fill-opacity:0.6;fill-rule:nonzero;stroke:#ff0000;stroke-width:1;stroke-linecap:butt;stroke-linejoin:round;stroke-miterlimit:10;stroke-dasharray:none;stroke-opacity:0.6"
             id="path490"
             inkscape:connector-curvature="0" />
        </g>
        <g
           transform="matrix(0.39986,0,0,0.39986,319.571,574.54)"
           id="g492">
          <path
             d="m 379.4489,260.1877 c 0.7956,0 1.5587,0.3161 2.1213,0.8787 0.5626,0.5626 0.8787,1.3257 0.8787,2.1213 0,0.7956 -0.3161,1.5587 -0.8787,2.1213 -0.5626,0.5626 -1.3257,0.8787 -2.1213,0.8787 -0.7956,0 -1.5588,-0.3161 -2.1213,-0.8787 -0.5626,-0.5626 -0.8787,-1.3257 -0.8787,-2.1213 0,-0.7956 0.3161,-1.5587 0.8787,-2.1213 0.5625,-0.5626 1.3257,-0.8787 2.1213,-0.8787 z"
             style="fill:#ff0000;fill-opacity:0.6;fill-rule:nonzero;stroke:#ff0000;stroke-width:1;stroke-linecap:butt;stroke-linejoin:round;stroke-miterlimit:10;stroke-dasharray:none;stroke-opacity:0.6"
             id="path494"
             inkscape:connector-curvature="0" />
        </g>
        <g
           transform="matrix(0.39986,0,0,0.39986,319.571,574.54)"
           id="g496">
          <path
             d="m 296.7822,226.0708 c 0.7956,0 1.5588,0.3161 2.1213,0.8786 0.5626,0.5626 0.8787,1.3258 0.8787,2.1214 0,0.7956 -0.3161,1.5587 -0.8787,2.1213 -0.5625,0.5626 -1.3257,0.8787 -2.1213,0.8787 -0.7956,0 -1.5587,-0.3161 -2.1213,-0.8787 -0.5626,-0.5626 -0.8787,-1.3257 -0.8787,-2.1213 0,-0.7956 0.3161,-1.5588 0.8787,-2.1214 0.5626,-0.5625 1.3257,-0.8786 2.1213,-0.8786 z"
             style="fill:#ff0000;fill-opacity:0.6;fill-rule:nonzero;stroke:#ff0000;stroke-width:1;stroke-linecap:butt;stroke-linejoin:round;stroke-miterlimit:10;stroke-dasharray:none;stroke-opacity:0.6"
             id="path498"
             inkscape:connector-curvature="0" />
        </g>
        <g
           transform="matrix(0.39986,0,0,0.39986,319.571,574.54)"
           id="g500">
          <path
             d="m 103.8933,131.3015 c 0.7956,0 1.5588,0.3161 2.1214,0.8787 0.5625,0.5626 0.8786,1.3257 0.8786,2.1213 0,0.7956 -0.3161,1.5588 -0.8786,2.1214 -0.5626,0.5625 -1.3258,0.8786 -2.1214,0.8786 -0.7956,0 -1.5587,-0.3161 -2.1213,-0.8786 -0.5626,-0.5626 -0.8787,-1.3258 -0.8787,-2.1214 0,-0.7956 0.3161,-1.5587 0.8787,-2.1213 0.5626,-0.5626 1.3257,-0.8787 2.1213,-0.8787 z"
             style="fill:#ff0000;fill-opacity:0.6;fill-rule:nonzero;stroke:#ff0000;stroke-width:1;stroke-linecap:butt;stroke-linejoin:round;stroke-miterlimit:10;stroke-dasharray:none;stroke-opacity:0.6"
             id="path502"
             inkscape:connector-curvature="0" />
        </g>
        <g
           transform="matrix(0.39986,0,0,0.39986,319.571,574.54)"
           id="g504">
          <path
             d="m 225.1378,237.4431 c 0.7956,0 1.5587,0.3161 2.1213,0.8787 0.5626,0.5625 0.8787,1.3257 0.8787,2.1213 0,0.7956 -0.3161,1.5587 -0.8787,2.1213 -0.5626,0.5626 -1.3257,0.8787 -2.1213,0.8787 -0.7956,0 -1.5588,-0.3161 -2.1213,-0.8787 -0.5626,-0.5626 -0.8787,-1.3257 -0.8787,-2.1213 0,-0.7956 0.3161,-1.5588 0.8787,-2.1213 0.5625,-0.5626 1.3257,-0.8787 2.1213,-0.8787 z"
             style="fill:#ff0000;fill-opacity:0.6;fill-rule:nonzero;stroke:#ff0000;stroke-width:1;stroke-linecap:butt;stroke-linejoin:round;stroke-miterlimit:10;stroke-dasharray:none;stroke-opacity:0.6"
             id="path506"
             inkscape:connector-curvature="0" />
        </g>
        <g
           transform="matrix(0.39986,0,0,0.39986,319.571,574.54)"
           id="g508">
          <path
             d="m 87.36,63.06769 c 0.79561,0 1.55874,0.3161 2.12132,0.87868 0.56258,0.56258 0.87868,1.32571 0.87868,2.12132 0,0.79561 -0.3161,1.55874 -0.87868,2.12132 -0.56258,0.56258 -1.32571,0.87868 -2.12132,0.87868 -0.79561,0 -1.55874,-0.3161 -2.12132,-0.87868 C 84.6761,67.62643 84.36,66.8633 84.36,66.06769 c 0,-0.79561 0.3161,-1.55874 0.87868,-2.12132 0.56258,-0.56258 1.32571,-0.87868 2.12132,-0.87868 z"
             style="fill:#ff0000;fill-opacity:0.6;fill-rule:nonzero;stroke:#ff0000;stroke-width:1;stroke-linecap:butt;stroke-linejoin:round;stroke-miterlimit:10;stroke-dasharray:none;stroke-opacity:0.6"
             id="path510"
             inkscape:connector-curvature="0" />
        </g>
      </g>
    </g>
    <path
       inkscape:connector-curvature="0"
       id="path518"
       style="fill:#ffffff;fill-opacity:1;fill-rule:nonzero;stroke:#ffffff;stroke-width:0.39985999;stroke-linecap:butt;stroke-linejoin:round;stroke-miterlimit:10;stroke-dasharray:none;stroke-opacity:1"
       d="m 25.174685,1039.9889 0,1.7494" />
    <path
       d="m 22.615885,1046.8684 0.80475,0 0,-2.779 -0.87475,0.1749 0,-0.4498 0.86975,-0.175 0.49475,0 0,3.2289 0.80475,0 0,0.4149 -2.09925,0 0,-0.4149"
       style="fill:#ffffff;fill-opacity:1;fill-rule:nonzero;stroke:none"
       id="path520"
       inkscape:connector-curvature="0" />
    <path
       d="m 26.764385,1043.9644 c -0.25488,0 -0.44475,0.125 -0.57475,0.3749 -0.13,0.2498 -0.18988,0.6247 -0.18988,1.1246 0,0.4997 0.0599,0.8746 0.18988,1.1246 0.13,0.2499 0.31987,0.3749 0.57475,0.3749 0.255,0 0.44487,-0.125 0.57487,-0.3749 0.125,-0.25 0.18988,-0.6249 0.18988,-1.1246 0,-0.4999 -0.0649,-0.8748 -0.18988,-1.1246 -0.13,-0.2499 -0.31987,-0.3749 -0.57487,-0.3749 m 0,-0.3899 c 0.40487,0 0.71475,0.165 0.93475,0.4849 0.21487,0.3249 0.32487,0.7947 0.32487,1.4045 0,0.6147 -0.11,1.0846 -0.32487,1.4045 -0.22,0.3199 -0.52988,0.4799 -0.93475,0.4799 -0.40975,0 -0.72463,-0.16 -0.93963,-0.4799 -0.21487,-0.3199 -0.31987,-0.7898 -0.31987,-1.4045 0,-0.6098 0.105,-1.0796 0.31987,-1.4045 0.215,-0.3199 0.52988,-0.4849 0.93963,-0.4849"
       style="fill:#ffffff;fill-opacity:1;fill-rule:nonzero;stroke:none"
       id="path522"
       inkscape:connector-curvature="0" />
    <path
       inkscape:connector-curvature="0"
       id="path526"
       style="fill:#ffffff;fill-opacity:1;fill-rule:nonzero;stroke:#ffffff;stroke-width:0.39985999;stroke-linecap:butt;stroke-linejoin:round;stroke-miterlimit:10;stroke-dasharray:none;stroke-opacity:1"
       d="m 52.720585,1039.9889 0,1.7494" />
    <path
       d="m 50.501635,1046.8684 1.7195,0 0,0.4149 -2.31425,0 0,-0.4149 c 0.185,-0.19 0.43987,-0.4499 0.76475,-0.7798 0.31987,-0.3248 0.52475,-0.5347 0.60975,-0.6297 0.16,-0.175 0.26987,-0.3249 0.32987,-0.4499 0.06,-0.12 0.095,-0.2449 0.095,-0.3649 0,-0.1898 -0.07,-0.3498 -0.20487,-0.4698 -0.135,-0.1199 -0.31,-0.1849 -0.52988,-0.1849 -0.15487,0 -0.31987,0.03 -0.48987,0.08 -0.16988,0.055 -0.35488,0.1349 -0.54975,0.2449 l 0,-0.4998 c 0.19987,-0.08 0.38487,-0.14 0.55475,-0.18 0.17,-0.04 0.33,-0.06 0.47487,-0.06 0.37488,0 0.67475,0.095 0.89975,0.2849 0.22488,0.19 0.33988,0.4399 0.33988,0.7547 0,0.15 -0.03,0.2949 -0.085,0.4249 -0.055,0.135 -0.155,0.2949 -0.30488,0.4749 -0.04,0.05 -0.17,0.1849 -0.38987,0.4099 -0.22,0.2248 -0.52488,0.5397 -0.91975,0.9446"
       style="fill:#ffffff;fill-opacity:1;fill-rule:nonzero;stroke:none"
       id="path528"
       inkscape:connector-curvature="0" />
    <path
       d="m 54.310385,1043.9644 c -0.255,0 -0.44488,0.125 -0.57488,0.3749 -0.12987,0.2498 -0.18987,0.6247 -0.18987,1.1246 0,0.4997 0.06,0.8746 0.18987,1.1246 0.13,0.2499 0.31988,0.3749 0.57488,0.3749 0.25487,0 0.44487,-0.125 0.57475,-0.3749 0.125,-0.25 0.19,-0.6249 0.19,-1.1246 0,-0.4999 -0.065,-0.8748 -0.19,-1.1246 -0.12988,-0.2499 -0.31988,-0.3749 -0.57475,-0.3749 m 0,-0.3899 c 0.40487,0 0.71475,0.165 0.93462,0.4849 0.215,0.3249 0.32488,0.7947 0.32488,1.4045 0,0.6147 -0.10988,1.0846 -0.32488,1.4045 -0.21987,0.3199 -0.52975,0.4799 -0.93462,0.4799 -0.40988,0 -0.72475,-0.16 -0.93975,-0.4799 -0.21488,-0.3199 -0.31988,-0.7898 -0.31988,-1.4045 0,-0.6098 0.105,-1.0796 0.31988,-1.4045 0.215,-0.3199 0.52987,-0.4849 0.93975,-0.4849"
       style="fill:#ffffff;fill-opacity:1;fill-rule:nonzero;stroke:none"
       id="path530"
       inkscape:connector-curvature="0" />
    <path
       inkscape:connector-curvature="0"
       id="path534"
       style="fill:#ffffff;fill-opacity:1;fill-rule:nonzero;stroke:#ffffff;stroke-width:0.39985999;stroke-linecap:butt;stroke-linejoin:round;stroke-miterlimit:10;stroke-dasharray:none;stroke-opacity:1"
       d="m 80.266495,1039.9889 0,1.7494" />
    <path
       d="m 79.117255,1045.3189 c 0.23488,0.05 0.41988,0.155 0.54975,0.3149 0.13,0.16 0.2,0.3598 0.2,0.5898 0,0.3599 -0.125,0.6398 -0.36987,0.8347 -0.25,0.195 -0.59988,0.29 -1.05463,0.29 -0.155,0 -0.315,-0.015 -0.47487,-0.045 -0.16,-0.025 -0.32988,-0.07 -0.49988,-0.13 l 0,-0.4749 c 0.135,0.08 0.285,0.14 0.44988,0.18 0.16,0.04 0.32987,0.06 0.50987,0.06 0.30988,0 0.54475,-0.06 0.70475,-0.18 0.15988,-0.1199 0.24488,-0.2999 0.24488,-0.5348 0,-0.21 -0.075,-0.3798 -0.22488,-0.4998 -0.15,-0.12 -0.35987,-0.1849 -0.62987,-0.1849 l -0.42475,0 0,-0.4049 0.44475,0 c 0.24,0 0.42487,-0.045 0.55487,-0.145 0.12988,-0.095 0.19488,-0.2349 0.19488,-0.4199 0,-0.1848 -0.07,-0.3298 -0.19988,-0.4297 -0.135,-0.1 -0.32487,-0.15 -0.56987,-0.15 -0.13488,0 -0.27988,0.015 -0.43475,0.045 -0.155,0.03 -0.32488,0.075 -0.50988,0.135 l 0,-0.4399 c 0.185,-0.05 0.35988,-0.09 0.52488,-0.115 0.15987,-0.025 0.31487,-0.04 0.46475,-0.04 0.36987,0 0.66475,0.085 0.88475,0.2549 0.21987,0.17 0.32987,0.3999 0.32987,0.6899 0,0.1998 -0.06,0.3697 -0.175,0.5097 -0.11487,0.14 -0.27987,0.2399 -0.48975,0.2899"
       style="fill:#ffffff;fill-opacity:1;fill-rule:nonzero;stroke:none"
       id="path536"
       inkscape:connector-curvature="0" />
    <path
       d="m 81.856255,1043.9644 c -0.25487,0 -0.44487,0.125 -0.57475,0.3749 -0.13,0.2498 -0.19,0.6247 -0.19,1.1246 0,0.4997 0.06,0.8746 0.19,1.1246 0.12988,0.2499 0.31988,0.3749 0.57475,0.3749 0.25488,0 0.44488,-0.125 0.57475,-0.3749 0.125,-0.25 0.19,-0.6249 0.19,-1.1246 0,-0.4999 -0.065,-0.8748 -0.19,-1.1246 -0.12987,-0.2499 -0.31987,-0.3749 -0.57475,-0.3749 m 0,-0.3899 c 0.40488,0 0.71475,0.165 0.93463,0.4849 0.215,0.3249 0.325,0.7947 0.325,1.4045 0,0.6147 -0.11,1.0846 -0.325,1.4045 -0.21988,0.3199 -0.52975,0.4799 -0.93463,0.4799 -0.40987,0 -0.72475,-0.16 -0.93962,-0.4799 -0.215,-0.3199 -0.31988,-0.7898 -0.31988,-1.4045 0,-0.6098 0.10488,-1.0796 0.31988,-1.4045 0.21487,-0.3199 0.52975,-0.4849 0.93962,-0.4849"
       style="fill:#ffffff;fill-opacity:1;fill-rule:nonzero;stroke:none"
       id="path538"
       inkscape:connector-curvature="0" />
    <path
       inkscape:connector-curvature="0"
       id="path542"
       style="fill:#ffffff;fill-opacity:1;fill-rule:nonzero;stroke:#ffffff;stroke-width:0.39985999;stroke-linecap:butt;stroke-linejoin:round;stroke-miterlimit:10;stroke-dasharray:none;stroke-opacity:1"
       d="m 107.8124,1039.9889 0,1.7494" />
    <path
       d="m 106.52314,1044.0694 -1.2445,1.9442 1.2445,0 0,-1.9442 m -0.12988,-0.4299 0.61975,0 0,2.3741 0.51988,0 0,0.4099 -0.51988,0 0,0.8598 -0.48987,0 0,-0.8598 -1.64438,0 0,-0.4747 1.5145,-2.3093"
       style="fill:#ffffff;fill-opacity:1;fill-rule:nonzero;stroke:none"
       id="path544"
       inkscape:connector-curvature="0" />
    <path
       d="m 109.40214,1043.9644 c -0.25488,0 -0.44475,0.125 -0.57475,0.3749 -0.13,0.2498 -0.19,0.6247 -0.19,1.1246 0,0.4997 0.06,0.8746 0.19,1.1246 0.13,0.2499 0.31987,0.3749 0.57475,0.3749 0.255,0 0.44487,-0.125 0.57487,-0.3749 0.12488,-0.25 0.18988,-0.6249 0.18988,-1.1246 0,-0.4999 -0.065,-0.8748 -0.18988,-1.1246 -0.13,-0.2499 -0.31987,-0.3749 -0.57487,-0.3749 m 0,-0.3899 c 0.40487,0 0.71475,0.165 0.93475,0.4849 0.21487,0.3249 0.32487,0.7947 0.32487,1.4045 0,0.6147 -0.11,1.0846 -0.32487,1.4045 -0.22,0.3199 -0.52988,0.4799 -0.93475,0.4799 -0.40988,0 -0.72475,-0.16 -0.93963,-0.4799 -0.21487,-0.3199 -0.31987,-0.7898 -0.31987,-1.4045 0,-0.6098 0.105,-1.0796 0.31987,-1.4045 0.21488,-0.3199 0.52975,-0.4849 0.93963,-0.4849"
       style="fill:#ffffff;fill-opacity:1;fill-rule:nonzero;stroke:none"
       id="path546"
       inkscape:connector-curvature="0" />
    <path
       inkscape:connector-curvature="0"
       id="path550"
       style="fill:#ffffff;fill-opacity:1;fill-rule:nonzero;stroke:#ffffff;stroke-width:0.39985999;stroke-linecap:butt;stroke-linejoin:round;stroke-miterlimit:10;stroke-dasharray:none;stroke-opacity:1"
       d="m 135.35836,1039.9889 0,1.7494" />
    <path
       d="m 132.71951,1043.6395 1.93438,0 0,0.4149 -1.4845,0 0,0.8946 c 0.07,-0.025 0.145,-0.045 0.215,-0.055 0.0699,-0.01 0.14487,-0.02 0.21487,-0.02 0.40488,0 0.72475,0.1149 0.96463,0.3349 0.24,0.2249 0.35987,0.5247 0.35987,0.9046 0,0.3949 -0.12487,0.6998 -0.36987,0.9148 -0.24488,0.2148 -0.58975,0.3198 -1.02963,0.3198 -0.15487,0 -0.30987,-0.015 -0.46975,-0.035 -0.16,-0.025 -0.32,-0.06 -0.48987,-0.115 l 0,-0.4948 c 0.14487,0.08 0.29487,0.14 0.45487,0.18 0.15488,0.04 0.31988,0.055 0.49475,0.055 0.27988,0 0.50488,-0.07 0.66975,-0.22 0.16,-0.1499 0.245,-0.3499 0.245,-0.6048 0,-0.2499 -0.085,-0.4499 -0.245,-0.5997 -0.16487,-0.15 -0.38987,-0.225 -0.66975,-0.225 -0.12987,0 -0.26487,0.015 -0.39487,0.045 -0.12988,0.03 -0.26488,0.075 -0.39988,0.135 l 0,-1.8294"
       style="fill:#ffffff;fill-opacity:1;fill-rule:nonzero;stroke:none"
       id="path552"
       inkscape:connector-curvature="0" />
    <path
       d="m 136.94814,1043.9644 c -0.255,0 -0.44488,0.125 -0.57488,0.3749 -0.12987,0.2498 -0.18987,0.6247 -0.18987,1.1246 0,0.4997 0.06,0.8746 0.18987,1.1246 0.13,0.2499 0.31988,0.3749 0.57488,0.3749 0.25487,0 0.44475,-0.125 0.57475,-0.3749 0.125,-0.25 0.18987,-0.6249 0.18987,-1.1246 0,-0.4999 -0.0649,-0.8748 -0.18987,-1.1246 -0.13,-0.2499 -0.31988,-0.3749 -0.57475,-0.3749 m 0,-0.3899 c 0.40475,0 0.71475,0.165 0.93462,0.4849 0.21488,0.3249 0.32488,0.7947 0.32488,1.4045 0,0.6147 -0.11,1.0846 -0.32488,1.4045 -0.21987,0.3199 -0.52987,0.4799 -0.93462,0.4799 -0.40988,0 -0.72475,-0.16 -0.93975,-0.4799 -0.21488,-0.3199 -0.31988,-0.7898 -0.31988,-1.4045 0,-0.6098 0.105,-1.0796 0.31988,-1.4045 0.215,-0.3199 0.52987,-0.4849 0.93975,-0.4849"
       style="fill:#ffffff;fill-opacity:1;fill-rule:nonzero;stroke:none"
       id="path554"
       inkscape:connector-curvature="0" />
    <path
       inkscape:connector-curvature="0"
       id="path558"
       style="fill:#ffffff;fill-opacity:1;fill-rule:nonzero;stroke:#ffffff;stroke-width:0.39985999;stroke-linecap:butt;stroke-linejoin:round;stroke-miterlimit:10;stroke-dasharray:none;stroke-opacity:1"
       d="m 162.90427,1039.9889 0,1.7494" />
    <path
       d="m 161.37514,1045.2639 c -0.22,0 -0.39488,0.08 -0.52488,0.23 -0.13,0.1499 -0.19487,0.3599 -0.19487,0.6197 0,0.2649 0.0649,0.4749 0.19487,0.6248 0.13,0.15 0.30488,0.225 0.52488,0.225 0.21987,0 0.39487,-0.075 0.52475,-0.225 0.13,-0.1499 0.195,-0.3599 0.195,-0.6248 0,-0.2598 -0.065,-0.4698 -0.195,-0.6197 -0.12988,-0.15 -0.30488,-0.23 -0.52475,-0.23 m 0.97962,-1.5444 0,0.4499 c -0.125,-0.06 -0.24987,-0.105 -0.37487,-0.135 -0.13,-0.03 -0.25488,-0.045 -0.37488,-0.045 -0.32987,0 -0.57975,0.11 -0.74975,0.3299 -0.16987,0.2198 -0.26987,0.5548 -0.28987,0.9946 0.095,-0.1399 0.21487,-0.2499 0.35987,-0.3249 0.145,-0.075 0.30488,-0.1149 0.47988,-0.1149 0.36487,0 0.65475,0.1149 0.86462,0.3349 0.21,0.2199 0.31988,0.5248 0.31988,0.9046 0,0.3749 -0.11488,0.6748 -0.33488,0.8998 -0.21987,0.2249 -0.51475,0.3349 -0.87962,0.3349 -0.41988,0 -0.74475,-0.16 -0.96475,-0.4799 -0.22488,-0.3199 -0.33488,-0.7898 -0.33488,-1.4045 0,-0.5749 0.135,-1.0346 0.40988,-1.3745 0.26987,-0.3399 0.63975,-0.5149 1.09962,-0.5149 0.12,0 0.24488,0.015 0.37488,0.035 0.125,0.025 0.25487,0.06 0.39487,0.11"
       style="fill:#ffffff;fill-opacity:1;fill-rule:nonzero;stroke:none"
       id="path560"
       inkscape:connector-curvature="0" />
    <path
       d="m 164.49401,1043.9644 c -0.25487,0 -0.44487,0.125 -0.57475,0.3749 -0.13,0.2498 -0.19,0.6247 -0.19,1.1246 0,0.4997 0.06,0.8746 0.19,1.1246 0.12988,0.2499 0.31988,0.3749 0.57475,0.3749 0.25488,0 0.44488,-0.125 0.57475,-0.3749 0.125,-0.25 0.19,-0.6249 0.19,-1.1246 0,-0.4999 -0.065,-0.8748 -0.19,-1.1246 -0.12987,-0.2499 -0.31987,-0.3749 -0.57475,-0.3749 m 0,-0.3899 c 0.40488,0 0.71475,0.165 0.93463,0.4849 0.215,0.3249 0.32487,0.7947 0.32487,1.4045 0,0.6147 -0.10987,1.0846 -0.32487,1.4045 -0.21988,0.3199 -0.52975,0.4799 -0.93463,0.4799 -0.40987,0 -0.72475,-0.16 -0.93962,-0.4799 -0.215,-0.3199 -0.32,-0.7898 -0.32,-1.4045 0,-0.6098 0.105,-1.0796 0.32,-1.4045 0.21487,-0.3199 0.52975,-0.4849 0.93962,-0.4849"
       style="fill:#ffffff;fill-opacity:1;fill-rule:nonzero;stroke:none"
       id="path562"
       inkscape:connector-curvature="0" />
    <path
       d="m 91.776885,1052.3774 0,1.3345 0.78975,0 c 0.26487,0 0.45987,-0.055 0.58975,-0.1649 0.125,-0.11 0.19,-0.2749 0.19,-0.5049 0,-0.2248 -0.065,-0.3898 -0.19,-0.4997 -0.12988,-0.11 -0.32488,-0.165 -0.58975,-0.165 l -0.78975,0 m 0,-1.4995 0,1.0996 0.72975,0 c 0.23987,0 0.41487,-0.045 0.53487,-0.1349 0.11988,-0.09 0.17988,-0.225 0.17988,-0.4148 0,-0.18 -0.06,-0.3199 -0.17988,-0.4099 -0.12,-0.09 -0.295,-0.14 -0.53487,-0.14 l -0.72975,0 m -0.49475,-0.4049 1.2595,0 c 0.37487,0 0.66475,0.08 0.86975,0.235 0.19987,0.1599 0.30487,0.3799 0.30487,0.6648 0,0.2248 -0.055,0.4048 -0.16,0.5347 -0.105,0.13 -0.25487,0.215 -0.45487,0.245 0.24,0.055 0.42987,0.1649 0.56487,0.3299 0.13,0.1649 0.19988,0.3699 0.19988,0.6147 0,0.3299 -0.11488,0.5798 -0.33488,0.7548 -0.21987,0.1799 -0.53475,0.2649 -0.93962,0.2649 l -1.3095,0 0,-3.6438"
       style="fill:#ffffff;fill-opacity:1;fill-rule:nonzero;stroke:none"
       id="path564"
       inkscape:connector-curvature="0" />
    <path
       d="m 94.690885,1051.3828 0.44987,0 0,2.734 -0.44987,0 0,-2.734 m 0,-1.0647 0.44987,0 0,0.5698 -0.44987,0 0,-0.5698"
       style="fill:#ffffff;fill-opacity:1;fill-rule:nonzero;stroke:none"
       id="path566"
       inkscape:connector-curvature="0" />
    <path
       d="m 97.664885,1051.8026 c -0.05,-0.03 -0.105,-0.05 -0.165,-0.065 -0.06,-0.01 -0.125,-0.02 -0.19488,-0.02 -0.255,0 -0.44987,0.085 -0.58487,0.2499 -0.13988,0.165 -0.20488,0.3999 -0.20488,0.7097 l 0,1.4395 -0.44987,0 0,-2.734 0.44987,0 0,0.4249 c 0.09,-0.165 0.21488,-0.29 0.36488,-0.3699 0.14987,-0.08 0.33487,-0.12 0.55475,-0.12 0.03,0 0.065,0 0.105,0 0.035,0.01 0.075,0.01 0.125,0.02 l 0,0.4599"
       style="fill:#ffffff;fill-opacity:1;fill-rule:nonzero;stroke:none"
       id="path568"
       inkscape:connector-curvature="0" />
    <path
       d="m 98.579505,1050.608 0,0.7748 0.92475,0 0,0.3498 -0.92475,0 0,1.4845 c 0,0.2249 0.03,0.3699 0.09,0.4298 0.06,0.065 0.18488,0.095 0.37488,0.095 l 0.45987,0 0,0.3749 -0.45987,0 c -0.34988,0 -0.58988,-0.065 -0.71975,-0.1949 -0.13,-0.13 -0.195,-0.3649 -0.195,-0.7048 l 0,-1.4845 -0.32988,0 0,-0.3498 0.32988,0 0,-0.7748 0.44987,0"
       style="fill:#ffffff;fill-opacity:1;fill-rule:nonzero;stroke:none"
       id="path570"
       inkscape:connector-curvature="0" />
    <path
       d="m 102.36826,1052.4674 0,1.6494 -0.44987,0 0,-1.6344 c 0,-0.26 -0.055,-0.4499 -0.155,-0.5799 -0.1,-0.1299 -0.24988,-0.1949 -0.44988,-0.1949 -0.24487,0 -0.43475,0.08 -0.57475,0.2349 -0.14,0.155 -0.20987,0.3649 -0.20987,0.6298 l 0,1.5445 -0.44988,0 0,-3.7987 0.44988,0 0,1.4895 c 0.10487,-0.16 0.22987,-0.285 0.37987,-0.3648 0.14488,-0.08 0.31488,-0.125 0.50475,-0.125 0.30988,0 0.54988,0.1 0.70975,0.2948 0.16,0.195 0.245,0.4799 0.245,0.8548"
       style="fill:#ffffff;fill-opacity:1;fill-rule:nonzero;stroke:none"
       id="path572"
       inkscape:connector-curvature="0" />
    <path
       inkscape:connector-curvature="0"
       id="path576"
       style="fill:#ffffff;fill-opacity:1;fill-rule:nonzero;stroke:#ffffff;stroke-width:0.39985999;stroke-linecap:butt;stroke-linejoin:round;stroke-miterlimit:10;stroke-dasharray:none;stroke-opacity:1"
       d="m 7.5453051,1027.8627 -1.74939,0" />
    <path
       inkscape:connector-curvature="0"
       id="path584"
       style="fill:#ffffff;fill-opacity:1;fill-rule:nonzero;stroke:#ffffff;stroke-width:0.39985999;stroke-linecap:butt;stroke-linejoin:round;stroke-miterlimit:10;stroke-dasharray:none;stroke-opacity:1"
       d="m 7.5453051,1008.9155 -1.74939,0" />
    <path
       inkscape:connector-curvature="0"
       id="path592"
       style="fill:#ffffff;fill-opacity:1;fill-rule:nonzero;stroke:#ffffff;stroke-width:0.39985999;stroke-linecap:butt;stroke-linejoin:round;stroke-miterlimit:10;stroke-dasharray:none;stroke-opacity:1"
       d="m 7.5453051,989.96827 -1.74939,0" />
    <path
       inkscape:connector-curvature="0"
       id="path600"
       style="fill:#ffffff;fill-opacity:1;fill-rule:nonzero;stroke:#ffffff;stroke-width:0.39985999;stroke-linecap:butt;stroke-linejoin:round;stroke-miterlimit:10;stroke-dasharray:none;stroke-opacity:1"
       d="m 7.5453051,971.02105 -1.74939,0" />
    <path
       inkscape:connector-curvature="0"
       id="path608"
       style="fill:#ffffff;fill-opacity:1;fill-rule:nonzero;stroke:#ffffff;stroke-width:0.39985999;stroke-linecap:butt;stroke-linejoin:round;stroke-miterlimit:10;stroke-dasharray:none;stroke-opacity:1"
       d="m 7.5453051,952.07383 -1.74939,0" />
    <path
       inkscape:connector-curvature="0"
       id="path616"
       style="fill:#ffffff;fill-opacity:1;fill-rule:nonzero;stroke:#ffffff;stroke-width:0.39985999;stroke-linecap:butt;stroke-linejoin:round;stroke-miterlimit:10;stroke-dasharray:none;stroke-opacity:1"
       d="m 7.5453051,933.12662 -1.74939,0" />
    <path
       inkscape:connector-curvature="0"
       id="path624"
       style="fill:#ffffff;fill-opacity:1;fill-rule:nonzero;stroke:#ffffff;stroke-width:0.39985999;stroke-linecap:butt;stroke-linejoin:round;stroke-miterlimit:10;stroke-dasharray:none;stroke-opacity:1"
       d="m 7.5453051,914.1794 -1.74939,0" />
    <g
       transform="matrix(0.499825,0,0,-0.499825,-21.244615,1058.9903)"
       id="g644">
      <path
         d="M 57.6,38.016 414.72,283.6578"
         style="fill:none;stroke:#ffffff;stroke-width:1.5;stroke-linecap:square;stroke-linejoin:round;stroke-miterlimit:10;stroke-dasharray:none;stroke-opacity:0.6"
         id="path646"
         inkscape:connector-curvature="0" />
    </g>
    <g
       transform="matrix(0.499825,0,0,-0.499825,-21.244615,1058.9903)"
       id="g648">
      <path
         d="m 57.6,283.6578 357.12,0"
         style="fill:none;stroke:#ffffff;stroke-width:1;stroke-linecap:square;stroke-linejoin:round;stroke-miterlimit:10;stroke-dasharray:none;stroke-opacity:0.6"
         id="path650"
         inkscape:connector-curvature="0" />
    </g>
    <g
       transform="matrix(0.499825,0,0,-0.499825,-21.244615,1058.9903)"
       id="g652">
      <path
         d="m 203.0933,141.8831 0,-3.7908"
         style="fill:none;stroke:#ff0000;stroke-width:1.5;stroke-linecap:butt;stroke-linejoin:round;stroke-miterlimit:10;stroke-dasharray:5.55, 2.4;stroke-dashoffset:0;stroke-opacity:0.3"
         id="path654"
         inkscape:connector-curvature="0" />
    </g>
    <g
       transform="matrix(0.499825,0,0,-0.499825,-21.244615,1058.9903)"
       id="g656">
      <path
         d="m 203.0933,141.8831 5.5111,0"
         style="fill:none;stroke:#ff0000;stroke-width:1.5;stroke-linecap:butt;stroke-linejoin:round;stroke-miterlimit:10;stroke-dasharray:5.55, 2.4;stroke-dashoffset:0;stroke-opacity:0.3"
         id="path658"
         inkscape:connector-curvature="0" />
    </g>
    <g
       transform="matrix(0.499825,0,0,-0.499825,-21.244615,1058.9903)"
       id="g660">
      <path
         d="m 379.4489,263.1877 0,-3.7908"
         style="fill:none;stroke:#ff0000;stroke-width:1.5;stroke-linecap:butt;stroke-linejoin:round;stroke-miterlimit:10;stroke-dasharray:5.55, 2.4;stroke-dashoffset:0;stroke-opacity:0.3"
         id="path662"
         inkscape:connector-curvature="0" />
    </g>
    <g
       transform="matrix(0.499825,0,0,-0.499825,-21.244615,1058.9903)"
       id="g664">
      <path
         d="m 379.4489,263.1877 5.5111,0"
         style="fill:none;stroke:#ff0000;stroke-width:1.5;stroke-linecap:butt;stroke-linejoin:round;stroke-miterlimit:10;stroke-dasharray:5.55, 2.4;stroke-dashoffset:0;stroke-opacity:0.3"
         id="path666"
         inkscape:connector-curvature="0" />
    </g>
    <g
       transform="matrix(0.499825,0,0,-0.499825,-21.244615,1058.9903)"
       id="g668">
      <path
         d="m 296.7822,229.0708 0,-26.5354"
         style="fill:none;stroke:#ff0000;stroke-width:1.5;stroke-linecap:butt;stroke-linejoin:round;stroke-miterlimit:10;stroke-dasharray:5.55, 2.4;stroke-dashoffset:0;stroke-opacity:0.3"
         id="path670"
         inkscape:connector-curvature="0" />
    </g>
    <g
       transform="matrix(0.499825,0,0,-0.499825,-21.244615,1058.9903)"
       id="g672">
      <path
         d="m 296.7822,229.0708 38.5778,0"
         style="fill:none;stroke:#ff0000;stroke-width:1.5;stroke-linecap:butt;stroke-linejoin:round;stroke-miterlimit:10;stroke-dasharray:5.55, 2.4;stroke-dashoffset:0;stroke-opacity:0.3"
         id="path674"
         inkscape:connector-curvature="0" />
    </g>
    <g
       transform="matrix(0.499825,0,0,-0.499825,-21.244615,1058.9903)"
       id="g676">
      <path
         d="m 103.8933,134.3015 0,-64.44304"
         style="fill:none;stroke:#ff0000;stroke-width:1.5;stroke-linecap:butt;stroke-linejoin:round;stroke-miterlimit:10;stroke-dasharray:5.55, 2.4;stroke-dashoffset:0;stroke-opacity:0.3"
         id="path678"
         inkscape:connector-curvature="0" />
    </g>
    <g
       transform="matrix(0.499825,0,0,-0.499825,-21.244615,1058.9903)"
       id="g680">
      <path
         d="m 103.8933,134.3015 93.6889,0"
         style="fill:none;stroke:#ff0000;stroke-width:1.5;stroke-linecap:butt;stroke-linejoin:round;stroke-miterlimit:10;stroke-dasharray:5.55, 2.4;stroke-dashoffset:0;stroke-opacity:0.3"
         id="path682"
         inkscape:connector-curvature="0" />
    </g>
    <g
       transform="matrix(0.499825,0,0,-0.499825,-21.244615,1058.9903)"
       id="g684">
      <path
         d="m 225.1378,240.4431 0,-87.1877"
         style="fill:none;stroke:#ff0000;stroke-width:1.5;stroke-linecap:butt;stroke-linejoin:round;stroke-miterlimit:10;stroke-dasharray:5.55, 2.4;stroke-dashoffset:0;stroke-opacity:0.3"
         id="path686"
         inkscape:connector-curvature="0" />
    </g>
    <g
       transform="matrix(0.499825,0,0,-0.499825,-21.244615,1058.9903)"
       id="g688">
      <path
         d="m 225.1378,240.4431 126.7555,0"
         style="fill:none;stroke:#ff0000;stroke-width:1.5;stroke-linecap:butt;stroke-linejoin:round;stroke-miterlimit:10;stroke-dasharray:5.55, 2.4;stroke-dashoffset:0;stroke-opacity:0.3"
         id="path690"
         inkscape:connector-curvature="0" />
    </g>
    <g
       transform="matrix(0.499825,0,0,-0.499825,-21.244615,1058.9903)"
       id="g692">
      <path
         d="m 87.36,66.06769 0,-7.58154"
         style="fill:none;stroke:#ff0000;stroke-width:1.5;stroke-linecap:butt;stroke-linejoin:round;stroke-miterlimit:10;stroke-dasharray:5.55, 2.4;stroke-dashoffset:0;stroke-opacity:0.3"
         id="path694"
         inkscape:connector-curvature="0" />
    </g>
    <g
       transform="matrix(0.499825,0,0,-0.499825,-21.244615,1058.9903)"
       id="g696">
      <path
         d="m 87.36,66.06769 11.02222,0"
         style="fill:none;stroke:#ff0000;stroke-width:1.5;stroke-linecap:butt;stroke-linejoin:round;stroke-miterlimit:10;stroke-dasharray:5.55, 2.4;stroke-dashoffset:0;stroke-opacity:0.3"
         id="path698"
         inkscape:connector-curvature="0" />
    </g>
    <g
       id="g700"
       transform="matrix(1.25,0,0,-1.25,-420.70837,1777.1653)">
      <g
         clip-path="url(#clipPath458)"
         id="g702">
        <g
           transform="matrix(0.39986,0,0,0.39986,319.571,574.54)"
           id="g704">
          <path
             d="m 57.6,38.016 0,266.112"
             style="fill:none;stroke:#ffffff;stroke-width:0.80000001;stroke-linecap:square;stroke-linejoin:miter;stroke-miterlimit:10;stroke-dasharray:none;stroke-opacity:1"
             id="path706"
             inkscape:connector-curvature="0" />
        </g>
        <g
           transform="matrix(0.39986,0,0,0.39986,319.571,574.54)"
           id="g712">
          <path
             d="m 57.6,38.016 357.12,0"
             style="fill:none;stroke:#ffffff;stroke-width:0.80000001;stroke-linecap:square;stroke-linejoin:miter;stroke-miterlimit:10;stroke-dasharray:none;stroke-opacity:1"
             id="path714"
             inkscape:connector-curvature="0" />
        </g>
      </g>
    </g>
    <g
       id="g720"
       transform="matrix(1.25,0,0,-1.25,-420.70837,1777.1653)">
      <g
         clip-path="url(#clipPath462)"
         id="g722">
        <path
           d="m 344.4263,688.6932 c -0.044,0.048 -0.096,0.1239 -0.1559,0.2359 -0.088,-0.16 -0.172,-0.2719 -0.248,-0.3359 -0.0959,-0.088 -0.2199,-0.1279 -0.3678,-0.1279 -0.176,0 -0.3239,0.0639 -0.4399,0.1999 -0.1239,0.1359 -0.1839,0.3159 -0.1839,0.5478 0,0.2159 0.06,0.3998 0.1839,0.5518 0.108,0.128 0.2559,0.1959 0.4439,0.1959 0.0919,0 0.1759,-0.02 0.2479,-0.06 0.08,-0.0439 0.1479,-0.1039 0.2039,-0.1759 0.052,-0.068 0.104,-0.1439 0.16,-0.2319 0.0839,0.1519 0.1639,0.2639 0.2439,0.3359 0.0959,0.0799 0.2159,0.1239 0.3678,0.1239 0.176,0 0.3199,-0.0679 0.4399,-0.1959 0.1199,-0.14 0.1839,-0.3239 0.1839,-0.5478 0,-0.2199 -0.064,-0.4039 -0.1839,-0.5518 -0.112,-0.132 -0.2599,-0.1959 -0.4439,-0.1959 -0.0959,0 -0.1759,0.0159 -0.2479,0.0559 -0.0719,0.036 -0.1399,0.096 -0.2039,0.176 m -0.7957,0.028 c 0.2159,0 0.3878,0.1559 0.5158,0.4678 -0.1679,0.3399 -0.3399,0.5118 -0.5158,0.5118 -0.132,0 -0.2279,-0.048 -0.2919,-0.1399 -0.072,-0.1 -0.108,-0.216 -0.108,-0.3479 0,-0.148 0.036,-0.2679 0.108,-0.3559 0.072,-0.092 0.1679,-0.1359 0.2919,-0.1359 m 1.2755,0.9756 c -0.1959,0 -0.3678,-0.1559 -0.5158,-0.4678 0.16,-0.3439 0.3319,-0.5118 0.5158,-0.5118 0.128,0 0.2279,0.0439 0.2919,0.1399 0.072,0.1 0.108,0.2159 0.108,0.3519 0,0.1439 -0.036,0.2639 -0.108,0.3519 -0.0719,0.0879 -0.1719,0.1359 -0.2919,0.1359"
           style="fill:#ffffff;fill-opacity:0.6;fill-rule:nonzero;stroke:none"
           id="path724"
           inkscape:connector-curvature="0" />
      </g>
    </g>
  </g>
</svg>
