<?xml version="1.0" encoding="UTF-8" standalone="no"?>
<!-- Created with Inkscape (http://www.inkscape.org/) -->

<svg
   xmlns:dc="http://purl.org/dc/elements/1.1/"
   xmlns:cc="http://creativecommons.org/ns#"
   xmlns:rdf="http://www.w3.org/1999/02/22-rdf-syntax-ns#"
   xmlns:svg="http://www.w3.org/2000/svg"
   xmlns="http://www.w3.org/2000/svg"
   xmlns:sodipodi="http://sodipodi.sourceforge.net/DTD/sodipodi-0.dtd"
   xmlns:inkscape="http://www.inkscape.org/namespaces/inkscape"
   id="svg2"
   version="1.1"
   inkscape:version="0.91 r13725"
   xml:space="preserve"
   width="201.83742"
   height="151.87813"
   viewBox="0 0 201.83742 151.87813"
   sodipodi:docname="steady_mis.svg"><metadata
     id="metadata8"><rdf:RDF><cc:Work
         rdf:about=""><dc:format>image/svg+xml</dc:format><dc:type
           rdf:resource="http://purl.org/dc/dcmitype/StillImage" /><dc:title></dc:title></cc:Work></rdf:RDF></metadata><defs
     id="defs6"><clipPath
       clipPathUnits="userSpaceOnUse"
       id="clipPath18"><path
         d="m 0,0 595.276,0 0,841.89 L 0,841.89 0,0 Z"
         id="path20"
         inkscape:connector-curvature="0" /></clipPath><clipPath
       clipPathUnits="userSpaceOnUse"
       id="clipPath146"><path
         d="m 0,0 595.276,0 0,841.89 L 0,841.89 0,0 Z"
         id="path148"
         inkscape:connector-curvature="0" /></clipPath><clipPath
       clipPathUnits="userSpaceOnUse"
       id="clipPath152"><path
         d="m 88,452 185,0 0,139 -185,0 0,-139 z"
         id="path154"
         inkscape:connector-curvature="0" /></clipPath><clipPath
       clipPathUnits="userSpaceOnUse"
       id="clipPath156"><path
         d="m 88.495,452.479 184.2555,0 0,138.1916 -184.2555,0 0,-138.1916 z"
         id="path158"
         inkscape:connector-curvature="0" /></clipPath><clipPath
       clipPathUnits="userSpaceOnUse"
       id="clipPath160"><path
         d="m 111.5269,467.6801 142.798,0 0,106.4075 -142.798,0 0,-106.4075 z"
         id="path162"
         inkscape:connector-curvature="0" /></clipPath><clipPath
       clipPathUnits="userSpaceOnUse"
       id="clipPath164"><path
         d="m 88.495,452.479 184.2555,0 0,138.1916 -184.2555,0 0,-138.1916 z"
         id="path166"
         inkscape:connector-curvature="0" /></clipPath><clipPath
       clipPathUnits="userSpaceOnUse"
       id="clipPath168"><path
         d="m 111.5269,467.6801 142.798,0 0,106.4075 -142.798,0 0,-106.4075 z"
         id="path170"
         inkscape:connector-curvature="0" /></clipPath><clipPath
       clipPathUnits="userSpaceOnUse"
       id="clipPath172"><path
         d="m 88.495,452.479 184.2555,0 0,138.1916 -184.2555,0 0,-138.1916 z"
         id="path174"
         inkscape:connector-curvature="0" /></clipPath><clipPath
       clipPathUnits="userSpaceOnUse"
       id="clipPath176"><path
         d="m 107.4444,564.1011 11.25606,0 0,6.78163 -11.25606,0 0,-6.78163 z"
         id="path178"
         inkscape:connector-curvature="0" /></clipPath><clipPath
       clipPathUnits="userSpaceOnUse"
       id="clipPath180"><path
         d="m 88.495,452.479 184.2555,0 0,138.1916 -184.2555,0 0,-138.1916 z"
         id="path182"
         inkscape:connector-curvature="0" /></clipPath><clipPath
       clipPathUnits="userSpaceOnUse"
       id="clipPath578"><path
         d="m 0,0 595.276,0 0,841.89 L 0,841.89 0,0 Z"
         id="path580"
         inkscape:connector-curvature="0" /></clipPath><clipPath
       clipPathUnits="userSpaceOnUse"
       id="clipPath584"><path
         d="m 319,452 185,0 0,139 -185,0 0,-139 z"
         id="path586"
         inkscape:connector-curvature="0" /></clipPath><clipPath
       clipPathUnits="userSpaceOnUse"
       id="clipPath588"><path
         d="m 319.571,452.479 184.2555,0 0,138.1916 -184.2555,0 0,-138.1916 z"
         id="path590"
         inkscape:connector-curvature="0" /></clipPath><clipPath
       clipPathUnits="userSpaceOnUse"
       id="clipPath592"><path
         d="m 342.6029,467.6801 142.798,0 0,106.4075 -142.798,0 0,-106.4075 z"
         id="path594"
         inkscape:connector-curvature="0" /></clipPath><clipPath
       clipPathUnits="userSpaceOnUse"
       id="clipPath596"><path
         d="m 319.571,452.479 184.2555,0 0,138.1916 -184.2555,0 0,-138.1916 z"
         id="path598"
         inkscape:connector-curvature="0" /></clipPath><clipPath
       clipPathUnits="userSpaceOnUse"
       id="clipPath600"><path
         d="m 342.6029,467.6801 142.798,0 0,106.4075 -142.798,0 0,-106.4075 z"
         id="path602"
         inkscape:connector-curvature="0" /></clipPath><clipPath
       clipPathUnits="userSpaceOnUse"
       id="clipPath604"><path
         d="m 319.571,452.479 184.2555,0 0,138.1916 -184.2555,0 0,-138.1916 z"
         id="path606"
         inkscape:connector-curvature="0" /></clipPath><clipPath
       clipPathUnits="userSpaceOnUse"
       id="clipPath608"><path
         d="m 338.5204,564.1011 11.25606,0 0,6.78163 -11.25606,0 0,-6.78163 z"
         id="path610"
         inkscape:connector-curvature="0" /></clipPath><clipPath
       clipPathUnits="userSpaceOnUse"
       id="clipPath612"><path
         d="m 319.571,452.479 184.2555,0 0,138.1916 -184.2555,0 0,-138.1916 z"
         id="path614"
         inkscape:connector-curvature="0" /></clipPath></defs><sodipodi:namedview
     pagecolor="#ffffff"
     bordercolor="#666666"
     borderopacity="1"
     objecttolerance="10"
     gridtolerance="10"
     guidetolerance="10"
     inkscape:pageopacity="0"
     inkscape:pageshadow="2"
     inkscape:window-width="1602"
     inkscape:window-height="1006"
     id="namedview4"
     showgrid="false"
     inkscape:zoom="3.1077549"
     inkscape:cx="77.961494"
     inkscape:cy="46.728019"
     inkscape:window-x="47"
     inkscape:window-y="0"
     inkscape:window-maximized="0"
     inkscape:current-layer="g10" /><g
     id="g10"
     inkscape:groupmode="layer"
     inkscape:label="steady_mis_gap"
     transform="matrix(1.25,0,0,-1.25,-119.25921,719.08788)"><g
       id="g12" /><g
       id="g188" /><g
       id="g198"><g
         id="g202"
         transform="matrix(0.39986,0,0,0.39986,88.495,452.479)"><path
           inkscape:connector-curvature="0"
           id="path204"
           style="fill:#ff0000;fill-opacity:0.6;fill-rule:nonzero;stroke:#ff0000;stroke-width:1;stroke-linecap:butt;stroke-linejoin:round;stroke-miterlimit:10;stroke-dasharray:none;stroke-opacity:0.6"
           d="m 130.4514,94.85183 c 0.7956,0 1.5587,0.3161 2.1213,0.87868 0.5626,0.56258 0.8787,1.32572 0.8787,2.12132 0,0.79561 -0.3161,1.55874 -0.8787,2.12133 -0.5626,0.56254 -1.3257,0.87864 -2.1213,0.87864 -0.7956,0 -1.5587,-0.3161 -2.1213,-0.87864 -0.5626,-0.56259 -0.8787,-1.32572 -0.8787,-2.12133 0,-0.7956 0.3161,-1.55874 0.8787,-2.12132 0.5626,-0.56258 1.3257,-0.87868 2.1213,-0.87868 z" /></g><g
         id="g206"
         transform="matrix(0.39986,0,0,0.39986,88.495,452.479)"><path
           inkscape:connector-curvature="0"
           id="path208"
           style="fill:#ff0000;fill-opacity:0.6;fill-rule:nonzero;stroke:#ff0000;stroke-width:1;stroke-linecap:butt;stroke-linejoin:round;stroke-miterlimit:10;stroke-dasharray:none;stroke-opacity:0.6"
           d="m 90.52848,85.1262 c 0.79561,0 1.55874,0.3161 2.12133,0.87868 0.56258,0.56258 0.87868,1.32571 0.87868,2.12132 0,0.7956 -0.3161,1.55873 -0.87868,2.12132 -0.56259,0.56258 -1.32572,0.87868 -2.12133,0.87868 -0.7956,0 -1.55873,-0.3161 -2.12132,-0.87868 -0.56258,-0.56259 -0.87868,-1.32572 -0.87868,-2.12132 0,-0.79561 0.3161,-1.55874 0.87868,-2.12132 0.56259,-0.56258 1.32572,-0.87868 2.12132,-0.87868 z" /></g><g
         id="g210"
         transform="matrix(0.39986,0,0,0.39986,88.495,452.479)"><path
           inkscape:connector-curvature="0"
           id="path212"
           style="fill:#ff0000;fill-opacity:0.6;fill-rule:nonzero;stroke:#ff0000;stroke-width:1;stroke-linecap:butt;stroke-linejoin:round;stroke-miterlimit:10;stroke-dasharray:none;stroke-opacity:0.6"
           d="m 168.1564,260.1877 c 0.7956,0 1.5587,0.3161 2.1213,0.8787 0.5626,0.5626 0.8787,1.3257 0.8787,2.1213 0,0.7956 -0.3161,1.5587 -0.8787,2.1213 -0.5626,0.5626 -1.3257,0.8787 -2.1213,0.8787 -0.7956,0 -1.5588,-0.3161 -2.1213,-0.8787 -0.5626,-0.5626 -0.8787,-1.3257 -0.8787,-2.1213 0,-0.7956 0.3161,-1.5587 0.8787,-2.1213 0.5625,-0.5626 1.3257,-0.8787 2.1213,-0.8787 z" /></g><g
         id="g214"
         transform="matrix(0.39986,0,0,0.39986,88.495,452.479)"><path
           inkscape:connector-curvature="0"
           id="path216"
           style="fill:#ff0000;fill-opacity:0.6;fill-rule:nonzero;stroke:#ff0000;stroke-width:1;stroke-linecap:butt;stroke-linejoin:round;stroke-miterlimit:10;stroke-dasharray:none;stroke-opacity:0.6"
           d="m 97.45955,65.67492 c 0.79561,0 1.55874,0.3161 2.12132,0.87868 0.56253,0.56258 0.87863,1.32571 0.87863,2.12132 0,0.79561 -0.3161,1.55874 -0.87863,2.12132 -0.56258,0.56258 -1.32571,0.87868 -2.12132,0.87868 -0.79561,0 -1.55874,-0.3161 -2.12132,-0.87868 -0.56258,-0.56258 -0.87868,-1.32571 -0.87868,-2.12132 0,-0.79561 0.3161,-1.55874 0.87868,-2.12132 0.56258,-0.56258 1.32571,-0.87868 2.12132,-0.87868 z" /></g><g
         id="g218"
         transform="matrix(0.39986,0,0,0.39986,88.495,452.479)"><path
           inkscape:connector-curvature="0"
           id="path220"
           style="fill:#ff0000;fill-opacity:0.6;fill-rule:nonzero;stroke:#ff0000;stroke-width:1;stroke-linecap:butt;stroke-linejoin:round;stroke-miterlimit:10;stroke-dasharray:none;stroke-opacity:0.6"
           d="m 87.36,56.46116 c 0.79561,0 1.55874,0.31609 2.12132,0.87867 0.56258,0.56259 0.87868,1.32572 0.87868,2.12132 0,0.79562 -0.3161,1.55875 -0.87868,2.12133 -0.56258,0.56258 -1.32571,0.87868 -2.12132,0.87868 -0.79561,0 -1.55874,-0.3161 -2.12132,-0.87868 C 84.6761,61.0199 84.36,60.25677 84.36,59.46115 c 0,-0.7956 0.3161,-1.55873 0.87868,-2.12132 0.56258,-0.56258 1.32571,-0.87867 2.12132,-0.87867 z" /></g><g
         id="g222"
         transform="matrix(0.39986,0,0,0.39986,88.495,452.479)"><path
           inkscape:connector-curvature="0"
           id="path224"
           style="fill:#ff0000;fill-opacity:0.6;fill-rule:nonzero;stroke:#ff0000;stroke-width:1;stroke-linecap:butt;stroke-linejoin:round;stroke-miterlimit:10;stroke-dasharray:none;stroke-opacity:0.6"
           d="m 144.5908,111.0612 c 0.7956,0 1.5587,0.3161 2.1213,0.8787 0.5626,0.5626 0.8787,1.3257 0.8787,2.1213 0,0.7956 -0.3161,1.5588 -0.8787,2.1214 -0.5626,0.5625 -1.3257,0.8786 -2.1213,0.8786 -0.7956,0 -1.5588,-0.3161 -2.1214,-0.8786 -0.5625,-0.5626 -0.8786,-1.3258 -0.8786,-2.1214 0,-0.7956 0.3161,-1.5587 0.8786,-2.1213 0.5626,-0.5626 1.3258,-0.8787 2.1214,-0.8787 z" /></g><g
         id="g226"
         transform="matrix(0.39986,0,0,0.39986,88.495,452.479)"><path
           inkscape:connector-curvature="0"
           id="path228"
           style="fill:#ff0000;fill-opacity:0.6;fill-rule:nonzero;stroke:#ff0000;stroke-width:1;stroke-linecap:butt;stroke-linejoin:round;stroke-miterlimit:10;stroke-dasharray:none;stroke-opacity:0.6"
           d="m 92.74642,61.18616 c 0.79561,0 1.55875,0.3161 2.12133,0.87868 0.56258,0.56258 0.87867,1.32571 0.87867,2.12132 0,0.79561 -0.31609,1.55874 -0.87867,2.12132 -0.56258,0.56258 -1.32572,0.87868 -2.12133,0.87868 -0.7956,0 -1.55873,-0.3161 -2.12132,-0.87868 -0.56258,-0.56258 -0.87867,-1.32571 -0.87867,-2.12132 0,-0.79561 0.31609,-1.55874 0.87867,-2.12132 0.56259,-0.56258 1.32572,-0.87868 2.12132,-0.87868 z" /></g><g
         id="g230"
         transform="matrix(0.39986,0,0,0.39986,88.495,452.479)"><path
           inkscape:connector-curvature="0"
           id="path232"
           style="fill:#ff0000;fill-opacity:0.6;fill-rule:nonzero;stroke:#ff0000;stroke-width:1;stroke-linecap:butt;stroke-linejoin:round;stroke-miterlimit:10;stroke-dasharray:none;stroke-opacity:0.6"
           d="m 109.2424,78.64244 c 0.7956,0 1.5587,0.31609 2.1213,0.87868 0.5626,0.56258 0.8787,1.32571 0.8787,2.12132 0,0.79561 -0.3161,1.55874 -0.8787,2.12132 -0.5626,0.56258 -1.3257,0.87868 -2.1213,0.87868 -0.7957,0 -1.5588,-0.3161 -2.1214,-0.87868 -0.5625,-0.56258 -0.8786,-1.32571 -0.8786,-2.12132 0,-0.79561 0.3161,-1.55874 0.8786,-2.12132 0.5626,-0.56259 1.3257,-0.87868 2.1214,-0.87868 z" /></g></g><g
       id="g236"><g
         clip-path="url(#clipPath164)"
         id="g238"><g
           transform="matrix(0.39986,0,0,0.39986,88.495,452.479)"
           id="g240"><path
             d="m 73.89394,38.016 0,-3.5"
             style="fill:#ffffff;fill-opacity:1;fill-rule:nonzero;stroke:#ffffff;stroke-width:0.80000001;stroke-linecap:butt;stroke-linejoin:round;stroke-miterlimit:10;stroke-dasharray:none;stroke-opacity:1"
             id="path242"
             inkscape:connector-curvature="0" /></g><path
           d="m 116.1336,464.4997 c -0.2039,0 -0.3558,-0.1 -0.4598,-0.2999 -0.104,-0.1999 -0.1519,-0.4998 -0.1519,-0.8997 0,-0.3998 0.0479,-0.6997 0.1519,-0.8997 0.104,-0.1999 0.2559,-0.2999 0.4598,-0.2999 0.204,0 0.3559,0.1 0.4599,0.2999 0.1,0.2 0.1519,0.4999 0.1519,0.8997 0,0.3999 -0.0519,0.6998 -0.1519,0.8997 -0.104,0.1999 -0.2559,0.2999 -0.4599,0.2999 m 0,0.3119 c 0.3239,0 0.5718,-0.132 0.7478,-0.3879 0.1719,-0.2599 0.2599,-0.6358 0.2599,-1.1236 0,-0.4918 -0.088,-0.8677 -0.2599,-1.1236 -0.176,-0.2559 -0.4239,-0.3839 -0.7478,-0.3839 -0.3278,0 -0.5797,0.128 -0.7517,0.3839 -0.1719,0.2559 -0.2559,0.6318 -0.2559,1.1236 0,0.4878 0.084,0.8637 0.2559,1.1236 0.172,0.2559 0.4239,0.3879 0.7517,0.3879"
           style="fill:#ffffff;fill-opacity:1;fill-rule:nonzero;stroke:none"
           id="path244"
           inkscape:connector-curvature="0" /><path
           d="m 117.8331,462.3404 0.4118,0 0,-0.4958 -0.4118,0 0,0.4958"
           style="fill:#ffffff;fill-opacity:1;fill-rule:nonzero;stroke:none"
           id="path246"
           inkscape:connector-curvature="0" /><path
           d="m 119.9483,464.4997 c -0.2039,0 -0.3559,-0.1 -0.4598,-0.2999 -0.104,-0.1999 -0.152,-0.4998 -0.152,-0.8997 0,-0.3998 0.048,-0.6997 0.152,-0.8997 0.1039,-0.1999 0.2559,-0.2999 0.4598,-0.2999 0.2039,0 0.3559,0.1 0.4599,0.2999 0.0999,0.2 0.1519,0.4999 0.1519,0.8997 0,0.3999 -0.052,0.6998 -0.1519,0.8997 -0.104,0.1999 -0.256,0.2999 -0.4599,0.2999 m 0,0.3119 c 0.3239,0 0.5718,-0.132 0.7478,-0.3879 0.1719,-0.2599 0.2599,-0.6358 0.2599,-1.1236 0,-0.4918 -0.088,-0.8677 -0.2599,-1.1236 -0.176,-0.2559 -0.4239,-0.3839 -0.7478,-0.3839 -0.3279,0 -0.5798,0.128 -0.7517,0.3839 -0.172,0.2559 -0.2559,0.6318 -0.2559,1.1236 0,0.4878 0.0839,0.8637 0.2559,1.1236 0.1719,0.2559 0.4238,0.3879 0.7517,0.3879"
           style="fill:#ffffff;fill-opacity:1;fill-rule:nonzero;stroke:none"
           id="path248"
           inkscape:connector-curvature="0" /><g
           transform="matrix(0.39986,0,0,0.39986,88.495,452.479)"
           id="g250"><path
             d="m 130.4514,38.016 0,-3.5"
             style="fill:#ffffff;fill-opacity:1;fill-rule:nonzero;stroke:#ffffff;stroke-width:0.80000001;stroke-linecap:butt;stroke-linejoin:round;stroke-miterlimit:10;stroke-dasharray:none;stroke-opacity:1"
             id="path252"
             inkscape:connector-curvature="0" /></g><path
           d="m 138.7487,464.4997 c -0.2039,0 -0.3559,-0.1 -0.4598,-0.2999 -0.104,-0.1999 -0.152,-0.4998 -0.152,-0.8997 0,-0.3998 0.048,-0.6997 0.152,-0.8997 0.1039,-0.1999 0.2559,-0.2999 0.4598,-0.2999 0.2039,0 0.3559,0.1 0.4599,0.2999 0.0999,0.2 0.1519,0.4999 0.1519,0.8997 0,0.3999 -0.052,0.6998 -0.1519,0.8997 -0.104,0.1999 -0.256,0.2999 -0.4599,0.2999 m 0,0.3119 c 0.3239,0 0.5718,-0.132 0.7478,-0.3879 0.1719,-0.2599 0.2599,-0.6358 0.2599,-1.1236 0,-0.4918 -0.088,-0.8677 -0.2599,-1.1236 -0.176,-0.2559 -0.4239,-0.3839 -0.7478,-0.3839 -0.3279,0 -0.5798,0.128 -0.7517,0.3839 -0.172,0.2559 -0.2559,0.6318 -0.2559,1.1236 0,0.4878 0.0839,0.8637 0.2559,1.1236 0.1719,0.2559 0.4238,0.3879 0.7517,0.3879"
           style="fill:#ffffff;fill-opacity:1;fill-rule:nonzero;stroke:none"
           id="path254"
           inkscape:connector-curvature="0" /><path
           d="m 140.4481,462.3404 0.4119,0 0,-0.4958 -0.4119,0 0,0.4958"
           style="fill:#ffffff;fill-opacity:1;fill-rule:nonzero;stroke:none"
           id="path256"
           inkscape:connector-curvature="0" /><path
           d="m 142.0596,462.1765 1.3755,0 0,-0.3319 -1.8514,0 0,0.3319 c 0.148,0.152 0.3519,0.3599 0.6118,0.6238 0.2559,0.2599 0.4199,0.4278 0.4878,0.5038 0.128,0.14 0.216,0.2599 0.2639,0.3599 0.048,0.096 0.076,0.1959 0.076,0.2919 0,0.1519 -0.056,0.2799 -0.1639,0.3759 -0.108,0.0959 -0.2479,0.1479 -0.4239,0.1479 -0.1239,0 -0.2559,-0.024 -0.3918,-0.064 -0.136,-0.044 -0.2839,-0.1079 -0.4399,-0.1959 l 0,0.3998 c 0.16,0.064 0.3079,0.112 0.4439,0.144 0.1359,0.032 0.2639,0.048 0.3798,0.048 0.2999,0 0.5398,-0.076 0.7198,-0.2279 0.1799,-0.152 0.2719,-0.3519 0.2719,-0.6038 0,-0.12 -0.024,-0.2359 -0.068,-0.3399 -0.044,-0.108 -0.124,-0.2359 -0.2439,-0.3799 -0.032,-0.04 -0.136,-0.1479 -0.3119,-0.3279 -0.1759,-0.1799 -0.4199,-0.4318 -0.7357,-0.7557"
           style="fill:#ffffff;fill-opacity:1;fill-rule:nonzero;stroke:none"
           id="path258"
           inkscape:connector-curvature="0" /><g
           transform="matrix(0.39986,0,0,0.39986,88.495,452.479)"
           id="g260"><path
             d="m 187.0089,38.016 0,-3.5"
             style="fill:#ffffff;fill-opacity:1;fill-rule:nonzero;stroke:#ffffff;stroke-width:0.80000001;stroke-linecap:butt;stroke-linejoin:round;stroke-miterlimit:10;stroke-dasharray:none;stroke-opacity:1"
             id="path262"
             inkscape:connector-curvature="0" /></g><path
           d="m 161.3638,464.4997 c -0.2039,0 -0.3559,-0.1 -0.4599,-0.2999 -0.1039,-0.1999 -0.1519,-0.4998 -0.1519,-0.8997 0,-0.3998 0.048,-0.6997 0.1519,-0.8997 0.104,-0.1999 0.256,-0.2999 0.4599,-0.2999 0.2039,0 0.3559,0.1 0.4598,0.2999 0.1,0.2 0.152,0.4999 0.152,0.8997 0,0.3999 -0.052,0.6998 -0.152,0.8997 -0.1039,0.1999 -0.2559,0.2999 -0.4598,0.2999 m 0,0.3119 c 0.3239,0 0.5718,-0.132 0.7477,-0.3879 0.172,-0.2599 0.2599,-0.6358 0.2599,-1.1236 0,-0.4918 -0.0879,-0.8677 -0.2599,-1.1236 -0.1759,-0.2559 -0.4238,-0.3839 -0.7477,-0.3839 -0.3279,0 -0.5798,0.128 -0.7518,0.3839 -0.1719,0.2559 -0.2559,0.6318 -0.2559,1.1236 0,0.4878 0.084,0.8637 0.2559,1.1236 0.172,0.2559 0.4239,0.3879 0.7518,0.3879"
           style="fill:#ffffff;fill-opacity:1;fill-rule:nonzero;stroke:none"
           id="path264"
           inkscape:connector-curvature="0" /><path
           d="m 163.0632,462.3404 0.4118,0 0,-0.4958 -0.4118,0 0,0.4958"
           style="fill:#ffffff;fill-opacity:1;fill-rule:nonzero;stroke:none"
           id="path266"
           inkscape:connector-curvature="0" /><path
           d="m 165.4184,464.4157 -0.9957,-1.5554 0.9957,0 0,1.5554 m -0.104,0.3439 0.4958,0 0,-1.8993 0.4159,0 0,-0.3279 -0.4159,0 0,-0.6878 -0.3918,0 0,0.6878 -1.3156,0 0,0.3798 1.2116,1.8474"
           style="fill:#ffffff;fill-opacity:1;fill-rule:nonzero;stroke:none"
           id="path268"
           inkscape:connector-curvature="0" /><g
           transform="matrix(0.39986,0,0,0.39986,88.495,452.479)"
           id="g270"><path
             d="m 243.5663,38.016 0,-3.5"
             style="fill:#ffffff;fill-opacity:1;fill-rule:nonzero;stroke:#ffffff;stroke-width:0.80000001;stroke-linecap:butt;stroke-linejoin:round;stroke-miterlimit:10;stroke-dasharray:none;stroke-opacity:1"
             id="path272"
             inkscape:connector-curvature="0" /></g><path
           d="m 183.9789,464.4997 c -0.204,0 -0.3559,-0.1 -0.4599,-0.2999 -0.1039,-0.1999 -0.1519,-0.4998 -0.1519,-0.8997 0,-0.3998 0.048,-0.6997 0.1519,-0.8997 0.104,-0.1999 0.2559,-0.2999 0.4599,-0.2999 0.2039,0 0.3558,0.1 0.4598,0.2999 0.1,0.2 0.1519,0.4999 0.1519,0.8997 0,0.3999 -0.0519,0.6998 -0.1519,0.8997 -0.104,0.1999 -0.2559,0.2999 -0.4598,0.2999 m 0,0.3119 c 0.3238,0 0.5718,-0.132 0.7477,-0.3879 0.1719,-0.2599 0.2599,-0.6358 0.2599,-1.1236 0,-0.4918 -0.088,-0.8677 -0.2599,-1.1236 -0.1759,-0.2559 -0.4239,-0.3839 -0.7477,-0.3839 -0.3279,0 -0.5798,0.128 -0.7518,0.3839 -0.1719,0.2559 -0.2559,0.6318 -0.2559,1.1236 0,0.4878 0.084,0.8637 0.2559,1.1236 0.172,0.2559 0.4239,0.3879 0.7518,0.3879"
           style="fill:#ffffff;fill-opacity:1;fill-rule:nonzero;stroke:none"
           id="path274"
           inkscape:connector-curvature="0" /><path
           d="m 185.6783,462.3404 0.4118,0 0,-0.4958 -0.4118,0 0,0.4958"
           style="fill:#ffffff;fill-opacity:1;fill-rule:nonzero;stroke:none"
           id="path276"
           inkscape:connector-curvature="0" /><path
           d="m 187.8415,463.4601 c -0.1759,0 -0.3159,-0.064 -0.4199,-0.184 -0.1039,-0.1199 -0.1559,-0.2879 -0.1559,-0.4958 0,-0.2119 0.052,-0.3799 0.1559,-0.4998 0.104,-0.12 0.244,-0.18 0.4199,-0.18 0.1759,0 0.3159,0.06 0.4199,0.18 0.1039,0.1199 0.1559,0.2879 0.1559,0.4998 0,0.2079 -0.052,0.3759 -0.1559,0.4958 -0.104,0.12 -0.244,0.184 -0.4199,0.184 m 0.7837,1.2355 0,-0.3599 c -0.0999,0.048 -0.1999,0.084 -0.2999,0.108 -0.1039,0.024 -0.2039,0.036 -0.2999,0.036 -0.2639,0 -0.4638,-0.088 -0.5998,-0.2639 -0.1359,-0.1759 -0.2159,-0.4439 -0.2319,-0.7957 0.076,0.1119 0.172,0.1999 0.2879,0.2599 0.116,0.06 0.2439,0.0919 0.3839,0.0919 0.2919,0 0.5238,-0.0919 0.6917,-0.2679 0.168,-0.1759 0.256,-0.4198 0.256,-0.7237 0,-0.2999 -0.092,-0.5398 -0.2679,-0.7198 -0.176,-0.1799 -0.4119,-0.2679 -0.7038,-0.2679 -0.3359,0 -0.5958,0.128 -0.7717,0.3839 -0.18,0.2559 -0.2679,0.6318 -0.2679,1.1236 0,0.4599 0.1079,0.8277 0.3278,1.0996 0.216,0.2719 0.5119,0.4119 0.8797,0.4119 0.096,0 0.196,-0.012 0.2999,-0.028 0.1,-0.02 0.204,-0.048 0.3159,-0.088"
           style="fill:#ffffff;fill-opacity:1;fill-rule:nonzero;stroke:none"
           id="path278"
           inkscape:connector-curvature="0" /><g
           transform="matrix(0.39986,0,0,0.39986,88.495,452.479)"
           id="g280"><path
             d="m 300.1238,38.016 0,-3.5"
             style="fill:#ffffff;fill-opacity:1;fill-rule:nonzero;stroke:#ffffff;stroke-width:0.80000001;stroke-linecap:butt;stroke-linejoin:round;stroke-miterlimit:10;stroke-dasharray:none;stroke-opacity:1"
             id="path282"
             inkscape:connector-curvature="0" /></g><path
           d="m 206.5939,464.4997 c -0.2039,0 -0.3559,-0.1 -0.4598,-0.2999 -0.104,-0.1999 -0.152,-0.4998 -0.152,-0.8997 0,-0.3998 0.048,-0.6997 0.152,-0.8997 0.1039,-0.1999 0.2559,-0.2999 0.4598,-0.2999 0.2039,0 0.3559,0.1 0.4599,0.2999 0.0999,0.2 0.1519,0.4999 0.1519,0.8997 0,0.3999 -0.052,0.6998 -0.1519,0.8997 -0.104,0.1999 -0.256,0.2999 -0.4599,0.2999 m 0,0.3119 c 0.3239,0 0.5718,-0.132 0.7478,-0.3879 0.1719,-0.2599 0.2599,-0.6358 0.2599,-1.1236 0,-0.4918 -0.088,-0.8677 -0.2599,-1.1236 -0.176,-0.2559 -0.4239,-0.3839 -0.7478,-0.3839 -0.3279,0 -0.5798,0.128 -0.7517,0.3839 -0.172,0.2559 -0.2559,0.6318 -0.2559,1.1236 0,0.4878 0.0839,0.8637 0.2559,1.1236 0.1719,0.2559 0.4238,0.3879 0.7517,0.3879"
           style="fill:#ffffff;fill-opacity:1;fill-rule:nonzero;stroke:none"
           id="path284"
           inkscape:connector-curvature="0" /><path
           d="m 208.2933,462.3404 0.4119,0 0,-0.4958 -0.4119,0 0,0.4958"
           style="fill:#ffffff;fill-opacity:1;fill-rule:nonzero;stroke:none"
           id="path286"
           inkscape:connector-curvature="0" /><path
           d="m 210.4086,463.2281 c -0.1879,0 -0.3359,-0.0519 -0.4439,-0.1519 -0.1079,-0.1 -0.1599,-0.2359 -0.1599,-0.4119 0,-0.1759 0.052,-0.3159 0.1599,-0.4158 0.108,-0.1 0.256,-0.148 0.4439,-0.148 0.1839,0 0.3319,0.048 0.4398,0.152 0.108,0.0999 0.164,0.2359 0.164,0.4118 0,0.176 -0.056,0.3119 -0.16,0.4119 -0.1079,0.1 -0.2559,0.1519 -0.4438,0.1519 m -0.3959,0.168 c -0.1679,0.04 -0.2999,0.1199 -0.3958,0.2359 -0.096,0.116 -0.14,0.2559 -0.14,0.4238 0,0.232 0.08,0.4159 0.2479,0.5519 0.164,0.1359 0.3919,0.2039 0.6838,0.2039 0.2879,0 0.5158,-0.068 0.6837,-0.2039 0.164,-0.136 0.248,-0.3199 0.248,-0.5519 0,-0.1679 -0.048,-0.3078 -0.144,-0.4238 -0.096,-0.116 -0.2239,-0.1959 -0.3919,-0.2359 0.188,-0.044 0.3359,-0.132 0.4439,-0.2599 0.104,-0.128 0.1599,-0.2879 0.1599,-0.4719 0,-0.2839 -0.0879,-0.4998 -0.2599,-0.6477 -0.1759,-0.152 -0.4198,-0.224 -0.7397,-0.224 -0.3239,0 -0.5718,0.072 -0.7438,0.224 -0.1719,0.1479 -0.2559,0.3638 -0.2559,0.6477 0,0.184 0.052,0.3439 0.16,0.4719 0.1039,0.1279 0.2519,0.2159 0.4438,0.2599 m -0.1439,0.6238 c 0,-0.152 0.044,-0.2719 0.1399,-0.3559 0.096,-0.084 0.2279,-0.124 0.3999,-0.124 0.1679,0 0.2999,0.04 0.3958,0.124 0.096,0.084 0.144,0.2039 0.144,0.3559 0,0.1519 -0.048,0.2679 -0.144,0.3518 -0.0959,0.084 -0.2279,0.128 -0.3958,0.128 -0.172,0 -0.3039,-0.044 -0.3999,-0.128 -0.0959,-0.0839 -0.1399,-0.1999 -0.1399,-0.3518"
           style="fill:#ffffff;fill-opacity:1;fill-rule:nonzero;stroke:none"
           id="path288"
           inkscape:connector-curvature="0" /><g
           transform="matrix(0.39986,0,0,0.39986,88.495,452.479)"
           id="g290"><path
             d="m 356.6813,38.016 0,-3.5"
             style="fill:#ffffff;fill-opacity:1;fill-rule:nonzero;stroke:#ffffff;stroke-width:0.80000001;stroke-linecap:butt;stroke-linejoin:round;stroke-miterlimit:10;stroke-dasharray:none;stroke-opacity:1"
             id="path292"
             inkscape:connector-curvature="0" /></g><path
           d="m 228.4333,462.1765 0.6437,0 0,2.2232 -0.6997,-0.1399 0,0.3598 0.6957,0.14 0.3959,0 0,-2.5831 0.6438,0 0,-0.3319 -1.6794,0 0,0.3319"
           style="fill:#ffffff;fill-opacity:1;fill-rule:nonzero;stroke:none"
           id="path294"
           inkscape:connector-curvature="0" /><path
           d="m 230.9084,462.3404 0.4119,0 0,-0.4958 -0.4119,0 0,0.4958"
           style="fill:#ffffff;fill-opacity:1;fill-rule:nonzero;stroke:none"
           id="path296"
           inkscape:connector-curvature="0" /><path
           d="m 233.0237,464.4997 c -0.204,0 -0.3559,-0.1 -0.4599,-0.2999 -0.1039,-0.1999 -0.1519,-0.4998 -0.1519,-0.8997 0,-0.3998 0.048,-0.6997 0.1519,-0.8997 0.104,-0.1999 0.2559,-0.2999 0.4599,-0.2999 0.2039,0 0.3558,0.1 0.4598,0.2999 0.1,0.2 0.1519,0.4999 0.1519,0.8997 0,0.3999 -0.0519,0.6998 -0.1519,0.8997 -0.104,0.1999 -0.2559,0.2999 -0.4598,0.2999 m 0,0.3119 c 0.3238,0 0.5718,-0.132 0.7477,-0.3879 0.1719,-0.2599 0.2599,-0.6358 0.2599,-1.1236 0,-0.4918 -0.088,-0.8677 -0.2599,-1.1236 -0.1759,-0.2559 -0.4239,-0.3839 -0.7477,-0.3839 -0.3279,0 -0.5798,0.128 -0.7518,0.3839 -0.1719,0.2559 -0.2559,0.6318 -0.2559,1.1236 0,0.4878 0.084,0.8637 0.2559,1.1236 0.172,0.2559 0.4239,0.3879 0.7518,0.3879"
           style="fill:#ffffff;fill-opacity:1;fill-rule:nonzero;stroke:none"
           id="path298"
           inkscape:connector-curvature="0" /><g
           transform="matrix(0.39986,0,0,0.39986,88.495,452.479)"
           id="g300"><path
             d="m 413.2387,38.016 0,-3.5"
             style="fill:#ffffff;fill-opacity:1;fill-rule:nonzero;stroke:#ffffff;stroke-width:0.80000001;stroke-linecap:butt;stroke-linejoin:round;stroke-miterlimit:10;stroke-dasharray:none;stroke-opacity:1"
             id="path302"
             inkscape:connector-curvature="0" /></g><path
           d="m 251.0483,462.1765 0.6438,0 0,2.2232 -0.6998,-0.1399 0,0.3598 0.6958,0.14 0.3959,0 0,-2.5831 0.6437,0 0,-0.3319 -1.6794,0 0,0.3319"
           style="fill:#ffffff;fill-opacity:1;fill-rule:nonzero;stroke:none"
           id="path304"
           inkscape:connector-curvature="0" /><path
           d="m 253.5235,462.3404 0.4118,0 0,-0.4958 -0.4118,0 0,0.4958"
           style="fill:#ffffff;fill-opacity:1;fill-rule:nonzero;stroke:none"
           id="path306"
           inkscape:connector-curvature="0" /><path
           d="m 255.1349,462.1765 1.3755,0 0,-0.3319 -1.8513,0 0,0.3319 c 0.1479,0.152 0.3518,0.3599 0.6118,0.6238 0.2559,0.2599 0.4198,0.4278 0.4878,0.5038 0.1279,0.14 0.2159,0.2599 0.2639,0.3599 0.048,0.096 0.076,0.1959 0.076,0.2919 0,0.1519 -0.056,0.2799 -0.164,0.3759 -0.1079,0.0959 -0.2479,0.1479 -0.4238,0.1479 -0.124,0 -0.2559,-0.024 -0.3919,-0.064 -0.1359,-0.044 -0.2839,-0.1079 -0.4398,-0.1959 l 0,0.3998 c 0.1599,0.064 0.3079,0.112 0.4438,0.144 0.136,0.032 0.2639,0.048 0.3799,0.048 0.2999,0 0.5398,-0.076 0.7197,-0.2279 0.18,-0.152 0.2719,-0.3519 0.2719,-0.6038 0,-0.12 -0.024,-0.2359 -0.068,-0.3399 -0.0439,-0.108 -0.1239,-0.2359 -0.2439,-0.3799 -0.032,-0.04 -0.1359,-0.1479 -0.3119,-0.3279 -0.1759,-0.1799 -0.4198,-0.4318 -0.7357,-0.7557"
           style="fill:#ffffff;fill-opacity:1;fill-rule:nonzero;stroke:none"
           id="path308"
           inkscape:connector-curvature="0" /><path
           d="m 178.9122,457.7693 0,-1.0676 0.6318,0 c 0.2119,0 0.3679,0.044 0.4718,0.1319 0.1,0.088 0.152,0.2199 0.152,0.4039 0,0.1799 -0.052,0.3119 -0.152,0.3998 -0.1039,0.088 -0.2599,0.132 -0.4718,0.132 l -0.6318,0 m 0,1.1996 0,-0.8797 0.5838,0 c 0.1919,0 0.3319,0.036 0.4279,0.1079 0.0959,0.072 0.1439,0.18 0.1439,0.3319 0,0.144 -0.048,0.2559 -0.1439,0.3279 -0.096,0.072 -0.236,0.112 -0.4279,0.112 l -0.5838,0 m -0.3958,0.3239 1.0076,0 c 0.2999,0 0.5318,-0.064 0.6958,-0.188 0.1599,-0.1279 0.2439,-0.3039 0.2439,-0.5318 0,-0.1799 -0.044,-0.3239 -0.128,-0.4278 -0.084,-0.104 -0.2039,-0.172 -0.3639,-0.196 0.192,-0.0439 0.3439,-0.1319 0.4519,-0.2639 0.104,-0.1319 0.1599,-0.2959 0.1599,-0.4918 0,-0.2639 -0.0919,-0.4638 -0.2679,-0.6038 -0.1759,-0.1439 -0.4278,-0.2119 -0.7517,-0.2119 l -1.0476,0 0,2.915"
           style="fill:#ffffff;fill-opacity:1;fill-rule:nonzero;stroke:none"
           id="path310"
           inkscape:connector-curvature="0" /><path
           d="m 181.2434,458.565 0.3599,0 0,-2.1872 -0.3599,0 0,2.1872 m 0,0.8517 0.3599,0 0,-0.4558 -0.3599,0 0,0.4558"
           style="fill:#ffffff;fill-opacity:1;fill-rule:nonzero;stroke:none"
           id="path312"
           inkscape:connector-curvature="0" /><path
           d="m 183.6226,458.2291 c -0.04,0.024 -0.084,0.04 -0.132,0.052 -0.048,0.008 -0.1,0.016 -0.1559,0.016 -0.204,0 -0.3599,-0.068 -0.4679,-0.1999 -0.1119,-0.132 -0.1639,-0.3199 -0.1639,-0.5678 l 0,-1.1516 -0.3599,0 0,2.1872 0.3599,0 0,-0.3399 c 0.072,0.132 0.1719,0.232 0.2919,0.2959 0.1199,0.064 0.2679,0.096 0.4438,0.096 0.024,0 0.052,-0.004 0.084,-0.004 0.028,-0.004 0.06,-0.008 0.1,-0.016 l 0,-0.3679"
           style="fill:#ffffff;fill-opacity:1;fill-rule:nonzero;stroke:none"
           id="path314"
           inkscape:connector-curvature="0" /><path
           d="m 184.3543,459.1848 0,-0.6198 0.7398,0 0,-0.2799 -0.7398,0 0,-1.1876 c 0,-0.1799 0.024,-0.2959 0.072,-0.3438 0.048,-0.052 0.1479,-0.076 0.2999,-0.076 l 0.3679,0 0,-0.2999 -0.3679,0 c -0.2799,0 -0.4719,0.052 -0.5758,0.1559 -0.104,0.104 -0.156,0.2919 -0.156,0.5638 l 0,1.1876 -0.2639,0 0,0.2799 0.2639,0 0,0.6198 0.3599,0"
           style="fill:#ffffff;fill-opacity:1;fill-rule:nonzero;stroke:none"
           id="path316"
           inkscape:connector-curvature="0" /><path
           d="m 187.3853,457.6973 0,-1.3195 -0.3599,0 0,1.3075 c 0,0.208 -0.044,0.3599 -0.124,0.4639 -0.08,0.1039 -0.1999,0.1559 -0.3599,0.1559 -0.1959,0 -0.3478,-0.064 -0.4598,-0.1879 -0.112,-0.124 -0.1679,-0.2919 -0.1679,-0.5038 l 0,-1.2356 -0.3599,0 0,3.0389 0.3599,0 0,-1.1916 c 0.0839,0.128 0.1839,0.228 0.3039,0.2919 0.1159,0.064 0.2519,0.1 0.4038,0.1 0.2479,0 0.4399,-0.08 0.5678,-0.2359 0.128,-0.156 0.196,-0.3839 0.196,-0.6838"
           style="fill:#ffffff;fill-opacity:1;fill-rule:nonzero;stroke:none"
           id="path318"
           inkscape:connector-curvature="0" /><g
           transform="matrix(0.39986,0,0,0.39986,88.495,452.479)"
           id="g320"><path
             d="m 57.6,49.22364 -3.5,0"
             style="fill:#ffffff;fill-opacity:1;fill-rule:nonzero;stroke:#ffffff;stroke-width:0.80000001;stroke-linecap:butt;stroke-linejoin:round;stroke-miterlimit:10;stroke-dasharray:none;stroke-opacity:1"
             id="path322"
             inkscape:connector-curvature="0" /></g><path
           d="m 103.6392,473.2984 c -0.2039,0 -0.3559,-0.0999 -0.4598,-0.2999 -0.104,-0.1999 -0.152,-0.4998 -0.152,-0.8997 0,-0.3998 0.048,-0.6997 0.152,-0.8996 0.1039,-0.2 0.2559,-0.2999 0.4598,-0.2999 0.2039,0 0.3559,0.0999 0.4598,0.2999 0.1,0.1999 0.152,0.4998 0.152,0.8996 0,0.3999 -0.052,0.6998 -0.152,0.8997 -0.1039,0.2 -0.2559,0.2999 -0.4598,0.2999 m 0,0.3119 c 0.3239,0 0.5718,-0.1319 0.7477,-0.3879 0.172,-0.2599 0.2599,-0.6357 0.2599,-1.1236 0,-0.4918 -0.0879,-0.8677 -0.2599,-1.1236 -0.1759,-0.2559 -0.4238,-0.3838 -0.7477,-0.3838 -0.3279,0 -0.5798,0.1279 -0.7517,0.3838 -0.172,0.2559 -0.2559,0.6318 -0.2559,1.1236 0,0.4879 0.0839,0.8637 0.2559,1.1236 0.1719,0.256 0.4238,0.3879 0.7517,0.3879"
           style="fill:#ffffff;fill-opacity:1;fill-rule:nonzero;stroke:none"
           id="path324"
           inkscape:connector-curvature="0" /><path
           d="m 105.3386,471.1392 0.4119,0 0,-0.4959 -0.4119,0 0,0.4959"
           style="fill:#ffffff;fill-opacity:1;fill-rule:nonzero;stroke:none"
           id="path326"
           inkscape:connector-curvature="0" /><path
           d="m 107.4539,473.2984 c -0.204,0 -0.3559,-0.0999 -0.4599,-0.2999 -0.1039,-0.1999 -0.1519,-0.4998 -0.1519,-0.8997 0,-0.3998 0.048,-0.6997 0.1519,-0.8996 0.104,-0.2 0.2559,-0.2999 0.4599,-0.2999 0.2039,0 0.3558,0.0999 0.4598,0.2999 0.1,0.1999 0.1519,0.4998 0.1519,0.8996 0,0.3999 -0.0519,0.6998 -0.1519,0.8997 -0.104,0.2 -0.2559,0.2999 -0.4598,0.2999 m 0,0.3119 c 0.3238,0 0.5718,-0.1319 0.7477,-0.3879 0.1719,-0.2599 0.2599,-0.6357 0.2599,-1.1236 0,-0.4918 -0.088,-0.8677 -0.2599,-1.1236 -0.1759,-0.2559 -0.4239,-0.3838 -0.7477,-0.3838 -0.3279,0 -0.5798,0.1279 -0.7518,0.3838 -0.1719,0.2559 -0.2559,0.6318 -0.2559,1.1236 0,0.4879 0.084,0.8637 0.2559,1.1236 0.172,0.256 0.4239,0.3879 0.7518,0.3879"
           style="fill:#ffffff;fill-opacity:1;fill-rule:nonzero;stroke:none"
           id="path328"
           inkscape:connector-curvature="0" /><g
           transform="matrix(0.39986,0,0,0.39986,88.495,452.479)"
           id="g330"><path
             d="m 57.6,88.1262 -3.5,0"
             style="fill:#ffffff;fill-opacity:1;fill-rule:nonzero;stroke:#ffffff;stroke-width:0.80000001;stroke-linecap:butt;stroke-linejoin:round;stroke-miterlimit:10;stroke-dasharray:none;stroke-opacity:1"
             id="path332"
             inkscape:connector-curvature="0" /></g><path
           d="m 103.6392,488.854 c -0.2039,0 -0.3559,-0.1 -0.4598,-0.2999 -0.104,-0.1999 -0.152,-0.4998 -0.152,-0.8997 0,-0.3998 0.048,-0.6997 0.152,-0.8997 0.1039,-0.1999 0.2559,-0.2999 0.4598,-0.2999 0.2039,0 0.3559,0.1 0.4598,0.2999 0.1,0.2 0.152,0.4999 0.152,0.8997 0,0.3999 -0.052,0.6998 -0.152,0.8997 -0.1039,0.1999 -0.2559,0.2999 -0.4598,0.2999 m 0,0.3119 c 0.3239,0 0.5718,-0.132 0.7477,-0.3879 0.172,-0.2599 0.2599,-0.6358 0.2599,-1.1236 0,-0.4918 -0.0879,-0.8677 -0.2599,-1.1236 -0.1759,-0.2559 -0.4238,-0.3839 -0.7477,-0.3839 -0.3279,0 -0.5798,0.128 -0.7517,0.3839 -0.172,0.2559 -0.2559,0.6318 -0.2559,1.1236 0,0.4878 0.0839,0.8637 0.2559,1.1236 0.1719,0.2559 0.4238,0.3879 0.7517,0.3879"
           style="fill:#ffffff;fill-opacity:1;fill-rule:nonzero;stroke:none"
           id="path334"
           inkscape:connector-curvature="0" /><path
           d="m 105.3386,486.6947 0.4119,0 0,-0.4958 -0.4119,0 0,0.4958"
           style="fill:#ffffff;fill-opacity:1;fill-rule:nonzero;stroke:none"
           id="path336"
           inkscape:connector-curvature="0" /><path
           d="m 106.95,486.5308 1.3756,0 0,-0.3319 -1.8514,0 0,0.3319 c 0.148,0.152 0.3519,0.3599 0.6118,0.6238 0.2559,0.2599 0.4198,0.4278 0.4878,0.5038 0.128,0.14 0.2159,0.2599 0.2639,0.3599 0.048,0.096 0.076,0.1959 0.076,0.2919 0,0.1519 -0.056,0.2799 -0.1639,0.3759 -0.108,0.0959 -0.248,0.1479 -0.4239,0.1479 -0.1239,0 -0.2559,-0.024 -0.3919,-0.064 -0.1359,-0.044 -0.2839,-0.1079 -0.4398,-0.1959 l 0,0.3999 c 0.1599,0.0639 0.3079,0.1119 0.4438,0.1439 0.136,0.032 0.264,0.048 0.3799,0.048 0.2999,0 0.5398,-0.076 0.7198,-0.2279 0.1799,-0.152 0.2719,-0.3519 0.2719,-0.6038 0,-0.12 -0.024,-0.2359 -0.068,-0.3399 -0.044,-0.108 -0.124,-0.2359 -0.2439,-0.3799 -0.032,-0.04 -0.136,-0.1479 -0.3119,-0.3279 -0.176,-0.1799 -0.4199,-0.4318 -0.7358,-0.7557"
           style="fill:#ffffff;fill-opacity:1;fill-rule:nonzero;stroke:none"
           id="path338"
           inkscape:connector-curvature="0" /><g
           transform="matrix(0.39986,0,0,0.39986,88.495,452.479)"
           id="g340"><path
             d="m 57.6,127.0287 -3.5,0"
             style="fill:#ffffff;fill-opacity:1;fill-rule:nonzero;stroke:#ffffff;stroke-width:0.80000001;stroke-linecap:butt;stroke-linejoin:round;stroke-miterlimit:10;stroke-dasharray:none;stroke-opacity:1"
             id="path342"
             inkscape:connector-curvature="0" /></g><path
           d="m 103.6392,504.4096 c -0.2039,0 -0.3559,-0.1 -0.4598,-0.2999 -0.104,-0.2 -0.152,-0.4999 -0.152,-0.8997 0,-0.3999 0.048,-0.6998 0.152,-0.8997 0.1039,-0.1999 0.2559,-0.2999 0.4598,-0.2999 0.2039,0 0.3559,0.1 0.4598,0.2999 0.1,0.1999 0.152,0.4998 0.152,0.8997 0,0.3998 -0.052,0.6997 -0.152,0.8997 -0.1039,0.1999 -0.2559,0.2999 -0.4598,0.2999 m 0,0.3119 c 0.3239,0 0.5718,-0.132 0.7477,-0.3879 0.172,-0.2599 0.2599,-0.6358 0.2599,-1.1236 0,-0.4918 -0.0879,-0.8677 -0.2599,-1.1236 -0.1759,-0.2559 -0.4238,-0.3839 -0.7477,-0.3839 -0.3279,0 -0.5798,0.128 -0.7517,0.3839 -0.172,0.2559 -0.2559,0.6318 -0.2559,1.1236 0,0.4878 0.0839,0.8637 0.2559,1.1236 0.1719,0.2559 0.4238,0.3879 0.7517,0.3879"
           style="fill:#ffffff;fill-opacity:1;fill-rule:nonzero;stroke:none"
           id="path344"
           inkscape:connector-curvature="0" /><path
           d="m 105.3386,502.2503 0.4119,0 0,-0.4958 -0.4119,0 0,0.4958"
           style="fill:#ffffff;fill-opacity:1;fill-rule:nonzero;stroke:none"
           id="path346"
           inkscape:connector-curvature="0" /><path
           d="m 107.6938,504.3256 -0.9957,-1.5555 0.9957,0 0,1.5555 m -0.104,0.3439 0.4958,0 0,-1.8994 0.4159,0 0,-0.3278 -0.4159,0 0,-0.6878 -0.3918,0 0,0.6878 -1.3156,0 0,0.3798 1.2116,1.8474"
           style="fill:#ffffff;fill-opacity:1;fill-rule:nonzero;stroke:none"
           id="path348"
           inkscape:connector-curvature="0" /><g
           transform="matrix(0.39986,0,0,0.39986,88.495,452.479)"
           id="g350"><path
             d="m 57.6,165.9313 -3.5,0"
             style="fill:#ffffff;fill-opacity:1;fill-rule:nonzero;stroke:#ffffff;stroke-width:0.80000001;stroke-linecap:butt;stroke-linejoin:round;stroke-miterlimit:10;stroke-dasharray:none;stroke-opacity:1"
             id="path352"
             inkscape:connector-curvature="0" /></g><path
           d="m 103.6392,519.9651 c -0.2039,0 -0.3559,-0.0999 -0.4598,-0.2999 -0.104,-0.1999 -0.152,-0.4998 -0.152,-0.8996 0,-0.3999 0.048,-0.6998 0.152,-0.8997 0.1039,-0.2 0.2559,-0.2999 0.4598,-0.2999 0.2039,0 0.3559,0.0999 0.4598,0.2999 0.1,0.1999 0.152,0.4998 0.152,0.8997 0,0.3998 -0.052,0.6997 -0.152,0.8996 -0.1039,0.2 -0.2559,0.2999 -0.4598,0.2999 m 0,0.3119 c 0.3239,0 0.5718,-0.1319 0.7477,-0.3878 0.172,-0.2599 0.2599,-0.6358 0.2599,-1.1236 0,-0.4919 -0.0879,-0.8677 -0.2599,-1.1236 -0.1759,-0.256 -0.4238,-0.3839 -0.7477,-0.3839 -0.3279,0 -0.5798,0.1279 -0.7517,0.3839 -0.172,0.2559 -0.2559,0.6317 -0.2559,1.1236 0,0.4878 0.0839,0.8637 0.2559,1.1236 0.1719,0.2559 0.4238,0.3878 0.7517,0.3878"
           style="fill:#ffffff;fill-opacity:1;fill-rule:nonzero;stroke:none"
           id="path354"
           inkscape:connector-curvature="0" /><path
           d="m 105.3386,517.8059 0.4119,0 0,-0.4958 -0.4119,0 0,0.4958"
           style="fill:#ffffff;fill-opacity:1;fill-rule:nonzero;stroke:none"
           id="path356"
           inkscape:connector-curvature="0" /><path
           d="m 107.5018,518.9255 c -0.1759,0 -0.3158,-0.064 -0.4198,-0.1839 -0.104,-0.12 -0.156,-0.2879 -0.156,-0.4959 0,-0.2119 0.052,-0.3798 0.156,-0.4998 0.104,-0.1199 0.2439,-0.1799 0.4198,-0.1799 0.176,0 0.3159,0.06 0.4199,0.1799 0.104,0.12 0.1559,0.2879 0.1559,0.4998 0,0.208 -0.0519,0.3759 -0.1559,0.4959 -0.104,0.1199 -0.2439,0.1839 -0.4199,0.1839 m 0.7838,1.2356 0,-0.3599 c -0.1,0.048 -0.2,0.084 -0.2999,0.108 -0.104,0.024 -0.204,0.036 -0.2999,0.036 -0.2639,0 -0.4639,-0.088 -0.5998,-0.264 -0.136,-0.1759 -0.2159,-0.4438 -0.2319,-0.7957 0.0759,0.112 0.1719,0.2 0.2879,0.2599 0.1159,0.06 0.2439,0.092 0.3838,0.092 0.2919,0 0.5239,-0.092 0.6918,-0.2679 0.1679,-0.1759 0.2559,-0.4199 0.2559,-0.7238 0,-0.2998 -0.092,-0.5398 -0.2679,-0.7197 -0.1759,-0.1799 -0.4119,-0.2679 -0.7038,-0.2679 -0.3358,0 -0.5957,0.1279 -0.7717,0.3839 -0.1799,0.2559 -0.2679,0.6317 -0.2679,1.1236 0,0.4598 0.108,0.8277 0.3279,1.0996 0.2159,0.2719 0.5118,0.4118 0.8797,0.4118 0.096,0 0.1959,-0.012 0.2999,-0.028 0.0999,-0.0199 0.2039,-0.0479 0.3159,-0.0879"
           style="fill:#ffffff;fill-opacity:1;fill-rule:nonzero;stroke:none"
           id="path358"
           inkscape:connector-curvature="0" /><g
           transform="matrix(0.39986,0,0,0.39986,88.495,452.479)"
           id="g360"><path
             d="m 57.6,204.8339 -3.5,0"
             style="fill:#ffffff;fill-opacity:1;fill-rule:nonzero;stroke:#ffffff;stroke-width:0.80000001;stroke-linecap:butt;stroke-linejoin:round;stroke-miterlimit:10;stroke-dasharray:none;stroke-opacity:1"
             id="path362"
             inkscape:connector-curvature="0" /></g><path
           d="m 103.6392,535.5207 c -0.2039,0 -0.3559,-0.0999 -0.4598,-0.2999 -0.104,-0.1999 -0.152,-0.4998 -0.152,-0.8997 0,-0.3998 0.048,-0.6997 0.152,-0.8996 0.1039,-0.2 0.2559,-0.2999 0.4598,-0.2999 0.2039,0 0.3559,0.0999 0.4598,0.2999 0.1,0.1999 0.152,0.4998 0.152,0.8996 0,0.3999 -0.052,0.6998 -0.152,0.8997 -0.1039,0.2 -0.2559,0.2999 -0.4598,0.2999 m 0,0.3119 c 0.3239,0 0.5718,-0.1319 0.7477,-0.3879 0.172,-0.2599 0.2599,-0.6357 0.2599,-1.1236 0,-0.4918 -0.0879,-0.8677 -0.2599,-1.1236 -0.1759,-0.2559 -0.4238,-0.3838 -0.7477,-0.3838 -0.3279,0 -0.5798,0.1279 -0.7517,0.3838 -0.172,0.2559 -0.2559,0.6318 -0.2559,1.1236 0,0.4879 0.0839,0.8637 0.2559,1.1236 0.1719,0.256 0.4238,0.3879 0.7517,0.3879"
           style="fill:#ffffff;fill-opacity:1;fill-rule:nonzero;stroke:none"
           id="path364"
           inkscape:connector-curvature="0" /><path
           d="m 105.3386,533.3615 0.4119,0 0,-0.4959 -0.4119,0 0,0.4959"
           style="fill:#ffffff;fill-opacity:1;fill-rule:nonzero;stroke:none"
           id="path366"
           inkscape:connector-curvature="0" /><path
           d="m 107.4539,534.2492 c -0.188,0 -0.3359,-0.052 -0.4439,-0.152 -0.1079,-0.0999 -0.1599,-0.2359 -0.1599,-0.4118 0,-0.176 0.052,-0.3159 0.1599,-0.4159 0.108,-0.1 0.2559,-0.1479 0.4439,-0.1479 0.1839,0 0.3318,0.0479 0.4398,0.1519 0.108,0.1 0.164,0.2359 0.164,0.4119 0,0.1759 -0.056,0.3119 -0.16,0.4118 -0.108,0.1 -0.2559,0.152 -0.4438,0.152 m -0.3959,0.1679 c -0.1679,0.04 -0.2999,0.12 -0.3959,0.2359 -0.0959,0.116 -0.1399,0.2559 -0.1399,0.4239 0,0.2319 0.08,0.4158 0.2479,0.5518 0.1639,0.1359 0.3919,0.2039 0.6838,0.2039 0.2879,0 0.5158,-0.068 0.6837,-0.2039 0.164,-0.136 0.2479,-0.3199 0.2479,-0.5518 0,-0.168 -0.0479,-0.3079 -0.1439,-0.4239 -0.096,-0.1159 -0.2239,-0.1959 -0.3919,-0.2359 0.188,-0.044 0.3359,-0.1319 0.4439,-0.2599 0.1039,-0.128 0.1599,-0.2879 0.1599,-0.4718 0,-0.2839 -0.088,-0.4999 -0.2599,-0.6478 -0.1759,-0.152 -0.4198,-0.2239 -0.7397,-0.2239 -0.3239,0 -0.5718,0.0719 -0.7438,0.2239 -0.1719,0.1479 -0.2559,0.3639 -0.2559,0.6478 0,0.1839 0.052,0.3438 0.16,0.4718 0.1039,0.128 0.2519,0.2159 0.4438,0.2599 m -0.1439,0.6238 c 0,-0.152 0.0439,-0.2719 0.1399,-0.3559 0.096,-0.084 0.2279,-0.1239 0.3999,-0.1239 0.1679,0 0.2999,0.0399 0.3958,0.1239 0.096,0.084 0.144,0.2039 0.144,0.3559 0,0.1519 -0.048,0.2679 -0.144,0.3519 -0.0959,0.0839 -0.2279,0.1279 -0.3958,0.1279 -0.172,0 -0.3039,-0.044 -0.3999,-0.1279 -0.096,-0.084 -0.1399,-0.2 -0.1399,-0.3519"
           style="fill:#ffffff;fill-opacity:1;fill-rule:nonzero;stroke:none"
           id="path368"
           inkscape:connector-curvature="0" /><g
           transform="matrix(0.39986,0,0,0.39986,88.495,452.479)"
           id="g370"><path
             d="m 57.6,243.7364 -3.5,0"
             style="fill:#ffffff;fill-opacity:1;fill-rule:nonzero;stroke:#ffffff;stroke-width:0.80000001;stroke-linecap:butt;stroke-linejoin:round;stroke-miterlimit:10;stroke-dasharray:none;stroke-opacity:1"
             id="path372"
             inkscape:connector-curvature="0" /></g><path
           d="m 102.8635,548.7531 0.6437,0 0,2.2232 -0.6997,-0.1399 0,0.3599 0.6957,0.1399 0.3959,0 0,-2.5831 0.6438,0 0,-0.3319 -1.6794,0 0,0.3319"
           style="fill:#ffffff;fill-opacity:1;fill-rule:nonzero;stroke:none"
           id="path374"
           inkscape:connector-curvature="0" /><path
           d="m 105.3386,548.9171 0.4119,0 0,-0.4959 -0.4119,0 0,0.4959"
           style="fill:#ffffff;fill-opacity:1;fill-rule:nonzero;stroke:none"
           id="path376"
           inkscape:connector-curvature="0" /><path
           d="m 107.4539,551.0763 c -0.204,0 -0.3559,-0.1 -0.4599,-0.2999 -0.1039,-0.1999 -0.1519,-0.4998 -0.1519,-0.8997 0,-0.3998 0.048,-0.6997 0.1519,-0.8997 0.104,-0.1999 0.2559,-0.2999 0.4599,-0.2999 0.2039,0 0.3558,0.1 0.4598,0.2999 0.1,0.2 0.1519,0.4999 0.1519,0.8997 0,0.3999 -0.0519,0.6998 -0.1519,0.8997 -0.104,0.1999 -0.2559,0.2999 -0.4598,0.2999 m 0,0.3119 c 0.3238,0 0.5718,-0.132 0.7477,-0.3879 0.1719,-0.2599 0.2599,-0.6358 0.2599,-1.1236 0,-0.4918 -0.088,-0.8677 -0.2599,-1.1236 -0.1759,-0.2559 -0.4239,-0.3839 -0.7477,-0.3839 -0.3279,0 -0.5798,0.128 -0.7518,0.3839 -0.1719,0.2559 -0.2559,0.6318 -0.2559,1.1236 0,0.4878 0.084,0.8637 0.2559,1.1236 0.172,0.2559 0.4239,0.3879 0.7518,0.3879"
           style="fill:#ffffff;fill-opacity:1;fill-rule:nonzero;stroke:none"
           id="path378"
           inkscape:connector-curvature="0" /><g
           transform="matrix(0.39986,0,0,0.39986,88.495,452.479)"
           id="g380"><path
             d="m 57.6,282.639 -3.5,0"
             style="fill:#ffffff;fill-opacity:1;fill-rule:nonzero;stroke:#ffffff;stroke-width:0.80000001;stroke-linecap:butt;stroke-linejoin:round;stroke-miterlimit:10;stroke-dasharray:none;stroke-opacity:1"
             id="path382"
             inkscape:connector-curvature="0" /></g><path
           d="m 102.8635,564.3087 0.6437,0 0,2.2232 -0.6997,-0.1399 0,0.3598 0.6957,0.14 0.3959,0 0,-2.5831 0.6438,0 0,-0.3319 -1.6794,0 0,0.3319"
           style="fill:#ffffff;fill-opacity:1;fill-rule:nonzero;stroke:none"
           id="path384"
           inkscape:connector-curvature="0" /><path
           d="m 105.3386,564.4726 0.4119,0 0,-0.4958 -0.4119,0 0,0.4958"
           style="fill:#ffffff;fill-opacity:1;fill-rule:nonzero;stroke:none"
           id="path386"
           inkscape:connector-curvature="0" /><path
           d="m 106.95,564.3087 1.3756,0 0,-0.3319 -1.8514,0 0,0.3319 c 0.148,0.1519 0.3519,0.3599 0.6118,0.6238 0.2559,0.2599 0.4198,0.4278 0.4878,0.5038 0.128,0.1399 0.2159,0.2599 0.2639,0.3599 0.048,0.0959 0.076,0.1959 0.076,0.2919 0,0.1519 -0.056,0.2799 -0.1639,0.3758 -0.108,0.096 -0.248,0.148 -0.4239,0.148 -0.1239,0 -0.2559,-0.024 -0.3919,-0.064 -0.1359,-0.044 -0.2839,-0.108 -0.4398,-0.1959 l 0,0.3998 c 0.1599,0.064 0.3079,0.112 0.4438,0.144 0.136,0.032 0.264,0.048 0.3799,0.048 0.2999,0 0.5398,-0.076 0.7198,-0.228 0.1799,-0.1519 0.2719,-0.3518 0.2719,-0.6037 0,-0.12 -0.024,-0.236 -0.068,-0.3399 -0.044,-0.108 -0.124,-0.2359 -0.2439,-0.3799 -0.032,-0.04 -0.136,-0.1479 -0.3119,-0.3279 -0.176,-0.1799 -0.4199,-0.4318 -0.7358,-0.7557"
           style="fill:#ffffff;fill-opacity:1;fill-rule:nonzero;stroke:none"
           id="path388"
           inkscape:connector-curvature="0" /><path
           d="m 97.34615,515.6237 2.26721,0 0,0.4758 c 0,0.3999 -0.08797,0.6958 -0.27191,0.8837 -0.18393,0.184 -0.47183,0.2799 -0.8637,0.2799 -0.39186,0 -0.67576,-0.0959 -0.85969,-0.2799 -0.17994,-0.1879 -0.27191,-0.4838 -0.27191,-0.8837 l 0,-0.4758 m -0.32389,-0.3959 0,0.8117 c 0,0.5638 0.11996,0.9797 0.35188,1.2436 0.23592,0.2639 0.60379,0.3959 1.10361,0.3959 0.50383,0 0.8717,-0.136 1.10762,-0.3999 0.23591,-0.2639 0.35187,-0.6797 0.35187,-1.2396 l 0,-0.8117 -2.91498,0"
           style="fill:#ffffff;fill-opacity:1;fill-rule:nonzero;stroke:none"
           id="path390"
           inkscape:connector-curvature="0" /><path
           d="m 98.75366,520.1621 0.17594,0 0,-1.6514 c 0.24791,0.016 0.43984,0.088 0.5678,0.2239 0.12795,0.132 0.19193,0.3159 0.19193,0.5558 0,0.136 -0.01599,0.2719 -0.04798,0.3999 -0.03199,0.1279 -0.08397,0.2599 -0.15595,0.3878 l 0.33988,0 c 0.05598,-0.1279 0.09997,-0.2599 0.12396,-0.3958 0.02399,-0.136 0.03999,-0.2759 0.03999,-0.4119 0,-0.3519 -0.09997,-0.6278 -0.2999,-0.8317 -0.19993,-0.2039 -0.47583,-0.3039 -0.82371,-0.3039 -0.35588,0 -0.63978,0.096 -0.8517,0.2879 -0.20793,0.1919 -0.31589,0.4559 -0.31589,0.7837 0,0.2959 0.09596,0.5279 0.2839,0.6998 0.19193,0.1679 0.44784,0.2559 0.77173,0.2559 m -0.10397,-0.3599 c -0.19593,-0.004 -0.35187,-0.06 -0.47183,-0.1639 -0.11596,-0.108 -0.17594,-0.2519 -0.17594,-0.4279 0,-0.1999 0.05998,-0.3598 0.17194,-0.4798 0.11196,-0.12 0.27191,-0.1919 0.47583,-0.2079 l 0,1.2795"
           style="fill:#ffffff;fill-opacity:1;fill-rule:nonzero;stroke:none"
           id="path392"
           inkscape:connector-curvature="0" /><path
           d="m 98.83763,521.7455 c 0,-0.2918 0.03599,-0.4918 0.09996,-0.6037 0.06798,-0.112 0.17994,-0.168 0.33988,-0.168 0.12796,0 0.23192,0.04 0.3039,0.124 0.07597,0.0839 0.11196,0.1999 0.11196,0.3439 0,0.1999 -0.06798,0.3598 -0.21193,0.4798 -0.13995,0.1199 -0.32788,0.1799 -0.5638,0.1799 l -0.07997,0 0,-0.3559 m -0.14795,0.7158 1.24756,0 0,-0.3599 -0.33188,0 c 0.13595,-0.0839 0.23192,-0.1879 0.2919,-0.3079 0.05998,-0.1199 0.09197,-0.2719 0.09197,-0.4478 0,-0.2239 -0.05998,-0.4039 -0.18394,-0.5358 -0.12396,-0.132 -0.2919,-0.196 -0.50382,-0.196 -0.24392,0 -0.42785,0.08 -0.55581,0.248 -0.12396,0.1639 -0.18793,0.4078 -0.18793,0.7357 l 0,0.5038 -0.03599,0 c -0.16394,0 -0.2919,-0.056 -0.38387,-0.1639 -0.08797,-0.108 -0.13595,-0.2599 -0.13595,-0.4559 0,-0.1279 0.016,-0.2479 0.04798,-0.3678 0.03199,-0.12 0.07598,-0.2319 0.13196,-0.3399 l -0.33189,0 c -0.04798,0.1279 -0.08796,0.2559 -0.11196,0.3799 -0.02399,0.1239 -0.03998,0.2439 -0.03998,0.3638 0,0.3159 0.08397,0.5518 0.24791,0.7078 0.16394,0.1559 0.41186,0.2359 0.74374,0.2359"
           style="fill:#ffffff;fill-opacity:1;fill-rule:nonzero;stroke:none"
           id="path394"
           inkscape:connector-curvature="0" /><path
           d="m 97.13023,523.5569 0.61978,0 0,0.7398 0.2799,0 0,-0.7398 1.18759,0 c 0.17993,0 0.29589,0.024 0.34388,0.072 0.05198,0.048 0.07597,0.1479 0.07597,0.2999 l 0,0.3679 0.29989,0 0,-0.3679 c 0,-0.2799 -0.05198,-0.4719 -0.15594,-0.5758 -0.10397,-0.104 -0.2919,-0.156 -0.5638,-0.156 l -1.18759,0 0,-0.2639 -0.2799,0 0,0.2639 -0.61978,0 0,0.3599"
           style="fill:#ffffff;fill-opacity:1;fill-rule:nonzero;stroke:none"
           id="path396"
           inkscape:connector-curvature="0" /><path
           d="m 98.61771,526.5879 1.31953,0 0,-0.3599 -1.30754,0 c -0.20793,0 -0.35987,-0.044 -0.46384,-0.124 -0.10396,-0.0799 -0.15594,-0.1999 -0.15594,-0.3599 0,-0.1959 0.06398,-0.3478 0.18793,-0.4598 0.12396,-0.112 0.2919,-0.1679 0.50383,-0.1679 l 1.23556,0 0,-0.3599 -3.03893,0 0,0.3599 1.19158,0 c -0.12795,0.0839 -0.22792,0.1839 -0.2919,0.3039 -0.06397,0.1159 -0.09996,0.2519 -0.09996,0.4038 0,0.2479 0.07997,0.4399 0.23592,0.5678 0.15594,0.128 0.38386,0.196 0.68376,0.196"
           style="fill:#ffffff;fill-opacity:1;fill-rule:nonzero;stroke:none"
           id="path398"
           inkscape:connector-curvature="0" /></g></g><g
       transform="matrix(0.39986,0,0,0.39986,88.495,452.479)"
       id="g404"><path
         d="M 57.6,38.016 414.72,283.6578"
         style="fill:none;stroke:#ffffff;stroke-width:1.5;stroke-linecap:square;stroke-linejoin:round;stroke-miterlimit:10;stroke-dasharray:none;stroke-opacity:0.6"
         id="path406"
         inkscape:connector-curvature="0" /></g><g
       transform="matrix(0.39986,0,0,0.39986,88.495,452.479)"
       id="g408"><path
         d="m 57.6,283.6578 357.12,0"
         style="fill:none;stroke:#ffffff;stroke-width:1;stroke-linecap:square;stroke-linejoin:round;stroke-miterlimit:10;stroke-dasharray:none;stroke-opacity:0.6"
         id="path410"
         inkscape:connector-curvature="0" /></g><g
       transform="matrix(0.39986,0,0,0.39986,88.495,452.479)"
       id="g412"><path
         d="m 130.4514,97.85183 0,-9.72563"
         style="fill:none;stroke:#ff0000;stroke-width:1.5;stroke-linecap:butt;stroke-linejoin:round;stroke-miterlimit:10;stroke-dasharray:5.55, 2.4;stroke-dashoffset:0;stroke-opacity:0.3"
         id="path414"
         inkscape:connector-curvature="0" /></g><g
       transform="matrix(0.39986,0,0,0.39986,88.495,452.479)"
       id="g416"><path
         d="m 130.4514,97.85183 14.1394,0"
         style="fill:none;stroke:#ff0000;stroke-width:1.5;stroke-linecap:butt;stroke-linejoin:round;stroke-miterlimit:10;stroke-dasharray:5.55, 2.4;stroke-dashoffset:0;stroke-opacity:0.3"
         id="path418"
         inkscape:connector-curvature="0" /></g><g
       transform="matrix(0.39986,0,0,0.39986,88.495,452.479)"
       id="g420"><path
         d="m 90.52848,88.1262 0,-27.46063"
         style="fill:none;stroke:#ff0000;stroke-width:1.5;stroke-linecap:butt;stroke-linejoin:round;stroke-miterlimit:10;stroke-dasharray:5.55, 2.4;stroke-dashoffset:0;stroke-opacity:0.3"
         id="path422"
         inkscape:connector-curvature="0" /></g><g
       transform="matrix(0.39986,0,0,0.39986,88.495,452.479)"
       id="g424"><path
         d="m 90.52848,88.1262 39.92292,0"
         style="fill:none;stroke:#ff0000;stroke-width:1.5;stroke-linecap:butt;stroke-linejoin:round;stroke-miterlimit:10;stroke-dasharray:5.55, 2.4;stroke-dashoffset:0;stroke-opacity:0.3"
         id="path426"
         inkscape:connector-curvature="0" /></g><g
       transform="matrix(0.39986,0,0,0.39986,88.495,452.479)"
       id="g428"><path
         d="m 168.1564,263.1877 0,-149.1265"
         style="fill:none;stroke:#ff0000;stroke-width:1.5;stroke-linecap:butt;stroke-linejoin:round;stroke-miterlimit:10;stroke-dasharray:5.55, 2.4;stroke-dashoffset:0;stroke-opacity:0.3"
         id="path430"
         inkscape:connector-curvature="0" /></g><g
       transform="matrix(0.39986,0,0,0.39986,88.495,452.479)"
       id="g432"><path
         d="m 168.1564,263.1877 216.8036,0"
         style="fill:none;stroke:#ff0000;stroke-width:1.5;stroke-linecap:butt;stroke-linejoin:round;stroke-miterlimit:10;stroke-dasharray:5.55, 2.4;stroke-dashoffset:0;stroke-opacity:0.3"
         id="path434"
         inkscape:connector-curvature="0" /></g><g
       transform="matrix(0.39986,0,0,0.39986,88.495,452.479)"
       id="g436"><path
         d="m 97.45955,68.67492 0,-3.24188"
         style="fill:none;stroke:#ff0000;stroke-width:1.5;stroke-linecap:butt;stroke-linejoin:round;stroke-miterlimit:10;stroke-dasharray:5.55, 2.4;stroke-dashoffset:0;stroke-opacity:0.3"
         id="path438"
         inkscape:connector-curvature="0" /></g><g
       transform="matrix(0.39986,0,0,0.39986,88.495,452.479)"
       id="g440"><path
         d="m 97.45955,68.67492 4.71315,0"
         style="fill:none;stroke:#ff0000;stroke-width:1.5;stroke-linecap:butt;stroke-linejoin:round;stroke-miterlimit:10;stroke-dasharray:5.55, 2.4;stroke-dashoffset:0;stroke-opacity:0.3"
         id="path442"
         inkscape:connector-curvature="0" /></g><g
       transform="matrix(0.39986,0,0,0.39986,88.495,452.479)"
       id="g444"><path
         d="m 87.36,59.46115 0,-0.975"
         style="fill:none;stroke:#ff0000;stroke-width:1.5;stroke-linecap:butt;stroke-linejoin:round;stroke-miterlimit:10;stroke-dasharray:5.55, 2.4;stroke-dashoffset:0;stroke-opacity:0.3"
         id="path446"
         inkscape:connector-curvature="0" /></g><g
       transform="matrix(0.39986,0,0,0.39986,88.495,452.479)"
       id="g448"><path
         d="m 87.36,59.46115 1.41748,0"
         style="fill:none;stroke:#ff0000;stroke-width:1.5;stroke-linecap:butt;stroke-linejoin:round;stroke-miterlimit:10;stroke-dasharray:5.55, 2.4;stroke-dashoffset:0;stroke-opacity:0.3"
         id="path450"
         inkscape:connector-curvature="0" /></g><g
       transform="matrix(0.39986,0,0,0.39986,88.495,452.479)"
       id="g452"><path
         d="m 144.5908,114.0612 0,-16.20937"
         style="fill:none;stroke:#ff0000;stroke-width:1.5;stroke-linecap:butt;stroke-linejoin:round;stroke-miterlimit:10;stroke-dasharray:5.55, 2.4;stroke-dashoffset:0;stroke-opacity:0.3"
         id="path454"
         inkscape:connector-curvature="0" /></g><g
       transform="matrix(0.39986,0,0,0.39986,88.495,452.479)"
       id="g456"><path
         d="m 144.5908,114.0612 23.5656,0"
         style="fill:none;stroke:#ff0000;stroke-width:1.5;stroke-linecap:butt;stroke-linejoin:round;stroke-miterlimit:10;stroke-dasharray:5.55, 2.4;stroke-dashoffset:0;stroke-opacity:0.3"
         id="path458"
         inkscape:connector-curvature="0" /></g><g
       transform="matrix(0.39986,0,0,0.39986,88.495,452.479)"
       id="g460"><path
         d="m 92.74642,64.18616 0,-1.995"
         style="fill:none;stroke:#ff0000;stroke-width:1.5;stroke-linecap:butt;stroke-linejoin:round;stroke-miterlimit:10;stroke-dasharray:5.55, 2.4;stroke-dashoffset:0;stroke-opacity:0.3"
         id="path462"
         inkscape:connector-curvature="0" /></g><g
       transform="matrix(0.39986,0,0,0.39986,88.495,452.479)"
       id="g464"><path
         d="m 92.74642,64.18616 2.90039,0"
         style="fill:none;stroke:#ff0000;stroke-width:1.5;stroke-linecap:butt;stroke-linejoin:round;stroke-miterlimit:10;stroke-dasharray:5.55, 2.4;stroke-dashoffset:0;stroke-opacity:0.3"
         id="path466"
         inkscape:connector-curvature="0" /></g><g
       transform="matrix(0.39986,0,0,0.39986,88.495,452.479)"
       id="g468"><path
         d="m 109.2424,81.64244 0,-8.1047"
         style="fill:none;stroke:#ff0000;stroke-width:1.5;stroke-linecap:butt;stroke-linejoin:round;stroke-miterlimit:10;stroke-dasharray:5.55, 2.4;stroke-dashoffset:0;stroke-opacity:0.3"
         id="path470"
         inkscape:connector-curvature="0" /></g><g
       transform="matrix(0.39986,0,0,0.39986,88.495,452.479)"
       id="g472"><path
         d="m 109.2424,81.64244 11.7828,0"
         style="fill:none;stroke:#ff0000;stroke-width:1.5;stroke-linecap:butt;stroke-linejoin:round;stroke-miterlimit:10;stroke-dasharray:5.55, 2.4;stroke-dashoffset:0;stroke-opacity:0.3"
         id="path474"
         inkscape:connector-curvature="0" /></g><g
       transform="matrix(0.39986,0,0,0.39986,88.495,452.479)"
       id="g480" /><g
       id="g492"><g
         clip-path="url(#clipPath172)"
         id="g494"><g
           transform="matrix(0.39986,0,0,0.39986,88.495,452.479)"
           id="g496"><path
             d="m 57.6,38.016 0,266.112"
             style="fill:none;stroke:#ffffff;stroke-width:0.80000001;stroke-linecap:square;stroke-linejoin:miter;stroke-miterlimit:10;stroke-dasharray:none;stroke-opacity:1"
             id="path498"
             inkscape:connector-curvature="0" /></g><g
           transform="matrix(0.39986,0,0,0.39986,88.495,452.479)"
           id="g500" /><g
           transform="matrix(0.39986,0,0,0.39986,88.495,452.479)"
           id="g504"><path
             d="m 57.6,38.016 357.12,0"
             style="fill:none;stroke:#ffffff;stroke-width:0.80000001;stroke-linecap:square;stroke-linejoin:miter;stroke-miterlimit:10;stroke-dasharray:none;stroke-opacity:1"
             id="path506"
             inkscape:connector-curvature="0" /></g><g
           transform="matrix(0.39986,0,0,0.39986,88.495,452.479)"
           id="g508" /></g></g><g
       id="g512"><g
         clip-path="url(#clipPath176)"
         id="g514"><path
           d="m 113.3503,566.6322 c -0.044,0.048 -0.096,0.1239 -0.1559,0.2359 -0.088,-0.16 -0.172,-0.2719 -0.248,-0.3359 -0.0959,-0.088 -0.2199,-0.1279 -0.3678,-0.1279 -0.176,0 -0.3239,0.0639 -0.4399,0.1999 -0.1239,0.1359 -0.1839,0.3159 -0.1839,0.5478 0,0.2159 0.06,0.3998 0.1839,0.5518 0.108,0.128 0.2559,0.1959 0.4439,0.1959 0.0919,0 0.1759,-0.02 0.2479,-0.06 0.08,-0.0439 0.1479,-0.1039 0.2039,-0.1759 0.052,-0.068 0.104,-0.1439 0.16,-0.2319 0.0839,0.1519 0.1639,0.2639 0.2439,0.3359 0.0959,0.0799 0.2159,0.1239 0.3678,0.1239 0.176,0 0.3199,-0.0679 0.4399,-0.1959 0.1199,-0.14 0.1839,-0.3239 0.1839,-0.5478 0,-0.2199 -0.064,-0.4039 -0.1839,-0.5518 -0.112,-0.132 -0.2599,-0.1959 -0.4439,-0.1959 -0.0959,0 -0.1759,0.0159 -0.2479,0.0559 -0.0719,0.036 -0.1399,0.096 -0.2039,0.176 m -0.7957,0.028 c 0.2159,0 0.3878,0.1559 0.5158,0.4678 -0.1679,0.3399 -0.3399,0.5118 -0.5158,0.5118 -0.132,0 -0.2279,-0.048 -0.2919,-0.1399 -0.072,-0.1 -0.108,-0.216 -0.108,-0.3479 0,-0.148 0.036,-0.2679 0.108,-0.3559 0.072,-0.092 0.1679,-0.1359 0.2919,-0.1359 m 1.2755,0.9756 c -0.1959,0 -0.3678,-0.1559 -0.5158,-0.4678 0.16,-0.3439 0.3319,-0.5118 0.5158,-0.5118 0.128,0 0.2279,0.0439 0.2919,0.1399 0.072,0.1 0.108,0.2159 0.108,0.3519 0,0.1439 -0.036,0.2639 -0.108,0.3519 -0.0719,0.0879 -0.1719,0.1359 -0.2919,0.1359"
           style="fill:#ffffff;fill-opacity:0.6;fill-rule:nonzero;stroke:none"
           id="path516"
           inkscape:connector-curvature="0" /></g></g><g
       id="g582" /></g></svg>