<?xml version="1.0" encoding="UTF-8" standalone="no"?>
<!-- Created with Inkscape (http://www.inkscape.org/) -->

<svg
   xmlns:dc="http://purl.org/dc/elements/1.1/"
   xmlns:cc="http://creativecommons.org/ns#"
   xmlns:rdf="http://www.w3.org/1999/02/22-rdf-syntax-ns#"
   xmlns:svg="http://www.w3.org/2000/svg"
   xmlns="http://www.w3.org/2000/svg"
   xmlns:sodipodi="http://sodipodi.sourceforge.net/DTD/sodipodi-0.dtd"
   xmlns:inkscape="http://www.inkscape.org/namespaces/inkscape"
   id="svg2"
   version="1.1"
   inkscape:version="0.91 r13725"
   xml:space="preserve"
   width="200"
   height="151"
   viewBox="0 0 200 151"
   sodipodi:docname="steady_langs_pd.svg"><metadata
     id="metadata8"><rdf:RDF><cc:Work
         rdf:about=""><dc:format>image/svg+xml</dc:format><dc:type
           rdf:resource="http://purl.org/dc/dcmitype/StillImage" /><dc:title /></cc:Work></rdf:RDF></metadata><defs
     id="defs6"><clipPath
       clipPathUnits="userSpaceOnUse"
       id="clipPath18"><path
         d="m 0,0 595.276,0 0,841.89 L 0,841.89 0,0 Z"
         id="path20"
         inkscape:connector-curvature="0" /></clipPath><clipPath
       clipPathUnits="userSpaceOnUse"
       id="clipPath34"><path
         d="m 0,0 595.276,0 0,841.89 L 0,841.89 0,0 Z"
         id="path36"
         inkscape:connector-curvature="0" /></clipPath><clipPath
       clipPathUnits="userSpaceOnUse"
       id="clipPath40"><path
         d="m 88,574 185,0 0,139 -185,0 0,-139 z"
         id="path42"
         inkscape:connector-curvature="0" /></clipPath><clipPath
       clipPathUnits="userSpaceOnUse"
       id="clipPath44"><path
         d="m 88.495,574.54 184.2555,0 0,138.1916 -184.2555,0 0,-138.1916 z"
         id="path46"
         inkscape:connector-curvature="0" /></clipPath><clipPath
       clipPathUnits="userSpaceOnUse"
       id="clipPath48"><path
         d="m 111.5269,589.7411 142.798,0 0,106.4075 -142.798,0 0,-106.4075 z"
         id="path50"
         inkscape:connector-curvature="0" /></clipPath><clipPath
       clipPathUnits="userSpaceOnUse"
       id="clipPath52"><path
         d="m 88.495,574.54 184.2555,0 0,138.1916 -184.2555,0 0,-138.1916 z"
         id="path54"
         inkscape:connector-curvature="0" /></clipPath><clipPath
       clipPathUnits="userSpaceOnUse"
       id="clipPath56"><path
         d="m 111.5269,589.7411 142.798,0 0,106.4075 -142.798,0 0,-106.4075 z"
         id="path58"
         inkscape:connector-curvature="0" /></clipPath><clipPath
       clipPathUnits="userSpaceOnUse"
       id="clipPath60"><path
         d="m 88.495,574.54 184.2555,0 0,138.1916 -184.2555,0 0,-138.1916 z"
         id="path62"
         inkscape:connector-curvature="0" /></clipPath><clipPath
       clipPathUnits="userSpaceOnUse"
       id="clipPath64"><path
         d="m 107.4444,686.1621 11.25606,0 0,6.78163 -11.25606,0 0,-6.78163 z"
         id="path66"
         inkscape:connector-curvature="0" /></clipPath><clipPath
       clipPathUnits="userSpaceOnUse"
       id="clipPath68"><path
         d="m 88.495,574.54 184.2555,0 0,138.1916 -184.2555,0 0,-138.1916 z"
         id="path70"
         inkscape:connector-curvature="0" /></clipPath><clipPath
       clipPathUnits="userSpaceOnUse"
       id="clipPath432"><path
         d="m 0,0 595.276,0 0,841.89 L 0,841.89 0,0 Z"
         id="path434"
         inkscape:connector-curvature="0" /></clipPath><clipPath
       clipPathUnits="userSpaceOnUse"
       id="clipPath438"><path
         d="m 319,574 185,0 0,139 -185,0 0,-139 z"
         id="path440"
         inkscape:connector-curvature="0" /></clipPath><clipPath
       clipPathUnits="userSpaceOnUse"
       id="clipPath442"><path
         d="m 319.571,574.54 184.2555,0 0,138.1916 -184.2555,0 0,-138.1916 z"
         id="path444"
         inkscape:connector-curvature="0" /></clipPath><clipPath
       clipPathUnits="userSpaceOnUse"
       id="clipPath446"><path
         d="m 342.6029,589.7411 142.798,0 0,106.4075 -142.798,0 0,-106.4075 z"
         id="path448"
         inkscape:connector-curvature="0" /></clipPath><clipPath
       clipPathUnits="userSpaceOnUse"
       id="clipPath450"><path
         d="m 319.571,574.54 184.2555,0 0,138.1916 -184.2555,0 0,-138.1916 z"
         id="path452"
         inkscape:connector-curvature="0" /></clipPath><clipPath
       clipPathUnits="userSpaceOnUse"
       id="clipPath454"><path
         d="m 342.6029,589.7411 142.798,0 0,106.4075 -142.798,0 0,-106.4075 z"
         id="path456"
         inkscape:connector-curvature="0" /></clipPath><clipPath
       clipPathUnits="userSpaceOnUse"
       id="clipPath458"><path
         d="m 319.571,574.54 184.2555,0 0,138.1916 -184.2555,0 0,-138.1916 z"
         id="path460"
         inkscape:connector-curvature="0" /></clipPath><clipPath
       clipPathUnits="userSpaceOnUse"
       id="clipPath462"><path
         d="m 338.5204,686.1621 11.25606,0 0,6.78163 -11.25606,0 0,-6.78163 z"
         id="path464"
         inkscape:connector-curvature="0" /></clipPath><clipPath
       clipPathUnits="userSpaceOnUse"
       id="clipPath466"><path
         d="m 319.571,574.54 184.2555,0 0,138.1916 -184.2555,0 0,-138.1916 z"
         id="path468"
         inkscape:connector-curvature="0" /></clipPath></defs><sodipodi:namedview
     pagecolor="#ffffff"
     bordercolor="#666666"
     borderopacity="1"
     objecttolerance="10"
     gridtolerance="10"
     guidetolerance="10"
     inkscape:pageopacity="0"
     inkscape:pageshadow="2"
     inkscape:window-width="1640"
     inkscape:window-height="976"
     id="namedview4"
     showgrid="false"
     inkscape:zoom="1.3572569"
     inkscape:cx="87.270637"
     inkscape:cy="55.197219"
     inkscape:window-x="18"
     inkscape:window-y="1"
     inkscape:window-maximized="0"
     inkscape:current-layer="g10" /><g
     id="g10"
     inkscape:groupmode="layer"
     inkscape:label="steady_pd_language"
     transform="matrix(1.25,0,0,-1.25,-106.33614,865.78387)"><g
       id="g12" /><g
       id="g88"
       clip-path="url(#clipPath48)"
       transform="translate(-11.2,-6.4)"><g
         id="g90"
         transform="matrix(0.39986,0,0,0.39986,88.495,574.54)"><path
           inkscape:connector-curvature="0"
           id="path92"
           style="fill:#ff0000;fill-opacity:0.6;fill-rule:nonzero;stroke:#ff0000;stroke-width:1;stroke-linecap:butt;stroke-linejoin:round;stroke-miterlimit:10;stroke-dasharray:none;stroke-opacity:0.6"
           d="m 203.0933,138.8831 c 0.7956,0 1.5588,0.3161 2.1214,0.8787 0.5625,0.5625 0.8786,1.3257 0.8786,2.1213 0,0.7956 -0.3161,1.5587 -0.8786,2.1213 -0.5626,0.5626 -1.3258,0.8787 -2.1214,0.8787 -0.7956,0 -1.5587,-0.3161 -2.1213,-0.8787 -0.5626,-0.5626 -0.8787,-1.3257 -0.8787,-2.1213 0,-0.7956 0.3161,-1.5588 0.8787,-2.1213 0.5626,-0.5626 1.3257,-0.8787 2.1213,-0.8787 z" /></g><g
         id="g94"
         transform="matrix(0.39986,0,0,0.39986,88.495,574.54)"><path
           inkscape:connector-curvature="0"
           id="path96"
           style="fill:#ff0000;fill-opacity:0.6;fill-rule:nonzero;stroke:#ff0000;stroke-width:1;stroke-linecap:butt;stroke-linejoin:round;stroke-miterlimit:10;stroke-dasharray:none;stroke-opacity:0.6"
           d="m 379.4489,260.1877 c 0.7956,0 1.5587,0.3161 2.1213,0.8787 0.5626,0.5626 0.8787,1.3257 0.8787,2.1213 0,0.7956 -0.3161,1.5587 -0.8787,2.1213 -0.5626,0.5626 -1.3257,0.8787 -2.1213,0.8787 -0.7956,0 -1.5588,-0.3161 -2.1213,-0.8787 -0.5626,-0.5626 -0.8787,-1.3257 -0.8787,-2.1213 0,-0.7956 0.3161,-1.5587 0.8787,-2.1213 0.5625,-0.5626 1.3257,-0.8787 2.1213,-0.8787 z" /></g><g
         id="g98"
         transform="matrix(0.39986,0,0,0.39986,88.495,574.54)"><path
           inkscape:connector-curvature="0"
           id="path100"
           style="fill:#ff0000;fill-opacity:0.6;fill-rule:nonzero;stroke:#ff0000;stroke-width:1;stroke-linecap:butt;stroke-linejoin:round;stroke-miterlimit:10;stroke-dasharray:none;stroke-opacity:0.6"
           d="m 313.3156,226.0708 c 0.7956,0 1.5587,0.3161 2.1213,0.8786 0.5626,0.5626 0.8787,1.3258 0.8787,2.1214 0,0.7956 -0.3161,1.5587 -0.8787,2.1213 -0.5626,0.5626 -1.3257,0.8787 -2.1213,0.8787 -0.7957,0 -1.5588,-0.3161 -2.1214,-0.8787 -0.5625,-0.5626 -0.8786,-1.3257 -0.8786,-2.1213 0,-0.7956 0.3161,-1.5588 0.8786,-2.1214 0.5626,-0.5625 1.3257,-0.8786 2.1214,-0.8786 z" /></g><g
         id="g102"
         transform="matrix(0.39986,0,0,0.39986,88.495,574.54)"><path
           inkscape:connector-curvature="0"
           id="path104"
           style="fill:#ff0000;fill-opacity:0.6;fill-rule:nonzero;stroke:#ff0000;stroke-width:1;stroke-linecap:butt;stroke-linejoin:round;stroke-miterlimit:10;stroke-dasharray:none;stroke-opacity:0.6"
           d="m 296.7822,203.3262 c 0.7956,0 1.5588,0.3161 2.1213,0.8786 0.5626,0.5626 0.8787,1.3257 0.8787,2.1214 0,0.7956 -0.3161,1.5587 -0.8787,2.1213 -0.5625,0.5626 -1.3257,0.8787 -2.1213,0.8787 -0.7956,0 -1.5587,-0.3161 -2.1213,-0.8787 -0.5626,-0.5626 -0.8787,-1.3257 -0.8787,-2.1213 0,-0.7957 0.3161,-1.5588 0.8787,-2.1214 0.5626,-0.5625 1.3257,-0.8786 2.1213,-0.8786 z" /></g><g
         id="g106"
         transform="matrix(0.39986,0,0,0.39986,88.495,574.54)"><path
           inkscape:connector-curvature="0"
           id="path108"
           style="fill:#ff0000;fill-opacity:0.6;fill-rule:nonzero;stroke:#ff0000;stroke-width:1;stroke-linecap:butt;stroke-linejoin:round;stroke-miterlimit:10;stroke-dasharray:none;stroke-opacity:0.6"
           d="m 103.8933,108.5569 c 0.7956,0 1.5588,0.3161 2.1214,0.8787 0.5625,0.5626 0.8786,1.3257 0.8786,2.1213 0,0.7956 -0.3161,1.5588 -0.8786,2.1213 -0.5626,0.5626 -1.3258,0.8787 -2.1214,0.8787 -0.7956,0 -1.5587,-0.3161 -2.1213,-0.8787 -0.5626,-0.5625 -0.8787,-1.3257 -0.8787,-2.1213 0,-0.7956 0.3161,-1.5587 0.8787,-2.1213 0.5626,-0.5626 1.3257,-0.8787 2.1213,-0.8787 z" /></g><g
         id="g110"
         transform="matrix(0.39986,0,0,0.39986,88.495,574.54)"><path
           inkscape:connector-curvature="0"
           id="path112"
           style="fill:#ff0000;fill-opacity:0.6;fill-rule:nonzero;stroke:#ff0000;stroke-width:1;stroke-linecap:butt;stroke-linejoin:round;stroke-miterlimit:10;stroke-dasharray:none;stroke-opacity:0.6"
           d="m 175.5378,131.3015 c 0.7956,0 1.5587,0.3161 2.1213,0.8787 0.5626,0.5626 0.8787,1.3257 0.8787,2.1213 0,0.7956 -0.3161,1.5588 -0.8787,2.1214 -0.5626,0.5625 -1.3257,0.8786 -2.1213,0.8786 -0.7956,0 -1.5588,-0.3161 -2.1213,-0.8786 -0.5626,-0.5626 -0.8787,-1.3258 -0.8787,-2.1214 0,-0.7956 0.3161,-1.5587 0.8787,-2.1213 0.5625,-0.5626 1.3257,-0.8787 2.1213,-0.8787 z" /></g><g
         id="g114"
         transform="matrix(0.39986,0,0,0.39986,88.495,574.54)"><path
           inkscape:connector-curvature="0"
           id="path116"
           style="fill:#ff0000;fill-opacity:0.6;fill-rule:nonzero;stroke:#ff0000;stroke-width:1;stroke-linecap:butt;stroke-linejoin:round;stroke-miterlimit:10;stroke-dasharray:none;stroke-opacity:0.6"
           d="m 252.6933,195.7446 c 0.7956,0 1.5588,0.3161 2.1214,0.8787 0.5625,0.5626 0.8786,1.3257 0.8786,2.1213 0,0.7956 -0.3161,1.5588 -0.8786,2.1213 -0.5626,0.5626 -1.3258,0.8787 -2.1214,0.8787 -0.7956,0 -1.5587,-0.3161 -2.1213,-0.8787 -0.5626,-0.5625 -0.8787,-1.3257 -0.8787,-2.1213 0,-0.7956 0.3161,-1.5587 0.8787,-2.1213 0.5626,-0.5626 1.3257,-0.8787 2.1213,-0.8787 z" /></g><g
         id="g118"
         transform="matrix(0.39986,0,0,0.39986,88.495,574.54)"><path
           inkscape:connector-curvature="0"
           id="path120"
           style="fill:#ff0000;fill-opacity:0.6;fill-rule:nonzero;stroke:#ff0000;stroke-width:1;stroke-linecap:butt;stroke-linejoin:round;stroke-miterlimit:10;stroke-dasharray:none;stroke-opacity:0.6"
           d="m 335.36,237.4431 c 0.7956,0 1.5587,0.3161 2.1213,0.8787 0.5626,0.5625 0.8787,1.3257 0.8787,2.1213 0,0.7956 -0.3161,1.5587 -0.8787,2.1213 -0.5626,0.5626 -1.3257,0.8787 -2.1213,0.8787 -0.7956,0 -1.5587,-0.3161 -2.1213,-0.8787 -0.5626,-0.5626 -0.8787,-1.3257 -0.8787,-2.1213 0,-0.7956 0.3161,-1.5588 0.8787,-2.1213 0.5626,-0.5626 1.3257,-0.8787 2.1213,-0.8787 z" /></g><g
         id="g122"
         transform="matrix(0.39986,0,0,0.39986,88.495,574.54)"><path
           inkscape:connector-curvature="0"
           id="path124"
           style="fill:#ff0000;fill-opacity:0.6;fill-rule:nonzero;stroke:#ff0000;stroke-width:1;stroke-linecap:butt;stroke-linejoin:round;stroke-miterlimit:10;stroke-dasharray:none;stroke-opacity:0.6"
           d="m 307.8044,210.9077 c 0.7957,0 1.5588,0.3161 2.1214,0.8787 0.5625,0.5626 0.8786,1.3257 0.8786,2.1213 0,0.7956 -0.3161,1.5587 -0.8786,2.1213 -0.5626,0.5626 -1.3257,0.8787 -2.1214,0.8787 -0.7956,0 -1.5587,-0.3161 -2.1213,-0.8787 -0.5626,-0.5626 -0.8787,-1.3257 -0.8787,-2.1213 0,-0.7956 0.3161,-1.5587 0.8787,-2.1213 0.5626,-0.5626 1.3257,-0.8787 2.1213,-0.8787 z" /></g><g
         id="g126"
         transform="matrix(0.39986,0,0,0.39986,88.495,574.54)"><path
           inkscape:connector-curvature="0"
           id="path128"
           style="fill:#ff0000;fill-opacity:0.6;fill-rule:nonzero;stroke:#ff0000;stroke-width:1;stroke-linecap:butt;stroke-linejoin:round;stroke-miterlimit:10;stroke-dasharray:none;stroke-opacity:0.6"
           d="m 225.1378,154.0462 c 0.7956,0 1.5587,0.3161 2.1213,0.8786 0.5626,0.5626 0.8787,1.3257 0.8787,2.1214 0,0.7956 -0.3161,1.5587 -0.8787,2.1213 -0.5626,0.5626 -1.3257,0.8787 -2.1213,0.8787 -0.7956,0 -1.5588,-0.3161 -2.1213,-0.8787 -0.5626,-0.5626 -0.8787,-1.3257 -0.8787,-2.1213 0,-0.7957 0.3161,-1.5588 0.8787,-2.1214 0.5625,-0.5625 1.3257,-0.8786 2.1213,-0.8786 z" /></g><g
         id="g130"
         transform="matrix(0.39986,0,0,0.39986,88.495,574.54)"><path
           inkscape:connector-curvature="0"
           id="path132"
           style="fill:#ff0000;fill-opacity:0.6;fill-rule:nonzero;stroke:#ff0000;stroke-width:1;stroke-linecap:butt;stroke-linejoin:round;stroke-miterlimit:10;stroke-dasharray:none;stroke-opacity:0.6"
           d="m 87.36,63.06769 c 0.79561,0 1.55874,0.3161 2.12132,0.87868 0.56258,0.56258 0.87868,1.32571 0.87868,2.12132 0,0.79561 -0.3161,1.55874 -0.87868,2.12132 -0.56258,0.56258 -1.32571,0.87868 -2.12132,0.87868 -0.79561,0 -1.55874,-0.3161 -2.12132,-0.87868 C 84.6761,67.62643 84.36,66.8633 84.36,66.06769 c 0,-0.79561 0.3161,-1.55874 0.87868,-2.12132 0.56258,-0.56258 1.32571,-0.87868 2.12132,-0.87868 z" /></g></g><g
       id="g136"
       clip-path="url(#clipPath52)"
       transform="translate(-11.2,-6.4)"><g
         id="g138"
         transform="matrix(0.39986,0,0,0.39986,88.495,574.54)"><path
           inkscape:connector-curvature="0"
           id="path140"
           style="fill:#ffffff;fill-opacity:1;fill-rule:nonzero;stroke:#ffffff;stroke-width:0.80000001;stroke-linecap:butt;stroke-linejoin:round;stroke-miterlimit:10;stroke-dasharray:none;stroke-opacity:1"
           d="m 92.87111,38.016 0,-3.5" /></g><path
         inkscape:connector-curvature="0"
         id="path142"
         style="fill:#ffffff;fill-opacity:1;fill-rule:nonzero;stroke:none"
         d="m 123.5834,584.2375 0.6438,0 0,2.2232 -0.6998,-0.1399 0,0.3598 0.6958,0.14 0.3958,0 0,-2.5831 0.6438,0 0,-0.3319 -1.6794,0 0,0.3319" /><path
         inkscape:connector-curvature="0"
         id="path144"
         style="fill:#ffffff;fill-opacity:1;fill-rule:nonzero;stroke:none"
         d="m 126.9022,586.5607 c -0.2039,0 -0.3558,-0.1 -0.4598,-0.2999 -0.104,-0.1999 -0.1519,-0.4998 -0.1519,-0.8997 0,-0.3998 0.0479,-0.6997 0.1519,-0.8997 0.104,-0.1999 0.2559,-0.2999 0.4598,-0.2999 0.204,0 0.3559,0.1 0.4599,0.2999 0.1,0.2 0.1519,0.4999 0.1519,0.8997 0,0.3999 -0.0519,0.6998 -0.1519,0.8997 -0.104,0.1999 -0.2559,0.2999 -0.4599,0.2999 m 0,0.3119 c 0.3239,0 0.5718,-0.132 0.7478,-0.3879 0.1719,-0.2599 0.2599,-0.6358 0.2599,-1.1236 0,-0.4918 -0.088,-0.8677 -0.2599,-1.1236 -0.176,-0.2559 -0.4239,-0.3839 -0.7478,-0.3839 -0.3278,0 -0.5797,0.128 -0.7517,0.3839 -0.1719,0.2559 -0.2559,0.6318 -0.2559,1.1236 0,0.4878 0.084,0.8637 0.2559,1.1236 0.172,0.2559 0.4239,0.3879 0.7517,0.3879" /><g
         id="g146"
         transform="matrix(0.39986,0,0,0.39986,88.495,574.54)"><path
           inkscape:connector-curvature="0"
           id="path148"
           style="fill:#ffffff;fill-opacity:1;fill-rule:nonzero;stroke:#ffffff;stroke-width:0.80000001;stroke-linecap:butt;stroke-linejoin:round;stroke-miterlimit:10;stroke-dasharray:none;stroke-opacity:1"
           d="m 147.9822,38.016 0,-3.5" /></g><path
         inkscape:connector-curvature="0"
         id="path150"
         style="fill:#ffffff;fill-opacity:1;fill-rule:nonzero;stroke:none"
         d="m 145.892,584.2375 1.3756,0 0,-0.3319 -1.8514,0 0,0.3319 c 0.148,0.152 0.3519,0.3599 0.6118,0.6238 0.2559,0.2599 0.4198,0.4278 0.4878,0.5038 0.128,0.14 0.2159,0.2599 0.2639,0.3599 0.048,0.096 0.076,0.1959 0.076,0.2919 0,0.1519 -0.056,0.2799 -0.1639,0.3759 -0.108,0.0959 -0.248,0.1479 -0.4239,0.1479 -0.1239,0 -0.2559,-0.024 -0.3919,-0.064 -0.1359,-0.044 -0.2839,-0.1079 -0.4398,-0.1959 l 0,0.3998 c 0.1599,0.064 0.3079,0.112 0.4438,0.144 0.136,0.032 0.264,0.048 0.3799,0.048 0.2999,0 0.5398,-0.076 0.7198,-0.2279 0.1799,-0.152 0.2719,-0.3519 0.2719,-0.6038 0,-0.12 -0.024,-0.2359 -0.068,-0.3399 -0.044,-0.108 -0.124,-0.2359 -0.2439,-0.3799 -0.032,-0.04 -0.136,-0.1479 -0.3119,-0.3279 -0.176,-0.1799 -0.4199,-0.4318 -0.7358,-0.7557" /><path
         inkscape:connector-curvature="0"
         id="path152"
         style="fill:#ffffff;fill-opacity:1;fill-rule:nonzero;stroke:none"
         d="m 148.939,586.5607 c -0.204,0 -0.3559,-0.1 -0.4599,-0.2999 -0.1039,-0.1999 -0.1519,-0.4998 -0.1519,-0.8997 0,-0.3998 0.048,-0.6997 0.1519,-0.8997 0.104,-0.1999 0.2559,-0.2999 0.4599,-0.2999 0.2039,0 0.3559,0.1 0.4598,0.2999 0.1,0.2 0.152,0.4999 0.152,0.8997 0,0.3999 -0.052,0.6998 -0.152,0.8997 -0.1039,0.1999 -0.2559,0.2999 -0.4598,0.2999 m 0,0.3119 c 0.3239,0 0.5718,-0.132 0.7477,-0.3879 0.172,-0.2599 0.2599,-0.6358 0.2599,-1.1236 0,-0.4918 -0.0879,-0.8677 -0.2599,-1.1236 -0.1759,-0.2559 -0.4238,-0.3839 -0.7477,-0.3839 -0.3279,0 -0.5798,0.128 -0.7518,0.3839 -0.1719,0.2559 -0.2559,0.6318 -0.2559,1.1236 0,0.4878 0.084,0.8637 0.2559,1.1236 0.172,0.2559 0.4239,0.3879 0.7518,0.3879" /><g
         id="g154"
         transform="matrix(0.39986,0,0,0.39986,88.495,574.54)"><path
           inkscape:connector-curvature="0"
           id="path156"
           style="fill:#ffffff;fill-opacity:1;fill-rule:nonzero;stroke:#ffffff;stroke-width:0.80000001;stroke-linecap:butt;stroke-linejoin:round;stroke-miterlimit:10;stroke-dasharray:none;stroke-opacity:1"
           d="m 203.0933,38.016 0,-3.5" /></g><path
         inkscape:connector-curvature="0"
         id="path158"
         style="fill:#ffffff;fill-opacity:1;fill-rule:nonzero;stroke:none"
         d="m 168.7845,585.4771 c 0.1879,-0.04 0.3359,-0.124 0.4398,-0.2519 0.104,-0.128 0.16,-0.2879 0.16,-0.4719 0,-0.2879 -0.1,-0.5118 -0.2959,-0.6677 -0.2,-0.156 -0.4799,-0.232 -0.8437,-0.232 -0.124,0 -0.252,0.012 -0.3799,0.036 -0.128,0.02 -0.2639,0.056 -0.3999,0.104 l 0,0.3799 c 0.108,-0.064 0.228,-0.112 0.3599,-0.144 0.128,-0.032 0.2639,-0.048 0.4079,-0.048 0.2479,0 0.4358,0.048 0.5638,0.144 0.1279,0.0959 0.1959,0.2399 0.1959,0.4278 0,0.168 -0.06,0.3039 -0.1799,0.3999 -0.12,0.096 -0.2879,0.1479 -0.5039,0.1479 l -0.3398,0 0,0.3239 0.3558,0 c 0.192,0 0.3399,0.036 0.4439,0.116 0.1039,0.076 0.1559,0.1879 0.1559,0.3359 0,0.1479 -0.056,0.2639 -0.1599,0.3438 -0.108,0.08 -0.2599,0.12 -0.4559,0.12 -0.1079,0 -0.2239,-0.012 -0.3478,-0.036 -0.124,-0.024 -0.2599,-0.06 -0.4079,-0.108 l 0,0.3519 c 0.148,0.04 0.2879,0.072 0.4199,0.092 0.1279,0.02 0.2519,0.032 0.3718,0.032 0.2959,0 0.5318,-0.068 0.7078,-0.2039 0.1759,-0.136 0.2639,-0.3199 0.2639,-0.5519 0,-0.1599 -0.048,-0.2958 -0.14,-0.4078 -0.0919,-0.112 -0.2239,-0.1919 -0.3918,-0.2319" /><path
         inkscape:connector-curvature="0"
         id="path160"
         style="fill:#ffffff;fill-opacity:1;fill-rule:nonzero;stroke:none"
         d="m 170.9757,586.5607 c -0.2039,0 -0.3559,-0.1 -0.4598,-0.2999 -0.104,-0.1999 -0.152,-0.4998 -0.152,-0.8997 0,-0.3998 0.048,-0.6997 0.152,-0.8997 0.1039,-0.1999 0.2559,-0.2999 0.4598,-0.2999 0.2039,0 0.3559,0.1 0.4598,0.2999 0.1,0.2 0.152,0.4999 0.152,0.8997 0,0.3999 -0.052,0.6998 -0.152,0.8997 -0.1039,0.1999 -0.2559,0.2999 -0.4598,0.2999 m 0,0.3119 c 0.3239,0 0.5718,-0.132 0.7477,-0.3879 0.172,-0.2599 0.26,-0.6358 0.26,-1.1236 0,-0.4918 -0.088,-0.8677 -0.26,-1.1236 -0.1759,-0.2559 -0.4238,-0.3839 -0.7477,-0.3839 -0.3279,0 -0.5798,0.128 -0.7517,0.3839 -0.172,0.2559 -0.2559,0.6318 -0.2559,1.1236 0,0.4878 0.0839,0.8637 0.2559,1.1236 0.1719,0.2559 0.4238,0.3879 0.7517,0.3879" /><g
         id="g162"
         transform="matrix(0.39986,0,0,0.39986,88.495,574.54)"><path
           inkscape:connector-curvature="0"
           id="path164"
           style="fill:#ffffff;fill-opacity:1;fill-rule:nonzero;stroke:#ffffff;stroke-width:0.80000001;stroke-linecap:butt;stroke-linejoin:round;stroke-miterlimit:10;stroke-dasharray:none;stroke-opacity:1"
           d="m 258.2044,38.016 0,-3.5" /></g><path
         inkscape:connector-curvature="0"
         id="path166"
         style="fill:#ffffff;fill-opacity:1;fill-rule:nonzero;stroke:none"
         d="m 190.7092,586.4767 -0.9956,-1.5554 0.9956,0 0,1.5554 m -0.1039,0.3439 0.4958,0 0,-1.8993 0.4159,0 0,-0.3279 -0.4159,0 0,-0.6878 -0.3919,0 0,0.6878 -1.3155,0 0,0.3798 1.2116,1.8474" /><path
         inkscape:connector-curvature="0"
         id="path168"
         style="fill:#ffffff;fill-opacity:1;fill-rule:nonzero;stroke:none"
         d="m 193.0124,586.5607 c -0.2039,0 -0.3558,-0.1 -0.4598,-0.2999 -0.104,-0.1999 -0.152,-0.4998 -0.152,-0.8997 0,-0.3998 0.048,-0.6997 0.152,-0.8997 0.104,-0.1999 0.2559,-0.2999 0.4598,-0.2999 0.204,0 0.3559,0.1 0.4599,0.2999 0.0999,0.2 0.1519,0.4999 0.1519,0.8997 0,0.3999 -0.052,0.6998 -0.1519,0.8997 -0.104,0.1999 -0.2559,0.2999 -0.4599,0.2999 m 0,0.3119 c 0.3239,0 0.5718,-0.132 0.7478,-0.3879 0.1719,-0.2599 0.2599,-0.6358 0.2599,-1.1236 0,-0.4918 -0.088,-0.8677 -0.2599,-1.1236 -0.176,-0.2559 -0.4239,-0.3839 -0.7478,-0.3839 -0.3279,0 -0.5798,0.128 -0.7517,0.3839 -0.1719,0.2559 -0.2559,0.6318 -0.2559,1.1236 0,0.4878 0.084,0.8637 0.2559,1.1236 0.1719,0.2559 0.4238,0.3879 0.7517,0.3879" /><g
         id="g170"
         transform="matrix(0.39986,0,0,0.39986,88.495,574.54)"><path
           inkscape:connector-curvature="0"
           id="path172"
           style="fill:#ffffff;fill-opacity:1;fill-rule:nonzero;stroke:#ffffff;stroke-width:0.80000001;stroke-linecap:butt;stroke-linejoin:round;stroke-miterlimit:10;stroke-dasharray:none;stroke-opacity:1"
           d="m 313.3156,38.016 0,-3.5" /></g><path
         inkscape:connector-curvature="0"
         id="path174"
         style="fill:#ffffff;fill-opacity:1;fill-rule:nonzero;stroke:none"
         d="m 211.6663,586.8206 1.5475,0 0,-0.3319 -1.1876,0 0,-0.7157 c 0.056,0.02 0.116,0.036 0.172,0.044 0.0559,0.008 0.1159,0.0159 0.1719,0.0159 0.3239,0 0.5798,-0.0919 0.7717,-0.2679 0.192,-0.1799 0.2879,-0.4198 0.2879,-0.7237 0,-0.3159 -0.0999,-0.5598 -0.2959,-0.7318 -0.1959,-0.1719 -0.4718,-0.2559 -0.8237,-0.2559 -0.1239,0 -0.2479,0.012 -0.3758,0.028 -0.128,0.02 -0.256,0.048 -0.3919,0.092 l 0,0.3959 c 0.1159,-0.064 0.2359,-0.112 0.3639,-0.144 0.1239,-0.032 0.2559,-0.044 0.3958,-0.044 0.2239,0 0.4039,0.056 0.5358,0.176 0.128,0.1199 0.196,0.2799 0.196,0.4838 0,0.1999 -0.068,0.3599 -0.196,0.4798 -0.1319,0.12 -0.3119,0.18 -0.5358,0.18 -0.1039,0 -0.2119,-0.012 -0.3159,-0.036 -0.1039,-0.024 -0.2119,-0.06 -0.3199,-0.108 l 0,1.4635" /><path
         inkscape:connector-curvature="0"
         id="path176"
         style="fill:#ffffff;fill-opacity:1;fill-rule:nonzero;stroke:none"
         d="m 215.0492,586.5607 c -0.204,0 -0.3559,-0.1 -0.4599,-0.2999 -0.1039,-0.1999 -0.1519,-0.4998 -0.1519,-0.8997 0,-0.3998 0.048,-0.6997 0.1519,-0.8997 0.104,-0.1999 0.2559,-0.2999 0.4599,-0.2999 0.2039,0 0.3558,0.1 0.4598,0.2999 0.1,0.2 0.1519,0.4999 0.1519,0.8997 0,0.3999 -0.0519,0.6998 -0.1519,0.8997 -0.104,0.1999 -0.2559,0.2999 -0.4598,0.2999 m 0,0.3119 c 0.3238,0 0.5718,-0.132 0.7477,-0.3879 0.1719,-0.2599 0.2599,-0.6358 0.2599,-1.1236 0,-0.4918 -0.088,-0.8677 -0.2599,-1.1236 -0.1759,-0.2559 -0.4239,-0.3839 -0.7477,-0.3839 -0.3279,0 -0.5798,0.128 -0.7518,0.3839 -0.1719,0.2559 -0.2559,0.6318 -0.2559,1.1236 0,0.4878 0.084,0.8637 0.2559,1.1236 0.172,0.2559 0.4239,0.3879 0.7518,0.3879" /><g
         id="g178"
         transform="matrix(0.39986,0,0,0.39986,88.495,574.54)"><path
           inkscape:connector-curvature="0"
           id="path180"
           style="fill:#ffffff;fill-opacity:1;fill-rule:nonzero;stroke:#ffffff;stroke-width:0.80000001;stroke-linecap:butt;stroke-linejoin:round;stroke-miterlimit:10;stroke-dasharray:none;stroke-opacity:1"
           d="m 368.4267,38.016 0,-3.5" /></g><path
         inkscape:connector-curvature="0"
         id="path182"
         style="fill:#ffffff;fill-opacity:1;fill-rule:nonzero;stroke:none"
         d="m 234.5908,585.5211 c -0.176,0 -0.3159,-0.064 -0.4199,-0.184 -0.104,-0.1199 -0.1559,-0.2879 -0.1559,-0.4958 0,-0.2119 0.0519,-0.3799 0.1559,-0.4998 0.104,-0.12 0.2439,-0.18 0.4199,-0.18 0.1759,0 0.3159,0.06 0.4198,0.18 0.104,0.1199 0.156,0.2879 0.156,0.4998 0,0.2079 -0.052,0.3759 -0.156,0.4958 -0.1039,0.12 -0.2439,0.184 -0.4198,0.184 m 0.7837,1.2355 0,-0.3599 c -0.1,0.048 -0.1999,0.084 -0.2999,0.108 -0.104,0.024 -0.2039,0.036 -0.2999,0.036 -0.2639,0 -0.4638,-0.088 -0.5998,-0.2639 -0.1359,-0.1759 -0.2159,-0.4439 -0.2319,-0.7957 0.076,0.1119 0.1719,0.1999 0.2879,0.2599 0.116,0.06 0.2439,0.0919 0.3839,0.0919 0.2919,0 0.5238,-0.0919 0.6917,-0.2679 0.168,-0.1759 0.2559,-0.4198 0.2559,-0.7237 0,-0.2999 -0.0919,-0.5398 -0.2679,-0.7198 -0.1759,-0.1799 -0.4118,-0.2679 -0.7037,-0.2679 -0.3359,0 -0.5958,0.128 -0.7718,0.3839 -0.1799,0.2559 -0.2679,0.6318 -0.2679,1.1236 0,0.4599 0.108,0.8277 0.3279,1.0996 0.2159,0.2719 0.5118,0.4119 0.8797,0.4119 0.096,0 0.1959,-0.012 0.2999,-0.028 0.1,-0.02 0.2039,-0.048 0.3159,-0.088" /><path
         inkscape:connector-curvature="0"
         id="path184"
         style="fill:#ffffff;fill-opacity:1;fill-rule:nonzero;stroke:none"
         d="m 237.0859,586.5607 c -0.2039,0 -0.3559,-0.1 -0.4598,-0.2999 -0.104,-0.1999 -0.152,-0.4998 -0.152,-0.8997 0,-0.3998 0.048,-0.6997 0.152,-0.8997 0.1039,-0.1999 0.2559,-0.2999 0.4598,-0.2999 0.2039,0 0.3559,0.1 0.4598,0.2999 0.1,0.2 0.152,0.4999 0.152,0.8997 0,0.3999 -0.052,0.6998 -0.152,0.8997 -0.1039,0.1999 -0.2559,0.2999 -0.4598,0.2999 m 0,0.3119 c 0.3239,0 0.5718,-0.132 0.7477,-0.3879 0.172,-0.2599 0.2599,-0.6358 0.2599,-1.1236 0,-0.4918 -0.0879,-0.8677 -0.2599,-1.1236 -0.1759,-0.2559 -0.4238,-0.3839 -0.7477,-0.3839 -0.3279,0 -0.5798,0.128 -0.7517,0.3839 -0.172,0.2559 -0.256,0.6318 -0.256,1.1236 0,0.4878 0.084,0.8637 0.256,1.1236 0.1719,0.2559 0.4238,0.3879 0.7517,0.3879" /><path
         inkscape:connector-curvature="0"
         id="path186"
         style="fill:#ffffff;fill-opacity:1;fill-rule:nonzero;stroke:none"
         d="m 178.9122,579.8303 0,-1.0676 0.6318,0 c 0.2119,0 0.3679,0.044 0.4718,0.1319 0.1,0.088 0.152,0.2199 0.152,0.4039 0,0.1799 -0.052,0.3119 -0.152,0.3998 -0.1039,0.088 -0.2599,0.132 -0.4718,0.132 l -0.6318,0 m 0,1.1996 0,-0.8797 0.5838,0 c 0.1919,0 0.3319,0.036 0.4279,0.1079 0.0959,0.072 0.1439,0.18 0.1439,0.3319 0,0.144 -0.048,0.2559 -0.1439,0.3279 -0.096,0.072 -0.236,0.112 -0.4279,0.112 l -0.5838,0 m -0.3958,0.3239 1.0076,0 c 0.2999,0 0.5318,-0.064 0.6958,-0.188 0.1599,-0.1279 0.2439,-0.3039 0.2439,-0.5318 0,-0.1799 -0.044,-0.3239 -0.128,-0.4278 -0.084,-0.104 -0.2039,-0.172 -0.3639,-0.196 0.192,-0.0439 0.3439,-0.1319 0.4519,-0.2639 0.104,-0.1319 0.1599,-0.2959 0.1599,-0.4918 0,-0.2639 -0.0919,-0.4638 -0.2679,-0.6038 -0.1759,-0.1439 -0.4278,-0.2119 -0.7517,-0.2119 l -1.0476,0 0,2.915" /><path
         inkscape:connector-curvature="0"
         id="path188"
         style="fill:#ffffff;fill-opacity:1;fill-rule:nonzero;stroke:none"
         d="m 181.2434,580.626 0.3599,0 0,-2.1872 -0.3599,0 0,2.1872 m 0,0.8517 0.3599,0 0,-0.4558 -0.3599,0 0,0.4558" /><path
         inkscape:connector-curvature="0"
         id="path190"
         style="fill:#ffffff;fill-opacity:1;fill-rule:nonzero;stroke:none"
         d="m 183.6226,580.2901 c -0.04,0.024 -0.084,0.04 -0.132,0.052 -0.048,0.008 -0.1,0.016 -0.1559,0.016 -0.204,0 -0.3599,-0.068 -0.4679,-0.1999 -0.1119,-0.132 -0.1639,-0.3199 -0.1639,-0.5678 l 0,-1.1516 -0.3599,0 0,2.1872 0.3599,0 0,-0.3399 c 0.072,0.132 0.1719,0.232 0.2919,0.2959 0.1199,0.064 0.2679,0.096 0.4438,0.096 0.024,0 0.052,-0.004 0.084,-0.004 0.028,-0.004 0.06,-0.008 0.1,-0.016 l 0,-0.3679" /><path
         inkscape:connector-curvature="0"
         id="path192"
         style="fill:#ffffff;fill-opacity:1;fill-rule:nonzero;stroke:none"
         d="m 184.3543,581.2458 0,-0.6198 0.7398,0 0,-0.2799 -0.7398,0 0,-1.1876 c 0,-0.1799 0.024,-0.2959 0.072,-0.3438 0.048,-0.052 0.1479,-0.076 0.2999,-0.076 l 0.3679,0 0,-0.2999 -0.3679,0 c -0.2799,0 -0.4719,0.052 -0.5758,0.1559 -0.104,0.104 -0.156,0.2919 -0.156,0.5638 l 0,1.1876 -0.2639,0 0,0.2799 0.2639,0 0,0.6198 0.3599,0" /><path
         inkscape:connector-curvature="0"
         id="path194"
         style="fill:#ffffff;fill-opacity:1;fill-rule:nonzero;stroke:none"
         d="m 187.3853,579.7583 0,-1.3195 -0.3599,0 0,1.3075 c 0,0.208 -0.044,0.3599 -0.124,0.4639 -0.08,0.1039 -0.1999,0.1559 -0.3599,0.1559 -0.1959,0 -0.3478,-0.064 -0.4598,-0.1879 -0.112,-0.124 -0.1679,-0.2919 -0.1679,-0.5038 l 0,-1.2356 -0.3599,0 0,3.0389 0.3599,0 0,-1.1916 c 0.0839,0.128 0.1839,0.228 0.3039,0.2919 0.1159,0.064 0.2519,0.1 0.4038,0.1 0.2479,0 0.4399,-0.08 0.5678,-0.2359 0.128,-0.156 0.196,-0.3839 0.196,-0.6838" /><g
         id="g196"
         transform="matrix(0.39986,0,0,0.39986,88.495,574.54)"><path
           inkscape:connector-curvature="0"
           id="path198"
           style="fill:#ffffff;fill-opacity:1;fill-rule:nonzero;stroke:#ffffff;stroke-width:0.80000001;stroke-linecap:butt;stroke-linejoin:round;stroke-miterlimit:10;stroke-dasharray:none;stroke-opacity:1"
           d="m 57.6,62.27692 -3.5,0" /></g><path
         inkscape:connector-curvature="0"
         id="path200"
         style="fill:#ffffff;fill-opacity:1;fill-rule:nonzero;stroke:none"
         d="m 104.138,598.2557 0.6438,0 0,2.2232 -0.6998,-0.1399 0,0.3599 0.6958,0.1399 0.3959,0 0,-2.5831 0.6437,0 0,-0.3319 -1.6794,0 0,0.3319" /><path
         inkscape:connector-curvature="0"
         id="path202"
         style="fill:#ffffff;fill-opacity:1;fill-rule:nonzero;stroke:none"
         d="m 107.4569,600.5789 c -0.204,0 -0.3559,-0.1 -0.4599,-0.2999 -0.1039,-0.1999 -0.1519,-0.4998 -0.1519,-0.8997 0,-0.3998 0.048,-0.6997 0.1519,-0.8997 0.104,-0.1999 0.2559,-0.2999 0.4599,-0.2999 0.2039,0 0.3558,0.1 0.4598,0.2999 0.1,0.2 0.1519,0.4999 0.1519,0.8997 0,0.3999 -0.0519,0.6998 -0.1519,0.8997 -0.104,0.1999 -0.2559,0.2999 -0.4598,0.2999 m 0,0.3119 c 0.3238,0 0.5718,-0.132 0.7477,-0.3879 0.1719,-0.2599 0.2599,-0.6357 0.2599,-1.1236 0,-0.4918 -0.088,-0.8677 -0.2599,-1.1236 -0.1759,-0.2559 -0.4239,-0.3838 -0.7477,-0.3838 -0.3279,0 -0.5798,0.1279 -0.7518,0.3838 -0.1719,0.2559 -0.2559,0.6318 -0.2559,1.1236 0,0.4879 0.084,0.8637 0.2559,1.1236 0.172,0.2559 0.4239,0.3879 0.7518,0.3879" /><g
         id="g204"
         transform="matrix(0.39986,0,0,0.39986,88.495,574.54)"><path
           inkscape:connector-curvature="0"
           id="path206"
           style="fill:#ffffff;fill-opacity:1;fill-rule:nonzero;stroke:#ffffff;stroke-width:0.80000001;stroke-linecap:butt;stroke-linejoin:round;stroke-miterlimit:10;stroke-dasharray:none;stroke-opacity:1"
           d="m 57.6,100.1846 -3.5,0" /></g><path
         inkscape:connector-curvature="0"
         id="path208"
         style="fill:#ffffff;fill-opacity:1;fill-rule:nonzero;stroke:none"
         d="m 104.4099,613.4135 1.3755,0 0,-0.3319 -1.8513,0 0,0.3319 c 0.1479,0.1519 0.3519,0.3599 0.6118,0.6238 0.2559,0.2599 0.4198,0.4278 0.4878,0.5038 0.128,0.1399 0.2159,0.2599 0.2639,0.3599 0.048,0.0959 0.076,0.1959 0.076,0.2919 0,0.1519 -0.056,0.2799 -0.164,0.3758 -0.1079,0.096 -0.2479,0.148 -0.4238,0.148 -0.124,0 -0.2559,-0.024 -0.3919,-0.064 -0.1359,-0.044 -0.2839,-0.108 -0.4398,-0.1959 l 0,0.3998 c 0.1599,0.064 0.3079,0.112 0.4438,0.144 0.136,0.032 0.2639,0.048 0.3799,0.048 0.2999,0 0.5398,-0.076 0.7197,-0.228 0.18,-0.1519 0.272,-0.3518 0.272,-0.6037 0,-0.12 -0.024,-0.236 -0.068,-0.3399 -0.044,-0.108 -0.124,-0.2359 -0.2439,-0.3799 -0.032,-0.04 -0.136,-0.1479 -0.3119,-0.3279 -0.176,-0.1799 -0.4199,-0.4318 -0.7358,-0.7557" /><path
         inkscape:connector-curvature="0"
         id="path210"
         style="fill:#ffffff;fill-opacity:1;fill-rule:nonzero;stroke:none"
         d="m 107.4569,615.7367 c -0.204,0 -0.3559,-0.1 -0.4599,-0.2999 -0.1039,-0.2 -0.1519,-0.4998 -0.1519,-0.8997 0,-0.3999 0.048,-0.6998 0.1519,-0.8997 0.104,-0.1999 0.2559,-0.2999 0.4599,-0.2999 0.2039,0 0.3558,0.1 0.4598,0.2999 0.1,0.1999 0.1519,0.4998 0.1519,0.8997 0,0.3999 -0.0519,0.6997 -0.1519,0.8997 -0.104,0.1999 -0.2559,0.2999 -0.4598,0.2999 m 0,0.3119 c 0.3238,0 0.5718,-0.132 0.7477,-0.3879 0.1719,-0.2599 0.2599,-0.6358 0.2599,-1.1236 0,-0.4918 -0.088,-0.8677 -0.2599,-1.1236 -0.1759,-0.2559 -0.4239,-0.3839 -0.7477,-0.3839 -0.3279,0 -0.5798,0.128 -0.7518,0.3839 -0.1719,0.2559 -0.2559,0.6318 -0.2559,1.1236 0,0.4878 0.084,0.8637 0.2559,1.1236 0.172,0.2559 0.4239,0.3879 0.7518,0.3879" /><g
         id="g212"
         transform="matrix(0.39986,0,0,0.39986,88.495,574.54)"><path
           inkscape:connector-curvature="0"
           id="path214"
           style="fill:#ffffff;fill-opacity:1;fill-rule:nonzero;stroke:#ffffff;stroke-width:0.80000001;stroke-linecap:butt;stroke-linejoin:round;stroke-miterlimit:10;stroke-dasharray:none;stroke-opacity:1"
           d="m 57.6,138.0923 -3.5,0" /></g><path
         inkscape:connector-curvature="0"
         id="path216"
         style="fill:#ffffff;fill-opacity:1;fill-rule:nonzero;stroke:none"
         d="m 105.2656,629.8108 c 0.188,-0.04 0.3359,-0.1239 0.4399,-0.2519 0.1039,-0.1279 0.1599,-0.2879 0.1599,-0.4718 0,-0.2879 -0.0999,-0.5118 -0.2959,-0.6678 -0.1999,-0.1559 -0.4798,-0.2319 -0.8437,-0.2319 -0.1239,0 -0.2519,0.012 -0.3798,0.036 -0.128,0.02 -0.264,0.056 -0.3999,0.1039 l 0,0.3799 c 0.108,-0.064 0.2279,-0.112 0.3599,-0.1439 0.1279,-0.032 0.2639,-0.048 0.4078,-0.048 0.2479,0 0.4359,0.048 0.5638,0.1439 0.128,0.096 0.196,0.2399 0.196,0.4279 0,0.1679 -0.06,0.3039 -0.18,0.3998 -0.1199,0.096 -0.2879,0.148 -0.5038,0.148 l -0.3399,0 0,0.3239 0.3559,0 c 0.1919,0 0.3399,0.036 0.4438,0.1159 0.104,0.076 0.156,0.188 0.156,0.3359 0,0.148 -0.056,0.2639 -0.16,0.3439 -0.1079,0.08 -0.2599,0.1199 -0.4558,0.1199 -0.108,0 -0.2239,-0.0119 -0.3479,-0.0359 -0.1239,-0.024 -0.2599,-0.06 -0.4078,-0.108 l 0,0.3519 c 0.1479,0.04 0.2879,0.072 0.4198,0.0919 0.128,0.02 0.2519,0.032 0.3719,0.032 0.2959,0 0.5318,-0.0679 0.7077,-0.2039 0.176,-0.1359 0.2639,-0.3199 0.2639,-0.5518 0,-0.1599 -0.0479,-0.2959 -0.1399,-0.4079 -0.092,-0.1119 -0.2239,-0.1919 -0.3919,-0.2319" /><path
         inkscape:connector-curvature="0"
         id="path218"
         style="fill:#ffffff;fill-opacity:1;fill-rule:nonzero;stroke:none"
         d="m 107.4569,630.8944 c -0.204,0 -0.3559,-0.0999 -0.4599,-0.2999 -0.1039,-0.1999 -0.1519,-0.4998 -0.1519,-0.8996 0,-0.3999 0.048,-0.6998 0.1519,-0.8997 0.104,-0.2 0.2559,-0.2999 0.4599,-0.2999 0.2039,0 0.3558,0.0999 0.4598,0.2999 0.1,0.1999 0.1519,0.4998 0.1519,0.8997 0,0.3998 -0.0519,0.6997 -0.1519,0.8996 -0.104,0.2 -0.2559,0.2999 -0.4598,0.2999 m 0,0.3119 c 0.3238,0 0.5718,-0.1319 0.7477,-0.3878 0.1719,-0.2599 0.2599,-0.6358 0.2599,-1.1236 0,-0.4919 -0.088,-0.8677 -0.2599,-1.1236 -0.1759,-0.256 -0.4239,-0.3839 -0.7477,-0.3839 -0.3279,0 -0.5798,0.1279 -0.7518,0.3839 -0.1719,0.2559 -0.2559,0.6317 -0.2559,1.1236 0,0.4878 0.084,0.8637 0.2559,1.1236 0.172,0.2559 0.4239,0.3878 0.7518,0.3878" /><g
         id="g220"
         transform="matrix(0.39986,0,0,0.39986,88.495,574.54)"><path
           inkscape:connector-curvature="0"
           id="path222"
           style="fill:#ffffff;fill-opacity:1;fill-rule:nonzero;stroke:#ffffff;stroke-width:0.80000001;stroke-linecap:butt;stroke-linejoin:round;stroke-miterlimit:10;stroke-dasharray:none;stroke-opacity:1"
           d="m 57.6,176 -3.5,0" /></g><path
         inkscape:connector-curvature="0"
         id="path224"
         style="fill:#ffffff;fill-opacity:1;fill-rule:nonzero;stroke:none"
         d="m 105.1537,645.9682 -0.9957,-1.5554 0.9957,0 0,1.5554 m -0.104,0.3439 0.4958,0 0,-1.8993 0.4159,0 0,-0.3279 -0.4159,0 0,-0.6878 -0.3918,0 0,0.6878 -1.3156,0 0,0.3799 1.2116,1.8473" /><path
         inkscape:connector-curvature="0"
         id="path226"
         style="fill:#ffffff;fill-opacity:1;fill-rule:nonzero;stroke:none"
         d="m 107.4569,646.0522 c -0.204,0 -0.3559,-0.1 -0.4599,-0.2999 -0.1039,-0.1999 -0.1519,-0.4998 -0.1519,-0.8997 0,-0.3998 0.048,-0.6997 0.1519,-0.8997 0.104,-0.1999 0.2559,-0.2998 0.4599,-0.2998 0.2039,0 0.3558,0.0999 0.4598,0.2998 0.1,0.2 0.1519,0.4999 0.1519,0.8997 0,0.3999 -0.0519,0.6998 -0.1519,0.8997 -0.104,0.1999 -0.2559,0.2999 -0.4598,0.2999 m 0,0.3119 c 0.3238,0 0.5718,-0.132 0.7477,-0.3879 0.1719,-0.2599 0.2599,-0.6357 0.2599,-1.1236 0,-0.4918 -0.088,-0.8677 -0.2599,-1.1236 -0.1759,-0.2559 -0.4239,-0.3838 -0.7477,-0.3838 -0.3279,0 -0.5798,0.1279 -0.7518,0.3838 -0.1719,0.2559 -0.2559,0.6318 -0.2559,1.1236 0,0.4879 0.084,0.8637 0.2559,1.1236 0.172,0.2559 0.4239,0.3879 0.7518,0.3879" /><g
         id="g228"
         transform="matrix(0.39986,0,0,0.39986,88.495,574.54)"><path
           inkscape:connector-curvature="0"
           id="path230"
           style="fill:#ffffff;fill-opacity:1;fill-rule:nonzero;stroke:#ffffff;stroke-width:0.80000001;stroke-linecap:butt;stroke-linejoin:round;stroke-miterlimit:10;stroke-dasharray:none;stroke-opacity:1"
           d="m 57.6,213.9077 -3.5,0" /></g><path
         inkscape:connector-curvature="0"
         id="path232"
         style="fill:#ffffff;fill-opacity:1;fill-rule:nonzero;stroke:none"
         d="m 104.074,661.4699 1.5475,0 0,-0.3319 -1.1876,0 0,-0.7157 c 0.056,0.02 0.116,0.0359 0.172,0.0439 0.0559,0.008 0.1159,0.016 0.1719,0.016 0.3239,0 0.5798,-0.0919 0.7717,-0.2679 0.192,-0.1799 0.2879,-0.4198 0.2879,-0.7237 0,-0.3159 -0.0999,-0.5598 -0.2959,-0.7318 -0.1959,-0.1719 -0.4718,-0.2559 -0.8237,-0.2559 -0.1239,0 -0.2479,0.012 -0.3758,0.028 -0.128,0.02 -0.256,0.048 -0.3919,0.092 l 0,0.3958 c 0.1159,-0.0639 0.2359,-0.1119 0.3639,-0.1439 0.1239,-0.032 0.2559,-0.044 0.3958,-0.044 0.2239,0 0.4039,0.056 0.5358,0.176 0.128,0.1199 0.196,0.2799 0.196,0.4838 0,0.1999 -0.068,0.3599 -0.196,0.4798 -0.1319,0.12 -0.3119,0.18 -0.5358,0.18 -0.1039,0 -0.2119,-0.012 -0.3159,-0.036 -0.1039,-0.024 -0.2119,-0.06 -0.3199,-0.108 l 0,1.4635" /><path
         inkscape:connector-curvature="0"
         id="path234"
         style="fill:#ffffff;fill-opacity:1;fill-rule:nonzero;stroke:none"
         d="m 107.4569,661.21 c -0.204,0 -0.3559,-0.1 -0.4599,-0.2999 -0.1039,-0.1999 -0.1519,-0.4998 -0.1519,-0.8997 0,-0.3999 0.048,-0.6998 0.1519,-0.8997 0.104,-0.1999 0.2559,-0.2999 0.4599,-0.2999 0.2039,0 0.3558,0.1 0.4598,0.2999 0.1,0.1999 0.1519,0.4998 0.1519,0.8997 0,0.3999 -0.0519,0.6998 -0.1519,0.8997 -0.104,0.1999 -0.2559,0.2999 -0.4598,0.2999 m 0,0.3119 c 0.3238,0 0.5718,-0.132 0.7477,-0.3879 0.1719,-0.2599 0.2599,-0.6358 0.2599,-1.1236 0,-0.4918 -0.088,-0.8677 -0.2599,-1.1236 -0.1759,-0.2559 -0.4239,-0.3839 -0.7477,-0.3839 -0.3279,0 -0.5798,0.128 -0.7518,0.3839 -0.1719,0.2559 -0.2559,0.6318 -0.2559,1.1236 0,0.4878 0.084,0.8637 0.2559,1.1236 0.172,0.2559 0.4239,0.3879 0.7518,0.3879" /><g
         id="g236"
         transform="matrix(0.39986,0,0,0.39986,88.495,574.54)"><path
           inkscape:connector-curvature="0"
           id="path238"
           style="fill:#ffffff;fill-opacity:1;fill-rule:nonzero;stroke:#ffffff;stroke-width:0.80000001;stroke-linecap:butt;stroke-linejoin:round;stroke-miterlimit:10;stroke-dasharray:none;stroke-opacity:1"
           d="m 57.6,251.8154 -3.5,0" /></g><path
         inkscape:connector-curvature="0"
         id="path240"
         style="fill:#ffffff;fill-opacity:1;fill-rule:nonzero;stroke:none"
         d="m 104.9617,675.3281 c -0.1759,0 -0.3159,-0.064 -0.4198,-0.1839 -0.104,-0.12 -0.156,-0.2879 -0.156,-0.4958 0,-0.212 0.052,-0.3799 0.156,-0.4999 0.1039,-0.1199 0.2439,-0.1799 0.4198,-0.1799 0.176,0 0.3159,0.06 0.4199,0.1799 0.104,0.12 0.1559,0.2879 0.1559,0.4999 0,0.2079 -0.0519,0.3758 -0.1559,0.4958 -0.104,0.1199 -0.2439,0.1839 -0.4199,0.1839 m 0.7838,1.2356 0,-0.3599 c -0.1,0.048 -0.2,0.084 -0.2999,0.108 -0.104,0.024 -0.204,0.036 -0.2999,0.036 -0.2639,0 -0.4639,-0.088 -0.5998,-0.2639 -0.136,-0.176 -0.2159,-0.4439 -0.2319,-0.7958 0.0759,0.112 0.1719,0.2 0.2879,0.2599 0.1159,0.06 0.2439,0.092 0.3838,0.092 0.2919,0 0.5238,-0.092 0.6918,-0.2679 0.1679,-0.1759 0.2559,-0.4199 0.2559,-0.7237 0,-0.2999 -0.092,-0.5399 -0.2679,-0.7198 -0.176,-0.1799 -0.4119,-0.2679 -0.7038,-0.2679 -0.3358,0 -0.5958,0.128 -0.7717,0.3839 -0.1799,0.2559 -0.2679,0.6317 -0.2679,1.1236 0,0.4598 0.108,0.8277 0.3279,1.0996 0.2159,0.2719 0.5118,0.4118 0.8797,0.4118 0.0959,0 0.1959,-0.012 0.2999,-0.0279 0.0999,-0.02 0.2039,-0.048 0.3159,-0.088" /><path
         inkscape:connector-curvature="0"
         id="path242"
         style="fill:#ffffff;fill-opacity:1;fill-rule:nonzero;stroke:none"
         d="m 107.4569,676.3678 c -0.204,0 -0.3559,-0.1 -0.4599,-0.2999 -0.1039,-0.2 -0.1519,-0.4999 -0.1519,-0.8997 0,-0.3999 0.048,-0.6998 0.1519,-0.8997 0.104,-0.1999 0.2559,-0.2999 0.4599,-0.2999 0.2039,0 0.3558,0.1 0.4598,0.2999 0.1,0.1999 0.1519,0.4998 0.1519,0.8997 0,0.3998 -0.0519,0.6997 -0.1519,0.8997 -0.104,0.1999 -0.2559,0.2999 -0.4598,0.2999 m 0,0.3118 c 0.3238,0 0.5718,-0.1319 0.7477,-0.3878 0.1719,-0.2599 0.2599,-0.6358 0.2599,-1.1236 0,-0.4919 -0.088,-0.8677 -0.2599,-1.1236 -0.1759,-0.2559 -0.4239,-0.3839 -0.7477,-0.3839 -0.3279,0 -0.5798,0.128 -0.7518,0.3839 -0.1719,0.2559 -0.2559,0.6317 -0.2559,1.1236 0,0.4878 0.084,0.8637 0.2559,1.1236 0.172,0.2559 0.4239,0.3878 0.7518,0.3878" /><g
         id="g244"
         transform="matrix(0.39986,0,0,0.39986,88.495,574.54)"><path
           inkscape:connector-curvature="0"
           id="path246"
           style="fill:#ffffff;fill-opacity:1;fill-rule:nonzero;stroke:#ffffff;stroke-width:0.80000001;stroke-linecap:butt;stroke-linejoin:round;stroke-miterlimit:10;stroke-dasharray:none;stroke-opacity:1"
           d="m 57.6,289.7231 -3.5,0" /></g><path
         inkscape:connector-curvature="0"
         id="path248"
         style="fill:#ffffff;fill-opacity:1;fill-rule:nonzero;stroke:none"
         d="m 103.9701,691.7854 1.8753,0 0,-0.1679 -1.0596,-2.747 -0.4119,0 0.9957,2.583 -1.3995,0 0,0.3319" /><path
         inkscape:connector-curvature="0"
         id="path250"
         style="fill:#ffffff;fill-opacity:1;fill-rule:nonzero;stroke:none"
         d="m 107.4569,691.5255 c -0.204,0 -0.3559,-0.0999 -0.4599,-0.2999 -0.1039,-0.1999 -0.1519,-0.4998 -0.1519,-0.8997 0,-0.3998 0.048,-0.6997 0.1519,-0.8996 0.104,-0.2 0.2559,-0.2999 0.4599,-0.2999 0.2039,0 0.3558,0.0999 0.4598,0.2999 0.1,0.1999 0.1519,0.4998 0.1519,0.8996 0,0.3999 -0.0519,0.6998 -0.1519,0.8997 -0.104,0.2 -0.2559,0.2999 -0.4598,0.2999 m 0,0.3119 c 0.3238,0 0.5718,-0.1319 0.7477,-0.3879 0.1719,-0.2599 0.2599,-0.6357 0.2599,-1.1236 0,-0.4918 -0.088,-0.8677 -0.2599,-1.1236 -0.1759,-0.2559 -0.4239,-0.3838 -0.7477,-0.3838 -0.3279,0 -0.5798,0.1279 -0.7518,0.3838 -0.1719,0.2559 -0.2559,0.6318 -0.2559,1.1236 0,0.4879 0.084,0.8637 0.2559,1.1236 0.172,0.256 0.4239,0.3879 0.7518,0.3879" /><path
         inkscape:connector-curvature="0"
         id="path252"
         style="fill:#ffffff;fill-opacity:1;fill-rule:nonzero;stroke:none"
         d="m 98.6207,637.6847 2.2672,0 0,0.4758 c 0,0.3999 -0.088,0.6958 -0.2719,0.8837 -0.1839,0.184 -0.4718,0.2799 -0.86369,0.2799 -0.39186,0 -0.67576,-0.0959 -0.8597,-0.2799 -0.17994,-0.1879 -0.27191,-0.4838 -0.27191,-0.8837 l 0,-0.4758 m -0.32388,-0.3959 0,0.8117 c 0,0.5638 0.11996,0.9797 0.35187,1.2436 0.23592,0.2639 0.60379,0.3959 1.10362,0.3959 0.50379,0 0.87169,-0.136 1.10759,-0.3999 0.2359,-0.2639 0.3519,-0.6797 0.3519,-1.2396 l 0,-0.8117 -2.91498,0" /><path
         inkscape:connector-curvature="0"
         id="path254"
         style="fill:#ffffff;fill-opacity:1;fill-rule:nonzero;stroke:none"
         d="m 100.0282,642.2231 0.176,0 0,-1.6514 c 0.2479,0.016 0.4398,0.088 0.5678,0.2239 0.1279,0.132 0.1919,0.3159 0.1919,0.5558 0,0.136 -0.016,0.2719 -0.048,0.3999 -0.032,0.1279 -0.084,0.2599 -0.1559,0.3878 l 0.3398,0 c 0.056,-0.1279 0.1,-0.2599 0.124,-0.3958 0.024,-0.136 0.04,-0.2759 0.04,-0.4119 0,-0.3519 -0.1,-0.6278 -0.2999,-0.8317 -0.1999,-0.2039 -0.4758,-0.3039 -0.8237,-0.3039 -0.3559,0 -0.6398,0.096 -0.85173,0.2879 -0.20793,0.1919 -0.31589,0.4559 -0.31589,0.7837 0,0.2959 0.09597,0.5279 0.2839,0.6998 0.19193,0.1679 0.44785,0.2559 0.77172,0.2559 m -0.10395,-0.3599 c -0.19593,-0.004 -0.35188,-0.06 -0.47184,-0.1639 -0.11596,-0.108 -0.17593,-0.2519 -0.17593,-0.4279 0,-0.1999 0.05997,-0.3598 0.17193,-0.4798 0.11197,-0.12 0.27191,-0.1919 0.47584,-0.2079 l 0,1.2795" /><path
         inkscape:connector-curvature="0"
         id="path256"
         style="fill:#ffffff;fill-opacity:1;fill-rule:nonzero;stroke:none"
         d="m 100.1122,643.8065 c 0,-0.2918 0.036,-0.4918 0.0999,-0.6037 0.068,-0.112 0.18,-0.168 0.3399,-0.168 0.128,0 0.2319,0.04 0.3039,0.124 0.076,0.0839 0.112,0.1999 0.112,0.3439 0,0.1999 -0.068,0.3598 -0.2119,0.4798 -0.14,0.1199 -0.3279,0.1799 -0.5638,0.1799 l -0.08,0 0,-0.3559 m -0.14797,0.7158 1.24757,0 0,-0.3599 -0.3319,0 c 0.136,-0.0839 0.2319,-0.1879 0.2919,-0.3079 0.06,-0.1199 0.092,-0.2719 0.092,-0.4478 0,-0.2239 -0.06,-0.4039 -0.184,-0.5358 -0.1239,-0.132 -0.2919,-0.196 -0.5038,-0.196 -0.2439,0 -0.4278,0.08 -0.5558,0.248 -0.12394,0.1639 -0.18792,0.4078 -0.18792,0.7357 l 0,0.5038 -0.03599,0 c -0.16394,0 -0.29189,-0.056 -0.38386,-0.1639 -0.08797,-0.108 -0.13595,-0.2599 -0.13595,-0.4559 0,-0.1279 0.01599,-0.2479 0.04798,-0.3678 0.03199,-0.12 0.07597,-0.2319 0.13195,-0.3399 l -0.33188,0 c -0.04798,0.1279 -0.08797,0.2559 -0.11196,0.3799 -0.02399,0.1239 -0.03999,0.2439 -0.03999,0.3638 0,0.3159 0.08397,0.5518 0.24791,0.7078 0.16395,0.1559 0.41186,0.2359 0.74374,0.2359" /><path
         inkscape:connector-curvature="0"
         id="path258"
         style="fill:#ffffff;fill-opacity:1;fill-rule:nonzero;stroke:none"
         d="m 98.40478,645.6179 0.61978,0 0,0.7398 0.27991,0 0,-0.7398 1.18753,0 c 0.18,0 0.2959,0.024 0.3439,0.072 0.052,0.048 0.076,0.1479 0.076,0.2999 l 0,0.3679 0.2999,0 0,-0.3679 c 0,-0.2799 -0.052,-0.4719 -0.1559,-0.5758 -0.104,-0.104 -0.2919,-0.156 -0.5639,-0.156 l -1.18753,0 0,-0.2639 -0.27991,0 0,0.2639 -0.61978,0 0,0.3599" /><path
         inkscape:connector-curvature="0"
         id="path260"
         style="fill:#ffffff;fill-opacity:1;fill-rule:nonzero;stroke:none"
         d="m 99.89226,648.6489 1.31954,0 0,-0.3599 -1.30754,0 c -0.20793,0 -0.35988,-0.044 -0.46384,-0.124 -0.10397,-0.0799 -0.15595,-0.1999 -0.15595,-0.3599 0,-0.1959 0.06398,-0.3478 0.18794,-0.4598 0.12395,-0.112 0.29189,-0.1679 0.50382,-0.1679 l 1.23557,0 0,-0.3599 -3.03894,0 0,0.3599 1.19158,0 c -0.12795,0.0839 -0.22792,0.1839 -0.29189,0.3039 -0.06398,0.1159 -0.09997,0.2519 -0.09997,0.4038 0,0.2479 0.07997,0.4399 0.23592,0.5678 0.15594,0.128 0.38386,0.196 0.68376,0.196" /></g><g
       id="g264"
       clip-path="url(#clipPath56)"
       transform="translate(-11.2,-6.4)"><g
         id="g266"
         transform="matrix(0.39986,0,0,0.39986,88.495,574.54)"><path
           inkscape:connector-curvature="0"
           id="path268"
           style="fill:none;stroke:#ffffff;stroke-width:1.5;stroke-linecap:square;stroke-linejoin:round;stroke-miterlimit:10;stroke-dasharray:none;stroke-opacity:0.6"
           d="M 57.6,38.016 414.72,283.6578" /></g><g
         id="g270"
         transform="matrix(0.39986,0,0,0.39986,88.495,574.54)"><path
           inkscape:connector-curvature="0"
           id="path272"
           style="fill:none;stroke:#ffffff;stroke-width:1;stroke-linecap:square;stroke-linejoin:round;stroke-miterlimit:10;stroke-dasharray:none;stroke-opacity:0.6"
           d="m 57.6,283.6578 357.12,0" /></g><g
         id="g274"
         transform="matrix(0.39986,0,0,0.39986,88.495,574.54)"><path
           inkscape:connector-curvature="0"
           id="path276"
           style="fill:none;stroke:#ff0000;stroke-width:1.5;stroke-linecap:butt;stroke-linejoin:round;stroke-miterlimit:10;stroke-dasharray:5.55, 2.4;stroke-dashoffset:0;stroke-opacity:0.3"
           d="m 203.0933,141.8831 0,-3.7908" /></g><g
         id="g278"
         transform="matrix(0.39986,0,0,0.39986,88.495,574.54)"><path
           inkscape:connector-curvature="0"
           id="path280"
           style="fill:none;stroke:#ff0000;stroke-width:1.5;stroke-linecap:butt;stroke-linejoin:round;stroke-miterlimit:10;stroke-dasharray:5.55, 2.4;stroke-dashoffset:0;stroke-opacity:0.3"
           d="m 203.0933,141.8831 5.5111,0" /></g><g
         id="g282"
         transform="matrix(0.39986,0,0,0.39986,88.495,574.54)"><path
           inkscape:connector-curvature="0"
           id="path284"
           style="fill:none;stroke:#ff0000;stroke-width:1.5;stroke-linecap:butt;stroke-linejoin:round;stroke-miterlimit:10;stroke-dasharray:5.55, 2.4;stroke-dashoffset:0;stroke-opacity:0.3"
           d="m 379.4489,263.1877 0,-3.7908" /></g><g
         id="g286"
         transform="matrix(0.39986,0,0,0.39986,88.495,574.54)"><path
           inkscape:connector-curvature="0"
           id="path288"
           style="fill:none;stroke:#ff0000;stroke-width:1.5;stroke-linecap:butt;stroke-linejoin:round;stroke-miterlimit:10;stroke-dasharray:5.55, 2.4;stroke-dashoffset:0;stroke-opacity:0.3"
           d="m 379.4489,263.1877 5.5111,0" /></g><g
         id="g290"
         transform="matrix(0.39986,0,0,0.39986,88.495,574.54)"><path
           inkscape:connector-curvature="0"
           id="path292"
           style="fill:none;stroke:#ff0000;stroke-width:1.5;stroke-linecap:butt;stroke-linejoin:round;stroke-miterlimit:10;stroke-dasharray:5.55, 2.4;stroke-dashoffset:0;stroke-opacity:0.3"
           d="m 313.3156,229.0708 0,-15.1631" /></g><g
         id="g294"
         transform="matrix(0.39986,0,0,0.39986,88.495,574.54)"><path
           inkscape:connector-curvature="0"
           id="path296"
           style="fill:none;stroke:#ff0000;stroke-width:1.5;stroke-linecap:butt;stroke-linejoin:round;stroke-miterlimit:10;stroke-dasharray:5.55, 2.4;stroke-dashoffset:0;stroke-opacity:0.3"
           d="m 313.3156,229.0708 22.0444,0" /></g><g
         id="g298"
         transform="matrix(0.39986,0,0,0.39986,88.495,574.54)"><path
           inkscape:connector-curvature="0"
           id="path300"
           style="fill:none;stroke:#ff0000;stroke-width:1.5;stroke-linecap:butt;stroke-linejoin:round;stroke-miterlimit:10;stroke-dasharray:5.55, 2.4;stroke-dashoffset:0;stroke-opacity:0.3"
           d="m 296.7822,206.3262 0,-3.7908" /></g><g
         id="g302"
         transform="matrix(0.39986,0,0,0.39986,88.495,574.54)"><path
           inkscape:connector-curvature="0"
           id="path304"
           style="fill:none;stroke:#ff0000;stroke-width:1.5;stroke-linecap:butt;stroke-linejoin:round;stroke-miterlimit:10;stroke-dasharray:5.55, 2.4;stroke-dashoffset:0;stroke-opacity:0.3"
           d="m 296.7822,206.3262 5.5111,0" /></g><g
         id="g306"
         transform="matrix(0.39986,0,0,0.39986,88.495,574.54)"><path
           inkscape:connector-curvature="0"
           id="path308"
           style="fill:none;stroke:#ff0000;stroke-width:1.5;stroke-linecap:butt;stroke-linejoin:round;stroke-miterlimit:10;stroke-dasharray:5.55, 2.4;stroke-dashoffset:0;stroke-opacity:0.3"
           d="m 103.8933,111.5569 0,-41.69844" /></g><g
         id="g310"
         transform="matrix(0.39986,0,0,0.39986,88.495,574.54)"><path
           inkscape:connector-curvature="0"
           id="path312"
           style="fill:none;stroke:#ff0000;stroke-width:1.5;stroke-linecap:butt;stroke-linejoin:round;stroke-miterlimit:10;stroke-dasharray:5.55, 2.4;stroke-dashoffset:0;stroke-opacity:0.3"
           d="m 103.8933,111.5569 60.6223,0" /></g><g
         id="g314"
         transform="matrix(0.39986,0,0,0.39986,88.495,574.54)"><path
           inkscape:connector-curvature="0"
           id="path316"
           style="fill:none;stroke:#ff0000;stroke-width:1.5;stroke-linecap:butt;stroke-linejoin:round;stroke-miterlimit:10;stroke-dasharray:5.55, 2.4;stroke-dashoffset:0;stroke-opacity:0.3"
           d="m 175.5378,134.3015 0,-15.163" /></g><g
         id="g318"
         transform="matrix(0.39986,0,0,0.39986,88.495,574.54)"><path
           inkscape:connector-curvature="0"
           id="path320"
           style="fill:none;stroke:#ff0000;stroke-width:1.5;stroke-linecap:butt;stroke-linejoin:round;stroke-miterlimit:10;stroke-dasharray:5.55, 2.4;stroke-dashoffset:0;stroke-opacity:0.3"
           d="m 175.5378,134.3015 22.0444,0" /></g><g
         id="g322"
         transform="matrix(0.39986,0,0,0.39986,88.495,574.54)"><path
           inkscape:connector-curvature="0"
           id="path324"
           style="fill:none;stroke:#ff0000;stroke-width:1.5;stroke-linecap:butt;stroke-linejoin:round;stroke-miterlimit:10;stroke-dasharray:5.55, 2.4;stroke-dashoffset:0;stroke-opacity:0.3"
           d="m 252.6933,198.7446 0,-26.5354" /></g><g
         id="g326"
         transform="matrix(0.39986,0,0,0.39986,88.495,574.54)"><path
           inkscape:connector-curvature="0"
           id="path328"
           style="fill:none;stroke:#ff0000;stroke-width:1.5;stroke-linecap:butt;stroke-linejoin:round;stroke-miterlimit:10;stroke-dasharray:5.55, 2.4;stroke-dashoffset:0;stroke-opacity:0.3"
           d="m 252.6933,198.7446 38.5778,0" /></g><g
         id="g330"
         transform="matrix(0.39986,0,0,0.39986,88.495,574.54)"><path
           inkscape:connector-curvature="0"
           id="path332"
           style="fill:none;stroke:#ff0000;stroke-width:1.5;stroke-linecap:butt;stroke-linejoin:round;stroke-miterlimit:10;stroke-dasharray:5.55, 2.4;stroke-dashoffset:0;stroke-opacity:0.3"
           d="m 335.36,240.4431 0,-11.3723" /></g><g
         id="g334"
         transform="matrix(0.39986,0,0,0.39986,88.495,574.54)"><path
           inkscape:connector-curvature="0"
           id="path336"
           style="fill:none;stroke:#ff0000;stroke-width:1.5;stroke-linecap:butt;stroke-linejoin:round;stroke-miterlimit:10;stroke-dasharray:5.55, 2.4;stroke-dashoffset:0;stroke-opacity:0.3"
           d="m 335.36,240.4431 16.5333,0" /></g><g
         id="g338"
         transform="matrix(0.39986,0,0,0.39986,88.495,574.54)"><path
           inkscape:connector-curvature="0"
           id="path340"
           style="fill:none;stroke:#ff0000;stroke-width:1.5;stroke-linecap:butt;stroke-linejoin:round;stroke-miterlimit:10;stroke-dasharray:5.55, 2.4;stroke-dashoffset:0;stroke-opacity:0.3"
           d="m 307.8044,213.9077 0,-3.7908" /></g><g
         id="g342"
         transform="matrix(0.39986,0,0,0.39986,88.495,574.54)"><path
           inkscape:connector-curvature="0"
           id="path344"
           style="fill:none;stroke:#ff0000;stroke-width:1.5;stroke-linecap:butt;stroke-linejoin:round;stroke-miterlimit:10;stroke-dasharray:5.55, 2.4;stroke-dashoffset:0;stroke-opacity:0.3"
           d="m 307.8044,213.9077 5.5112,0" /></g><g
         id="g346"
         transform="matrix(0.39986,0,0,0.39986,88.495,574.54)"><path
           inkscape:connector-curvature="0"
           id="path348"
           style="fill:none;stroke:#ff0000;stroke-width:1.5;stroke-linecap:butt;stroke-linejoin:round;stroke-miterlimit:10;stroke-dasharray:5.55, 2.4;stroke-dashoffset:0;stroke-opacity:0.3"
           d="m 225.1378,157.0462 0,-3.7908" /></g><g
         id="g350"
         transform="matrix(0.39986,0,0,0.39986,88.495,574.54)"><path
           inkscape:connector-curvature="0"
           id="path352"
           style="fill:none;stroke:#ff0000;stroke-width:1.5;stroke-linecap:butt;stroke-linejoin:round;stroke-miterlimit:10;stroke-dasharray:5.55, 2.4;stroke-dashoffset:0;stroke-opacity:0.3"
           d="m 225.1378,157.0462 5.5111,0" /></g><g
         id="g354"
         transform="matrix(0.39986,0,0,0.39986,88.495,574.54)"><path
           inkscape:connector-curvature="0"
           id="path356"
           style="fill:none;stroke:#ff0000;stroke-width:1.5;stroke-linecap:butt;stroke-linejoin:round;stroke-miterlimit:10;stroke-dasharray:5.55, 2.4;stroke-dashoffset:0;stroke-opacity:0.3"
           d="m 87.36,66.06769 0,-7.58154" /></g><g
         id="g358"
         transform="matrix(0.39986,0,0,0.39986,88.495,574.54)"><path
           inkscape:connector-curvature="0"
           id="path360"
           style="fill:none;stroke:#ff0000;stroke-width:1.5;stroke-linecap:butt;stroke-linejoin:round;stroke-miterlimit:10;stroke-dasharray:5.55, 2.4;stroke-dashoffset:0;stroke-opacity:0.3"
           d="m 87.36,66.06769 11.02222,0" /></g></g><g
       id="g364"
       clip-path="url(#clipPath60)"
       transform="translate(-11.2,-6.4)"><g
         id="g366"
         transform="matrix(0.39986,0,0,0.39986,88.495,574.54)"><path
           inkscape:connector-curvature="0"
           id="path368"
           style="fill:none;stroke:#ffffff;stroke-width:0.80000001;stroke-linecap:square;stroke-linejoin:miter;stroke-miterlimit:10;stroke-dasharray:none;stroke-opacity:1"
           d="m 57.6,38.016 0,266.112" /></g><g
         id="g370"
         transform="matrix(0.39986,0,0,0.39986,88.495,574.54)" /><g
         id="g374"
         transform="matrix(0.39986,0,0,0.39986,88.495,574.54)"><path
           inkscape:connector-curvature="0"
           id="path376"
           style="fill:none;stroke:#ffffff;stroke-width:0.80000001;stroke-linecap:square;stroke-linejoin:miter;stroke-miterlimit:10;stroke-dasharray:none;stroke-opacity:1"
           d="m 57.6,38.016 357.12,0" /></g></g><g
       id="g384"
       clip-path="url(#clipPath64)"
       transform="translate(-11.2,-6.4)"><path
         inkscape:connector-curvature="0"
         id="path386"
         style="fill:#ffffff;fill-opacity:0.6;fill-rule:nonzero;stroke:none"
         d="m 113.3503,688.6932 c -0.044,0.048 -0.096,0.1239 -0.1559,0.2359 -0.088,-0.16 -0.172,-0.2719 -0.248,-0.3359 -0.0959,-0.088 -0.2199,-0.1279 -0.3678,-0.1279 -0.176,0 -0.3239,0.0639 -0.4399,0.1999 -0.1239,0.1359 -0.1839,0.3159 -0.1839,0.5478 0,0.2159 0.06,0.3998 0.1839,0.5518 0.108,0.128 0.2559,0.1959 0.4439,0.1959 0.0919,0 0.1759,-0.02 0.2479,-0.06 0.08,-0.0439 0.1479,-0.1039 0.2039,-0.1759 0.052,-0.068 0.104,-0.1439 0.16,-0.2319 0.0839,0.1519 0.1639,0.2639 0.2439,0.3359 0.0959,0.0799 0.2159,0.1239 0.3678,0.1239 0.176,0 0.3199,-0.0679 0.4399,-0.1959 0.1199,-0.14 0.1839,-0.3239 0.1839,-0.5478 0,-0.2199 -0.064,-0.4039 -0.1839,-0.5518 -0.112,-0.132 -0.2599,-0.1959 -0.4439,-0.1959 -0.0959,0 -0.1759,0.0159 -0.2479,0.0559 -0.0719,0.036 -0.1399,0.096 -0.2039,0.176 m -0.7957,0.028 c 0.2159,0 0.3878,0.1559 0.5158,0.4678 -0.1679,0.3399 -0.3399,0.5118 -0.5158,0.5118 -0.132,0 -0.2279,-0.048 -0.2919,-0.1399 -0.072,-0.1 -0.108,-0.216 -0.108,-0.3479 0,-0.148 0.036,-0.2679 0.108,-0.3559 0.072,-0.092 0.1679,-0.1359 0.2919,-0.1359 m 1.2755,0.9756 c -0.1959,0 -0.3678,-0.1559 -0.5158,-0.4678 0.16,-0.3439 0.3319,-0.5118 0.5158,-0.5118 0.128,0 0.2279,0.0439 0.2919,0.1399 0.072,0.1 0.108,0.2159 0.108,0.3519 0,0.1439 -0.036,0.2639 -0.108,0.3519 -0.0719,0.0879 -0.1719,0.1359 -0.2919,0.1359" /></g><g
       id="g436" /><text
       transform="scale(1,-1)"
       style="font-variant:normal;font-weight:normal;font-size:11.9552002px;font-family:CMSY10;-inkscape-font-specification:CMSY10;writing-mode:lr-tb;fill:#ffffff;fill-opacity:1;fill-rule:nonzero;stroke:none"
       id="text994"
       x="162.492"
       y="-324.617"><tspan
         x="162.492"
         y="-324.617"
         id="tspan996" /></text>
</g></svg>