<?xml version="1.0" encoding="UTF-8" standalone="no"?>
<!-- Created with Inkscape (http://www.inkscape.org/) -->

<svg
   xmlns:dc="http://purl.org/dc/elements/1.1/"
   xmlns:cc="http://creativecommons.org/ns#"
   xmlns:rdf="http://www.w3.org/1999/02/22-rdf-syntax-ns#"
   xmlns:svg="http://www.w3.org/2000/svg"
   xmlns="http://www.w3.org/2000/svg"
   xmlns:sodipodi="http://sodipodi.sourceforge.net/DTD/sodipodi-0.dtd"
   xmlns:inkscape="http://www.inkscape.org/namespaces/inkscape"
   id="svg2"
   version="1.1"
   inkscape:version="0.91 r13725"
   xml:space="preserve"
   width="600"
   height="800"
   viewBox="0 0 600 800"
   sodipodi:docname="sublevel.svg"><metadata
     id="metadata8"><rdf:RDF><cc:Work
         rdf:about=""><dc:format>image/svg+xml</dc:format><dc:type
           rdf:resource="http://purl.org/dc/dcmitype/StillImage" /><dc:title /></cc:Work></rdf:RDF></metadata><defs
     id="defs6"><clipPath
       clipPathUnits="userSpaceOnUse"
       id="clipPath18"><path
         d="m 0,0 1024,0 0,768 L 0,768 0,0 Z"
         id="path20"
         inkscape:connector-curvature="0" /></clipPath><clipPath
       clipPathUnits="userSpaceOnUse"
       id="clipPath62"><path
         d="m 628,599 19,0 0,33 -19,0 0,-33 z"
         id="path64"
         inkscape:connector-curvature="0" /></clipPath><clipPath
       clipPathUnits="userSpaceOnUse"
       id="clipPath76"><path
         d="m 628,224 23,0 0,17 -23,0 0,-17 z"
         id="path78"
         inkscape:connector-curvature="0" /></clipPath><clipPath
       clipPathUnits="userSpaceOnUse"
       id="clipPath96"><path
         d="m 628,275 23,0 0,16 -23,0 0,-16 z"
         id="path98"
         inkscape:connector-curvature="0" /></clipPath><clipPath
       clipPathUnits="userSpaceOnUse"
       id="clipPath116"><path
         d="m 628,359 23,0 0,17 -23,0 0,-17 z"
         id="path118"
         inkscape:connector-curvature="0" /></clipPath><clipPath
       clipPathUnits="userSpaceOnUse"
       id="clipPath136"><path
         d="m 628,427 23,0 0,16 -23,0 0,-16 z"
         id="path138"
         inkscape:connector-curvature="0" /></clipPath><clipPath
       clipPathUnits="userSpaceOnUse"
       id="clipPath156"><path
         d="m 628,473 23,0 0,17 -23,0 0,-17 z"
         id="path158"
         inkscape:connector-curvature="0" /></clipPath><clipPath
       clipPathUnits="userSpaceOnUse"
       id="clipPath176"><path
         d="m 0,0 1024,0 0,768 L 0,768 0,0 Z"
         id="path178"
         inkscape:connector-curvature="0" /></clipPath><clipPath
       clipPathUnits="userSpaceOnUse"
       id="clipPath188"><path
         d="m 628,492 23,0 0,18 -23,0 0,-18 z"
         id="path190"
         inkscape:connector-curvature="0" /></clipPath><clipPath
       clipPathUnits="userSpaceOnUse"
       id="clipPath208"><path
         d="m 405.7111,528.584 c -4.022,-6.3981 -10.716,-10.7868 -18.2435,-10.9236 -6.3234,-0.115 -12.1191,2.8518 -17.5843,6.014 -14.4192,8.3431 -28.4173,18.4796 -45.0476,20.2236 -29.4172,3.0848 -54.8547,-18.5604 -64.1948,-47.4688 -6.6335,-20.5314 -4.7173,-42.4996 -6.3183,-63.9603 -1.7047,-22.8486 3.5857,-46.8213 22.1813,-45.541 22.8595,1.5739 16.7396,32.2027 14.5775,58.1877 -1.2375,14.8729 4.5215,29.9711 17.7393,36.2205 14.3658,6.7921 31.1144,0.3458 40.9606,-12.6679 17.8385,-23.5773 9.9922,-55.8584 -6.4052,-81.6923 -16.3036,-25.6862 -40.0831,-49.3968 -37.7896,-79.9534 1.7776,-23.6834 18.9123,-42.3211 38.9471,-55.4122 20.2987,-13.2637 44.0589,-21.6431 67.8919,-17.3876 30.4559,5.438 53.029,29.4004 66.8613,57.3182 14.4607,29.1859 19.7842,61.6704 23.7298,93.9609 3.7006,30.285 5.8495,62.1548 -9.9848,88.2432 -11.4845,18.9217 -31.7877,32.7369 -35.9803,54.7336 -4.1832,21.9475 -0.5833,51.0651 -22.3262,51.3464 -24.1297,0.3123 -17.7921,-33.3893 -29.0142,-51.241 z"
         id="path210"
         inkscape:connector-curvature="0" /></clipPath><linearGradient
       x1="0"
       y1="0"
       x2="100"
       y2="0"
       gradientUnits="userSpaceOnUse"
       gradientTransform="matrix(-0.1935204,3.357419,3.035815,0.2140212,385.5029,255.4489)"
       spreadMethod="pad"
       id="linearGradient220"><stop
         style="stop-opacity:1;stop-color:#fb9100"
         offset="0"
         id="stop222" /><stop
         style="stop-opacity:1;stop-color:#0365c0"
         offset="1"
         id="stop224" /></linearGradient><clipPath
       clipPathUnits="userSpaceOnUse"
       id="clipPath232"><path
         d="m 0,0 1024,0 0,768 L 0,768 0,0 Z"
         id="path234"
         inkscape:connector-curvature="0" /></clipPath><clipPath
       clipPathUnits="userSpaceOnUse"
       id="clipPath244"><path
         d="m 0,0 1024,0 0,768 L 0,768 0,0 Z"
         id="path246"
         inkscape:connector-curvature="0" /></clipPath><clipPath
       clipPathUnits="userSpaceOnUse"
       id="clipPath250"><path
         d="m 398,231 90,0 0,217 -90,0 0,-217 z"
         id="path252"
         inkscape:connector-curvature="0" /></clipPath><clipPath
       clipPathUnits="userSpaceOnUse"
       id="clipPath254"><path
         d="m 399.1248,233.9501 c 11.5043,10.6474 3.1097,65.3551 4.5877,98.0362 0.6835,15.1139 1.23,30.2338 1.7931,45.3528 l 1.2965,47.4099 c -0.8464,12.0301 9.0062,22.098 21.0518,21.5118 11.1302,-0.5417 19.4469,-10.1376 18.6461,-21.2522 l 0,-32.2383 2.471,-63.2515 c -1.5421,-9.2639 2.3954,-18.5867 10.1113,-23.9405 8.0769,-5.6042 18.7285,-5.8122 27.018,-0.5278 -14.1981,-25.7671 -27.194,-52.0487 -61.0281,-64.5414 -1.366,-0.5044 -2.3888,-1.6674 -3.6404,-2.4119 -6.7067,-3.9892 -14.6148,-5.4594 -22.307,-4.1471 z"
         id="path256"
         inkscape:connector-curvature="0" /></clipPath><linearGradient
       x1="0"
       y1="0"
       x2="100"
       y2="0"
       gradientUnits="userSpaceOnUse"
       gradientTransform="matrix(0.06673948,1.887752,1.865423,-0.06753834,426.9998,261.4602)"
       spreadMethod="pad"
       id="linearGradient262"><stop
         style="stop-opacity:1;stop-color:#fb9100"
         offset="0"
         id="stop264" /><stop
         style="stop-opacity:1;stop-color:#0365c0"
         offset="1"
         id="stop266" /></linearGradient><clipPath
       clipPathUnits="userSpaceOnUse"
       id="clipPath268"><path
         d="m 398,231 90,0 0,217 -90,0 0,-217 z"
         id="path270"
         inkscape:connector-curvature="0" /></clipPath><clipPath
       clipPathUnits="userSpaceOnUse"
       id="clipPath364"><path
         d="m 628,532 23,0 0,16 -23,0 0,-16 z"
         id="path366"
         inkscape:connector-curvature="0" /></clipPath><clipPath
       clipPathUnits="userSpaceOnUse"
       id="clipPath384"><path
         d="m 0,0 1024,0 0,768 L 0,768 0,0 Z"
         id="path386"
         inkscape:connector-curvature="0" /></clipPath><clipPath
       clipPathUnits="userSpaceOnUse"
       id="clipPath404"><path
         d="m 628,555 23,0 0,17 -23,0 0,-17 z"
         id="path406"
         inkscape:connector-curvature="0" /></clipPath><clipPath
       clipPathUnits="userSpaceOnUse"
       id="clipPath424"><path
         d="m 628,571 23,0 0,17 -23,0 0,-17 z"
         id="path426"
         inkscape:connector-curvature="0" /></clipPath></defs><sodipodi:namedview
     pagecolor="#ffffff"
     bordercolor="#666666"
     borderopacity="1"
     objecttolerance="10"
     gridtolerance="10"
     guidetolerance="10"
     inkscape:pageopacity="0"
     inkscape:pageshadow="2"
     inkscape:window-width="1357"
     inkscape:window-height="965"
     id="namedview4"
     showgrid="false"
     inkscape:zoom="0.5"
     inkscape:cx="276.96048"
     inkscape:cy="954.11197"
     inkscape:window-x="130"
     inkscape:window-y="3"
     inkscape:window-maximized="0"
     inkscape:current-layer="g10" /><g
     id="g10"
     inkscape:groupmode="layer"
     inkscape:label="sublevel"
     transform="matrix(1.25,0,0,-1.25,-200.02825,1028.6869)"><g
       id="g12" /><path
       d="M 162.0888,315.8249 602.7452,315.8 529.1033,444.3912 236.2089,445.6528 162.0888,315.8249 Z"
       style="fill:#51a7f9;fill-opacity:1;fill-rule:nonzero;stroke:none"
       id="path26"
       inkscape:connector-curvature="0" /><g
       id="g28"
       transform="matrix(0,1.2922374,-1,0,617.75738,237.62382)"
       style="fill:#e3dbdb"><path
         d="m -0.1732025,-0.2426605 436.5750025,0 1.425,0"
         style="fill:#e3dbdb;stroke:#ffffff;stroke-width:2;stroke-linecap:butt;stroke-linejoin:miter;stroke-miterlimit:4;stroke-dasharray:none;stroke-opacity:1"
         id="path30"
         inkscape:connector-curvature="0" /></g><path
       d="m 622.8,802.4 -4.8,9.6 -4.8,-9.6 9.6,0 z"
       style="fill:#ffffff;fill-opacity:1;fill-rule:nonzero;stroke:none"
       id="path32"
       inkscape:connector-curvature="0" /><g
       id="g34"
       transform="matrix(1,0,0,-1,457.9041,664.7414)"><path
         d="m 0.09594727,0.441391 159.99995273,0"
         style="fill:none;stroke:#ffffff;stroke-width:1;stroke-linecap:butt;stroke-linejoin:miter;stroke-miterlimit:4;stroke-dasharray:6, 6;stroke-dashoffset:0;stroke-opacity:1"
         id="path36"
         inkscape:connector-curvature="0" /></g><g
       id="g38"
       transform="matrix(1,0,0,-1,498.071,606.7912)"><path
         d="m -0.0710144,0.4912109 120.0000144,0"
         style="fill:none;stroke:#ffffff;stroke-width:1;stroke-linecap:butt;stroke-linejoin:miter;stroke-miterlimit:4;stroke-dasharray:6, 6;stroke-dashoffset:0;stroke-opacity:1"
         id="path40"
         inkscape:connector-curvature="0" /></g><g
       id="g42"
       transform="matrix(1,0,0,-1,512.9788,560.9974)"><path
         d="m 0.02124023,-0.3025818 105.99995977,0"
         style="fill:none;stroke:#ffffff;stroke-width:1;stroke-linecap:butt;stroke-linejoin:miter;stroke-miterlimit:4;stroke-dasharray:6, 6;stroke-dashoffset:0;stroke-opacity:1"
         id="path44"
         inkscape:connector-curvature="0" /></g><g
       id="g46"
       transform="matrix(1,0,0,-1,500.3622,492.6878)"><path
         d="m -0.3622437,0.3878479 116.0000437,0"
         style="fill:none;stroke:#ffffff;stroke-width:1;stroke-linecap:butt;stroke-linejoin:miter;stroke-miterlimit:4;stroke-dasharray:6, 6;stroke-dashoffset:0;stroke-opacity:1"
         id="path48"
         inkscape:connector-curvature="0" /></g><g
       id="g50"
       transform="matrix(1,0,0,-1,482.1548,408.6286)"><path
         d="m -0.1547546,0.3286438 134.9999546,0"
         style="fill:none;stroke:#ffffff;stroke-width:1;stroke-linecap:butt;stroke-linejoin:miter;stroke-miterlimit:4;stroke-dasharray:6, 6;stroke-dashoffset:0;stroke-opacity:1"
         id="path52"
         inkscape:connector-curvature="0" /></g><g
       id="g54"
       transform="matrix(1,0,0,-1,406.8085,356.6125)"><path
         d="m 0.1915283,0.3125 209.9999717,0"
         style="fill:none;stroke:#ffffff;stroke-width:1;stroke-linecap:butt;stroke-linejoin:miter;stroke-miterlimit:4;stroke-dasharray:6, 6;stroke-dashoffset:0;stroke-opacity:1"
         id="path56"
         inkscape:connector-curvature="0" /></g><g
       transform="translate(0,124.8)"
       id="g172"><g
         id="g174"
         clip-path="url(#clipPath176)"><g
           id="g180"
           transform="matrix(1,0,0,-1,432.8137,579.8784)"><path
             d="m 0.1862793,0.3784332 182.0000207,0"
             style="fill:none;stroke:#ffffff;stroke-width:1;stroke-linecap:butt;stroke-linejoin:miter;stroke-miterlimit:4;stroke-dasharray:6, 6;stroke-dashoffset:0;stroke-opacity:1"
             id="path182"
             inkscape:connector-curvature="0" /></g></g></g><g
       transform="translate(0,124.8)"
       id="g204"><g
         id="g206"
         clip-path="url(#clipPath208)"><g
           id="g212"><g
             id="g218"><path
               d="m 0,0 1024,0 0,768 L 0,768 0,0 Z"
               style="fill:url(#linearGradient220);stroke:none"
               id="path226"
               inkscape:connector-curvature="0" /></g></g></g></g><g
       transform="translate(0,124.8)"
       id="g228"><g
         id="g230"
         clip-path="url(#clipPath232)"><g
           id="g236"
           transform="matrix(1,0,0,-1,254.0216,579.8272)"><path
             d="m 151.6895,51.24323 c -4.022,6.39801 -10.716,10.78673 -18.2435,10.92358 -6.3234,0.11495 -12.1191,-2.85187 -17.5843,-6.01406 C 101.4426,47.80969 87.44439,37.67314 70.81409,35.92922 41.3969,32.84442 15.95946,54.48957 6.619345,83.39802 -0.01420553,103.9294 1.902071,125.8976 0.3009877,147.3583 -1.40364,170.2069 3.886727,194.1796 22.48235,192.8992 45.3418,191.3254 39.2219,160.6966 37.05983,134.7115 c -1.23748,-14.8729 4.52152,-29.9711 17.73933,-36.22042 14.36576,-6.79211 31.11439,-0.34583 40.96053,12.66782 17.83851,23.5773 9.99221,55.8585 -6.40512,81.6924 -16.30364,25.6862 -40.08314,49.3968 -37.78964,79.9534 1.77762,23.6834 18.91228,42.3211 38.94705,55.4122 20.29872,13.2637 44.05902,21.6431 67.89202,17.3876 30.4558,-5.438 53.0289,-29.4004 66.8612,-57.3182 14.4607,-29.186 19.7842,-61.6705 23.7299,-93.961 3.7005,-30.285 5.8494,-62.1547 -9.9849,-88.2431 C 227.5257,87.16048 207.2225,73.34525 203.0299,51.34861 198.8467,29.4011 202.4466,0.2835107 180.7037,0.00215458 156.574,-0.3100861 162.9116,33.39152 151.6895,51.24323 Z"
             style="fill:none;stroke:#ffffff;stroke-width:1;stroke-linecap:butt;stroke-linejoin:miter;stroke-miterlimit:4;stroke-dasharray:none;stroke-opacity:1"
             id="path238"
             inkscape:connector-curvature="0" /></g></g></g><g
       transform="translate(0,124.8)"
       id="g240"><g
         id="g242"
         clip-path="url(#clipPath244)"><g
           id="g248" /><g
           id="g272"><g
             clip-path="url(#clipPath250)"
             id="g274"
             style="opacity:0.58200001"><g
               id="g276" /><g
               id="g278"><g
                 clip-path="url(#clipPath254)"
                 id="g280"><g
                   id="g282"><g
                     id="g284"><path
                       d="m 398,231 90,0 0,217 -90,0 0,-217 z"
                       style="fill:url(#linearGradient262);stroke:none"
                       id="path286"
                       inkscape:connector-curvature="0" /></g></g></g></g><g
               id="g288"><g
                 clip-path="url(#clipPath268)"
                 id="g290"><g
                   transform="matrix(1,0,0,-1,399.1248,446.2852)"
                   id="g292"><path
                     d="M 0,212.3351 C 11.50436,201.6876 3.109696,146.98 4.587742,114.2989 5.271293,99.18491 5.817793,84.06503 6.380859,68.94607 L 7.67734,21.53616 C 6.830908,9.506037 16.68356,-0.5618837 28.72916,0.02437916 39.85939,0.5660908 48.176,10.16192 47.37524,21.27652 l 0,32.23835 2.471,63.25143 c -1.54211,9.264 2.39538,18.5867 10.11133,23.9405 8.07683,5.6042 18.72843,5.8123 27.01799,0.5278 -14.19813,25.7671 -27.19398,52.0487 -61.02812,64.5414 -1.36602,0.5044 -2.38883,1.6674 -3.64044,2.4119 -6.70661,3.9892 -14.614769,5.4595 -22.307,4.1472 z"
                     style="fill:none;stroke:#ffffff;stroke-width:1;stroke-linecap:butt;stroke-linejoin:round;stroke-miterlimit:4;stroke-dasharray:1, 2;stroke-dashoffset:0;stroke-opacity:1"
                     id="path294"
                     inkscape:connector-curvature="0" /></g></g></g></g></g><path
           d="m 278.8177,390.4233 c 1.9526,-1.9526 1.9526,-5.1185 0,-7.0711 -1.9527,-1.9526 -5.1185,-1.9526 -7.0711,0 -1.9526,1.9526 -1.9526,5.1185 0,7.0711 1.9526,1.9526 5.1184,1.9526 7.0711,0 z"
           style="fill:#c82506;fill-opacity:1;fill-rule:nonzero;stroke:none"
           id="path296"
           inkscape:connector-curvature="0" /><path
           d="m 430.4165,449.2486 c 1.9526,-1.9526 1.9526,-5.1184 0,-7.071 -1.9526,-1.9527 -5.1184,-1.9527 -7.0711,0 -1.9526,1.9526 -1.9526,5.1184 0,7.071 1.9527,1.9527 5.1185,1.9527 7.0711,0 z"
           style="fill:#c82506;fill-opacity:1;fill-rule:nonzero;stroke:none"
           id="path298"
           inkscape:connector-curvature="0" /><path
           d="m 326.2476,485.6095 c 1.9526,-1.9526 1.9526,-5.1185 0,-7.0711 -1.9526,-1.9526 -5.1184,-1.9526 -7.0711,0 -1.9526,1.9526 -1.9526,5.1185 0,7.0711 1.9527,1.9526 5.1185,1.9526 7.0711,0 z"
           style="fill:#c82506;fill-opacity:1;fill-rule:nonzero;stroke:none"
           id="path300"
           inkscape:connector-curvature="0" /><path
           d="m 322.2393,547.3454 c 1.9527,-1.9527 1.9527,-5.1185 0,-7.0711 -1.9526,-1.9526 -5.1184,-1.9526 -7.071,0 -1.9527,1.9526 -1.9527,5.1184 0,7.0711 1.9526,1.9526 5.1184,1.9526 7.071,0 z"
           style="fill:#c82506;fill-opacity:1;fill-rule:nonzero;stroke:none"
           id="path302"
           inkscape:connector-curvature="0" /><path
           d="m 469.8983,305.598 c 1.9526,-1.9526 1.9526,-5.1185 0,-7.0711 -1.9527,-1.9526 -5.1185,-1.9526 -7.0711,0 -1.9526,1.9526 -1.9526,5.1185 0,7.0711 1.9526,1.9526 5.1184,1.9526 7.0711,0 z"
           style="fill:#c82506;fill-opacity:1;fill-rule:nonzero;stroke:none"
           id="path304"
           inkscape:connector-curvature="0" /><path
           d="m 402.0902,235.8245 c 1.9526,-1.9526 1.9526,-5.1185 0,-7.0711 -1.9526,-1.9526 -5.1184,-1.9526 -7.071,0 -1.9527,1.9526 -1.9527,5.1185 0,7.0711 1.9526,1.9526 5.1184,1.9526 7.071,0 z"
           style="fill:#c82506;fill-opacity:1;fill-rule:nonzero;stroke:none"
           id="path306"
           inkscape:connector-curvature="0" /><path
           d="m 391.5234,521.7937 c 1.9526,-1.9526 1.9526,-5.1184 0,-7.071 -1.9526,-1.9526 -5.1184,-1.9526 -7.071,0 -1.9527,1.9526 -1.9527,5.1184 0,7.071 1.9526,1.9527 5.1184,1.9527 7.071,0 z"
           style="fill:#c82506;fill-opacity:1;fill-rule:nonzero;stroke:none"
           id="path308"
           inkscape:connector-curvature="0" /><path
           d="m 437.1541,582.1089 c 1.9526,-1.9526 1.9526,-5.1184 0,-7.071 -1.9527,-1.9527 -5.1185,-1.9527 -7.0711,0 -1.9526,1.9526 -1.9526,5.1184 0,7.071 1.9526,1.9527 5.1184,1.9527 7.0711,0 z"
           style="fill:#c82506;fill-opacity:1;fill-rule:nonzero;stroke:none"
           id="path310"
           inkscape:connector-curvature="0" /><g
           id="g312"
           transform="matrix(1,0,0,-1,361.274,459.0125)"><path
             d="M 0.1564602,24.69669 C -1.470182,39.36619 9.790719,41.38057 24.43472,40.91711 c 22.97678,-0.72717 53.60734,3.22226 79.85778,4.59761 18.7937,0.98465 39.529,-1.24864 38.8889,-17.14981 C 142.912,21.67455 137.4264,16.85499 131.59,13.36236 113.7014,2.657398 92.55598,-0.02733993 71.72834,2.091752e-4 51.80226,0.02656577 31.81486,2.491244 13.66021,10.72534 7.205074,13.65309 0.9158707,17.84812 0.1564602,24.69669 Z"
             style="fill:none;stroke:#ffffff;stroke-width:1;stroke-linecap:butt;stroke-linejoin:miter;stroke-miterlimit:4;stroke-dasharray:2, 2;stroke-dashoffset:0;stroke-opacity:1"
             id="path314"
             inkscape:connector-curvature="0" /></g><g
           id="g316"
           transform="matrix(1,0,0,-1,337.8124,392.9739)"><path
             d="M 67.98621,0.03191385 C 54.66566,-0.1149382 41.34503,0.2450074 28.05191,1.111932 16.37411,1.873511 3.782147,4.757383 0.6738625,15.45257 -3.403372,29.48178 11.67851,39.98703 28.19295,43.90595 45.87892,48.10287 63.98002,50.37021 82.15726,50.1447 103.3156,49.88221 124.2782,46.31812 144.537,40.21898 155.8092,36.82535 162.8381,29.53862 163.616,19.50193 163.9977,14.57767 157.8727,11.81028 153.4044,9.592484 140.2148,3.045866 125.5129,0.1435923 110.8231,1.249483"
             style="fill:none;stroke:#ffffff;stroke-width:1;stroke-linecap:butt;stroke-linejoin:miter;stroke-miterlimit:4;stroke-dasharray:2, 2;stroke-dashoffset:0;stroke-opacity:1"
             id="path318"
             inkscape:connector-curvature="0" /></g><g
           id="g320"
           transform="matrix(1,0,0,-1,406.6943,361.2282)"><path
             d="M 0,0.835651 C 6.044466,5.483846 13.48422,7.949384 21.10835,7.830964 28.83289,7.710983 36.28296,4.94709 42.21669,0"
             style="fill:none;stroke:#ffffff;stroke-width:1;stroke-linecap:butt;stroke-linejoin:miter;stroke-miterlimit:4;stroke-dasharray:2, 2;stroke-dashoffset:0;stroke-opacity:1"
             id="path322"
             inkscape:connector-curvature="0" /></g><g
           id="g324"
           transform="matrix(1,0,0,-1,405.765,429.1253)"><path
             d="M 0,0.835651 C 6.044466,5.483846 13.48422,7.949384 21.10835,7.830964 28.83289,7.710983 36.28296,4.94709 42.21669,0"
             style="fill:none;stroke:#ffffff;stroke-width:1;stroke-linecap:butt;stroke-linejoin:miter;stroke-miterlimit:4;stroke-dasharray:2, 2;stroke-dashoffset:0;stroke-opacity:1"
             id="path326"
             inkscape:connector-curvature="0" /></g><g
           id="g328"
           transform="matrix(1,0,0,-1,311.9177,305.5199)"><path
             d="M 92.84347,0.6382778 C 68.02493,-0.7723675 43.12871,0.1564531 18.48427,3.412447 10.34736,4.487486 -0.1362047,6.904243 0.00133945,14.71079 0.2301527,27.69748 13.58962,33.24218 30.24608,32.32356 c 35.01927,-1.93134 69.88922,5.95859 104.90962,4.05496 7.1229,-0.38718 14.4449,-1.36654 19.9808,-5.87097 2.2111,-1.79908 3.9214,-4.13785 5.0444,-6.75792"
             style="fill:none;stroke:#ffffff;stroke-width:1;stroke-linecap:butt;stroke-linejoin:miter;stroke-miterlimit:4;stroke-dasharray:2, 2;stroke-dashoffset:0;stroke-opacity:1"
             id="path330"
             inkscape:connector-curvature="0" /></g><g
           id="g332"
           transform="matrix(1,0,0,-1,406.7466,283.8286)"><path
             d="m 0,1.870642 c 4.314434,2.668928 9.173119,4.33497 14.21749,4.875175 11.73894,1.25713 22.998,-3.566349 34.57337,-5.618435 5.72696,-1.0152786 11.55427,-1.3465329 17.3594,-0.9867983"
             style="fill:none;stroke:#ffffff;stroke-width:1;stroke-linecap:butt;stroke-linejoin:miter;stroke-miterlimit:4;stroke-dasharray:2, 2;stroke-dashoffset:0;stroke-opacity:1"
             id="path334"
             inkscape:connector-curvature="0" /></g><g
           id="g336"
           transform="matrix(1,0,0,-1,255.2795,443.6444)"><path
             d="M 0.1792756,9.437566 C 1.627137,16.73847 11.4636,15.00867 19.52253,14.163 27.76853,13.2977 36.80248,11.60612 35.15309,5.061467 33.91003,0.1291098 27.85352,0.3526374 22.80001,0.1352116 11.34998,-0.3574237 -1.685367,0.03501825 0.1792756,9.437566 Z"
             style="fill:none;stroke:#ffffff;stroke-width:1;stroke-linecap:butt;stroke-linejoin:miter;stroke-miterlimit:4;stroke-dasharray:2, 2;stroke-dashoffset:0;stroke-opacity:1"
             id="path338"
             inkscape:connector-curvature="0" /></g><g
           id="g340"
           transform="matrix(1,0,0,-1,256.6968,471.0524)"><path
             d="M 0.1228591,7.645249 C 1.299364,14.03192 9.713178,12.17244 16.61029,12.24455 25.14172,12.33373 35.51085,14.38165 35.61811,6.712828 35.71321,-0.08612993 26.61526,0.2098978 18.83115,0.04114616 9.322072,-0.1650011 -1.26219,0.1264954 0.1228591,7.645249 Z"
             style="fill:none;stroke:#ffffff;stroke-width:1;stroke-linecap:butt;stroke-linejoin:miter;stroke-miterlimit:4;stroke-dasharray:2, 2;stroke-dashoffset:0;stroke-opacity:1"
             id="path342"
             inkscape:connector-curvature="0" /></g><g
           id="g344"
           transform="matrix(1,0,0,-1,351.9815,481.8705)"><path
             d="M 0.0810535,12.96217 C 0.7698948,9.177933 5.176116,8.191369 9.292504,7.742507 44.02198,3.955514 85.43023,-2.868653 124.4323,1.309633 c 8.6054,0.921896 17.7082,4.204504 16.8246,11.717177 -0.6081,5.17025 -6.1686,7.46632 -11.4639,8.80823 C 89.32183,32.09108 46.81173,35.26133 7.665949,20.82558 3.475813,19.28039 -0.6316097,16.87728 0.0810535,12.96217 Z"
             style="fill:none;stroke:#ffffff;stroke-width:1;stroke-linecap:butt;stroke-linejoin:miter;stroke-miterlimit:4;stroke-dasharray:2, 2;stroke-dashoffset:0;stroke-opacity:1"
             id="path346"
             inkscape:connector-curvature="0" /></g><g
           id="g348"
           transform="matrix(1,0,0,-1,410.6312,545.1961)"><path
             d="M 0.2266827,6.779757 C -2.10093,14.73524 13.99014,15.13904 25.85741,14.37282 35.69932,13.73736 45.85476,11.32628 43.73664,5.271283 42.18005,0.821508 35.4851,0.8414594 29.92791,0.3450281 16.39997,-0.8634411 1.899954,1.060731 0.2266827,6.779757 Z"
             style="fill:none;stroke:#ffffff;stroke-width:1;stroke-linecap:butt;stroke-linejoin:miter;stroke-miterlimit:4;stroke-dasharray:2, 2;stroke-dashoffset:0;stroke-opacity:1"
             id="path350"
             inkscape:connector-curvature="0" /></g><g
           id="g352"
           transform="matrix(1,0,0,-1,260.106,510.7901)"><path
             d="M 76.91534,2.785615 C 61.14375,4.609711 45.48994,7.700467 29.65669,6.023315 15.89806,4.56592 -2.492436,11.49893 0.2801515,15.88766 4.873968,23.15922 20.38298,23.68489 34.60368,20.62482 65.2869,14.02229 100.72,21.36649 139.9725,24.90097 182.2838,28.71089 209.6134,23.19314 213.0396,13.78276 215.6102,6.722419 195.4507,2.962406 183.0373,1.332232 169.3573,-0.4642982 155.1805,0.07657525 141.4625,0.07584666 119.9154,0.07470227 97.98067,0.3492637 76.91534,2.785615 Z"
             style="fill:none;stroke:#ffffff;stroke-width:1;stroke-linecap:butt;stroke-linejoin:miter;stroke-miterlimit:4;stroke-dasharray:2, 2;stroke-dashoffset:0;stroke-opacity:1"
             id="path354"
             inkscape:connector-curvature="0" /></g><g
           id="g356"
           transform="matrix(1,0,0,-1,297.8909,537.5697)"><path
             d="M 0,0.7485286 C 7.105614,4.912117 15.85147,7.120606 24.81406,7.014532 33.8947,6.90706 42.65268,4.431322 49.62813,0"
             style="fill:none;stroke:#ffffff;stroke-width:1;stroke-linecap:butt;stroke-linejoin:miter;stroke-miterlimit:4;stroke-dasharray:2, 2;stroke-dashoffset:0;stroke-opacity:1"
             id="path358"
             inkscape:connector-curvature="0" /></g></g></g><g
       transform="translate(0,124.8)"
       id="g380"><g
         id="g382"
         clip-path="url(#clipPath384)"><g
           id="g388"
           transform="matrix(1,0,0,-1,478.4605,501.0044)"><path
             d="m -0.4605408,0.504364 136.0000408,0"
             style="fill:none;stroke:#ffffff;stroke-width:1;stroke-linecap:butt;stroke-linejoin:miter;stroke-miterlimit:4;stroke-dasharray:6, 6;stroke-dashoffset:0;stroke-opacity:1"
             id="path390"
             inkscape:connector-curvature="0" /></g><g
           id="g392"
           transform="matrix(1,0,0,-1,416.7292,564.6652)"><path
             d="M 0,0.7586454 C 4.834166,4.978508 10.78424,7.216846 16.88177,7.109337 23.0596,7.000413 29.01792,4.491214 33.76353,0"
             style="fill:none;stroke:#ffffff;stroke-width:1;stroke-linecap:butt;stroke-linejoin:miter;stroke-miterlimit:4;stroke-dasharray:2, 2;stroke-dashoffset:0;stroke-opacity:1"
             id="path394"
             inkscape:connector-curvature="0" /></g><g
           id="g396"
           transform="matrix(1,0,0,-1,453.5957,564.5283)"><path
             d="m 0.4042969,0.02832031 161.0000031,0"
             style="fill:none;stroke:#ffffff;stroke-width:1;stroke-linecap:butt;stroke-linejoin:miter;stroke-miterlimit:4;stroke-dasharray:6, 6;stroke-dashoffset:0;stroke-opacity:1"
             id="path398"
             inkscape:connector-curvature="0" /></g></g></g></g></svg>